G04 EAGLE Gerber RS-274X export*
G75*
%MOMM*%
%FSLAX34Y34*%
%LPD*%
%INBottom Copper*%
%IPPOS*%
%AMOC8*
5,1,8,0,0,1.08239X$1,22.5*%
G01*
%ADD10C,1.879600*%
%ADD11C,1.879600*%
%ADD12C,0.304800*%
%ADD13C,0.762000*%

G36*
X208370Y5095D02*
X208370Y5095D01*
X208496Y5102D01*
X208543Y5115D01*
X208591Y5121D01*
X208710Y5163D01*
X208831Y5198D01*
X208873Y5222D01*
X208919Y5238D01*
X209025Y5307D01*
X209135Y5368D01*
X209182Y5408D01*
X209212Y5427D01*
X209245Y5462D01*
X209322Y5527D01*
X215453Y11658D01*
X215521Y11744D01*
X215547Y11771D01*
X215553Y11781D01*
X215616Y11851D01*
X215640Y11894D01*
X215670Y11931D01*
X215724Y12046D01*
X215785Y12156D01*
X215798Y12203D01*
X215819Y12246D01*
X215845Y12370D01*
X215880Y12492D01*
X215885Y12552D01*
X215892Y12587D01*
X215891Y12635D01*
X215899Y12735D01*
X215899Y353025D01*
X215885Y353150D01*
X215878Y353276D01*
X215865Y353323D01*
X215859Y353371D01*
X215817Y353490D01*
X215782Y353611D01*
X215758Y353653D01*
X215742Y353699D01*
X215673Y353805D01*
X215612Y353915D01*
X215572Y353962D01*
X215553Y353992D01*
X215518Y354025D01*
X215453Y354102D01*
X209322Y360233D01*
X209223Y360312D01*
X209129Y360396D01*
X209086Y360420D01*
X209049Y360450D01*
X208934Y360504D01*
X208824Y360565D01*
X208777Y360578D01*
X208734Y360599D01*
X208610Y360625D01*
X208488Y360660D01*
X208428Y360665D01*
X208393Y360672D01*
X208345Y360671D01*
X208245Y360679D01*
X12735Y360679D01*
X12610Y360665D01*
X12484Y360658D01*
X12437Y360645D01*
X12389Y360639D01*
X12270Y360597D01*
X12149Y360562D01*
X12107Y360538D01*
X12061Y360522D01*
X11955Y360453D01*
X11845Y360392D01*
X11798Y360352D01*
X11768Y360333D01*
X11735Y360298D01*
X11658Y360233D01*
X5527Y354102D01*
X5448Y354003D01*
X5364Y353909D01*
X5340Y353866D01*
X5310Y353829D01*
X5256Y353714D01*
X5195Y353604D01*
X5182Y353557D01*
X5161Y353514D01*
X5135Y353390D01*
X5100Y353268D01*
X5095Y353208D01*
X5088Y353173D01*
X5089Y353125D01*
X5081Y353025D01*
X5081Y12735D01*
X5095Y12610D01*
X5102Y12484D01*
X5115Y12437D01*
X5121Y12389D01*
X5163Y12270D01*
X5198Y12149D01*
X5222Y12107D01*
X5238Y12061D01*
X5307Y11955D01*
X5368Y11845D01*
X5408Y11798D01*
X5427Y11768D01*
X5462Y11735D01*
X5498Y11693D01*
X5499Y11690D01*
X5501Y11688D01*
X5527Y11658D01*
X11658Y5527D01*
X11757Y5448D01*
X11851Y5364D01*
X11894Y5340D01*
X11931Y5310D01*
X12046Y5256D01*
X12156Y5195D01*
X12203Y5182D01*
X12246Y5161D01*
X12370Y5135D01*
X12492Y5100D01*
X12552Y5095D01*
X12587Y5088D01*
X12635Y5089D01*
X12735Y5081D01*
X208245Y5081D01*
X208370Y5095D01*
G37*
%LPC*%
G36*
X34200Y51755D02*
X34200Y51755D01*
X34177Y51769D01*
X34158Y51786D01*
X34028Y51858D01*
X33901Y51934D01*
X33876Y51942D01*
X33853Y51955D01*
X33710Y51995D01*
X33569Y52040D01*
X33543Y52042D01*
X33518Y52050D01*
X33274Y52069D01*
X13207Y52069D01*
X13247Y52326D01*
X13828Y54113D01*
X14681Y55787D01*
X15786Y57308D01*
X17114Y58636D01*
X18635Y59741D01*
X20309Y60594D01*
X22096Y61175D01*
X22159Y61185D01*
X22261Y61213D01*
X22364Y61232D01*
X22428Y61260D01*
X22495Y61278D01*
X22587Y61329D01*
X22684Y61371D01*
X22740Y61412D01*
X22801Y61446D01*
X22879Y61516D01*
X22963Y61579D01*
X23008Y61632D01*
X23060Y61678D01*
X23121Y61764D01*
X23189Y61845D01*
X23220Y61907D01*
X23260Y61964D01*
X23299Y62061D01*
X23347Y62155D01*
X23364Y62222D01*
X23390Y62287D01*
X23406Y62391D01*
X23432Y62493D01*
X23433Y62563D01*
X23443Y62631D01*
X23435Y62736D01*
X23437Y62842D01*
X23422Y62910D01*
X23416Y62979D01*
X23385Y63079D01*
X23362Y63182D01*
X23332Y63245D01*
X23311Y63311D01*
X23258Y63402D01*
X23213Y63497D01*
X23169Y63551D01*
X23134Y63611D01*
X23061Y63687D01*
X22995Y63769D01*
X22941Y63812D01*
X22892Y63863D01*
X22804Y63920D01*
X22722Y63985D01*
X22639Y64027D01*
X22600Y64053D01*
X22564Y64066D01*
X22504Y64097D01*
X18705Y65670D01*
X15632Y68743D01*
X13969Y72757D01*
X13969Y77103D01*
X15632Y81117D01*
X18705Y84190D01*
X22719Y85853D01*
X45861Y85853D01*
X49875Y84190D01*
X52948Y81117D01*
X54611Y77103D01*
X54611Y72757D01*
X52948Y68743D01*
X49875Y65670D01*
X46076Y64097D01*
X45984Y64045D01*
X45888Y64003D01*
X45832Y63961D01*
X45772Y63927D01*
X45694Y63856D01*
X45610Y63793D01*
X45565Y63740D01*
X45513Y63693D01*
X45453Y63606D01*
X45386Y63526D01*
X45355Y63464D01*
X45315Y63406D01*
X45277Y63308D01*
X45229Y63215D01*
X45213Y63147D01*
X45187Y63082D01*
X45172Y62978D01*
X45147Y62876D01*
X45147Y62806D01*
X45137Y62737D01*
X45145Y62632D01*
X45144Y62527D01*
X45160Y62459D01*
X45165Y62390D01*
X45198Y62290D01*
X45221Y62187D01*
X45251Y62125D01*
X45273Y62058D01*
X45327Y61968D01*
X45373Y61874D01*
X45416Y61819D01*
X45452Y61760D01*
X45526Y61684D01*
X45592Y61603D01*
X45646Y61560D01*
X45695Y61510D01*
X45784Y61453D01*
X45867Y61388D01*
X45930Y61359D01*
X45988Y61322D01*
X46087Y61286D01*
X46183Y61242D01*
X46273Y61220D01*
X46317Y61205D01*
X46355Y61201D01*
X46421Y61185D01*
X46484Y61175D01*
X48271Y60594D01*
X49945Y59741D01*
X51466Y58636D01*
X52794Y57308D01*
X53899Y55787D01*
X54752Y54113D01*
X55333Y52326D01*
X55373Y52069D01*
X35306Y52069D01*
X35280Y52066D01*
X35254Y52068D01*
X35107Y52046D01*
X34960Y52029D01*
X34935Y52021D01*
X34909Y52017D01*
X34772Y51962D01*
X34632Y51912D01*
X34610Y51898D01*
X34585Y51888D01*
X34464Y51803D01*
X34339Y51723D01*
X34321Y51704D01*
X34299Y51689D01*
X34285Y51673D01*
X34200Y51755D01*
G37*
%LPD*%
%LPC*%
G36*
X22719Y13207D02*
X22719Y13207D01*
X18705Y14870D01*
X15632Y17943D01*
X13969Y21957D01*
X13969Y26303D01*
X15632Y30317D01*
X18705Y33390D01*
X22504Y34963D01*
X22596Y35015D01*
X22692Y35057D01*
X22748Y35099D01*
X22808Y35133D01*
X22886Y35204D01*
X22970Y35267D01*
X23015Y35320D01*
X23067Y35367D01*
X23127Y35454D01*
X23194Y35534D01*
X23225Y35596D01*
X23265Y35654D01*
X23303Y35752D01*
X23351Y35845D01*
X23367Y35913D01*
X23393Y35978D01*
X23408Y36082D01*
X23433Y36184D01*
X23433Y36254D01*
X23443Y36323D01*
X23435Y36428D01*
X23436Y36533D01*
X23420Y36601D01*
X23415Y36670D01*
X23382Y36770D01*
X23359Y36873D01*
X23329Y36935D01*
X23307Y37002D01*
X23253Y37092D01*
X23207Y37186D01*
X23164Y37241D01*
X23128Y37300D01*
X23054Y37376D01*
X22988Y37457D01*
X22934Y37500D01*
X22885Y37550D01*
X22796Y37607D01*
X22713Y37672D01*
X22650Y37701D01*
X22592Y37738D01*
X22493Y37774D01*
X22397Y37818D01*
X22307Y37840D01*
X22263Y37855D01*
X22225Y37859D01*
X22159Y37875D01*
X22096Y37885D01*
X20309Y38466D01*
X18635Y39319D01*
X17114Y40424D01*
X15786Y41752D01*
X14681Y43273D01*
X13828Y44947D01*
X13247Y46734D01*
X13207Y46991D01*
X33274Y46991D01*
X33300Y46994D01*
X33326Y46992D01*
X33473Y47014D01*
X33620Y47031D01*
X33645Y47039D01*
X33671Y47043D01*
X33808Y47098D01*
X33948Y47148D01*
X33970Y47162D01*
X33995Y47172D01*
X34116Y47257D01*
X34241Y47337D01*
X34259Y47356D01*
X34281Y47371D01*
X34295Y47387D01*
X34380Y47305D01*
X34403Y47291D01*
X34422Y47274D01*
X34552Y47202D01*
X34679Y47126D01*
X34704Y47118D01*
X34727Y47105D01*
X34870Y47065D01*
X35011Y47020D01*
X35037Y47017D01*
X35062Y47010D01*
X35306Y46991D01*
X55373Y46991D01*
X55333Y46734D01*
X54752Y44947D01*
X53899Y43273D01*
X52794Y41752D01*
X51466Y40424D01*
X49945Y39319D01*
X48271Y38466D01*
X46484Y37885D01*
X46421Y37875D01*
X46319Y37847D01*
X46216Y37828D01*
X46152Y37800D01*
X46085Y37782D01*
X45993Y37731D01*
X45896Y37689D01*
X45840Y37648D01*
X45779Y37614D01*
X45701Y37544D01*
X45617Y37481D01*
X45572Y37428D01*
X45520Y37382D01*
X45459Y37296D01*
X45391Y37215D01*
X45360Y37153D01*
X45320Y37096D01*
X45281Y36999D01*
X45233Y36905D01*
X45216Y36838D01*
X45190Y36773D01*
X45174Y36669D01*
X45148Y36567D01*
X45147Y36497D01*
X45137Y36429D01*
X45145Y36324D01*
X45143Y36218D01*
X45158Y36150D01*
X45164Y36081D01*
X45195Y35981D01*
X45218Y35878D01*
X45248Y35815D01*
X45269Y35749D01*
X45322Y35658D01*
X45367Y35563D01*
X45411Y35509D01*
X45446Y35449D01*
X45519Y35373D01*
X45585Y35291D01*
X45639Y35248D01*
X45688Y35197D01*
X45776Y35140D01*
X45858Y35075D01*
X45941Y35033D01*
X45980Y35007D01*
X46016Y34994D01*
X46076Y34963D01*
X49875Y33390D01*
X52948Y30317D01*
X54611Y26303D01*
X54611Y21957D01*
X52948Y17943D01*
X49875Y14870D01*
X45861Y13207D01*
X22719Y13207D01*
G37*
%LPD*%
%LPC*%
G36*
X22719Y140207D02*
X22719Y140207D01*
X18705Y141870D01*
X15632Y144943D01*
X13969Y148957D01*
X13969Y153303D01*
X15632Y157317D01*
X18705Y160390D01*
X22719Y162053D01*
X45861Y162053D01*
X49875Y160390D01*
X52948Y157317D01*
X54611Y153303D01*
X54611Y148957D01*
X52948Y144943D01*
X49875Y141870D01*
X45861Y140207D01*
X22719Y140207D01*
G37*
%LPD*%
%LPC*%
G36*
X22719Y114807D02*
X22719Y114807D01*
X18705Y116470D01*
X15632Y119543D01*
X13969Y123557D01*
X13969Y127903D01*
X15632Y131917D01*
X18705Y134990D01*
X22719Y136653D01*
X45861Y136653D01*
X49875Y134990D01*
X52948Y131917D01*
X54611Y127903D01*
X54611Y123557D01*
X52948Y119543D01*
X49875Y116470D01*
X45861Y114807D01*
X22719Y114807D01*
G37*
%LPD*%
%LPC*%
G36*
X175119Y38607D02*
X175119Y38607D01*
X171105Y40270D01*
X168032Y43343D01*
X166369Y47357D01*
X166369Y51703D01*
X168032Y55717D01*
X171105Y58790D01*
X175119Y60453D01*
X198261Y60453D01*
X202275Y58790D01*
X205348Y55717D01*
X207011Y51703D01*
X207011Y47357D01*
X205348Y43343D01*
X202275Y40270D01*
X198261Y38607D01*
X175119Y38607D01*
G37*
%LPD*%
%LPC*%
G36*
X175119Y64007D02*
X175119Y64007D01*
X171105Y65670D01*
X168032Y68743D01*
X166369Y72757D01*
X166369Y77103D01*
X168032Y81117D01*
X171105Y84190D01*
X175119Y85853D01*
X198261Y85853D01*
X202275Y84190D01*
X205348Y81117D01*
X207011Y77103D01*
X207011Y72757D01*
X205348Y68743D01*
X202275Y65670D01*
X198261Y64007D01*
X175119Y64007D01*
G37*
%LPD*%
%LPC*%
G36*
X175119Y165607D02*
X175119Y165607D01*
X171105Y167270D01*
X168032Y170343D01*
X166369Y174357D01*
X166369Y178703D01*
X168032Y182717D01*
X171105Y185790D01*
X175119Y187453D01*
X198261Y187453D01*
X202275Y185790D01*
X205348Y182717D01*
X207011Y178703D01*
X207011Y174357D01*
X205348Y170343D01*
X202275Y167270D01*
X198261Y165607D01*
X175119Y165607D01*
G37*
%LPD*%
%LPC*%
G36*
X22719Y165607D02*
X22719Y165607D01*
X18705Y167270D01*
X15632Y170343D01*
X13969Y174357D01*
X13969Y178703D01*
X15632Y182717D01*
X18705Y185790D01*
X22719Y187453D01*
X45861Y187453D01*
X49875Y185790D01*
X52948Y182717D01*
X54611Y178703D01*
X54611Y174357D01*
X52948Y170343D01*
X49875Y167270D01*
X45861Y165607D01*
X22719Y165607D01*
G37*
%LPD*%
%LPC*%
G36*
X175119Y140207D02*
X175119Y140207D01*
X171105Y141870D01*
X168032Y144943D01*
X166369Y148957D01*
X166369Y153303D01*
X168032Y157317D01*
X171105Y160390D01*
X175119Y162053D01*
X198261Y162053D01*
X202275Y160390D01*
X205348Y157317D01*
X207011Y153303D01*
X207011Y148957D01*
X205348Y144943D01*
X202275Y141870D01*
X198261Y140207D01*
X175119Y140207D01*
G37*
%LPD*%
%LPC*%
G36*
X22719Y89407D02*
X22719Y89407D01*
X18705Y91070D01*
X15632Y94143D01*
X13969Y98157D01*
X13969Y102503D01*
X15632Y106517D01*
X18705Y109590D01*
X22719Y111253D01*
X45861Y111253D01*
X49875Y109590D01*
X52948Y106517D01*
X54611Y102503D01*
X54611Y98157D01*
X52948Y94143D01*
X49875Y91070D01*
X45861Y89407D01*
X22719Y89407D01*
G37*
%LPD*%
%LPC*%
G36*
X175119Y114807D02*
X175119Y114807D01*
X171105Y116470D01*
X168032Y119543D01*
X166369Y123557D01*
X166369Y127903D01*
X168032Y131917D01*
X171105Y134990D01*
X175119Y136653D01*
X198261Y136653D01*
X202275Y134990D01*
X205348Y131917D01*
X207011Y127903D01*
X207011Y123557D01*
X205348Y119543D01*
X202275Y116470D01*
X198261Y114807D01*
X175119Y114807D01*
G37*
%LPD*%
%LPC*%
G36*
X175119Y13207D02*
X175119Y13207D01*
X171105Y14870D01*
X168032Y17943D01*
X166369Y21957D01*
X166369Y26303D01*
X168032Y30317D01*
X171105Y33390D01*
X175119Y35053D01*
X198261Y35053D01*
X202275Y33390D01*
X205348Y30317D01*
X207011Y26303D01*
X207011Y21957D01*
X205348Y17943D01*
X202275Y14870D01*
X198261Y13207D01*
X175119Y13207D01*
G37*
%LPD*%
%LPC*%
G36*
X175119Y89407D02*
X175119Y89407D01*
X171105Y91070D01*
X168032Y94143D01*
X166369Y98157D01*
X166369Y102503D01*
X168032Y106517D01*
X171105Y109590D01*
X175119Y111253D01*
X198261Y111253D01*
X202275Y109590D01*
X205348Y106517D01*
X207011Y102503D01*
X207011Y98157D01*
X205348Y94143D01*
X202275Y91070D01*
X198261Y89407D01*
X175119Y89407D01*
G37*
%LPD*%
%LPC*%
G36*
X132289Y211835D02*
X132289Y211835D01*
X130328Y212647D01*
X128827Y214148D01*
X128015Y216109D01*
X128015Y218231D01*
X128827Y220192D01*
X130328Y221693D01*
X132289Y222505D01*
X133742Y222505D01*
X133868Y222519D01*
X133994Y222526D01*
X134040Y222539D01*
X134088Y222545D01*
X134207Y222587D01*
X134329Y222622D01*
X134371Y222646D01*
X134417Y222662D01*
X134523Y222731D01*
X134633Y222792D01*
X134679Y222832D01*
X134709Y222851D01*
X134743Y222886D01*
X134819Y222951D01*
X155255Y243387D01*
X155334Y243486D01*
X155418Y243580D01*
X155442Y243622D01*
X155472Y243660D01*
X155526Y243774D01*
X155587Y243885D01*
X155600Y243931D01*
X155621Y243975D01*
X155647Y244098D01*
X155682Y244220D01*
X155687Y244281D01*
X155694Y244315D01*
X155693Y244363D01*
X155701Y244464D01*
X155701Y273003D01*
X155687Y273129D01*
X155680Y273255D01*
X155667Y273302D01*
X155661Y273350D01*
X155619Y273469D01*
X155584Y273590D01*
X155560Y273632D01*
X155544Y273678D01*
X155475Y273784D01*
X155414Y273894D01*
X155374Y273940D01*
X155355Y273970D01*
X155320Y274004D01*
X155255Y274080D01*
X154227Y275108D01*
X153415Y277069D01*
X153415Y279191D01*
X154227Y281152D01*
X155728Y282653D01*
X157689Y283465D01*
X159811Y283465D01*
X161772Y282653D01*
X163273Y281152D01*
X164085Y279191D01*
X164085Y277069D01*
X163273Y275108D01*
X162245Y274080D01*
X162166Y273981D01*
X162082Y273888D01*
X162058Y273845D01*
X162028Y273807D01*
X161974Y273693D01*
X161913Y273583D01*
X161900Y273536D01*
X161879Y273492D01*
X161853Y273369D01*
X161818Y273247D01*
X161813Y273186D01*
X161806Y273152D01*
X161807Y273104D01*
X161799Y273003D01*
X161799Y241307D01*
X159567Y239075D01*
X139131Y218639D01*
X139052Y218540D01*
X138968Y218446D01*
X138944Y218404D01*
X138914Y218366D01*
X138860Y218252D01*
X138799Y218141D01*
X138786Y218095D01*
X138765Y218051D01*
X138739Y217928D01*
X138704Y217806D01*
X138699Y217745D01*
X138692Y217711D01*
X138693Y217663D01*
X138685Y217562D01*
X138685Y216109D01*
X137873Y214148D01*
X136372Y212647D01*
X134411Y211835D01*
X132289Y211835D01*
G37*
%LPD*%
%LPC*%
G36*
X74929Y319024D02*
X74929Y319024D01*
X74926Y319050D01*
X74928Y319076D01*
X74906Y319223D01*
X74889Y319370D01*
X74881Y319395D01*
X74877Y319421D01*
X74822Y319558D01*
X74772Y319698D01*
X74758Y319720D01*
X74748Y319745D01*
X74663Y319866D01*
X74583Y319991D01*
X74564Y320009D01*
X74549Y320031D01*
X74533Y320045D01*
X74615Y320130D01*
X74629Y320153D01*
X74646Y320172D01*
X74718Y320302D01*
X74794Y320429D01*
X74802Y320454D01*
X74815Y320477D01*
X74855Y320620D01*
X74900Y320761D01*
X74902Y320787D01*
X74910Y320812D01*
X74929Y321056D01*
X74929Y331725D01*
X75186Y331685D01*
X76973Y331104D01*
X78647Y330251D01*
X80168Y329146D01*
X81496Y327818D01*
X82601Y326297D01*
X83454Y324623D01*
X84035Y322836D01*
X84045Y322773D01*
X84073Y322671D01*
X84092Y322568D01*
X84120Y322504D01*
X84138Y322437D01*
X84189Y322345D01*
X84231Y322248D01*
X84272Y322192D01*
X84306Y322131D01*
X84376Y322053D01*
X84439Y321969D01*
X84492Y321924D01*
X84538Y321872D01*
X84624Y321811D01*
X84705Y321743D01*
X84767Y321712D01*
X84824Y321672D01*
X84921Y321633D01*
X85015Y321585D01*
X85082Y321568D01*
X85147Y321542D01*
X85251Y321526D01*
X85353Y321500D01*
X85423Y321499D01*
X85491Y321489D01*
X85596Y321497D01*
X85702Y321495D01*
X85770Y321510D01*
X85839Y321516D01*
X85939Y321547D01*
X86042Y321570D01*
X86105Y321600D01*
X86171Y321621D01*
X86262Y321674D01*
X86357Y321719D01*
X86411Y321763D01*
X86471Y321798D01*
X86547Y321871D01*
X86629Y321937D01*
X86672Y321991D01*
X86723Y322040D01*
X86780Y322128D01*
X86845Y322210D01*
X86887Y322293D01*
X86913Y322332D01*
X86926Y322368D01*
X86957Y322428D01*
X88530Y326227D01*
X91603Y329300D01*
X95617Y330963D01*
X99963Y330963D01*
X103977Y329300D01*
X107050Y326227D01*
X108713Y322213D01*
X108713Y317867D01*
X107050Y313853D01*
X103977Y310780D01*
X99963Y309117D01*
X95617Y309117D01*
X91603Y310780D01*
X88530Y313853D01*
X86957Y317652D01*
X86905Y317744D01*
X86863Y317840D01*
X86821Y317896D01*
X86787Y317956D01*
X86716Y318034D01*
X86653Y318118D01*
X86600Y318163D01*
X86553Y318215D01*
X86466Y318275D01*
X86386Y318342D01*
X86324Y318373D01*
X86266Y318413D01*
X86168Y318451D01*
X86075Y318499D01*
X86007Y318515D01*
X85942Y318541D01*
X85838Y318556D01*
X85736Y318581D01*
X85666Y318581D01*
X85597Y318591D01*
X85492Y318583D01*
X85387Y318584D01*
X85319Y318568D01*
X85250Y318563D01*
X85150Y318530D01*
X85047Y318507D01*
X84985Y318477D01*
X84918Y318455D01*
X84828Y318401D01*
X84734Y318355D01*
X84679Y318312D01*
X84620Y318276D01*
X84544Y318202D01*
X84463Y318136D01*
X84420Y318082D01*
X84370Y318033D01*
X84313Y317944D01*
X84248Y317861D01*
X84219Y317798D01*
X84182Y317740D01*
X84146Y317641D01*
X84102Y317545D01*
X84080Y317455D01*
X84065Y317411D01*
X84061Y317373D01*
X84045Y317307D01*
X84035Y317244D01*
X83454Y315457D01*
X82601Y313783D01*
X81496Y312262D01*
X80168Y310934D01*
X78647Y309829D01*
X76973Y308976D01*
X75186Y308395D01*
X74929Y308355D01*
X74929Y319024D01*
G37*
%LPD*%
%LPC*%
G36*
X69594Y308395D02*
X69594Y308395D01*
X67807Y308976D01*
X66133Y309829D01*
X64612Y310934D01*
X63284Y312262D01*
X62179Y313783D01*
X61326Y315457D01*
X60745Y317244D01*
X60735Y317307D01*
X60707Y317409D01*
X60688Y317512D01*
X60660Y317576D01*
X60642Y317643D01*
X60591Y317735D01*
X60549Y317832D01*
X60508Y317888D01*
X60474Y317949D01*
X60404Y318027D01*
X60341Y318111D01*
X60288Y318156D01*
X60242Y318208D01*
X60156Y318269D01*
X60075Y318337D01*
X60013Y318368D01*
X59956Y318408D01*
X59859Y318447D01*
X59765Y318495D01*
X59698Y318512D01*
X59633Y318538D01*
X59529Y318554D01*
X59427Y318580D01*
X59357Y318581D01*
X59289Y318591D01*
X59184Y318583D01*
X59078Y318585D01*
X59010Y318570D01*
X58941Y318564D01*
X58841Y318533D01*
X58738Y318510D01*
X58675Y318480D01*
X58609Y318459D01*
X58518Y318406D01*
X58423Y318361D01*
X58369Y318317D01*
X58309Y318282D01*
X58233Y318209D01*
X58151Y318143D01*
X58108Y318089D01*
X58057Y318040D01*
X58000Y317952D01*
X57935Y317870D01*
X57893Y317787D01*
X57867Y317748D01*
X57854Y317712D01*
X57823Y317652D01*
X56250Y313853D01*
X53177Y310780D01*
X49163Y309117D01*
X44817Y309117D01*
X40803Y310780D01*
X37730Y313853D01*
X36067Y317867D01*
X36067Y322213D01*
X37730Y326227D01*
X40803Y329300D01*
X44817Y330963D01*
X49163Y330963D01*
X53177Y329300D01*
X56250Y326227D01*
X57823Y322428D01*
X57875Y322336D01*
X57917Y322240D01*
X57959Y322184D01*
X57993Y322124D01*
X58064Y322046D01*
X58127Y321962D01*
X58180Y321917D01*
X58227Y321865D01*
X58314Y321805D01*
X58394Y321738D01*
X58456Y321707D01*
X58514Y321667D01*
X58612Y321629D01*
X58705Y321581D01*
X58773Y321565D01*
X58838Y321539D01*
X58942Y321524D01*
X59044Y321499D01*
X59114Y321499D01*
X59183Y321489D01*
X59288Y321497D01*
X59393Y321496D01*
X59461Y321512D01*
X59530Y321517D01*
X59630Y321550D01*
X59733Y321573D01*
X59795Y321603D01*
X59862Y321625D01*
X59952Y321679D01*
X60046Y321725D01*
X60101Y321768D01*
X60160Y321804D01*
X60236Y321878D01*
X60317Y321944D01*
X60360Y321998D01*
X60410Y322047D01*
X60467Y322136D01*
X60532Y322219D01*
X60561Y322282D01*
X60598Y322340D01*
X60634Y322439D01*
X60678Y322535D01*
X60700Y322625D01*
X60715Y322669D01*
X60719Y322707D01*
X60735Y322773D01*
X60745Y322836D01*
X61326Y324623D01*
X62179Y326297D01*
X63284Y327818D01*
X64612Y329146D01*
X66133Y330251D01*
X67807Y331104D01*
X69594Y331685D01*
X69851Y331725D01*
X69851Y321056D01*
X69854Y321030D01*
X69852Y321004D01*
X69874Y320857D01*
X69891Y320710D01*
X69899Y320685D01*
X69903Y320659D01*
X69958Y320522D01*
X70008Y320382D01*
X70022Y320360D01*
X70032Y320335D01*
X70117Y320214D01*
X70197Y320089D01*
X70216Y320071D01*
X70231Y320049D01*
X70247Y320035D01*
X70165Y319950D01*
X70151Y319927D01*
X70134Y319908D01*
X70062Y319778D01*
X69986Y319651D01*
X69978Y319626D01*
X69965Y319603D01*
X69925Y319460D01*
X69880Y319319D01*
X69877Y319293D01*
X69870Y319268D01*
X69851Y319024D01*
X69851Y308355D01*
X69594Y308395D01*
G37*
%LPD*%
%LPC*%
G36*
X146417Y309117D02*
X146417Y309117D01*
X142403Y310780D01*
X139330Y313853D01*
X137667Y317867D01*
X137667Y322213D01*
X139330Y326227D01*
X142403Y329300D01*
X146417Y330963D01*
X150763Y330963D01*
X154777Y329300D01*
X157850Y326227D01*
X159513Y322213D01*
X159513Y317867D01*
X157850Y313853D01*
X154777Y310780D01*
X150763Y309117D01*
X146417Y309117D01*
G37*
%LPD*%
%LPC*%
G36*
X171817Y309117D02*
X171817Y309117D01*
X167803Y310780D01*
X164730Y313853D01*
X163067Y317867D01*
X163067Y322213D01*
X164730Y326227D01*
X167803Y329300D01*
X171817Y330963D01*
X176163Y330963D01*
X180177Y329300D01*
X183250Y326227D01*
X184913Y322213D01*
X184913Y317867D01*
X183250Y313853D01*
X180177Y310780D01*
X176163Y309117D01*
X171817Y309117D01*
G37*
%LPD*%
%LPC*%
G36*
X121017Y309117D02*
X121017Y309117D01*
X117003Y310780D01*
X113930Y313853D01*
X112267Y317867D01*
X112267Y322213D01*
X113930Y326227D01*
X117003Y329300D01*
X121017Y330963D01*
X125363Y330963D01*
X129377Y329300D01*
X132450Y326227D01*
X134113Y322213D01*
X134113Y317867D01*
X132450Y313853D01*
X129377Y310780D01*
X125363Y309117D01*
X121017Y309117D01*
G37*
%LPD*%
D10*
X177292Y176530D02*
X196088Y176530D01*
X196088Y151130D02*
X177292Y151130D01*
X177292Y125730D02*
X196088Y125730D01*
X196088Y100330D02*
X177292Y100330D01*
X177292Y74930D02*
X196088Y74930D01*
X196088Y49530D02*
X177292Y49530D01*
X177292Y24130D02*
X196088Y24130D01*
X43688Y176530D02*
X24892Y176530D01*
X24892Y151130D02*
X43688Y151130D01*
X43688Y125730D02*
X24892Y125730D01*
X24892Y100330D02*
X43688Y100330D01*
X43688Y74930D02*
X24892Y74930D01*
X24892Y49530D02*
X43688Y49530D01*
X43688Y24130D02*
X24892Y24130D01*
D11*
X46990Y320040D03*
X72390Y320040D03*
X97790Y320040D03*
X123190Y320040D03*
X148590Y320040D03*
X173990Y320040D03*
D12*
X72390Y320040D02*
X72390Y280670D01*
X72390Y243840D01*
X72390Y204470D02*
X72390Y69850D01*
X72390Y204470D02*
X72390Y243840D01*
X52070Y49530D02*
X34290Y49530D01*
X52070Y49530D02*
X72390Y69850D01*
X72390Y243840D02*
X58420Y243840D01*
D13*
X58420Y243840D03*
D12*
X72390Y243840D02*
X121920Y243840D01*
D13*
X121920Y243840D03*
X72390Y280670D03*
X72390Y204470D03*
X88900Y204470D03*
D12*
X72390Y204470D01*
X121920Y243840D02*
X127000Y248920D01*
X127000Y269240D02*
X129540Y271780D01*
D13*
X129540Y271780D03*
D12*
X127000Y269240D02*
X127000Y248920D01*
D13*
X133350Y217170D03*
D12*
X158750Y242570D01*
X158750Y278130D01*
D13*
X158750Y278130D03*
M02*
