G04 EAGLE Gerber RS-274X export*
G75*
%MOMM*%
%FSLAX34Y34*%
%LPD*%
%INBottom Copper*%
%IPPOS*%
%AMOC8*
5,1,8,0,0,1.08239X$1,22.5*%
G01*
%ADD10C,1.408000*%
%ADD11C,1.500000*%
%ADD12C,1.879600*%
%ADD13C,0.304800*%
%ADD14C,0.762000*%
%ADD15C,0.152400*%

G36*
X186620Y5095D02*
X186620Y5095D01*
X186746Y5102D01*
X186793Y5115D01*
X186841Y5121D01*
X186960Y5163D01*
X187081Y5198D01*
X187123Y5222D01*
X187169Y5238D01*
X187275Y5307D01*
X187385Y5368D01*
X187432Y5408D01*
X187462Y5427D01*
X187495Y5462D01*
X187572Y5527D01*
X190053Y8008D01*
X190132Y8107D01*
X190216Y8201D01*
X190240Y8244D01*
X190270Y8281D01*
X190324Y8396D01*
X190385Y8506D01*
X190398Y8553D01*
X190419Y8596D01*
X190445Y8720D01*
X190480Y8842D01*
X190485Y8902D01*
X190492Y8937D01*
X190491Y8985D01*
X190499Y9085D01*
X190499Y352865D01*
X190485Y352990D01*
X190478Y353116D01*
X190465Y353163D01*
X190459Y353211D01*
X190417Y353330D01*
X190382Y353451D01*
X190358Y353493D01*
X190342Y353539D01*
X190273Y353645D01*
X190212Y353755D01*
X190172Y353802D01*
X190153Y353832D01*
X190118Y353865D01*
X190053Y353942D01*
X187572Y356423D01*
X187473Y356502D01*
X187379Y356586D01*
X187336Y356610D01*
X187299Y356640D01*
X187184Y356694D01*
X187074Y356755D01*
X187027Y356768D01*
X186984Y356789D01*
X186860Y356815D01*
X186738Y356850D01*
X186678Y356855D01*
X186643Y356862D01*
X186595Y356861D01*
X186495Y356869D01*
X9085Y356869D01*
X8960Y356855D01*
X8834Y356848D01*
X8787Y356835D01*
X8739Y356829D01*
X8620Y356787D01*
X8499Y356752D01*
X8457Y356728D01*
X8411Y356712D01*
X8305Y356643D01*
X8195Y356582D01*
X8148Y356542D01*
X8118Y356523D01*
X8085Y356488D01*
X8008Y356423D01*
X5527Y353942D01*
X5448Y353843D01*
X5364Y353749D01*
X5340Y353706D01*
X5310Y353669D01*
X5256Y353554D01*
X5195Y353444D01*
X5182Y353397D01*
X5161Y353354D01*
X5135Y353230D01*
X5100Y353108D01*
X5095Y353048D01*
X5088Y353013D01*
X5089Y352965D01*
X5081Y352865D01*
X5081Y248020D01*
X5092Y247920D01*
X5094Y247820D01*
X5112Y247747D01*
X5121Y247674D01*
X5154Y247579D01*
X5179Y247482D01*
X5213Y247415D01*
X5238Y247345D01*
X5293Y247261D01*
X5339Y247172D01*
X5387Y247115D01*
X5427Y247053D01*
X5499Y246983D01*
X5564Y246906D01*
X5624Y246862D01*
X5678Y246810D01*
X5764Y246759D01*
X5845Y246699D01*
X5913Y246670D01*
X5977Y246632D01*
X6073Y246601D01*
X6165Y246561D01*
X6238Y246548D01*
X6309Y246525D01*
X6409Y246517D01*
X6508Y246500D01*
X6582Y246503D01*
X6656Y246497D01*
X6756Y246512D01*
X6856Y246517D01*
X6927Y246538D01*
X7001Y246549D01*
X7094Y246586D01*
X7191Y246614D01*
X7256Y246650D01*
X7325Y246678D01*
X7407Y246735D01*
X7495Y246784D01*
X7571Y246849D01*
X7611Y246877D01*
X7635Y246903D01*
X7681Y246943D01*
X55887Y295149D01*
X68023Y295149D01*
X68037Y295150D01*
X68059Y295149D01*
X69309Y295178D01*
X70195Y294293D01*
X70206Y294284D01*
X70220Y294268D01*
X80378Y284573D01*
X80425Y284538D01*
X80466Y284496D01*
X80563Y284433D01*
X80656Y284363D01*
X80710Y284339D01*
X80759Y284308D01*
X80868Y284269D01*
X80974Y284222D01*
X81032Y284211D01*
X81087Y284191D01*
X81203Y284178D01*
X81317Y284156D01*
X81375Y284159D01*
X81434Y284152D01*
X81549Y284166D01*
X81665Y284170D01*
X81722Y284186D01*
X81780Y284193D01*
X81979Y284257D01*
X82001Y284263D01*
X82005Y284266D01*
X82013Y284268D01*
X83086Y284713D01*
X86494Y284713D01*
X89642Y283409D01*
X92051Y281000D01*
X93355Y277852D01*
X93355Y274444D01*
X92051Y271296D01*
X89642Y268887D01*
X86494Y267583D01*
X83086Y267583D01*
X79938Y268887D01*
X77529Y271296D01*
X76225Y274444D01*
X76225Y277852D01*
X76496Y278504D01*
X76521Y278595D01*
X76557Y278682D01*
X76569Y278762D01*
X76591Y278839D01*
X76596Y278933D01*
X76610Y279026D01*
X76604Y279107D01*
X76608Y279188D01*
X76591Y279280D01*
X76584Y279374D01*
X76560Y279451D01*
X76546Y279530D01*
X76508Y279617D01*
X76480Y279707D01*
X76439Y279776D01*
X76407Y279850D01*
X76351Y279926D01*
X76303Y280007D01*
X76229Y280090D01*
X76199Y280130D01*
X76175Y280150D01*
X76140Y280189D01*
X73499Y282709D01*
X73473Y282729D01*
X73452Y282753D01*
X73335Y282834D01*
X73221Y282920D01*
X73192Y282933D01*
X73165Y282951D01*
X73033Y283004D01*
X72903Y283061D01*
X72871Y283067D01*
X72841Y283079D01*
X72700Y283100D01*
X72561Y283127D01*
X72528Y283125D01*
X72496Y283130D01*
X72354Y283118D01*
X72212Y283112D01*
X72181Y283104D01*
X72149Y283101D01*
X72013Y283057D01*
X71877Y283020D01*
X71848Y283004D01*
X71817Y282994D01*
X71695Y282921D01*
X71570Y282853D01*
X71546Y282831D01*
X71518Y282814D01*
X71417Y282716D01*
X71310Y282621D01*
X71292Y282594D01*
X71268Y282571D01*
X71192Y282452D01*
X71110Y282336D01*
X71098Y282306D01*
X71080Y282278D01*
X71032Y282144D01*
X70979Y282013D01*
X70974Y281981D01*
X70963Y281950D01*
X70948Y281808D01*
X70926Y281668D01*
X70928Y281636D01*
X70924Y281603D01*
X70941Y281462D01*
X70952Y281321D01*
X70961Y281290D01*
X70965Y281257D01*
X71040Y281025D01*
X72355Y277852D01*
X72355Y274444D01*
X71051Y271296D01*
X68642Y268887D01*
X65494Y267583D01*
X62086Y267583D01*
X58938Y268887D01*
X56529Y271296D01*
X55225Y274444D01*
X55225Y277852D01*
X56529Y281000D01*
X58938Y283409D01*
X62086Y284713D01*
X65494Y284713D01*
X68397Y283510D01*
X68462Y283492D01*
X68524Y283464D01*
X68629Y283444D01*
X68732Y283415D01*
X68800Y283411D01*
X68867Y283398D01*
X68973Y283403D01*
X69080Y283398D01*
X69147Y283410D01*
X69215Y283413D01*
X69318Y283441D01*
X69423Y283460D01*
X69485Y283487D01*
X69551Y283505D01*
X69645Y283557D01*
X69742Y283599D01*
X69797Y283640D01*
X69857Y283672D01*
X69936Y283743D01*
X70022Y283807D01*
X70066Y283859D01*
X70117Y283904D01*
X70178Y283991D01*
X70247Y284073D01*
X70278Y284134D01*
X70317Y284189D01*
X70357Y284288D01*
X70406Y284383D01*
X70422Y284449D01*
X70448Y284512D01*
X70464Y284618D01*
X70490Y284721D01*
X70491Y284790D01*
X70502Y284857D01*
X70494Y284963D01*
X70495Y285070D01*
X70481Y285137D01*
X70476Y285204D01*
X70444Y285306D01*
X70421Y285410D01*
X70392Y285472D01*
X70371Y285537D01*
X70317Y285629D01*
X70271Y285725D01*
X70229Y285778D01*
X70194Y285837D01*
X70079Y285966D01*
X70054Y285998D01*
X70044Y286005D01*
X70031Y286019D01*
X67296Y288630D01*
X67209Y288696D01*
X67129Y288768D01*
X67071Y288800D01*
X67018Y288840D01*
X66919Y288884D01*
X66824Y288937D01*
X66760Y288955D01*
X66700Y288982D01*
X66593Y289002D01*
X66488Y289032D01*
X66402Y289039D01*
X66357Y289047D01*
X66317Y289045D01*
X66244Y289051D01*
X59044Y289051D01*
X58918Y289037D01*
X58792Y289030D01*
X58746Y289017D01*
X58698Y289011D01*
X58579Y288969D01*
X58457Y288934D01*
X58415Y288910D01*
X58369Y288894D01*
X58263Y288825D01*
X58153Y288764D01*
X58107Y288724D01*
X58077Y288705D01*
X58043Y288670D01*
X57967Y288605D01*
X11115Y241753D01*
X11036Y241654D01*
X10952Y241560D01*
X10928Y241518D01*
X10898Y241480D01*
X10844Y241366D01*
X10783Y241255D01*
X10770Y241209D01*
X10749Y241165D01*
X10723Y241041D01*
X10688Y240920D01*
X10683Y240859D01*
X10676Y240824D01*
X10677Y240776D01*
X10669Y240676D01*
X10669Y184733D01*
X10680Y184633D01*
X10682Y184533D01*
X10700Y184461D01*
X10709Y184387D01*
X10742Y184293D01*
X10767Y184195D01*
X10801Y184129D01*
X10826Y184059D01*
X10881Y183975D01*
X10927Y183885D01*
X10975Y183829D01*
X11015Y183766D01*
X11087Y183696D01*
X11152Y183620D01*
X11212Y183576D01*
X11266Y183524D01*
X11352Y183472D01*
X11433Y183413D01*
X11501Y183383D01*
X11565Y183345D01*
X11661Y183314D01*
X11753Y183275D01*
X11826Y183262D01*
X11897Y183239D01*
X11997Y183231D01*
X12096Y183213D01*
X12170Y183217D01*
X12244Y183211D01*
X12344Y183226D01*
X12444Y183231D01*
X12515Y183252D01*
X12589Y183263D01*
X12682Y183300D01*
X12779Y183327D01*
X12844Y183364D01*
X12913Y183391D01*
X12995Y183449D01*
X13083Y183498D01*
X13159Y183563D01*
X13199Y183590D01*
X13223Y183617D01*
X13269Y183656D01*
X15403Y185790D01*
X19417Y187453D01*
X23763Y187453D01*
X27777Y185790D01*
X30850Y182717D01*
X32513Y178703D01*
X32513Y174357D01*
X30850Y170343D01*
X27777Y167270D01*
X23763Y165607D01*
X19417Y165607D01*
X15403Y167270D01*
X13269Y169404D01*
X13191Y169466D01*
X13118Y169536D01*
X13054Y169574D01*
X12996Y169620D01*
X12905Y169663D01*
X12819Y169715D01*
X12748Y169738D01*
X12681Y169769D01*
X12583Y169791D01*
X12487Y169821D01*
X12413Y169827D01*
X12340Y169843D01*
X12240Y169841D01*
X12140Y169849D01*
X12066Y169838D01*
X11992Y169837D01*
X11895Y169812D01*
X11795Y169797D01*
X11726Y169770D01*
X11654Y169752D01*
X11565Y169706D01*
X11471Y169669D01*
X11410Y169626D01*
X11344Y169592D01*
X11268Y169527D01*
X11185Y169470D01*
X11135Y169415D01*
X11079Y169366D01*
X11019Y169286D01*
X10952Y169211D01*
X10916Y169146D01*
X10871Y169086D01*
X10832Y168994D01*
X10783Y168906D01*
X10763Y168834D01*
X10733Y168766D01*
X10716Y168667D01*
X10688Y168571D01*
X10680Y168471D01*
X10672Y168423D01*
X10674Y168387D01*
X10669Y168327D01*
X10669Y159333D01*
X10680Y159233D01*
X10682Y159133D01*
X10700Y159061D01*
X10709Y158987D01*
X10742Y158893D01*
X10767Y158795D01*
X10801Y158729D01*
X10826Y158659D01*
X10881Y158575D01*
X10927Y158485D01*
X10975Y158429D01*
X11015Y158366D01*
X11087Y158296D01*
X11152Y158220D01*
X11212Y158176D01*
X11266Y158124D01*
X11352Y158072D01*
X11433Y158013D01*
X11501Y157983D01*
X11565Y157945D01*
X11661Y157914D01*
X11753Y157875D01*
X11826Y157862D01*
X11897Y157839D01*
X11997Y157831D01*
X12096Y157813D01*
X12170Y157817D01*
X12244Y157811D01*
X12344Y157826D01*
X12444Y157831D01*
X12515Y157852D01*
X12589Y157863D01*
X12682Y157900D01*
X12779Y157927D01*
X12844Y157964D01*
X12913Y157991D01*
X12995Y158049D01*
X13083Y158098D01*
X13159Y158163D01*
X13199Y158190D01*
X13223Y158217D01*
X13269Y158256D01*
X15403Y160390D01*
X19417Y162053D01*
X23763Y162053D01*
X27777Y160390D01*
X30850Y157317D01*
X32513Y153303D01*
X32513Y148957D01*
X30850Y144943D01*
X27777Y141870D01*
X23763Y140207D01*
X19417Y140207D01*
X15403Y141870D01*
X13269Y144004D01*
X13191Y144066D01*
X13118Y144136D01*
X13054Y144174D01*
X12996Y144220D01*
X12905Y144263D01*
X12819Y144315D01*
X12748Y144338D01*
X12681Y144369D01*
X12583Y144391D01*
X12487Y144421D01*
X12413Y144427D01*
X12340Y144443D01*
X12240Y144441D01*
X12140Y144449D01*
X12066Y144438D01*
X11992Y144437D01*
X11895Y144412D01*
X11795Y144397D01*
X11726Y144370D01*
X11654Y144352D01*
X11565Y144306D01*
X11471Y144269D01*
X11410Y144226D01*
X11344Y144192D01*
X11268Y144127D01*
X11185Y144070D01*
X11135Y144015D01*
X11079Y143966D01*
X11019Y143886D01*
X10952Y143811D01*
X10916Y143746D01*
X10871Y143686D01*
X10832Y143594D01*
X10783Y143506D01*
X10763Y143434D01*
X10733Y143366D01*
X10716Y143267D01*
X10688Y143171D01*
X10680Y143071D01*
X10672Y143023D01*
X10674Y142987D01*
X10669Y142927D01*
X10669Y133933D01*
X10680Y133833D01*
X10682Y133733D01*
X10700Y133661D01*
X10709Y133587D01*
X10742Y133493D01*
X10767Y133395D01*
X10801Y133329D01*
X10826Y133259D01*
X10881Y133175D01*
X10927Y133085D01*
X10975Y133029D01*
X11015Y132966D01*
X11087Y132896D01*
X11152Y132820D01*
X11212Y132776D01*
X11266Y132724D01*
X11352Y132672D01*
X11433Y132613D01*
X11501Y132583D01*
X11565Y132545D01*
X11661Y132514D01*
X11753Y132475D01*
X11826Y132462D01*
X11897Y132439D01*
X11997Y132431D01*
X12096Y132413D01*
X12170Y132417D01*
X12244Y132411D01*
X12344Y132426D01*
X12444Y132431D01*
X12515Y132452D01*
X12589Y132463D01*
X12682Y132500D01*
X12779Y132527D01*
X12844Y132564D01*
X12913Y132591D01*
X12995Y132649D01*
X13083Y132698D01*
X13159Y132763D01*
X13199Y132790D01*
X13223Y132817D01*
X13269Y132856D01*
X15403Y134990D01*
X19417Y136653D01*
X23763Y136653D01*
X27777Y134990D01*
X30850Y131917D01*
X32513Y127903D01*
X32513Y123557D01*
X30850Y119543D01*
X27777Y116470D01*
X23763Y114807D01*
X19417Y114807D01*
X15403Y116470D01*
X13269Y118604D01*
X13191Y118666D01*
X13118Y118736D01*
X13054Y118774D01*
X12996Y118820D01*
X12905Y118863D01*
X12819Y118915D01*
X12748Y118938D01*
X12681Y118969D01*
X12583Y118991D01*
X12487Y119021D01*
X12413Y119027D01*
X12340Y119043D01*
X12240Y119041D01*
X12140Y119049D01*
X12066Y119038D01*
X11992Y119037D01*
X11895Y119012D01*
X11795Y118997D01*
X11726Y118970D01*
X11654Y118952D01*
X11565Y118906D01*
X11471Y118869D01*
X11410Y118826D01*
X11344Y118792D01*
X11268Y118727D01*
X11185Y118670D01*
X11135Y118615D01*
X11079Y118566D01*
X11019Y118486D01*
X10952Y118411D01*
X10916Y118346D01*
X10871Y118286D01*
X10832Y118194D01*
X10783Y118106D01*
X10763Y118034D01*
X10733Y117966D01*
X10716Y117867D01*
X10688Y117771D01*
X10680Y117671D01*
X10672Y117623D01*
X10674Y117587D01*
X10669Y117527D01*
X10669Y108533D01*
X10680Y108433D01*
X10682Y108333D01*
X10700Y108261D01*
X10709Y108187D01*
X10742Y108093D01*
X10767Y107995D01*
X10801Y107929D01*
X10826Y107859D01*
X10881Y107775D01*
X10927Y107685D01*
X10975Y107629D01*
X11015Y107566D01*
X11087Y107496D01*
X11152Y107420D01*
X11212Y107376D01*
X11266Y107324D01*
X11352Y107272D01*
X11433Y107213D01*
X11501Y107183D01*
X11565Y107145D01*
X11661Y107114D01*
X11753Y107075D01*
X11826Y107062D01*
X11897Y107039D01*
X11997Y107031D01*
X12096Y107013D01*
X12170Y107017D01*
X12244Y107011D01*
X12344Y107026D01*
X12444Y107031D01*
X12515Y107052D01*
X12589Y107063D01*
X12682Y107100D01*
X12779Y107127D01*
X12844Y107164D01*
X12913Y107191D01*
X12995Y107249D01*
X13083Y107298D01*
X13159Y107363D01*
X13199Y107390D01*
X13223Y107417D01*
X13269Y107456D01*
X15403Y109590D01*
X19417Y111253D01*
X23763Y111253D01*
X27777Y109590D01*
X30850Y106517D01*
X32513Y102503D01*
X32513Y98157D01*
X30850Y94143D01*
X27777Y91070D01*
X23763Y89407D01*
X19417Y89407D01*
X15403Y91070D01*
X13269Y93204D01*
X13191Y93266D01*
X13118Y93336D01*
X13054Y93374D01*
X12996Y93420D01*
X12905Y93463D01*
X12819Y93515D01*
X12748Y93538D01*
X12681Y93569D01*
X12583Y93591D01*
X12487Y93621D01*
X12413Y93627D01*
X12340Y93643D01*
X12240Y93641D01*
X12140Y93649D01*
X12066Y93638D01*
X11992Y93637D01*
X11895Y93612D01*
X11795Y93597D01*
X11726Y93570D01*
X11654Y93552D01*
X11565Y93506D01*
X11471Y93469D01*
X11410Y93426D01*
X11344Y93392D01*
X11268Y93327D01*
X11185Y93270D01*
X11135Y93215D01*
X11079Y93166D01*
X11019Y93086D01*
X10952Y93011D01*
X10916Y92946D01*
X10871Y92886D01*
X10832Y92794D01*
X10783Y92706D01*
X10763Y92634D01*
X10733Y92566D01*
X10716Y92467D01*
X10688Y92371D01*
X10680Y92271D01*
X10672Y92223D01*
X10674Y92187D01*
X10669Y92127D01*
X10669Y83133D01*
X10680Y83033D01*
X10682Y82933D01*
X10700Y82861D01*
X10709Y82787D01*
X10742Y82693D01*
X10767Y82595D01*
X10801Y82529D01*
X10826Y82459D01*
X10881Y82375D01*
X10927Y82285D01*
X10975Y82229D01*
X11015Y82166D01*
X11087Y82096D01*
X11152Y82020D01*
X11212Y81976D01*
X11266Y81924D01*
X11352Y81872D01*
X11433Y81813D01*
X11501Y81783D01*
X11565Y81745D01*
X11661Y81714D01*
X11753Y81675D01*
X11826Y81662D01*
X11897Y81639D01*
X11997Y81631D01*
X12096Y81613D01*
X12170Y81617D01*
X12244Y81611D01*
X12344Y81626D01*
X12444Y81631D01*
X12515Y81652D01*
X12589Y81663D01*
X12682Y81700D01*
X12779Y81727D01*
X12844Y81764D01*
X12913Y81791D01*
X12995Y81849D01*
X13083Y81898D01*
X13159Y81963D01*
X13199Y81990D01*
X13223Y82017D01*
X13269Y82056D01*
X15403Y84190D01*
X19417Y85853D01*
X23763Y85853D01*
X27777Y84190D01*
X30850Y81117D01*
X32513Y77103D01*
X32513Y72757D01*
X30850Y68743D01*
X27777Y65670D01*
X23978Y64097D01*
X23886Y64045D01*
X23790Y64003D01*
X23734Y63961D01*
X23674Y63927D01*
X23596Y63856D01*
X23512Y63793D01*
X23467Y63740D01*
X23415Y63693D01*
X23355Y63606D01*
X23288Y63526D01*
X23257Y63464D01*
X23217Y63406D01*
X23179Y63308D01*
X23131Y63215D01*
X23115Y63147D01*
X23089Y63082D01*
X23074Y62978D01*
X23049Y62876D01*
X23049Y62806D01*
X23039Y62737D01*
X23047Y62632D01*
X23046Y62527D01*
X23062Y62459D01*
X23067Y62390D01*
X23100Y62290D01*
X23123Y62187D01*
X23153Y62125D01*
X23175Y62058D01*
X23229Y61968D01*
X23275Y61874D01*
X23318Y61819D01*
X23354Y61760D01*
X23428Y61684D01*
X23494Y61603D01*
X23548Y61560D01*
X23597Y61510D01*
X23686Y61453D01*
X23769Y61388D01*
X23832Y61359D01*
X23890Y61322D01*
X23989Y61286D01*
X24085Y61242D01*
X24175Y61220D01*
X24219Y61205D01*
X24257Y61201D01*
X24323Y61185D01*
X24386Y61175D01*
X26173Y60594D01*
X27847Y59741D01*
X29368Y58636D01*
X30696Y57308D01*
X31801Y55787D01*
X32654Y54113D01*
X33235Y52326D01*
X33275Y52069D01*
X22606Y52069D01*
X22580Y52066D01*
X22554Y52068D01*
X22407Y52046D01*
X22260Y52029D01*
X22235Y52021D01*
X22209Y52017D01*
X22072Y51962D01*
X21932Y51912D01*
X21910Y51898D01*
X21885Y51888D01*
X21764Y51803D01*
X21639Y51723D01*
X21621Y51704D01*
X21599Y51689D01*
X21500Y51579D01*
X21397Y51472D01*
X21383Y51450D01*
X21366Y51430D01*
X21294Y51300D01*
X21218Y51173D01*
X21210Y51148D01*
X21197Y51125D01*
X21157Y50982D01*
X21112Y50841D01*
X21110Y50815D01*
X21103Y50790D01*
X21083Y50546D01*
X21083Y48514D01*
X21086Y48488D01*
X21084Y48462D01*
X21106Y48315D01*
X21123Y48168D01*
X21132Y48143D01*
X21136Y48117D01*
X21190Y47979D01*
X21240Y47840D01*
X21255Y47818D01*
X21264Y47793D01*
X21349Y47672D01*
X21429Y47547D01*
X21448Y47529D01*
X21463Y47507D01*
X21573Y47408D01*
X21680Y47305D01*
X21703Y47291D01*
X21722Y47274D01*
X21852Y47202D01*
X21979Y47126D01*
X22004Y47118D01*
X22027Y47105D01*
X22170Y47065D01*
X22311Y47020D01*
X22337Y47017D01*
X22362Y47010D01*
X22606Y46991D01*
X33275Y46991D01*
X33235Y46734D01*
X32654Y44947D01*
X31801Y43273D01*
X30696Y41752D01*
X29368Y40424D01*
X27847Y39319D01*
X26173Y38466D01*
X24386Y37885D01*
X24323Y37875D01*
X24221Y37847D01*
X24118Y37828D01*
X24054Y37800D01*
X23987Y37782D01*
X23895Y37731D01*
X23798Y37689D01*
X23742Y37648D01*
X23681Y37614D01*
X23603Y37544D01*
X23519Y37481D01*
X23474Y37428D01*
X23422Y37382D01*
X23361Y37296D01*
X23293Y37215D01*
X23262Y37153D01*
X23222Y37096D01*
X23183Y36999D01*
X23135Y36905D01*
X23118Y36838D01*
X23092Y36773D01*
X23076Y36669D01*
X23050Y36567D01*
X23049Y36497D01*
X23039Y36429D01*
X23047Y36324D01*
X23045Y36218D01*
X23060Y36150D01*
X23066Y36081D01*
X23097Y35981D01*
X23120Y35878D01*
X23150Y35815D01*
X23171Y35749D01*
X23224Y35658D01*
X23269Y35563D01*
X23313Y35509D01*
X23348Y35449D01*
X23421Y35373D01*
X23487Y35291D01*
X23541Y35248D01*
X23590Y35197D01*
X23678Y35140D01*
X23760Y35075D01*
X23843Y35033D01*
X23882Y35007D01*
X23918Y34994D01*
X23978Y34963D01*
X27777Y33390D01*
X30850Y30317D01*
X32513Y26303D01*
X32513Y21957D01*
X30850Y17943D01*
X27777Y14870D01*
X23763Y13207D01*
X19417Y13207D01*
X15403Y14870D01*
X12330Y17943D01*
X10858Y21496D01*
X10857Y21498D01*
X10857Y21500D01*
X10771Y21653D01*
X10689Y21801D01*
X10688Y21802D01*
X10687Y21804D01*
X10528Y21990D01*
X9205Y23313D01*
X7681Y24837D01*
X7602Y24900D01*
X7530Y24970D01*
X7466Y25008D01*
X7408Y25054D01*
X7317Y25097D01*
X7231Y25148D01*
X7160Y25171D01*
X7093Y25203D01*
X6995Y25224D01*
X6899Y25255D01*
X6825Y25261D01*
X6752Y25276D01*
X6652Y25275D01*
X6552Y25283D01*
X6478Y25272D01*
X6404Y25270D01*
X6307Y25246D01*
X6207Y25231D01*
X6138Y25203D01*
X6066Y25185D01*
X5977Y25139D01*
X5883Y25102D01*
X5822Y25060D01*
X5756Y25026D01*
X5680Y24961D01*
X5597Y24903D01*
X5547Y24848D01*
X5491Y24800D01*
X5431Y24719D01*
X5364Y24644D01*
X5328Y24579D01*
X5283Y24520D01*
X5244Y24427D01*
X5195Y24339D01*
X5175Y24268D01*
X5145Y24200D01*
X5128Y24101D01*
X5100Y24004D01*
X5092Y23904D01*
X5084Y23857D01*
X5086Y23821D01*
X5081Y23760D01*
X5081Y9085D01*
X5095Y8960D01*
X5102Y8834D01*
X5115Y8787D01*
X5121Y8739D01*
X5163Y8620D01*
X5198Y8499D01*
X5222Y8457D01*
X5238Y8411D01*
X5307Y8305D01*
X5368Y8195D01*
X5408Y8148D01*
X5427Y8118D01*
X5462Y8085D01*
X5527Y8008D01*
X8008Y5527D01*
X8107Y5448D01*
X8201Y5364D01*
X8244Y5340D01*
X8281Y5310D01*
X8396Y5256D01*
X8506Y5195D01*
X8553Y5182D01*
X8596Y5161D01*
X8720Y5135D01*
X8842Y5100D01*
X8902Y5095D01*
X8937Y5088D01*
X8985Y5089D01*
X9085Y5081D01*
X186495Y5081D01*
X186620Y5095D01*
G37*
%LPC*%
G36*
X87839Y140715D02*
X87839Y140715D01*
X85878Y141527D01*
X84377Y143028D01*
X84139Y143603D01*
X84138Y143604D01*
X84138Y143606D01*
X84058Y143749D01*
X83970Y143907D01*
X83969Y143909D01*
X83968Y143911D01*
X83809Y144097D01*
X62512Y165394D01*
X62421Y165466D01*
X61410Y166496D01*
X61405Y166500D01*
X61400Y166506D01*
X60733Y167173D01*
X60741Y168115D01*
X60741Y168120D01*
X60741Y168128D01*
X60741Y169522D01*
X60748Y169555D01*
X60748Y169601D01*
X60756Y169691D01*
X61418Y241828D01*
X61409Y241911D01*
X61410Y241995D01*
X61391Y242084D01*
X61381Y242175D01*
X61354Y242254D01*
X61336Y242335D01*
X61297Y242418D01*
X61266Y242504D01*
X61222Y242575D01*
X61186Y242650D01*
X61129Y242722D01*
X61080Y242799D01*
X61021Y242857D01*
X60969Y242922D01*
X60897Y242979D01*
X60832Y243043D01*
X60761Y243087D01*
X60695Y243138D01*
X60576Y243199D01*
X60534Y243225D01*
X60512Y243232D01*
X60477Y243250D01*
X58938Y243887D01*
X56529Y246296D01*
X55225Y249444D01*
X55225Y252852D01*
X56529Y256000D01*
X58938Y258409D01*
X62086Y259713D01*
X65494Y259713D01*
X68642Y258409D01*
X71051Y256000D01*
X72355Y252852D01*
X72355Y249444D01*
X71051Y246296D01*
X68642Y243887D01*
X66931Y243179D01*
X66870Y243145D01*
X66806Y243120D01*
X66719Y243061D01*
X66627Y243009D01*
X66575Y242963D01*
X66518Y242924D01*
X66447Y242846D01*
X66368Y242775D01*
X66329Y242718D01*
X66282Y242667D01*
X66230Y242575D01*
X66170Y242489D01*
X66145Y242424D01*
X66111Y242363D01*
X66081Y242262D01*
X66042Y242164D01*
X66032Y242096D01*
X66013Y242029D01*
X65998Y241861D01*
X65992Y241820D01*
X65993Y241806D01*
X65991Y241785D01*
X65329Y169690D01*
X65343Y169557D01*
X65350Y169424D01*
X65362Y169384D01*
X65366Y169343D01*
X65410Y169217D01*
X65447Y169089D01*
X65467Y169053D01*
X65480Y169014D01*
X65552Y168901D01*
X65617Y168785D01*
X65650Y168746D01*
X65667Y168719D01*
X65702Y168685D01*
X65775Y168599D01*
X81219Y153155D01*
X81259Y153123D01*
X81293Y153086D01*
X81395Y153015D01*
X81492Y152938D01*
X81538Y152917D01*
X81579Y152888D01*
X81695Y152842D01*
X81807Y152789D01*
X81857Y152779D01*
X81904Y152760D01*
X82027Y152742D01*
X82148Y152716D01*
X82198Y152717D01*
X82248Y152709D01*
X82372Y152720D01*
X82497Y152722D01*
X82545Y152734D01*
X82596Y152738D01*
X82714Y152776D01*
X82835Y152807D01*
X82879Y152830D01*
X82927Y152845D01*
X83034Y152909D01*
X83144Y152966D01*
X83183Y152999D01*
X83226Y153025D01*
X83315Y153112D01*
X83410Y153192D01*
X83440Y153233D01*
X83476Y153268D01*
X83543Y153372D01*
X83617Y153472D01*
X83637Y153519D01*
X83664Y153561D01*
X83706Y153678D01*
X83755Y153792D01*
X83764Y153842D01*
X83781Y153890D01*
X83795Y154013D01*
X83817Y154135D01*
X83814Y154186D01*
X83820Y154236D01*
X83805Y154359D01*
X83799Y154484D01*
X83785Y154532D01*
X83779Y154582D01*
X83704Y154815D01*
X83565Y155149D01*
X83565Y157271D01*
X84377Y159232D01*
X85943Y160798D01*
X85977Y160817D01*
X86034Y160868D01*
X86097Y160912D01*
X86163Y160985D01*
X86235Y161051D01*
X86279Y161114D01*
X86330Y161171D01*
X86378Y161257D01*
X86434Y161337D01*
X86462Y161409D01*
X86499Y161476D01*
X86526Y161570D01*
X86562Y161662D01*
X86573Y161737D01*
X86594Y161811D01*
X86606Y161960D01*
X86612Y162006D01*
X86611Y162025D01*
X86613Y162055D01*
X86613Y163507D01*
X103312Y180206D01*
X103385Y180298D01*
X103466Y180386D01*
X103493Y180435D01*
X103529Y180479D01*
X103579Y180586D01*
X103637Y180689D01*
X103653Y180743D01*
X103677Y180794D01*
X103702Y180909D01*
X103736Y181023D01*
X103742Y181095D01*
X103751Y181135D01*
X103750Y181180D01*
X103758Y181267D01*
X104404Y241832D01*
X104395Y241916D01*
X104396Y242001D01*
X104377Y242089D01*
X104368Y242179D01*
X104340Y242258D01*
X104322Y242341D01*
X104283Y242423D01*
X104254Y242508D01*
X104208Y242579D01*
X104172Y242656D01*
X104116Y242726D01*
X104068Y242803D01*
X104008Y242862D01*
X103955Y242928D01*
X103884Y242984D01*
X103820Y243048D01*
X103748Y243092D01*
X103681Y243144D01*
X103565Y243204D01*
X103523Y243230D01*
X103499Y243237D01*
X103464Y243255D01*
X101938Y243887D01*
X99529Y246296D01*
X98225Y249444D01*
X98225Y252852D01*
X99529Y256000D01*
X101938Y258409D01*
X105086Y259713D01*
X108494Y259713D01*
X111642Y258409D01*
X114051Y256000D01*
X115355Y252852D01*
X115355Y249444D01*
X114051Y246296D01*
X111642Y243887D01*
X109917Y243173D01*
X109858Y243140D01*
X109794Y243115D01*
X109706Y243055D01*
X109613Y243004D01*
X109562Y242958D01*
X109506Y242919D01*
X109433Y242841D01*
X109354Y242770D01*
X109316Y242713D01*
X109269Y242663D01*
X109217Y242570D01*
X109156Y242483D01*
X109131Y242419D01*
X109098Y242360D01*
X109067Y242258D01*
X109028Y242159D01*
X109019Y242091D01*
X108999Y242025D01*
X108984Y241854D01*
X108978Y241814D01*
X108979Y241801D01*
X108977Y241782D01*
X108315Y179683D01*
X108316Y179676D01*
X108315Y179667D01*
X108315Y178726D01*
X107642Y178068D01*
X107638Y178063D01*
X107630Y178056D01*
X92191Y162617D01*
X92175Y162597D01*
X92155Y162580D01*
X92067Y162460D01*
X91975Y162344D01*
X91963Y162321D01*
X91948Y162300D01*
X91889Y162163D01*
X91826Y162029D01*
X91820Y162004D01*
X91810Y161980D01*
X91784Y161833D01*
X91752Y161689D01*
X91753Y161662D01*
X91748Y161637D01*
X91756Y161488D01*
X91758Y161340D01*
X91765Y161315D01*
X91766Y161288D01*
X91807Y161146D01*
X91843Y161002D01*
X91855Y160979D01*
X91863Y160954D01*
X91935Y160824D01*
X92003Y160692D01*
X92020Y160672D01*
X92033Y160649D01*
X92191Y160463D01*
X93423Y159232D01*
X94235Y157271D01*
X94235Y155149D01*
X93423Y153188D01*
X92442Y152207D01*
X92425Y152187D01*
X92405Y152170D01*
X92317Y152050D01*
X92225Y151934D01*
X92214Y151910D01*
X92198Y151889D01*
X92139Y151753D01*
X92076Y151619D01*
X92070Y151593D01*
X92060Y151569D01*
X92034Y151423D01*
X92003Y151278D01*
X92003Y151252D01*
X91998Y151226D01*
X92006Y151078D01*
X92009Y150930D01*
X92015Y150904D01*
X92016Y150878D01*
X92057Y150736D01*
X92094Y150592D01*
X92106Y150568D01*
X92113Y150543D01*
X92185Y150414D01*
X92253Y150282D01*
X92270Y150262D01*
X92283Y150239D01*
X92442Y150053D01*
X93423Y149072D01*
X94235Y147111D01*
X94235Y144989D01*
X93423Y143028D01*
X91922Y141527D01*
X89961Y140715D01*
X87839Y140715D01*
G37*
%LPD*%
%LPC*%
G36*
X171817Y114807D02*
X171817Y114807D01*
X167803Y116470D01*
X164730Y119543D01*
X163067Y123557D01*
X163067Y127715D01*
X163056Y127815D01*
X163054Y127916D01*
X163036Y127988D01*
X163027Y128062D01*
X162994Y128156D01*
X162969Y128254D01*
X162935Y128320D01*
X162910Y128390D01*
X162855Y128474D01*
X162809Y128563D01*
X162761Y128620D01*
X162721Y128683D01*
X162649Y128752D01*
X162584Y128829D01*
X162524Y128873D01*
X162470Y128925D01*
X162384Y128976D01*
X162303Y129036D01*
X162235Y129065D01*
X162171Y129104D01*
X162075Y129134D01*
X161983Y129174D01*
X161910Y129187D01*
X161839Y129210D01*
X161739Y129218D01*
X161640Y129236D01*
X161566Y129232D01*
X161492Y129238D01*
X161392Y129223D01*
X161292Y129218D01*
X161221Y129197D01*
X161147Y129186D01*
X161054Y129149D01*
X160957Y129121D01*
X160892Y129085D01*
X160823Y129057D01*
X160741Y129000D01*
X160653Y128951D01*
X160577Y128886D01*
X160537Y128858D01*
X160513Y128832D01*
X160467Y128792D01*
X159232Y127557D01*
X157271Y126745D01*
X155149Y126745D01*
X153188Y127557D01*
X151687Y129058D01*
X150875Y131019D01*
X150875Y133141D01*
X151687Y135102D01*
X152715Y136130D01*
X152794Y136229D01*
X152878Y136322D01*
X152902Y136365D01*
X152932Y136403D01*
X152986Y136517D01*
X153047Y136627D01*
X153060Y136674D01*
X153081Y136718D01*
X153107Y136841D01*
X153142Y136963D01*
X153147Y137024D01*
X153154Y137058D01*
X153153Y137106D01*
X153161Y137207D01*
X153161Y151776D01*
X153147Y151902D01*
X153140Y152028D01*
X153127Y152074D01*
X153121Y152122D01*
X153079Y152241D01*
X153044Y152363D01*
X153020Y152405D01*
X153004Y152451D01*
X152935Y152557D01*
X152874Y152667D01*
X152834Y152713D01*
X152815Y152743D01*
X152780Y152777D01*
X152715Y152853D01*
X124659Y180909D01*
X124560Y180988D01*
X124466Y181072D01*
X124424Y181096D01*
X124386Y181126D01*
X124272Y181180D01*
X124161Y181241D01*
X124115Y181254D01*
X124071Y181275D01*
X123948Y181301D01*
X123826Y181336D01*
X123765Y181341D01*
X123730Y181348D01*
X123682Y181347D01*
X123582Y181355D01*
X122129Y181355D01*
X120168Y182167D01*
X118667Y183668D01*
X117855Y185629D01*
X117855Y187751D01*
X118667Y189712D01*
X120168Y191213D01*
X122129Y192025D01*
X124251Y192025D01*
X126212Y191213D01*
X127713Y189712D01*
X128525Y187751D01*
X128525Y186298D01*
X128539Y186172D01*
X128546Y186046D01*
X128559Y186000D01*
X128565Y185952D01*
X128607Y185833D01*
X128642Y185711D01*
X128666Y185669D01*
X128682Y185623D01*
X128751Y185517D01*
X128812Y185407D01*
X128852Y185361D01*
X128871Y185331D01*
X128906Y185297D01*
X128971Y185221D01*
X159259Y154933D01*
X159259Y137207D01*
X159273Y137081D01*
X159280Y136955D01*
X159293Y136908D01*
X159299Y136860D01*
X159341Y136741D01*
X159376Y136620D01*
X159400Y136578D01*
X159416Y136532D01*
X159485Y136426D01*
X159546Y136316D01*
X159586Y136270D01*
X159605Y136240D01*
X159640Y136206D01*
X159705Y136130D01*
X160733Y135102D01*
X161545Y133141D01*
X161545Y131885D01*
X161550Y131835D01*
X161548Y131784D01*
X161570Y131662D01*
X161585Y131539D01*
X161602Y131491D01*
X161611Y131442D01*
X161660Y131328D01*
X161702Y131210D01*
X161729Y131168D01*
X161750Y131122D01*
X161824Y131022D01*
X161891Y130918D01*
X161927Y130883D01*
X161957Y130842D01*
X162052Y130762D01*
X162142Y130675D01*
X162185Y130650D01*
X162223Y130617D01*
X162334Y130560D01*
X162441Y130497D01*
X162489Y130481D01*
X162534Y130458D01*
X162654Y130428D01*
X162773Y130390D01*
X162823Y130386D01*
X162872Y130374D01*
X162996Y130372D01*
X163120Y130362D01*
X163170Y130370D01*
X163220Y130369D01*
X163342Y130396D01*
X163465Y130414D01*
X163512Y130433D01*
X163561Y130443D01*
X163673Y130497D01*
X163789Y130543D01*
X163830Y130572D01*
X163876Y130593D01*
X163973Y130671D01*
X164075Y130742D01*
X164109Y130779D01*
X164148Y130811D01*
X164225Y130908D01*
X164308Y131001D01*
X164333Y131045D01*
X164364Y131084D01*
X164475Y131302D01*
X164730Y131917D01*
X167803Y134990D01*
X171817Y136653D01*
X176163Y136653D01*
X180177Y134990D01*
X183250Y131917D01*
X184913Y127903D01*
X184913Y123557D01*
X183250Y119543D01*
X180177Y116470D01*
X176163Y114807D01*
X171817Y114807D01*
G37*
%LPD*%
%LPC*%
G36*
X171817Y13207D02*
X171817Y13207D01*
X167803Y14870D01*
X164730Y17943D01*
X163067Y21957D01*
X163067Y26303D01*
X164730Y30317D01*
X167803Y33390D01*
X171817Y35053D01*
X176163Y35053D01*
X180177Y33390D01*
X183250Y30317D01*
X184913Y26303D01*
X184913Y21957D01*
X183250Y17943D01*
X180177Y14870D01*
X176163Y13207D01*
X171817Y13207D01*
G37*
%LPD*%
%LPC*%
G36*
X171817Y140207D02*
X171817Y140207D01*
X167803Y141870D01*
X164730Y144943D01*
X163067Y148957D01*
X163067Y153303D01*
X164730Y157317D01*
X167803Y160390D01*
X171817Y162053D01*
X176163Y162053D01*
X180177Y160390D01*
X183250Y157317D01*
X184913Y153303D01*
X184913Y148957D01*
X183250Y144943D01*
X180177Y141870D01*
X176163Y140207D01*
X171817Y140207D01*
G37*
%LPD*%
%LPC*%
G36*
X171817Y38607D02*
X171817Y38607D01*
X167803Y40270D01*
X164730Y43343D01*
X163067Y47357D01*
X163067Y51703D01*
X164730Y55717D01*
X167803Y58790D01*
X171817Y60453D01*
X176163Y60453D01*
X180177Y58790D01*
X183250Y55717D01*
X184913Y51703D01*
X184913Y47357D01*
X183250Y43343D01*
X180177Y40270D01*
X176163Y38607D01*
X171817Y38607D01*
G37*
%LPD*%
%LPC*%
G36*
X171817Y64007D02*
X171817Y64007D01*
X167803Y65670D01*
X164730Y68743D01*
X163067Y72757D01*
X163067Y77103D01*
X164730Y81117D01*
X167803Y84190D01*
X171817Y85853D01*
X176163Y85853D01*
X180177Y84190D01*
X183250Y81117D01*
X184913Y77103D01*
X184913Y72757D01*
X183250Y68743D01*
X180177Y65670D01*
X176163Y64007D01*
X171817Y64007D01*
G37*
%LPD*%
%LPC*%
G36*
X171817Y89407D02*
X171817Y89407D01*
X167803Y91070D01*
X164730Y94143D01*
X163067Y98157D01*
X163067Y102503D01*
X164730Y106517D01*
X167803Y109590D01*
X171817Y111253D01*
X176163Y111253D01*
X180177Y109590D01*
X183250Y106517D01*
X184913Y102503D01*
X184913Y98157D01*
X183250Y94143D01*
X180177Y91070D01*
X176163Y89407D01*
X171817Y89407D01*
G37*
%LPD*%
%LPC*%
G36*
X171817Y165607D02*
X171817Y165607D01*
X167803Y167270D01*
X164730Y170343D01*
X163067Y174357D01*
X163067Y178703D01*
X164730Y182717D01*
X167803Y185790D01*
X171817Y187453D01*
X176163Y187453D01*
X180177Y185790D01*
X183250Y182717D01*
X184913Y178703D01*
X184913Y174357D01*
X183250Y170343D01*
X180177Y167270D01*
X176163Y165607D01*
X171817Y165607D01*
G37*
%LPD*%
%LPC*%
G36*
X109086Y267583D02*
X109086Y267583D01*
X105938Y268887D01*
X103529Y271296D01*
X102225Y274444D01*
X102225Y277852D01*
X103529Y281000D01*
X105938Y283409D01*
X109086Y284713D01*
X112494Y284713D01*
X115642Y283409D01*
X118051Y281000D01*
X119355Y277852D01*
X119355Y274444D01*
X118051Y271296D01*
X115642Y268887D01*
X112494Y267583D01*
X109086Y267583D01*
G37*
%LPD*%
%LPC*%
G36*
X83086Y242583D02*
X83086Y242583D01*
X79938Y243887D01*
X77529Y246296D01*
X76225Y249444D01*
X76225Y252852D01*
X77529Y256000D01*
X79938Y258409D01*
X83086Y259713D01*
X86494Y259713D01*
X89642Y258409D01*
X92051Y256000D01*
X93355Y252852D01*
X93355Y249444D01*
X92051Y246296D01*
X89642Y243887D01*
X86494Y242583D01*
X83086Y242583D01*
G37*
%LPD*%
%LPC*%
G36*
X130086Y267583D02*
X130086Y267583D01*
X126938Y268887D01*
X124529Y271296D01*
X123225Y274444D01*
X123225Y277852D01*
X124529Y281000D01*
X126938Y283409D01*
X130086Y284713D01*
X133494Y284713D01*
X136642Y283409D01*
X139051Y281000D01*
X140355Y277852D01*
X140355Y274444D01*
X139051Y271296D01*
X136642Y268887D01*
X133494Y267583D01*
X130086Y267583D01*
G37*
%LPD*%
%LPC*%
G36*
X167039Y307897D02*
X167039Y307897D01*
X167039Y323537D01*
X167641Y323441D01*
X169144Y322953D01*
X170553Y322236D01*
X171831Y321307D01*
X172949Y320189D01*
X173878Y318911D01*
X174595Y317502D01*
X175083Y315999D01*
X175331Y314438D01*
X175331Y307897D01*
X167039Y307897D01*
G37*
%LPD*%
%LPC*%
G36*
X32039Y307897D02*
X32039Y307897D01*
X32039Y323537D01*
X32641Y323441D01*
X34144Y322953D01*
X35553Y322236D01*
X36831Y321307D01*
X37949Y320189D01*
X38878Y318911D01*
X39595Y317502D01*
X40083Y315999D01*
X40331Y314438D01*
X40331Y307897D01*
X32039Y307897D01*
G37*
%LPD*%
%LPC*%
G36*
X99539Y315897D02*
X99539Y315897D01*
X99539Y324189D01*
X106080Y324189D01*
X107641Y323941D01*
X109144Y323453D01*
X110553Y322736D01*
X111831Y321807D01*
X112949Y320689D01*
X113878Y319411D01*
X114595Y318002D01*
X115083Y316499D01*
X115179Y315897D01*
X99539Y315897D01*
G37*
%LPD*%
%LPC*%
G36*
X32039Y304399D02*
X32039Y304399D01*
X40331Y304399D01*
X40331Y297858D01*
X40083Y296297D01*
X39595Y294794D01*
X38878Y293385D01*
X37949Y292107D01*
X36831Y290989D01*
X35553Y290060D01*
X34144Y289343D01*
X32641Y288855D01*
X32039Y288759D01*
X32039Y304399D01*
G37*
%LPD*%
%LPC*%
G36*
X167039Y304399D02*
X167039Y304399D01*
X175331Y304399D01*
X175331Y297858D01*
X175083Y296297D01*
X174595Y294794D01*
X173878Y293385D01*
X172949Y292107D01*
X171831Y290989D01*
X170553Y290060D01*
X169144Y289343D01*
X167641Y288855D01*
X167039Y288759D01*
X167039Y304399D01*
G37*
%LPD*%
%LPC*%
G36*
X80401Y315897D02*
X80401Y315897D01*
X80497Y316499D01*
X80985Y318002D01*
X81702Y319411D01*
X82631Y320689D01*
X83749Y321807D01*
X85027Y322736D01*
X86436Y323453D01*
X87939Y323941D01*
X89500Y324189D01*
X96041Y324189D01*
X96041Y315897D01*
X80401Y315897D01*
G37*
%LPD*%
%LPC*%
G36*
X20249Y307897D02*
X20249Y307897D01*
X20249Y314438D01*
X20497Y315999D01*
X20985Y317502D01*
X21702Y318911D01*
X22631Y320189D01*
X23749Y321307D01*
X25027Y322236D01*
X26436Y322953D01*
X27939Y323441D01*
X28541Y323537D01*
X28541Y307897D01*
X20249Y307897D01*
G37*
%LPD*%
%LPC*%
G36*
X155249Y307897D02*
X155249Y307897D01*
X155249Y314438D01*
X155497Y315999D01*
X155985Y317502D01*
X156702Y318911D01*
X157631Y320189D01*
X158749Y321307D01*
X160027Y322236D01*
X161436Y322953D01*
X162939Y323441D01*
X163541Y323537D01*
X163541Y307897D01*
X155249Y307897D01*
G37*
%LPD*%
%LPC*%
G36*
X99539Y304107D02*
X99539Y304107D01*
X99539Y312399D01*
X115179Y312399D01*
X115083Y311797D01*
X114595Y310294D01*
X113878Y308885D01*
X112949Y307607D01*
X111831Y306489D01*
X110553Y305560D01*
X109144Y304843D01*
X107641Y304355D01*
X106080Y304107D01*
X99539Y304107D01*
G37*
%LPD*%
%LPC*%
G36*
X89500Y304107D02*
X89500Y304107D01*
X87939Y304355D01*
X86436Y304843D01*
X85027Y305560D01*
X83749Y306489D01*
X82631Y307607D01*
X81702Y308885D01*
X80985Y310294D01*
X80497Y311797D01*
X80401Y312399D01*
X96041Y312399D01*
X96041Y304107D01*
X89500Y304107D01*
G37*
%LPD*%
%LPC*%
G36*
X162939Y288855D02*
X162939Y288855D01*
X161436Y289343D01*
X160027Y290060D01*
X158749Y290989D01*
X157631Y292107D01*
X156702Y293385D01*
X155985Y294794D01*
X155497Y296297D01*
X155249Y297858D01*
X155249Y304399D01*
X163541Y304399D01*
X163541Y288759D01*
X162939Y288855D01*
G37*
%LPD*%
%LPC*%
G36*
X27939Y288855D02*
X27939Y288855D01*
X26436Y289343D01*
X25027Y290060D01*
X23749Y290989D01*
X22631Y292107D01*
X21702Y293385D01*
X20985Y294794D01*
X20497Y296297D01*
X20249Y297858D01*
X20249Y304399D01*
X28541Y304399D01*
X28541Y288759D01*
X27939Y288855D01*
G37*
%LPD*%
%LPC*%
G36*
X134039Y253397D02*
X134039Y253397D01*
X134039Y260491D01*
X135468Y260027D01*
X136811Y259342D01*
X138032Y258456D01*
X139098Y257390D01*
X139984Y256169D01*
X140669Y254826D01*
X141133Y253397D01*
X134039Y253397D01*
G37*
%LPD*%
%LPC*%
G36*
X122447Y253397D02*
X122447Y253397D01*
X122911Y254826D01*
X123596Y256169D01*
X124482Y257390D01*
X125548Y258456D01*
X126769Y259342D01*
X128112Y260027D01*
X129541Y260491D01*
X129541Y253397D01*
X122447Y253397D01*
G37*
%LPD*%
%LPC*%
G36*
X134039Y248899D02*
X134039Y248899D01*
X141133Y248899D01*
X140669Y247470D01*
X139984Y246127D01*
X139098Y244906D01*
X138032Y243840D01*
X136811Y242954D01*
X135468Y242269D01*
X134039Y241805D01*
X134039Y248899D01*
G37*
%LPD*%
%LPC*%
G36*
X128112Y242269D02*
X128112Y242269D01*
X126769Y242954D01*
X125548Y243840D01*
X124482Y244906D01*
X123596Y246127D01*
X122911Y247470D01*
X122447Y248899D01*
X129541Y248899D01*
X129541Y241805D01*
X128112Y242269D01*
G37*
%LPD*%
D10*
X84790Y276148D03*
X110790Y276148D03*
X63790Y276148D03*
X84790Y251148D03*
X131790Y276148D03*
X63790Y251148D03*
X106790Y251148D03*
X131790Y251148D03*
D11*
X105290Y314148D02*
X90290Y314148D01*
X30290Y313648D02*
X30290Y298648D01*
X165290Y298648D02*
X165290Y313648D01*
D12*
X173990Y176530D03*
X173990Y151130D03*
X173990Y125730D03*
X173990Y100330D03*
X173990Y74930D03*
X173990Y49530D03*
X173990Y24130D03*
X21590Y176530D03*
X21590Y151130D03*
X21590Y125730D03*
X21590Y100330D03*
X21590Y74930D03*
X21590Y49530D03*
X21590Y24130D03*
D13*
X131790Y251148D02*
X164528Y284648D01*
X165290Y306148D01*
X36830Y49530D02*
X21590Y49530D01*
X36830Y49530D02*
X71120Y15240D01*
X86360Y15240D01*
D14*
X124460Y166370D03*
D13*
X116840Y15240D02*
X86360Y15240D01*
X116840Y15240D02*
X124460Y22860D01*
X124460Y24130D01*
X124460Y72390D01*
X124460Y129540D01*
X124460Y166370D01*
D14*
X124460Y72390D03*
X124460Y129540D03*
D13*
X124460Y72390D02*
X97790Y72390D01*
D14*
X91440Y78740D03*
D13*
X97790Y72390D01*
X151130Y72390D02*
X154940Y76200D01*
D14*
X154940Y76200D03*
D13*
X151130Y72390D02*
X124460Y72390D01*
X124460Y129540D02*
X95250Y129540D01*
D14*
X91440Y135890D03*
D13*
X91440Y133350D01*
X95250Y129540D01*
X124460Y24130D02*
X130810Y17780D01*
D14*
X148590Y17780D03*
D13*
X130810Y17780D01*
X86360Y15240D02*
X86360Y24130D01*
X88900Y26670D01*
D14*
X88900Y26670D03*
D13*
X124460Y166370D02*
X113030Y177800D01*
X113030Y195580D02*
X130810Y213360D01*
X130810Y250930D01*
X131790Y251148D01*
X113030Y195580D02*
X113030Y177800D01*
D15*
X63028Y168112D02*
X63790Y251148D01*
X63028Y168112D02*
X85090Y146050D01*
X88900Y146050D01*
D14*
X88900Y146050D03*
D15*
X106028Y179688D02*
X106790Y251148D01*
X88900Y162560D02*
X88900Y156210D01*
D14*
X88900Y156210D03*
D15*
X88900Y162560D02*
X106028Y179688D01*
D14*
X123190Y186690D03*
D13*
X156210Y153670D01*
D14*
X156210Y132080D03*
D13*
X156210Y153670D01*
X84790Y276148D02*
X68076Y292100D01*
X7620Y242570D02*
X7620Y29210D01*
X12700Y24130D01*
X21590Y24130D01*
X57150Y292100D02*
X68076Y292100D01*
X57150Y292100D02*
X7620Y242570D01*
M02*
