G04 EAGLE Gerber RS-274X export*
G75*
%MOMM*%
%FSLAX34Y34*%
%LPD*%
%INSilkscreen Bottom*%
%IPPOS*%
%AMOC8*
5,1,8,0,0,1.08239X$1,22.5*%
G01*
%ADD10C,0.076200*%


D10*
X155067Y213741D02*
X155067Y223139D01*
X152456Y223139D01*
X152355Y223137D01*
X152254Y223131D01*
X152153Y223121D01*
X152053Y223108D01*
X151953Y223090D01*
X151854Y223069D01*
X151756Y223043D01*
X151659Y223014D01*
X151563Y222982D01*
X151469Y222945D01*
X151376Y222905D01*
X151284Y222861D01*
X151195Y222814D01*
X151107Y222763D01*
X151021Y222709D01*
X150938Y222652D01*
X150856Y222592D01*
X150778Y222528D01*
X150701Y222462D01*
X150628Y222392D01*
X150557Y222320D01*
X150489Y222245D01*
X150424Y222167D01*
X150362Y222087D01*
X150303Y222005D01*
X150247Y221920D01*
X150195Y221834D01*
X150146Y221745D01*
X150100Y221654D01*
X150059Y221562D01*
X150020Y221468D01*
X149986Y221373D01*
X149955Y221277D01*
X149928Y221179D01*
X149904Y221081D01*
X149885Y220981D01*
X149869Y220881D01*
X149857Y220781D01*
X149849Y220680D01*
X149845Y220579D01*
X149845Y220477D01*
X149849Y220376D01*
X149857Y220275D01*
X149869Y220175D01*
X149885Y220075D01*
X149904Y219975D01*
X149928Y219877D01*
X149955Y219779D01*
X149986Y219683D01*
X150020Y219588D01*
X150059Y219494D01*
X150100Y219402D01*
X150146Y219311D01*
X150195Y219223D01*
X150247Y219136D01*
X150303Y219051D01*
X150362Y218969D01*
X150424Y218889D01*
X150489Y218811D01*
X150557Y218736D01*
X150628Y218664D01*
X150701Y218594D01*
X150778Y218528D01*
X150856Y218464D01*
X150938Y218404D01*
X151021Y218347D01*
X151107Y218293D01*
X151195Y218242D01*
X151284Y218195D01*
X151376Y218151D01*
X151469Y218111D01*
X151563Y218074D01*
X151659Y218042D01*
X151756Y218013D01*
X151854Y217987D01*
X151953Y217966D01*
X152053Y217948D01*
X152153Y217935D01*
X152254Y217925D01*
X152355Y217919D01*
X152456Y217917D01*
X152456Y217918D02*
X155067Y217918D01*
X144296Y213741D02*
X142208Y213741D01*
X144296Y213741D02*
X144385Y213743D01*
X144473Y213749D01*
X144561Y213758D01*
X144649Y213771D01*
X144736Y213788D01*
X144822Y213808D01*
X144907Y213833D01*
X144992Y213860D01*
X145075Y213892D01*
X145156Y213926D01*
X145236Y213965D01*
X145314Y214006D01*
X145391Y214051D01*
X145465Y214099D01*
X145538Y214150D01*
X145608Y214204D01*
X145675Y214262D01*
X145741Y214322D01*
X145803Y214384D01*
X145863Y214450D01*
X145921Y214517D01*
X145975Y214587D01*
X146026Y214660D01*
X146074Y214734D01*
X146119Y214811D01*
X146160Y214889D01*
X146199Y214969D01*
X146233Y215050D01*
X146265Y215133D01*
X146292Y215218D01*
X146317Y215303D01*
X146337Y215389D01*
X146354Y215476D01*
X146367Y215564D01*
X146376Y215652D01*
X146382Y215740D01*
X146384Y215829D01*
X146385Y215829D02*
X146385Y221051D01*
X146384Y221051D02*
X146382Y221140D01*
X146376Y221228D01*
X146367Y221316D01*
X146354Y221404D01*
X146337Y221491D01*
X146317Y221577D01*
X146292Y221662D01*
X146265Y221747D01*
X146233Y221830D01*
X146199Y221911D01*
X146160Y221991D01*
X146119Y222069D01*
X146074Y222146D01*
X146026Y222220D01*
X145975Y222293D01*
X145921Y222363D01*
X145863Y222430D01*
X145803Y222496D01*
X145741Y222558D01*
X145675Y222618D01*
X145608Y222676D01*
X145538Y222730D01*
X145465Y222781D01*
X145391Y222829D01*
X145314Y222874D01*
X145236Y222915D01*
X145156Y222954D01*
X145075Y222988D01*
X144992Y223020D01*
X144907Y223047D01*
X144822Y223072D01*
X144736Y223092D01*
X144649Y223109D01*
X144561Y223122D01*
X144473Y223131D01*
X144385Y223137D01*
X144296Y223139D01*
X142208Y223139D01*
X138417Y213741D02*
X134240Y213741D01*
X138417Y213741D02*
X138417Y223139D01*
X134240Y223139D01*
X135284Y218962D02*
X138417Y218962D01*
X130422Y223139D02*
X130422Y213741D01*
X127289Y217918D02*
X130422Y223139D01*
X127289Y217918D02*
X124157Y223139D01*
X124157Y213741D01*
X119929Y215829D02*
X119929Y217918D01*
X119927Y218008D01*
X119921Y218097D01*
X119912Y218187D01*
X119898Y218276D01*
X119881Y218364D01*
X119860Y218451D01*
X119835Y218538D01*
X119806Y218623D01*
X119774Y218707D01*
X119739Y218789D01*
X119699Y218870D01*
X119657Y218949D01*
X119611Y219026D01*
X119561Y219101D01*
X119509Y219174D01*
X119453Y219245D01*
X119395Y219313D01*
X119333Y219378D01*
X119269Y219441D01*
X119202Y219501D01*
X119133Y219558D01*
X119061Y219612D01*
X118987Y219663D01*
X118911Y219711D01*
X118833Y219755D01*
X118753Y219796D01*
X118671Y219834D01*
X118588Y219868D01*
X118503Y219898D01*
X118417Y219925D01*
X118331Y219948D01*
X118243Y219967D01*
X118154Y219982D01*
X118065Y219994D01*
X117976Y220002D01*
X117886Y220006D01*
X117796Y220006D01*
X117706Y220002D01*
X117617Y219994D01*
X117528Y219982D01*
X117439Y219967D01*
X117351Y219948D01*
X117265Y219925D01*
X117179Y219898D01*
X117094Y219868D01*
X117011Y219834D01*
X116929Y219796D01*
X116849Y219755D01*
X116771Y219711D01*
X116695Y219663D01*
X116621Y219612D01*
X116549Y219558D01*
X116480Y219501D01*
X116413Y219441D01*
X116349Y219378D01*
X116287Y219313D01*
X116229Y219245D01*
X116173Y219174D01*
X116121Y219101D01*
X116071Y219026D01*
X116025Y218949D01*
X115983Y218870D01*
X115943Y218789D01*
X115908Y218707D01*
X115876Y218623D01*
X115847Y218538D01*
X115822Y218451D01*
X115801Y218364D01*
X115784Y218276D01*
X115770Y218187D01*
X115761Y218097D01*
X115755Y218008D01*
X115753Y217918D01*
X115752Y217918D02*
X115752Y215829D01*
X115753Y215829D02*
X115755Y215739D01*
X115761Y215650D01*
X115770Y215560D01*
X115784Y215471D01*
X115801Y215383D01*
X115822Y215296D01*
X115847Y215209D01*
X115876Y215124D01*
X115908Y215040D01*
X115943Y214958D01*
X115983Y214877D01*
X116025Y214798D01*
X116071Y214721D01*
X116121Y214646D01*
X116173Y214573D01*
X116229Y214502D01*
X116287Y214434D01*
X116349Y214369D01*
X116413Y214306D01*
X116480Y214246D01*
X116549Y214189D01*
X116621Y214135D01*
X116695Y214084D01*
X116771Y214036D01*
X116849Y213992D01*
X116929Y213951D01*
X117011Y213913D01*
X117094Y213879D01*
X117179Y213849D01*
X117265Y213822D01*
X117351Y213799D01*
X117439Y213780D01*
X117528Y213765D01*
X117617Y213753D01*
X117706Y213745D01*
X117796Y213741D01*
X117886Y213741D01*
X117976Y213745D01*
X118065Y213753D01*
X118154Y213765D01*
X118243Y213780D01*
X118331Y213799D01*
X118417Y213822D01*
X118503Y213849D01*
X118588Y213879D01*
X118671Y213913D01*
X118753Y213951D01*
X118833Y213992D01*
X118911Y214036D01*
X118987Y214084D01*
X119061Y214135D01*
X119133Y214189D01*
X119202Y214246D01*
X119269Y214306D01*
X119333Y214369D01*
X119395Y214434D01*
X119453Y214502D01*
X119509Y214573D01*
X119561Y214646D01*
X119611Y214721D01*
X119657Y214798D01*
X119699Y214877D01*
X119739Y214958D01*
X119774Y215040D01*
X119806Y215124D01*
X119835Y215209D01*
X119860Y215296D01*
X119881Y215383D01*
X119898Y215471D01*
X119912Y215560D01*
X119921Y215650D01*
X119927Y215739D01*
X119929Y215829D01*
X111700Y215307D02*
X111700Y220006D01*
X111699Y215307D02*
X111697Y215230D01*
X111691Y215154D01*
X111682Y215077D01*
X111669Y215001D01*
X111652Y214926D01*
X111632Y214852D01*
X111607Y214779D01*
X111580Y214708D01*
X111549Y214637D01*
X111514Y214569D01*
X111476Y214502D01*
X111435Y214437D01*
X111391Y214374D01*
X111344Y214314D01*
X111293Y214255D01*
X111240Y214200D01*
X111185Y214147D01*
X111126Y214096D01*
X111066Y214049D01*
X111003Y214005D01*
X110938Y213964D01*
X110871Y213926D01*
X110803Y213891D01*
X110732Y213860D01*
X110661Y213833D01*
X110588Y213808D01*
X110514Y213788D01*
X110439Y213771D01*
X110363Y213758D01*
X110286Y213749D01*
X110210Y213743D01*
X110133Y213741D01*
X107523Y213741D01*
X107523Y220006D01*
X102687Y217396D02*
X100076Y216352D01*
X102687Y217396D02*
X102753Y217424D01*
X102818Y217457D01*
X102881Y217492D01*
X102942Y217531D01*
X103001Y217573D01*
X103057Y217618D01*
X103111Y217666D01*
X103162Y217717D01*
X103211Y217770D01*
X103256Y217827D01*
X103299Y217885D01*
X103338Y217945D01*
X103375Y218008D01*
X103407Y218073D01*
X103436Y218139D01*
X103462Y218206D01*
X103484Y218275D01*
X103502Y218345D01*
X103517Y218416D01*
X103528Y218487D01*
X103535Y218559D01*
X103538Y218631D01*
X103537Y218703D01*
X103532Y218776D01*
X103524Y218847D01*
X103512Y218919D01*
X103496Y218989D01*
X103476Y219058D01*
X103452Y219127D01*
X103425Y219194D01*
X103395Y219259D01*
X103361Y219323D01*
X103323Y219385D01*
X103283Y219445D01*
X103239Y219502D01*
X103192Y219557D01*
X103142Y219610D01*
X103090Y219659D01*
X103035Y219706D01*
X102978Y219750D01*
X102918Y219791D01*
X102856Y219828D01*
X102792Y219863D01*
X102727Y219893D01*
X102660Y219921D01*
X102592Y219944D01*
X102522Y219964D01*
X102452Y219980D01*
X102381Y219993D01*
X102309Y220001D01*
X102237Y220006D01*
X102165Y220007D01*
X102164Y220006D02*
X102013Y220002D01*
X101862Y219994D01*
X101711Y219983D01*
X101560Y219967D01*
X101410Y219947D01*
X101260Y219924D01*
X101111Y219897D01*
X100963Y219866D01*
X100815Y219831D01*
X100669Y219793D01*
X100523Y219750D01*
X100379Y219704D01*
X100236Y219655D01*
X100094Y219602D01*
X99954Y219545D01*
X99815Y219484D01*
X100076Y216352D02*
X100010Y216324D01*
X99945Y216291D01*
X99882Y216256D01*
X99821Y216217D01*
X99762Y216175D01*
X99706Y216130D01*
X99652Y216082D01*
X99601Y216031D01*
X99552Y215978D01*
X99507Y215921D01*
X99464Y215863D01*
X99425Y215803D01*
X99388Y215740D01*
X99356Y215675D01*
X99327Y215609D01*
X99301Y215542D01*
X99279Y215473D01*
X99261Y215403D01*
X99246Y215332D01*
X99235Y215261D01*
X99228Y215189D01*
X99225Y215117D01*
X99226Y215045D01*
X99231Y214972D01*
X99239Y214901D01*
X99251Y214829D01*
X99267Y214759D01*
X99287Y214690D01*
X99311Y214621D01*
X99338Y214554D01*
X99368Y214489D01*
X99402Y214425D01*
X99440Y214363D01*
X99480Y214303D01*
X99524Y214246D01*
X99571Y214191D01*
X99621Y214138D01*
X99673Y214089D01*
X99728Y214042D01*
X99785Y213998D01*
X99845Y213957D01*
X99907Y213920D01*
X99971Y213885D01*
X100036Y213855D01*
X100103Y213827D01*
X100171Y213804D01*
X100241Y213784D01*
X100311Y213768D01*
X100382Y213755D01*
X100454Y213747D01*
X100526Y213742D01*
X100598Y213741D01*
X100808Y213746D01*
X101017Y213757D01*
X101226Y213772D01*
X101434Y213792D01*
X101642Y213818D01*
X101849Y213848D01*
X102056Y213883D01*
X102261Y213923D01*
X102466Y213967D01*
X102669Y214017D01*
X102872Y214071D01*
X103073Y214131D01*
X103272Y214194D01*
X103470Y214263D01*
X93979Y213741D02*
X91368Y213741D01*
X93979Y213741D02*
X94056Y213743D01*
X94132Y213749D01*
X94209Y213758D01*
X94285Y213771D01*
X94360Y213788D01*
X94434Y213808D01*
X94507Y213833D01*
X94578Y213860D01*
X94649Y213891D01*
X94717Y213926D01*
X94784Y213964D01*
X94849Y214005D01*
X94912Y214049D01*
X94972Y214096D01*
X95031Y214147D01*
X95086Y214200D01*
X95139Y214255D01*
X95190Y214314D01*
X95237Y214374D01*
X95281Y214437D01*
X95322Y214502D01*
X95360Y214569D01*
X95395Y214637D01*
X95426Y214708D01*
X95453Y214779D01*
X95478Y214852D01*
X95498Y214926D01*
X95515Y215001D01*
X95528Y215077D01*
X95537Y215154D01*
X95543Y215230D01*
X95545Y215307D01*
X95545Y217918D01*
X95543Y218008D01*
X95537Y218097D01*
X95528Y218187D01*
X95514Y218276D01*
X95497Y218364D01*
X95476Y218451D01*
X95451Y218538D01*
X95422Y218623D01*
X95390Y218707D01*
X95355Y218789D01*
X95315Y218870D01*
X95273Y218949D01*
X95227Y219026D01*
X95177Y219101D01*
X95125Y219174D01*
X95069Y219245D01*
X95011Y219313D01*
X94949Y219378D01*
X94885Y219441D01*
X94818Y219501D01*
X94749Y219558D01*
X94677Y219612D01*
X94603Y219663D01*
X94527Y219711D01*
X94449Y219755D01*
X94369Y219796D01*
X94287Y219834D01*
X94204Y219868D01*
X94119Y219898D01*
X94033Y219925D01*
X93947Y219948D01*
X93859Y219967D01*
X93770Y219982D01*
X93681Y219994D01*
X93592Y220002D01*
X93502Y220006D01*
X93412Y220006D01*
X93322Y220002D01*
X93233Y219994D01*
X93144Y219982D01*
X93055Y219967D01*
X92967Y219948D01*
X92881Y219925D01*
X92795Y219898D01*
X92710Y219868D01*
X92627Y219834D01*
X92545Y219796D01*
X92465Y219755D01*
X92387Y219711D01*
X92311Y219663D01*
X92237Y219612D01*
X92165Y219558D01*
X92096Y219501D01*
X92029Y219441D01*
X91965Y219378D01*
X91903Y219313D01*
X91845Y219245D01*
X91789Y219174D01*
X91737Y219101D01*
X91687Y219026D01*
X91641Y218949D01*
X91599Y218870D01*
X91559Y218789D01*
X91524Y218707D01*
X91492Y218623D01*
X91463Y218538D01*
X91438Y218451D01*
X91417Y218364D01*
X91400Y218276D01*
X91386Y218187D01*
X91377Y218097D01*
X91371Y218008D01*
X91369Y217918D01*
X91368Y217918D02*
X91368Y216874D01*
X95545Y216874D01*
X87960Y213741D02*
X87438Y213741D01*
X87960Y213741D02*
X87960Y214263D01*
X87438Y214263D01*
X87438Y213741D01*
X88221Y211653D01*
X78730Y213741D02*
X78730Y220006D01*
X75597Y220006D01*
X75597Y218962D01*
X71119Y213741D02*
X68509Y213741D01*
X71119Y213741D02*
X71196Y213743D01*
X71272Y213749D01*
X71349Y213758D01*
X71425Y213771D01*
X71500Y213788D01*
X71574Y213808D01*
X71647Y213833D01*
X71718Y213860D01*
X71789Y213891D01*
X71857Y213926D01*
X71924Y213964D01*
X71989Y214005D01*
X72052Y214049D01*
X72112Y214096D01*
X72171Y214147D01*
X72226Y214200D01*
X72279Y214255D01*
X72330Y214314D01*
X72377Y214374D01*
X72421Y214437D01*
X72462Y214502D01*
X72500Y214569D01*
X72535Y214637D01*
X72566Y214708D01*
X72593Y214779D01*
X72618Y214852D01*
X72638Y214926D01*
X72655Y215001D01*
X72668Y215077D01*
X72677Y215154D01*
X72683Y215230D01*
X72685Y215307D01*
X72685Y217918D01*
X72683Y218008D01*
X72677Y218097D01*
X72668Y218187D01*
X72654Y218276D01*
X72637Y218364D01*
X72616Y218451D01*
X72591Y218538D01*
X72562Y218623D01*
X72530Y218707D01*
X72495Y218789D01*
X72455Y218870D01*
X72413Y218949D01*
X72367Y219026D01*
X72317Y219101D01*
X72265Y219174D01*
X72209Y219245D01*
X72151Y219313D01*
X72089Y219378D01*
X72025Y219441D01*
X71958Y219501D01*
X71889Y219558D01*
X71817Y219612D01*
X71743Y219663D01*
X71667Y219711D01*
X71589Y219755D01*
X71509Y219796D01*
X71427Y219834D01*
X71344Y219868D01*
X71259Y219898D01*
X71173Y219925D01*
X71087Y219948D01*
X70999Y219967D01*
X70910Y219982D01*
X70821Y219994D01*
X70732Y220002D01*
X70642Y220006D01*
X70552Y220006D01*
X70462Y220002D01*
X70373Y219994D01*
X70284Y219982D01*
X70195Y219967D01*
X70107Y219948D01*
X70021Y219925D01*
X69935Y219898D01*
X69850Y219868D01*
X69767Y219834D01*
X69685Y219796D01*
X69605Y219755D01*
X69527Y219711D01*
X69451Y219663D01*
X69377Y219612D01*
X69305Y219558D01*
X69236Y219501D01*
X69169Y219441D01*
X69105Y219378D01*
X69043Y219313D01*
X68985Y219245D01*
X68929Y219174D01*
X68877Y219101D01*
X68827Y219026D01*
X68781Y218949D01*
X68739Y218870D01*
X68699Y218789D01*
X68664Y218707D01*
X68632Y218623D01*
X68603Y218538D01*
X68578Y218451D01*
X68557Y218364D01*
X68540Y218276D01*
X68526Y218187D01*
X68517Y218097D01*
X68511Y218008D01*
X68509Y217918D01*
X68509Y216874D01*
X72685Y216874D01*
X65065Y220006D02*
X62977Y213741D01*
X60889Y220006D01*
X57752Y214263D02*
X57752Y213741D01*
X57752Y214263D02*
X57230Y214263D01*
X57230Y213741D01*
X57752Y213741D01*
X48388Y218962D02*
X45777Y218962D01*
X45777Y218963D02*
X45676Y218961D01*
X45575Y218955D01*
X45474Y218945D01*
X45374Y218932D01*
X45274Y218914D01*
X45175Y218893D01*
X45077Y218867D01*
X44980Y218838D01*
X44884Y218806D01*
X44790Y218769D01*
X44697Y218729D01*
X44605Y218685D01*
X44516Y218638D01*
X44428Y218587D01*
X44342Y218533D01*
X44259Y218476D01*
X44177Y218416D01*
X44099Y218352D01*
X44022Y218286D01*
X43949Y218216D01*
X43878Y218144D01*
X43810Y218069D01*
X43745Y217991D01*
X43683Y217911D01*
X43624Y217829D01*
X43568Y217744D01*
X43516Y217658D01*
X43467Y217569D01*
X43421Y217478D01*
X43380Y217386D01*
X43341Y217292D01*
X43307Y217197D01*
X43276Y217101D01*
X43249Y217003D01*
X43225Y216905D01*
X43206Y216805D01*
X43190Y216705D01*
X43178Y216605D01*
X43170Y216504D01*
X43166Y216403D01*
X43166Y216301D01*
X43170Y216200D01*
X43178Y216099D01*
X43190Y215999D01*
X43206Y215899D01*
X43225Y215799D01*
X43249Y215701D01*
X43276Y215603D01*
X43307Y215507D01*
X43341Y215412D01*
X43380Y215318D01*
X43421Y215226D01*
X43467Y215135D01*
X43516Y215047D01*
X43568Y214960D01*
X43624Y214875D01*
X43683Y214793D01*
X43745Y214713D01*
X43810Y214635D01*
X43878Y214560D01*
X43949Y214488D01*
X44022Y214418D01*
X44099Y214352D01*
X44177Y214288D01*
X44259Y214228D01*
X44342Y214171D01*
X44428Y214117D01*
X44516Y214066D01*
X44605Y214019D01*
X44697Y213975D01*
X44790Y213935D01*
X44884Y213898D01*
X44980Y213866D01*
X45077Y213837D01*
X45175Y213811D01*
X45274Y213790D01*
X45374Y213772D01*
X45474Y213759D01*
X45575Y213749D01*
X45676Y213743D01*
X45777Y213741D01*
X48388Y213741D01*
X48388Y223139D01*
X45777Y223139D01*
X45687Y223137D01*
X45598Y223131D01*
X45508Y223122D01*
X45419Y223108D01*
X45331Y223091D01*
X45244Y223070D01*
X45157Y223045D01*
X45072Y223016D01*
X44988Y222984D01*
X44906Y222949D01*
X44825Y222909D01*
X44746Y222867D01*
X44669Y222821D01*
X44594Y222771D01*
X44521Y222719D01*
X44450Y222663D01*
X44382Y222605D01*
X44317Y222543D01*
X44254Y222479D01*
X44194Y222412D01*
X44137Y222343D01*
X44083Y222271D01*
X44032Y222197D01*
X43984Y222121D01*
X43940Y222043D01*
X43899Y221963D01*
X43861Y221881D01*
X43827Y221798D01*
X43797Y221713D01*
X43770Y221627D01*
X43747Y221541D01*
X43728Y221453D01*
X43713Y221364D01*
X43701Y221275D01*
X43693Y221186D01*
X43689Y221096D01*
X43689Y221006D01*
X43693Y220916D01*
X43701Y220827D01*
X43713Y220738D01*
X43728Y220649D01*
X43747Y220561D01*
X43770Y220475D01*
X43797Y220389D01*
X43827Y220304D01*
X43861Y220221D01*
X43899Y220139D01*
X43940Y220059D01*
X43984Y219981D01*
X44032Y219905D01*
X44083Y219831D01*
X44137Y219759D01*
X44194Y219690D01*
X44254Y219623D01*
X44317Y219559D01*
X44382Y219497D01*
X44450Y219439D01*
X44521Y219383D01*
X44594Y219331D01*
X44669Y219281D01*
X44746Y219235D01*
X44825Y219193D01*
X44906Y219153D01*
X44988Y219118D01*
X45072Y219086D01*
X45157Y219057D01*
X45244Y219032D01*
X45331Y219011D01*
X45419Y218994D01*
X45508Y218980D01*
X45598Y218971D01*
X45687Y218965D01*
X45777Y218963D01*
X164409Y211483D02*
X164545Y211317D01*
X164677Y211147D01*
X164805Y210974D01*
X164929Y210798D01*
X165048Y210620D01*
X165163Y210438D01*
X165274Y210254D01*
X165380Y210067D01*
X165482Y209877D01*
X165579Y209685D01*
X165672Y209491D01*
X165760Y209295D01*
X165843Y209097D01*
X165921Y208896D01*
X165995Y208694D01*
X166063Y208490D01*
X166127Y208285D01*
X166186Y208078D01*
X166240Y207870D01*
X166288Y207660D01*
X166332Y207450D01*
X166371Y207238D01*
X166404Y207026D01*
X166432Y206813D01*
X166456Y206599D01*
X166474Y206385D01*
X166487Y206170D01*
X166494Y205955D01*
X166497Y205740D01*
X166494Y205525D01*
X166487Y205310D01*
X166474Y205095D01*
X166456Y204881D01*
X166432Y204667D01*
X166404Y204454D01*
X166371Y204242D01*
X166332Y204030D01*
X166288Y203820D01*
X166240Y203610D01*
X166186Y203402D01*
X166127Y203195D01*
X166063Y202990D01*
X165995Y202786D01*
X165921Y202584D01*
X165843Y202383D01*
X165760Y202185D01*
X165672Y201989D01*
X165579Y201795D01*
X165482Y201603D01*
X165380Y201413D01*
X165274Y201226D01*
X165163Y201042D01*
X165048Y200861D01*
X164929Y200682D01*
X164805Y200506D01*
X164677Y200333D01*
X164545Y200163D01*
X164409Y199997D01*
X158708Y201041D02*
X156620Y201041D01*
X158708Y201041D02*
X158797Y201043D01*
X158885Y201049D01*
X158973Y201058D01*
X159061Y201071D01*
X159148Y201088D01*
X159234Y201108D01*
X159319Y201133D01*
X159404Y201160D01*
X159487Y201192D01*
X159568Y201226D01*
X159648Y201265D01*
X159726Y201306D01*
X159803Y201351D01*
X159877Y201399D01*
X159950Y201450D01*
X160020Y201504D01*
X160087Y201562D01*
X160153Y201622D01*
X160215Y201684D01*
X160275Y201750D01*
X160333Y201817D01*
X160387Y201887D01*
X160438Y201960D01*
X160486Y202034D01*
X160531Y202111D01*
X160572Y202189D01*
X160611Y202269D01*
X160645Y202350D01*
X160677Y202433D01*
X160704Y202518D01*
X160729Y202603D01*
X160749Y202689D01*
X160766Y202776D01*
X160779Y202864D01*
X160788Y202952D01*
X160794Y203040D01*
X160796Y203129D01*
X160797Y203129D02*
X160797Y208351D01*
X160796Y208351D02*
X160794Y208440D01*
X160788Y208528D01*
X160779Y208616D01*
X160766Y208704D01*
X160749Y208791D01*
X160729Y208877D01*
X160704Y208962D01*
X160677Y209047D01*
X160645Y209130D01*
X160611Y209211D01*
X160572Y209291D01*
X160531Y209369D01*
X160486Y209446D01*
X160438Y209520D01*
X160387Y209593D01*
X160333Y209663D01*
X160275Y209730D01*
X160215Y209796D01*
X160153Y209858D01*
X160087Y209918D01*
X160020Y209976D01*
X159950Y210030D01*
X159877Y210081D01*
X159803Y210129D01*
X159726Y210174D01*
X159648Y210215D01*
X159568Y210254D01*
X159487Y210288D01*
X159404Y210320D01*
X159319Y210347D01*
X159234Y210372D01*
X159148Y210392D01*
X159061Y210409D01*
X158973Y210422D01*
X158885Y210431D01*
X158797Y210437D01*
X158708Y210439D01*
X156620Y210439D01*
X151348Y205740D02*
X151351Y205525D01*
X151358Y205310D01*
X151371Y205095D01*
X151389Y204881D01*
X151413Y204667D01*
X151441Y204454D01*
X151474Y204242D01*
X151513Y204030D01*
X151557Y203820D01*
X151605Y203610D01*
X151659Y203402D01*
X151718Y203195D01*
X151782Y202990D01*
X151850Y202786D01*
X151924Y202584D01*
X152002Y202383D01*
X152085Y202185D01*
X152173Y201989D01*
X152266Y201795D01*
X152363Y201603D01*
X152465Y201413D01*
X152571Y201226D01*
X152682Y201042D01*
X152797Y200861D01*
X152916Y200682D01*
X153040Y200506D01*
X153168Y200333D01*
X153300Y200163D01*
X153436Y199997D01*
X151348Y205740D02*
X151351Y205955D01*
X151358Y206170D01*
X151371Y206385D01*
X151389Y206599D01*
X151413Y206813D01*
X151441Y207026D01*
X151474Y207238D01*
X151513Y207450D01*
X151557Y207660D01*
X151605Y207870D01*
X151659Y208078D01*
X151718Y208285D01*
X151782Y208490D01*
X151850Y208694D01*
X151924Y208896D01*
X152002Y209097D01*
X152085Y209295D01*
X152173Y209491D01*
X152266Y209685D01*
X152363Y209877D01*
X152465Y210067D01*
X152571Y210254D01*
X152682Y210438D01*
X152797Y210620D01*
X152916Y210798D01*
X153040Y210974D01*
X153168Y211147D01*
X153300Y211317D01*
X153436Y211483D01*
X144488Y210440D02*
X144393Y210438D01*
X144299Y210432D01*
X144205Y210423D01*
X144111Y210410D01*
X144018Y210393D01*
X143926Y210372D01*
X143834Y210347D01*
X143744Y210319D01*
X143655Y210287D01*
X143567Y210252D01*
X143481Y210213D01*
X143396Y210171D01*
X143313Y210125D01*
X143232Y210076D01*
X143153Y210024D01*
X143076Y209969D01*
X143002Y209910D01*
X142930Y209849D01*
X142860Y209785D01*
X142793Y209718D01*
X142729Y209648D01*
X142668Y209576D01*
X142609Y209502D01*
X142554Y209425D01*
X142502Y209346D01*
X142453Y209265D01*
X142407Y209182D01*
X142365Y209097D01*
X142326Y209011D01*
X142291Y208923D01*
X142259Y208834D01*
X142231Y208744D01*
X142206Y208652D01*
X142185Y208560D01*
X142168Y208467D01*
X142155Y208373D01*
X142146Y208279D01*
X142140Y208185D01*
X142138Y208090D01*
X144488Y210439D02*
X144596Y210437D01*
X144705Y210431D01*
X144813Y210421D01*
X144920Y210408D01*
X145027Y210390D01*
X145134Y210369D01*
X145239Y210344D01*
X145344Y210315D01*
X145447Y210283D01*
X145549Y210246D01*
X145650Y210206D01*
X145749Y210163D01*
X145847Y210116D01*
X145943Y210065D01*
X146037Y210011D01*
X146129Y209954D01*
X146219Y209893D01*
X146307Y209829D01*
X146392Y209763D01*
X146475Y209693D01*
X146555Y209620D01*
X146633Y209544D01*
X146708Y209466D01*
X146780Y209385D01*
X146849Y209301D01*
X146915Y209215D01*
X146978Y209127D01*
X147037Y209036D01*
X147094Y208944D01*
X147147Y208849D01*
X147196Y208752D01*
X147242Y208654D01*
X147285Y208555D01*
X147324Y208453D01*
X147359Y208351D01*
X142921Y206262D02*
X142852Y206331D01*
X142786Y206402D01*
X142722Y206475D01*
X142661Y206551D01*
X142603Y206630D01*
X142549Y206710D01*
X142497Y206793D01*
X142449Y206877D01*
X142403Y206963D01*
X142362Y207051D01*
X142323Y207141D01*
X142288Y207232D01*
X142257Y207324D01*
X142229Y207417D01*
X142205Y207511D01*
X142185Y207606D01*
X142168Y207702D01*
X142155Y207799D01*
X142146Y207896D01*
X142140Y207993D01*
X142138Y208090D01*
X142922Y206262D02*
X147360Y201041D01*
X142139Y201041D01*
X138216Y205740D02*
X138214Y205925D01*
X138207Y206110D01*
X138196Y206294D01*
X138181Y206478D01*
X138161Y206662D01*
X138137Y206846D01*
X138108Y207028D01*
X138075Y207210D01*
X138038Y207391D01*
X137996Y207571D01*
X137950Y207751D01*
X137900Y207929D01*
X137846Y208105D01*
X137787Y208281D01*
X137725Y208455D01*
X137658Y208627D01*
X137587Y208798D01*
X137512Y208967D01*
X137433Y209134D01*
X137403Y209214D01*
X137370Y209293D01*
X137333Y209370D01*
X137293Y209446D01*
X137250Y209520D01*
X137204Y209592D01*
X137154Y209661D01*
X137102Y209729D01*
X137046Y209794D01*
X136988Y209857D01*
X136926Y209916D01*
X136863Y209974D01*
X136796Y210028D01*
X136728Y210079D01*
X136657Y210127D01*
X136584Y210172D01*
X136510Y210214D01*
X136433Y210252D01*
X136355Y210287D01*
X136276Y210319D01*
X136195Y210347D01*
X136113Y210371D01*
X136029Y210392D01*
X135946Y210409D01*
X135861Y210422D01*
X135776Y210431D01*
X135691Y210437D01*
X135605Y210439D01*
X135519Y210437D01*
X135434Y210431D01*
X135349Y210422D01*
X135264Y210409D01*
X135181Y210392D01*
X135097Y210371D01*
X135015Y210347D01*
X134935Y210319D01*
X134855Y210287D01*
X134777Y210252D01*
X134700Y210214D01*
X134626Y210172D01*
X134553Y210127D01*
X134482Y210079D01*
X134414Y210028D01*
X134347Y209974D01*
X134284Y209916D01*
X134223Y209857D01*
X134164Y209794D01*
X134109Y209729D01*
X134056Y209661D01*
X134006Y209592D01*
X133960Y209520D01*
X133917Y209446D01*
X133877Y209370D01*
X133840Y209293D01*
X133807Y209214D01*
X133777Y209134D01*
X133778Y209134D02*
X133699Y208967D01*
X133624Y208798D01*
X133553Y208627D01*
X133486Y208455D01*
X133424Y208281D01*
X133365Y208105D01*
X133311Y207929D01*
X133261Y207751D01*
X133215Y207571D01*
X133173Y207391D01*
X133136Y207210D01*
X133103Y207028D01*
X133074Y206846D01*
X133050Y206662D01*
X133030Y206478D01*
X133015Y206294D01*
X133004Y206110D01*
X132997Y205925D01*
X132995Y205740D01*
X138216Y205740D02*
X138214Y205555D01*
X138207Y205370D01*
X138196Y205186D01*
X138181Y205002D01*
X138161Y204818D01*
X138137Y204634D01*
X138108Y204452D01*
X138075Y204270D01*
X138038Y204089D01*
X137996Y203909D01*
X137950Y203729D01*
X137900Y203551D01*
X137846Y203375D01*
X137787Y203199D01*
X137725Y203025D01*
X137658Y202853D01*
X137587Y202682D01*
X137512Y202513D01*
X137433Y202346D01*
X137403Y202266D01*
X137370Y202187D01*
X137333Y202110D01*
X137293Y202034D01*
X137250Y201960D01*
X137204Y201888D01*
X137154Y201819D01*
X137101Y201751D01*
X137046Y201686D01*
X136987Y201623D01*
X136926Y201564D01*
X136863Y201506D01*
X136796Y201452D01*
X136728Y201401D01*
X136657Y201353D01*
X136584Y201308D01*
X136510Y201266D01*
X136433Y201228D01*
X136355Y201193D01*
X136276Y201161D01*
X136195Y201133D01*
X136113Y201109D01*
X136029Y201088D01*
X135946Y201071D01*
X135861Y201058D01*
X135776Y201049D01*
X135691Y201043D01*
X135605Y201041D01*
X133778Y202346D02*
X133699Y202513D01*
X133624Y202682D01*
X133553Y202853D01*
X133486Y203025D01*
X133424Y203199D01*
X133365Y203375D01*
X133311Y203551D01*
X133261Y203729D01*
X133215Y203909D01*
X133173Y204089D01*
X133136Y204270D01*
X133103Y204452D01*
X133074Y204634D01*
X133050Y204818D01*
X133030Y205002D01*
X133015Y205186D01*
X133004Y205370D01*
X132997Y205555D01*
X132995Y205740D01*
X133777Y202346D02*
X133807Y202266D01*
X133840Y202187D01*
X133877Y202110D01*
X133917Y202034D01*
X133960Y201960D01*
X134006Y201888D01*
X134056Y201819D01*
X134109Y201751D01*
X134164Y201686D01*
X134223Y201623D01*
X134284Y201564D01*
X134347Y201506D01*
X134414Y201452D01*
X134482Y201401D01*
X134553Y201353D01*
X134626Y201308D01*
X134700Y201266D01*
X134777Y201228D01*
X134855Y201193D01*
X134935Y201161D01*
X135015Y201133D01*
X135097Y201109D01*
X135181Y201088D01*
X135264Y201071D01*
X135349Y201058D01*
X135434Y201049D01*
X135519Y201043D01*
X135605Y201041D01*
X137694Y203129D02*
X133517Y208351D01*
X126200Y210440D02*
X126105Y210438D01*
X126011Y210432D01*
X125917Y210423D01*
X125823Y210410D01*
X125730Y210393D01*
X125638Y210372D01*
X125546Y210347D01*
X125456Y210319D01*
X125367Y210287D01*
X125279Y210252D01*
X125193Y210213D01*
X125108Y210171D01*
X125025Y210125D01*
X124944Y210076D01*
X124865Y210024D01*
X124788Y209969D01*
X124714Y209910D01*
X124642Y209849D01*
X124572Y209785D01*
X124505Y209718D01*
X124441Y209648D01*
X124380Y209576D01*
X124321Y209502D01*
X124266Y209425D01*
X124214Y209346D01*
X124165Y209265D01*
X124119Y209182D01*
X124077Y209097D01*
X124038Y209011D01*
X124003Y208923D01*
X123971Y208834D01*
X123943Y208744D01*
X123918Y208652D01*
X123897Y208560D01*
X123880Y208467D01*
X123867Y208373D01*
X123858Y208279D01*
X123852Y208185D01*
X123850Y208090D01*
X126200Y210439D02*
X126308Y210437D01*
X126417Y210431D01*
X126525Y210421D01*
X126632Y210408D01*
X126739Y210390D01*
X126846Y210369D01*
X126951Y210344D01*
X127056Y210315D01*
X127159Y210283D01*
X127261Y210246D01*
X127362Y210206D01*
X127461Y210163D01*
X127559Y210116D01*
X127655Y210065D01*
X127749Y210011D01*
X127841Y209954D01*
X127931Y209893D01*
X128019Y209829D01*
X128104Y209763D01*
X128187Y209693D01*
X128267Y209620D01*
X128345Y209544D01*
X128420Y209466D01*
X128492Y209385D01*
X128561Y209301D01*
X128627Y209215D01*
X128690Y209127D01*
X128749Y209036D01*
X128806Y208944D01*
X128859Y208849D01*
X128908Y208752D01*
X128954Y208654D01*
X128997Y208555D01*
X129036Y208453D01*
X129071Y208351D01*
X124634Y206262D02*
X124565Y206331D01*
X124499Y206402D01*
X124435Y206475D01*
X124374Y206551D01*
X124316Y206630D01*
X124262Y206710D01*
X124210Y206793D01*
X124162Y206877D01*
X124116Y206963D01*
X124075Y207051D01*
X124036Y207141D01*
X124001Y207232D01*
X123970Y207324D01*
X123942Y207417D01*
X123918Y207511D01*
X123898Y207606D01*
X123881Y207702D01*
X123868Y207799D01*
X123859Y207896D01*
X123853Y207993D01*
X123851Y208090D01*
X124634Y206262D02*
X129072Y201041D01*
X123851Y201041D01*
X119928Y208351D02*
X117318Y210439D01*
X117318Y201041D01*
X119928Y201041D02*
X114707Y201041D01*
X105603Y201041D02*
X105603Y210439D01*
X102992Y210439D01*
X102892Y210437D01*
X102792Y210431D01*
X102693Y210422D01*
X102593Y210408D01*
X102495Y210391D01*
X102397Y210370D01*
X102300Y210346D01*
X102204Y210317D01*
X102109Y210285D01*
X102016Y210250D01*
X101924Y210211D01*
X101833Y210168D01*
X101745Y210122D01*
X101658Y210072D01*
X101573Y210020D01*
X101490Y209964D01*
X101409Y209905D01*
X101331Y209842D01*
X101255Y209777D01*
X101181Y209709D01*
X101111Y209639D01*
X101043Y209565D01*
X100978Y209489D01*
X100915Y209411D01*
X100856Y209330D01*
X100800Y209247D01*
X100748Y209162D01*
X100698Y209075D01*
X100652Y208987D01*
X100609Y208896D01*
X100570Y208804D01*
X100535Y208711D01*
X100503Y208616D01*
X100474Y208520D01*
X100450Y208423D01*
X100429Y208325D01*
X100412Y208227D01*
X100398Y208127D01*
X100389Y208028D01*
X100383Y207928D01*
X100381Y207828D01*
X100381Y203652D01*
X100383Y203552D01*
X100389Y203452D01*
X100398Y203353D01*
X100412Y203253D01*
X100429Y203155D01*
X100450Y203057D01*
X100474Y202960D01*
X100503Y202864D01*
X100535Y202769D01*
X100570Y202676D01*
X100609Y202584D01*
X100652Y202493D01*
X100698Y202405D01*
X100748Y202318D01*
X100800Y202233D01*
X100856Y202150D01*
X100915Y202069D01*
X100978Y201991D01*
X101043Y201915D01*
X101111Y201841D01*
X101181Y201771D01*
X101255Y201703D01*
X101331Y201638D01*
X101409Y201575D01*
X101490Y201516D01*
X101573Y201460D01*
X101658Y201408D01*
X101745Y201358D01*
X101833Y201312D01*
X101924Y201269D01*
X102016Y201230D01*
X102109Y201195D01*
X102204Y201163D01*
X102300Y201134D01*
X102397Y201110D01*
X102495Y201089D01*
X102593Y201072D01*
X102693Y201058D01*
X102792Y201049D01*
X102892Y201043D01*
X102992Y201041D01*
X105603Y201041D01*
X94460Y204696D02*
X92110Y204696D01*
X94460Y204695D02*
X94544Y204693D01*
X94629Y204687D01*
X94712Y204677D01*
X94796Y204664D01*
X94878Y204646D01*
X94960Y204625D01*
X95041Y204600D01*
X95120Y204572D01*
X95198Y204539D01*
X95274Y204503D01*
X95349Y204464D01*
X95422Y204421D01*
X95493Y204375D01*
X95561Y204326D01*
X95627Y204274D01*
X95691Y204218D01*
X95752Y204160D01*
X95810Y204099D01*
X95866Y204035D01*
X95918Y203969D01*
X95967Y203901D01*
X96013Y203830D01*
X96056Y203757D01*
X96095Y203682D01*
X96131Y203606D01*
X96164Y203528D01*
X96192Y203449D01*
X96217Y203368D01*
X96238Y203286D01*
X96256Y203204D01*
X96269Y203120D01*
X96279Y203037D01*
X96285Y202952D01*
X96287Y202868D01*
X96285Y202784D01*
X96279Y202699D01*
X96269Y202616D01*
X96256Y202532D01*
X96238Y202450D01*
X96217Y202368D01*
X96192Y202287D01*
X96164Y202208D01*
X96131Y202130D01*
X96095Y202054D01*
X96056Y201979D01*
X96013Y201906D01*
X95967Y201835D01*
X95918Y201767D01*
X95866Y201701D01*
X95810Y201637D01*
X95752Y201576D01*
X95691Y201518D01*
X95627Y201462D01*
X95561Y201410D01*
X95493Y201361D01*
X95422Y201315D01*
X95349Y201272D01*
X95274Y201233D01*
X95198Y201197D01*
X95120Y201164D01*
X95041Y201136D01*
X94960Y201111D01*
X94878Y201090D01*
X94796Y201072D01*
X94712Y201059D01*
X94629Y201049D01*
X94544Y201043D01*
X94460Y201041D01*
X92110Y201041D01*
X92110Y205740D01*
X92112Y205817D01*
X92118Y205893D01*
X92127Y205970D01*
X92140Y206046D01*
X92157Y206121D01*
X92177Y206195D01*
X92202Y206268D01*
X92229Y206339D01*
X92260Y206410D01*
X92295Y206478D01*
X92333Y206545D01*
X92374Y206610D01*
X92418Y206673D01*
X92465Y206733D01*
X92516Y206792D01*
X92569Y206847D01*
X92624Y206900D01*
X92683Y206951D01*
X92743Y206998D01*
X92806Y207042D01*
X92871Y207083D01*
X92938Y207121D01*
X93006Y207156D01*
X93077Y207187D01*
X93148Y207214D01*
X93221Y207239D01*
X93296Y207259D01*
X93371Y207276D01*
X93446Y207289D01*
X93523Y207298D01*
X93599Y207304D01*
X93676Y207306D01*
X95765Y207306D01*
X88317Y207306D02*
X86228Y201041D01*
X84140Y207306D01*
X80742Y207306D02*
X80742Y201041D01*
X81003Y209917D02*
X81003Y210439D01*
X80481Y210439D01*
X80481Y209917D01*
X81003Y209917D01*
X72908Y210439D02*
X72908Y201041D01*
X75518Y201041D01*
X75595Y201043D01*
X75671Y201049D01*
X75748Y201058D01*
X75824Y201071D01*
X75899Y201088D01*
X75973Y201108D01*
X76046Y201133D01*
X76117Y201160D01*
X76188Y201191D01*
X76256Y201226D01*
X76323Y201264D01*
X76388Y201305D01*
X76451Y201349D01*
X76511Y201396D01*
X76570Y201447D01*
X76625Y201500D01*
X76678Y201555D01*
X76729Y201614D01*
X76776Y201674D01*
X76820Y201737D01*
X76861Y201802D01*
X76899Y201869D01*
X76934Y201937D01*
X76965Y202008D01*
X76992Y202079D01*
X77017Y202152D01*
X77037Y202226D01*
X77054Y202301D01*
X77067Y202377D01*
X77076Y202454D01*
X77082Y202530D01*
X77084Y202607D01*
X77085Y202607D02*
X77085Y205740D01*
X77084Y205740D02*
X77082Y205817D01*
X77076Y205893D01*
X77067Y205970D01*
X77054Y206046D01*
X77037Y206121D01*
X77017Y206195D01*
X76992Y206268D01*
X76965Y206339D01*
X76934Y206410D01*
X76899Y206478D01*
X76861Y206545D01*
X76820Y206610D01*
X76776Y206673D01*
X76729Y206733D01*
X76678Y206792D01*
X76625Y206847D01*
X76570Y206900D01*
X76511Y206951D01*
X76451Y206998D01*
X76388Y207042D01*
X76323Y207083D01*
X76256Y207121D01*
X76188Y207156D01*
X76117Y207187D01*
X76046Y207214D01*
X75973Y207239D01*
X75899Y207259D01*
X75824Y207276D01*
X75748Y207289D01*
X75671Y207298D01*
X75595Y207304D01*
X75518Y207306D01*
X72908Y207306D01*
X61017Y201041D02*
X60928Y201043D01*
X60840Y201049D01*
X60752Y201058D01*
X60664Y201071D01*
X60577Y201088D01*
X60491Y201108D01*
X60406Y201133D01*
X60321Y201160D01*
X60238Y201192D01*
X60157Y201226D01*
X60077Y201265D01*
X59999Y201306D01*
X59922Y201351D01*
X59848Y201399D01*
X59775Y201450D01*
X59705Y201504D01*
X59638Y201562D01*
X59572Y201622D01*
X59510Y201684D01*
X59450Y201750D01*
X59392Y201817D01*
X59338Y201887D01*
X59287Y201960D01*
X59239Y202034D01*
X59194Y202111D01*
X59153Y202189D01*
X59114Y202269D01*
X59080Y202350D01*
X59048Y202433D01*
X59021Y202518D01*
X58996Y202603D01*
X58976Y202689D01*
X58959Y202776D01*
X58946Y202864D01*
X58937Y202952D01*
X58931Y203040D01*
X58929Y203129D01*
X61017Y201041D02*
X61146Y201043D01*
X61275Y201049D01*
X61404Y201058D01*
X61532Y201071D01*
X61660Y201088D01*
X61787Y201109D01*
X61914Y201133D01*
X62040Y201161D01*
X62165Y201193D01*
X62289Y201228D01*
X62412Y201267D01*
X62534Y201310D01*
X62654Y201356D01*
X62773Y201406D01*
X62891Y201459D01*
X63007Y201515D01*
X63121Y201575D01*
X63234Y201638D01*
X63344Y201705D01*
X63453Y201774D01*
X63559Y201847D01*
X63664Y201923D01*
X63766Y202002D01*
X63866Y202084D01*
X63963Y202168D01*
X64058Y202256D01*
X64150Y202346D01*
X63889Y208351D02*
X63887Y208440D01*
X63881Y208528D01*
X63872Y208616D01*
X63859Y208704D01*
X63842Y208791D01*
X63822Y208877D01*
X63797Y208962D01*
X63770Y209047D01*
X63738Y209130D01*
X63704Y209211D01*
X63665Y209291D01*
X63624Y209369D01*
X63579Y209446D01*
X63531Y209520D01*
X63480Y209593D01*
X63426Y209663D01*
X63368Y209730D01*
X63308Y209796D01*
X63246Y209858D01*
X63180Y209918D01*
X63113Y209976D01*
X63043Y210030D01*
X62970Y210081D01*
X62896Y210129D01*
X62819Y210174D01*
X62741Y210215D01*
X62661Y210254D01*
X62580Y210288D01*
X62497Y210320D01*
X62412Y210347D01*
X62327Y210372D01*
X62241Y210392D01*
X62154Y210409D01*
X62066Y210422D01*
X61978Y210431D01*
X61890Y210437D01*
X61801Y210439D01*
X61681Y210437D01*
X61561Y210432D01*
X61442Y210422D01*
X61322Y210410D01*
X61203Y210393D01*
X61085Y210373D01*
X60967Y210349D01*
X60851Y210322D01*
X60735Y210291D01*
X60620Y210257D01*
X60506Y210219D01*
X60393Y210177D01*
X60282Y210132D01*
X60172Y210084D01*
X60064Y210033D01*
X59957Y209978D01*
X59852Y209920D01*
X59749Y209858D01*
X59648Y209794D01*
X59548Y209726D01*
X59451Y209656D01*
X62845Y206524D02*
X62923Y206572D01*
X62999Y206624D01*
X63072Y206678D01*
X63143Y206736D01*
X63212Y206797D01*
X63278Y206861D01*
X63341Y206928D01*
X63401Y206997D01*
X63458Y207069D01*
X63512Y207143D01*
X63562Y207220D01*
X63610Y207299D01*
X63653Y207379D01*
X63694Y207462D01*
X63730Y207546D01*
X63763Y207631D01*
X63792Y207718D01*
X63818Y207807D01*
X63840Y207896D01*
X63857Y207986D01*
X63871Y208076D01*
X63881Y208168D01*
X63887Y208259D01*
X63889Y208351D01*
X59973Y204956D02*
X59895Y204908D01*
X59819Y204856D01*
X59746Y204802D01*
X59675Y204744D01*
X59606Y204683D01*
X59540Y204619D01*
X59477Y204552D01*
X59417Y204483D01*
X59360Y204411D01*
X59306Y204337D01*
X59256Y204260D01*
X59208Y204181D01*
X59165Y204101D01*
X59124Y204018D01*
X59088Y203934D01*
X59055Y203849D01*
X59026Y203762D01*
X59000Y203673D01*
X58978Y203584D01*
X58961Y203494D01*
X58947Y203404D01*
X58937Y203312D01*
X58931Y203221D01*
X58929Y203129D01*
X59973Y204957D02*
X62845Y206523D01*
X55094Y210439D02*
X55094Y201041D01*
X55094Y207306D02*
X52483Y207306D01*
X52406Y207304D01*
X52330Y207298D01*
X52253Y207289D01*
X52177Y207276D01*
X52103Y207259D01*
X52028Y207239D01*
X51955Y207214D01*
X51884Y207187D01*
X51813Y207156D01*
X51745Y207121D01*
X51678Y207083D01*
X51613Y207042D01*
X51550Y206998D01*
X51490Y206951D01*
X51431Y206900D01*
X51376Y206847D01*
X51323Y206792D01*
X51272Y206733D01*
X51225Y206673D01*
X51181Y206610D01*
X51140Y206545D01*
X51102Y206478D01*
X51067Y206410D01*
X51036Y206339D01*
X51009Y206268D01*
X50984Y206195D01*
X50964Y206121D01*
X50947Y206046D01*
X50934Y205970D01*
X50925Y205894D01*
X50919Y205817D01*
X50917Y205740D01*
X50917Y201041D01*
X45082Y204696D02*
X42733Y204696D01*
X45082Y204695D02*
X45166Y204693D01*
X45251Y204687D01*
X45334Y204677D01*
X45418Y204664D01*
X45500Y204646D01*
X45582Y204625D01*
X45663Y204600D01*
X45742Y204572D01*
X45820Y204539D01*
X45896Y204503D01*
X45971Y204464D01*
X46044Y204421D01*
X46115Y204375D01*
X46183Y204326D01*
X46249Y204274D01*
X46313Y204218D01*
X46374Y204160D01*
X46432Y204099D01*
X46488Y204035D01*
X46540Y203969D01*
X46589Y203901D01*
X46635Y203830D01*
X46678Y203757D01*
X46717Y203682D01*
X46753Y203606D01*
X46786Y203528D01*
X46814Y203449D01*
X46839Y203368D01*
X46860Y203286D01*
X46878Y203204D01*
X46891Y203120D01*
X46901Y203037D01*
X46907Y202952D01*
X46909Y202868D01*
X46907Y202784D01*
X46901Y202699D01*
X46891Y202616D01*
X46878Y202532D01*
X46860Y202450D01*
X46839Y202368D01*
X46814Y202287D01*
X46786Y202208D01*
X46753Y202130D01*
X46717Y202054D01*
X46678Y201979D01*
X46635Y201906D01*
X46589Y201835D01*
X46540Y201767D01*
X46488Y201701D01*
X46432Y201637D01*
X46374Y201576D01*
X46313Y201518D01*
X46249Y201462D01*
X46183Y201410D01*
X46115Y201361D01*
X46044Y201315D01*
X45971Y201272D01*
X45896Y201233D01*
X45820Y201197D01*
X45742Y201164D01*
X45663Y201136D01*
X45582Y201111D01*
X45500Y201090D01*
X45418Y201072D01*
X45334Y201059D01*
X45251Y201049D01*
X45166Y201043D01*
X45082Y201041D01*
X42733Y201041D01*
X42733Y205740D01*
X42735Y205817D01*
X42741Y205893D01*
X42750Y205970D01*
X42763Y206046D01*
X42780Y206121D01*
X42800Y206195D01*
X42825Y206268D01*
X42852Y206339D01*
X42883Y206410D01*
X42918Y206478D01*
X42956Y206545D01*
X42997Y206610D01*
X43041Y206673D01*
X43088Y206733D01*
X43139Y206792D01*
X43192Y206847D01*
X43247Y206900D01*
X43306Y206951D01*
X43366Y206998D01*
X43429Y207042D01*
X43494Y207083D01*
X43561Y207121D01*
X43629Y207156D01*
X43700Y207187D01*
X43771Y207214D01*
X43844Y207239D01*
X43919Y207259D01*
X43994Y207276D01*
X44069Y207289D01*
X44146Y207298D01*
X44222Y207304D01*
X44299Y207306D01*
X46388Y207306D01*
X34503Y210439D02*
X34503Y201041D01*
X37114Y201041D01*
X37191Y201043D01*
X37267Y201049D01*
X37344Y201058D01*
X37420Y201071D01*
X37495Y201088D01*
X37569Y201108D01*
X37642Y201133D01*
X37713Y201160D01*
X37784Y201191D01*
X37852Y201226D01*
X37919Y201264D01*
X37984Y201305D01*
X38047Y201349D01*
X38107Y201396D01*
X38166Y201447D01*
X38221Y201500D01*
X38274Y201555D01*
X38325Y201614D01*
X38372Y201674D01*
X38416Y201737D01*
X38457Y201802D01*
X38495Y201869D01*
X38530Y201937D01*
X38561Y202008D01*
X38588Y202079D01*
X38613Y202152D01*
X38633Y202226D01*
X38650Y202301D01*
X38663Y202377D01*
X38672Y202454D01*
X38678Y202530D01*
X38680Y202607D01*
X38680Y205740D01*
X38678Y205817D01*
X38672Y205893D01*
X38663Y205970D01*
X38650Y206046D01*
X38633Y206121D01*
X38613Y206195D01*
X38588Y206268D01*
X38561Y206339D01*
X38530Y206410D01*
X38495Y206478D01*
X38457Y206545D01*
X38416Y206610D01*
X38372Y206673D01*
X38325Y206733D01*
X38274Y206792D01*
X38221Y206847D01*
X38166Y206900D01*
X38107Y206951D01*
X38047Y206998D01*
X37984Y207042D01*
X37919Y207083D01*
X37852Y207121D01*
X37784Y207156D01*
X37713Y207187D01*
X37642Y207214D01*
X37569Y207239D01*
X37495Y207259D01*
X37420Y207276D01*
X37344Y207289D01*
X37267Y207298D01*
X37191Y207304D01*
X37114Y207306D01*
X34503Y207306D01*
X30405Y205218D02*
X30405Y203129D01*
X30404Y205218D02*
X30402Y205308D01*
X30396Y205397D01*
X30387Y205487D01*
X30373Y205576D01*
X30356Y205664D01*
X30335Y205751D01*
X30310Y205838D01*
X30281Y205923D01*
X30249Y206007D01*
X30214Y206089D01*
X30174Y206170D01*
X30132Y206249D01*
X30086Y206326D01*
X30036Y206401D01*
X29984Y206474D01*
X29928Y206545D01*
X29870Y206613D01*
X29808Y206678D01*
X29744Y206741D01*
X29677Y206801D01*
X29608Y206858D01*
X29536Y206912D01*
X29462Y206963D01*
X29386Y207011D01*
X29308Y207055D01*
X29228Y207096D01*
X29146Y207134D01*
X29063Y207168D01*
X28978Y207198D01*
X28892Y207225D01*
X28806Y207248D01*
X28718Y207267D01*
X28629Y207282D01*
X28540Y207294D01*
X28451Y207302D01*
X28361Y207306D01*
X28271Y207306D01*
X28181Y207302D01*
X28092Y207294D01*
X28003Y207282D01*
X27914Y207267D01*
X27826Y207248D01*
X27740Y207225D01*
X27654Y207198D01*
X27569Y207168D01*
X27486Y207134D01*
X27404Y207096D01*
X27324Y207055D01*
X27246Y207011D01*
X27170Y206963D01*
X27096Y206912D01*
X27024Y206858D01*
X26955Y206801D01*
X26888Y206741D01*
X26824Y206678D01*
X26762Y206613D01*
X26704Y206545D01*
X26648Y206474D01*
X26596Y206401D01*
X26546Y206326D01*
X26500Y206249D01*
X26458Y206170D01*
X26418Y206089D01*
X26383Y206007D01*
X26351Y205923D01*
X26322Y205838D01*
X26297Y205751D01*
X26276Y205664D01*
X26259Y205576D01*
X26245Y205487D01*
X26236Y205397D01*
X26230Y205308D01*
X26228Y205218D01*
X26228Y203129D01*
X26230Y203039D01*
X26236Y202950D01*
X26245Y202860D01*
X26259Y202771D01*
X26276Y202683D01*
X26297Y202596D01*
X26322Y202509D01*
X26351Y202424D01*
X26383Y202340D01*
X26418Y202258D01*
X26458Y202177D01*
X26500Y202098D01*
X26546Y202021D01*
X26596Y201946D01*
X26648Y201873D01*
X26704Y201802D01*
X26762Y201734D01*
X26824Y201669D01*
X26888Y201606D01*
X26955Y201546D01*
X27024Y201489D01*
X27096Y201435D01*
X27170Y201384D01*
X27246Y201336D01*
X27324Y201292D01*
X27404Y201251D01*
X27486Y201213D01*
X27569Y201179D01*
X27654Y201149D01*
X27740Y201122D01*
X27826Y201099D01*
X27914Y201080D01*
X28003Y201065D01*
X28092Y201053D01*
X28181Y201045D01*
X28271Y201041D01*
X28361Y201041D01*
X28451Y201045D01*
X28540Y201053D01*
X28629Y201065D01*
X28718Y201080D01*
X28806Y201099D01*
X28892Y201122D01*
X28978Y201149D01*
X29063Y201179D01*
X29146Y201213D01*
X29228Y201251D01*
X29308Y201292D01*
X29386Y201336D01*
X29462Y201384D01*
X29536Y201435D01*
X29608Y201489D01*
X29677Y201546D01*
X29744Y201606D01*
X29808Y201669D01*
X29870Y201734D01*
X29928Y201802D01*
X29984Y201873D01*
X30036Y201946D01*
X30086Y202021D01*
X30132Y202098D01*
X30174Y202177D01*
X30214Y202258D01*
X30249Y202340D01*
X30281Y202424D01*
X30310Y202509D01*
X30335Y202596D01*
X30356Y202683D01*
X30373Y202771D01*
X30387Y202860D01*
X30396Y202950D01*
X30402Y203039D01*
X30404Y203129D01*
X21976Y201041D02*
X21976Y208873D01*
X21975Y208873D02*
X21973Y208950D01*
X21967Y209026D01*
X21958Y209103D01*
X21945Y209179D01*
X21928Y209254D01*
X21908Y209328D01*
X21883Y209401D01*
X21856Y209472D01*
X21825Y209543D01*
X21790Y209611D01*
X21752Y209678D01*
X21711Y209743D01*
X21667Y209806D01*
X21620Y209866D01*
X21569Y209925D01*
X21516Y209980D01*
X21461Y210033D01*
X21402Y210084D01*
X21342Y210131D01*
X21279Y210175D01*
X21214Y210216D01*
X21147Y210254D01*
X21079Y210289D01*
X21008Y210320D01*
X20937Y210347D01*
X20864Y210372D01*
X20790Y210392D01*
X20715Y210409D01*
X20639Y210422D01*
X20562Y210431D01*
X20486Y210437D01*
X20409Y210439D01*
X19887Y210439D01*
X19887Y207306D02*
X23020Y207306D01*
X16794Y208873D02*
X16794Y201041D01*
X16794Y208873D02*
X16792Y208950D01*
X16786Y209026D01*
X16777Y209103D01*
X16764Y209179D01*
X16747Y209254D01*
X16727Y209328D01*
X16702Y209401D01*
X16675Y209472D01*
X16644Y209543D01*
X16609Y209611D01*
X16571Y209678D01*
X16530Y209743D01*
X16486Y209806D01*
X16439Y209866D01*
X16388Y209925D01*
X16335Y209980D01*
X16280Y210033D01*
X16221Y210084D01*
X16161Y210131D01*
X16098Y210175D01*
X16033Y210216D01*
X15966Y210254D01*
X15898Y210289D01*
X15827Y210320D01*
X15756Y210347D01*
X15683Y210372D01*
X15609Y210392D01*
X15534Y210409D01*
X15458Y210422D01*
X15381Y210431D01*
X15305Y210437D01*
X15228Y210439D01*
X14706Y210439D01*
X14706Y207306D02*
X17838Y207306D01*
M02*
