G04 EAGLE Gerber RS-274X export*
G75*
%MOMM*%
%FSLAX34Y34*%
%LPD*%
%INSilkscreen Top*%
%IPPOS*%
%AMOC8*
5,1,8,0,0,1.08239X$1,22.5*%
G01*
%ADD10C,0.076200*%


D10*
X156506Y156337D02*
X156506Y150608D01*
X156504Y150530D01*
X156499Y150452D01*
X156489Y150375D01*
X156476Y150298D01*
X156460Y150222D01*
X156440Y150147D01*
X156416Y150073D01*
X156389Y150000D01*
X156358Y149928D01*
X156324Y149858D01*
X156287Y149790D01*
X156246Y149723D01*
X156202Y149658D01*
X156156Y149596D01*
X156106Y149536D01*
X156054Y149478D01*
X155999Y149423D01*
X155941Y149371D01*
X155881Y149321D01*
X155819Y149275D01*
X155754Y149231D01*
X155688Y149190D01*
X155619Y149153D01*
X155549Y149119D01*
X155477Y149088D01*
X155404Y149061D01*
X155330Y149037D01*
X155255Y149017D01*
X155179Y149001D01*
X155102Y148988D01*
X155025Y148978D01*
X154947Y148973D01*
X154869Y148971D01*
X154051Y148971D01*
X160200Y148971D02*
X160200Y156337D01*
X160200Y148971D02*
X163474Y148971D01*
X167894Y148971D02*
X169531Y148971D01*
X167894Y148971D02*
X167816Y148973D01*
X167738Y148978D01*
X167661Y148988D01*
X167584Y149001D01*
X167508Y149017D01*
X167433Y149037D01*
X167359Y149061D01*
X167286Y149088D01*
X167214Y149119D01*
X167144Y149153D01*
X167076Y149190D01*
X167009Y149231D01*
X166944Y149275D01*
X166882Y149321D01*
X166822Y149371D01*
X166764Y149423D01*
X166709Y149478D01*
X166657Y149536D01*
X166607Y149596D01*
X166561Y149658D01*
X166517Y149723D01*
X166476Y149790D01*
X166439Y149858D01*
X166405Y149928D01*
X166374Y150000D01*
X166347Y150073D01*
X166323Y150147D01*
X166303Y150222D01*
X166287Y150298D01*
X166274Y150375D01*
X166264Y150452D01*
X166259Y150530D01*
X166257Y150608D01*
X166258Y150608D02*
X166258Y154700D01*
X166257Y154700D02*
X166259Y154780D01*
X166265Y154860D01*
X166275Y154940D01*
X166288Y155019D01*
X166306Y155098D01*
X166327Y155175D01*
X166353Y155251D01*
X166382Y155326D01*
X166414Y155400D01*
X166450Y155472D01*
X166490Y155542D01*
X166533Y155609D01*
X166579Y155675D01*
X166629Y155738D01*
X166681Y155799D01*
X166736Y155858D01*
X166795Y155913D01*
X166855Y155965D01*
X166919Y156015D01*
X166985Y156061D01*
X167052Y156104D01*
X167122Y156144D01*
X167194Y156180D01*
X167268Y156212D01*
X167342Y156241D01*
X167419Y156267D01*
X167496Y156288D01*
X167575Y156306D01*
X167654Y156319D01*
X167734Y156329D01*
X167814Y156335D01*
X167894Y156337D01*
X169531Y156337D01*
X174063Y156337D02*
X174063Y150608D01*
X174061Y150530D01*
X174056Y150452D01*
X174046Y150375D01*
X174033Y150298D01*
X174017Y150222D01*
X173997Y150147D01*
X173973Y150073D01*
X173946Y150000D01*
X173915Y149928D01*
X173881Y149858D01*
X173844Y149790D01*
X173803Y149723D01*
X173759Y149658D01*
X173713Y149596D01*
X173663Y149536D01*
X173611Y149478D01*
X173556Y149423D01*
X173498Y149371D01*
X173438Y149321D01*
X173376Y149275D01*
X173311Y149231D01*
X173245Y149190D01*
X173176Y149153D01*
X173106Y149119D01*
X173034Y149088D01*
X172961Y149061D01*
X172887Y149037D01*
X172812Y149017D01*
X172736Y149001D01*
X172659Y148988D01*
X172582Y148978D01*
X172504Y148973D01*
X172426Y148971D01*
X171607Y148971D01*
X177757Y148971D02*
X177757Y156337D01*
X177757Y148971D02*
X181030Y148971D01*
X185451Y148971D02*
X187088Y148971D01*
X185451Y148971D02*
X185373Y148973D01*
X185295Y148978D01*
X185218Y148988D01*
X185141Y149001D01*
X185065Y149017D01*
X184990Y149037D01*
X184916Y149061D01*
X184843Y149088D01*
X184771Y149119D01*
X184701Y149153D01*
X184633Y149190D01*
X184566Y149231D01*
X184501Y149275D01*
X184439Y149321D01*
X184379Y149371D01*
X184321Y149423D01*
X184266Y149478D01*
X184214Y149536D01*
X184164Y149596D01*
X184118Y149658D01*
X184074Y149723D01*
X184033Y149790D01*
X183996Y149858D01*
X183962Y149928D01*
X183931Y150000D01*
X183904Y150073D01*
X183880Y150147D01*
X183860Y150222D01*
X183844Y150298D01*
X183831Y150375D01*
X183821Y150452D01*
X183816Y150530D01*
X183814Y150608D01*
X183814Y154700D01*
X183816Y154780D01*
X183822Y154860D01*
X183832Y154940D01*
X183845Y155019D01*
X183863Y155098D01*
X183884Y155175D01*
X183910Y155251D01*
X183939Y155326D01*
X183971Y155400D01*
X184007Y155472D01*
X184047Y155542D01*
X184090Y155609D01*
X184136Y155675D01*
X184186Y155738D01*
X184238Y155799D01*
X184293Y155858D01*
X184352Y155913D01*
X184412Y155965D01*
X184476Y156015D01*
X184542Y156061D01*
X184609Y156104D01*
X184679Y156144D01*
X184751Y156180D01*
X184825Y156212D01*
X184899Y156241D01*
X184976Y156267D01*
X185053Y156288D01*
X185132Y156306D01*
X185211Y156319D01*
X185291Y156329D01*
X185371Y156335D01*
X185451Y156337D01*
X187088Y156337D01*
X191619Y156337D02*
X191619Y150608D01*
X191617Y150530D01*
X191612Y150452D01*
X191602Y150375D01*
X191589Y150298D01*
X191573Y150222D01*
X191553Y150147D01*
X191529Y150073D01*
X191502Y150000D01*
X191471Y149928D01*
X191437Y149858D01*
X191400Y149790D01*
X191359Y149723D01*
X191315Y149658D01*
X191269Y149596D01*
X191219Y149536D01*
X191167Y149478D01*
X191112Y149423D01*
X191054Y149371D01*
X190994Y149321D01*
X190932Y149275D01*
X190867Y149231D01*
X190801Y149190D01*
X190732Y149153D01*
X190662Y149119D01*
X190590Y149088D01*
X190517Y149061D01*
X190443Y149037D01*
X190368Y149017D01*
X190292Y149001D01*
X190215Y148988D01*
X190138Y148978D01*
X190060Y148973D01*
X189982Y148971D01*
X189164Y148971D01*
X195313Y148971D02*
X195313Y156337D01*
X195313Y148971D02*
X198587Y148971D01*
X203007Y148971D02*
X204644Y148971D01*
X203007Y148971D02*
X202929Y148973D01*
X202851Y148978D01*
X202774Y148988D01*
X202697Y149001D01*
X202621Y149017D01*
X202546Y149037D01*
X202472Y149061D01*
X202399Y149088D01*
X202327Y149119D01*
X202257Y149153D01*
X202189Y149190D01*
X202122Y149231D01*
X202057Y149275D01*
X201995Y149321D01*
X201935Y149371D01*
X201877Y149423D01*
X201822Y149478D01*
X201770Y149536D01*
X201720Y149596D01*
X201674Y149658D01*
X201630Y149723D01*
X201589Y149790D01*
X201552Y149858D01*
X201518Y149928D01*
X201487Y150000D01*
X201460Y150073D01*
X201436Y150147D01*
X201416Y150222D01*
X201400Y150298D01*
X201387Y150375D01*
X201377Y150452D01*
X201372Y150530D01*
X201370Y150608D01*
X201370Y154700D01*
X201372Y154780D01*
X201378Y154860D01*
X201388Y154940D01*
X201401Y155019D01*
X201419Y155098D01*
X201440Y155175D01*
X201466Y155251D01*
X201495Y155326D01*
X201527Y155400D01*
X201563Y155472D01*
X201603Y155542D01*
X201646Y155609D01*
X201692Y155675D01*
X201742Y155738D01*
X201794Y155799D01*
X201849Y155858D01*
X201908Y155913D01*
X201968Y155965D01*
X202032Y156015D01*
X202098Y156061D01*
X202165Y156104D01*
X202235Y156144D01*
X202307Y156180D01*
X202381Y156212D01*
X202455Y156241D01*
X202532Y156267D01*
X202609Y156288D01*
X202688Y156306D01*
X202767Y156319D01*
X202847Y156329D01*
X202927Y156335D01*
X203007Y156337D01*
X204644Y156337D01*
X209175Y156337D02*
X209175Y150608D01*
X209176Y150608D02*
X209174Y150530D01*
X209169Y150452D01*
X209159Y150375D01*
X209146Y150298D01*
X209130Y150222D01*
X209110Y150147D01*
X209086Y150073D01*
X209059Y150000D01*
X209028Y149928D01*
X208994Y149858D01*
X208957Y149790D01*
X208916Y149723D01*
X208872Y149658D01*
X208826Y149596D01*
X208776Y149536D01*
X208724Y149478D01*
X208669Y149423D01*
X208611Y149371D01*
X208551Y149321D01*
X208489Y149275D01*
X208424Y149231D01*
X208358Y149190D01*
X208289Y149153D01*
X208219Y149119D01*
X208147Y149088D01*
X208074Y149061D01*
X208000Y149037D01*
X207925Y149017D01*
X207849Y149001D01*
X207772Y148988D01*
X207695Y148978D01*
X207617Y148973D01*
X207539Y148971D01*
X206720Y148971D01*
X212869Y148971D02*
X212869Y156337D01*
X212869Y148971D02*
X216143Y148971D01*
X220564Y148971D02*
X222200Y148971D01*
X220564Y148971D02*
X220486Y148973D01*
X220408Y148978D01*
X220331Y148988D01*
X220254Y149001D01*
X220178Y149017D01*
X220103Y149037D01*
X220029Y149061D01*
X219956Y149088D01*
X219884Y149119D01*
X219814Y149153D01*
X219746Y149190D01*
X219679Y149231D01*
X219614Y149275D01*
X219552Y149321D01*
X219492Y149371D01*
X219434Y149423D01*
X219379Y149478D01*
X219327Y149536D01*
X219277Y149596D01*
X219231Y149658D01*
X219187Y149723D01*
X219146Y149790D01*
X219109Y149858D01*
X219075Y149928D01*
X219044Y150000D01*
X219017Y150073D01*
X218993Y150147D01*
X218973Y150222D01*
X218957Y150298D01*
X218944Y150375D01*
X218934Y150452D01*
X218929Y150530D01*
X218927Y150608D01*
X218927Y154700D01*
X218929Y154780D01*
X218935Y154860D01*
X218945Y154940D01*
X218958Y155019D01*
X218976Y155098D01*
X218997Y155175D01*
X219023Y155251D01*
X219052Y155326D01*
X219084Y155400D01*
X219120Y155472D01*
X219160Y155542D01*
X219203Y155609D01*
X219249Y155675D01*
X219299Y155738D01*
X219351Y155799D01*
X219406Y155858D01*
X219465Y155913D01*
X219525Y155965D01*
X219589Y156015D01*
X219655Y156061D01*
X219722Y156104D01*
X219792Y156144D01*
X219864Y156180D01*
X219938Y156212D01*
X220012Y156241D01*
X220089Y156267D01*
X220166Y156288D01*
X220245Y156306D01*
X220324Y156319D01*
X220404Y156329D01*
X220484Y156335D01*
X220564Y156337D01*
X222200Y156337D01*
M02*
