M48
;GenerationSoftware,Autodesk,EAGLE,9.6.2*%
;CreationDate,2021-07-26T02:09:15Z*%
FMAT,2
ICI,OFF
METRIC,TZ,000.000
T2C0.356
T1C1.016
%
G90
M71
T1
X18669Y17653
X18669Y15113
X18669Y12573
X18669Y10033
X18669Y7493
X18669Y4953
X18669Y2413
X3429Y17653
X3429Y15113
X3429Y12573
X3429Y10033
X3429Y7493
X3429Y4953
X3429Y2413
X4699Y32004
X7239Y32004
X9779Y32004
X12319Y32004
X14859Y32004
X17399Y32004
T2
X5842Y24384
X12192Y24384
X7239Y28067
X7239Y20447
X8890Y20447
X12954Y27178
X13335Y21717
X15875Y27813
M30