M48
;GenerationSoftware,Autodesk,EAGLE,9.6.2*%
;CreationDate,2021-06-16T23:59:56Z*%
FMAT,2
ICI,OFF
METRIC,TZ,000.000
T5C0.356
T4C0.700
T3C0.900
T2C1.016
T1C3.000
%
G90
M71
T1
X30734Y9144
X5461Y9144
X30734Y50800
X5461Y50800
T2
X25908Y21082
X23368Y21082
X20828Y21082
X18288Y21082
X15748Y21082
X13208Y21082
X10668Y21082
X25908Y36322
X23368Y36322
X20828Y36322
X18288Y36322
X15748Y36322
X13208Y36322
X10668Y36322
T3
X21485Y8631
X16785Y48824
X21485Y46324
X18985Y46324
X14685Y46324
X21485Y48824
X16785Y46324
X14685Y48824
X19385Y48824
X19385Y8631
X16785Y8631
X19385Y11131
X14685Y8631
X21485Y11131
X17185Y11131
X14685Y11131
T4
X24835Y51824
X11335Y51824
X18085Y52624
X11335Y5631
X24835Y5631
X18085Y4831
T5
X20574Y29210
X18415Y30353
X17043Y15900
X18237Y15189
X23622Y23368
X22225Y14097
X10922Y32639
X11315Y31484
X11684Y40005
X14859Y33655
X14986Y30099
X14986Y14097
X20574Y25527
X20828Y14097
X30607Y35306
X29210Y35306
X14478Y16840
X15240Y26797
X27813Y25400
X29083Y34036
X26416Y38227
X20701Y33274
X18161Y32131
X27559Y28448
X23876Y26924
X14478Y27940
X11303Y28067
X7874Y26924
M30