G04 EAGLE Gerber RS-274X export*
G75*
%MOMM*%
%FSLAX34Y34*%
%LPD*%
%INTop Copper*%
%IPPOS*%
%AMOC8*
5,1,8,0,0,1.08239X$1,22.5*%
G01*
%ADD10C,1.408000*%
%ADD11C,1.500000*%
%ADD12R,0.850000X0.300000*%
%ADD13R,0.900000X0.700000*%
%ADD14R,0.700000X0.900000*%
%ADD15R,1.525000X0.650000*%
%ADD16R,1.300000X1.500000*%
%ADD17R,0.950000X0.900000*%
%ADD18C,1.879600*%
%ADD19R,1.500000X1.300000*%
%ADD20C,0.304800*%
%ADD21C,0.762000*%
%ADD22C,0.152400*%


D10*
X193848Y86310D03*
X167848Y86310D03*
X214848Y86310D03*
X193848Y111310D03*
X146848Y86310D03*
X214848Y111310D03*
X171848Y111310D03*
X146848Y111310D03*
D11*
X173348Y48310D02*
X188348Y48310D01*
X248348Y48810D02*
X248348Y63810D01*
X113348Y63810D02*
X113348Y48810D01*
D12*
X291340Y312540D03*
X291340Y317540D03*
X291340Y322540D03*
X291340Y327540D03*
X259840Y327540D03*
X259840Y322540D03*
X259840Y317540D03*
X259840Y312540D03*
D13*
X60960Y278280D03*
X60960Y265280D03*
D10*
X167848Y488238D03*
X193848Y488238D03*
X146848Y488238D03*
X167848Y463238D03*
X214848Y488238D03*
X146848Y463238D03*
X189848Y463238D03*
X214848Y463238D03*
D11*
X188348Y526238D02*
X173348Y526238D01*
X113348Y525738D02*
X113348Y510738D01*
X248348Y510738D02*
X248348Y525738D01*
D12*
X128780Y256660D03*
X128780Y261660D03*
X128780Y266660D03*
X128780Y271660D03*
X97280Y271660D03*
X97280Y266660D03*
X97280Y261660D03*
X97280Y256660D03*
D14*
X187302Y187960D03*
X200302Y187960D03*
X298600Y295910D03*
X285600Y295910D03*
X252580Y295910D03*
X265580Y295910D03*
X137310Y238760D03*
X124310Y238760D03*
X92560Y238760D03*
X105560Y238760D03*
X154536Y187960D03*
X167536Y187960D03*
D15*
X221430Y243840D03*
X221430Y256540D03*
X221430Y269240D03*
X221430Y281940D03*
X221430Y294640D03*
X221430Y307340D03*
X221430Y320040D03*
X221430Y332740D03*
X167190Y332740D03*
X167190Y320040D03*
X167190Y307340D03*
X167190Y294640D03*
X167190Y281940D03*
X167190Y269240D03*
X167190Y256540D03*
X167190Y243840D03*
D14*
X170330Y386080D03*
X157330Y386080D03*
X138580Y386080D03*
X125580Y386080D03*
X195430Y386080D03*
X208430Y386080D03*
X225910Y386080D03*
X238910Y386080D03*
D13*
X49530Y221130D03*
X49530Y208130D03*
X60960Y221130D03*
X60960Y208130D03*
X72390Y221130D03*
X72390Y208130D03*
X83820Y221130D03*
X83820Y208130D03*
D12*
X128780Y311270D03*
X128780Y316270D03*
X128780Y321270D03*
X128780Y326270D03*
X97280Y326270D03*
X97280Y321270D03*
X97280Y316270D03*
X97280Y311270D03*
D14*
X133500Y293370D03*
X120500Y293370D03*
X90020Y293370D03*
X103020Y293370D03*
D16*
X299060Y382270D03*
X280060Y382270D03*
D17*
X99060Y10280D03*
X99060Y25280D03*
X278130Y10280D03*
X278130Y25280D03*
X262890Y10280D03*
X262890Y25280D03*
D18*
X106680Y363220D03*
X132080Y363220D03*
X157480Y363220D03*
X182880Y363220D03*
X208280Y363220D03*
X233680Y363220D03*
X259080Y363220D03*
X106680Y210820D03*
X132080Y210820D03*
X157480Y210820D03*
X182880Y210820D03*
X208280Y210820D03*
X233680Y210820D03*
X259080Y210820D03*
D13*
X49530Y278280D03*
X49530Y265280D03*
D19*
X288290Y212750D03*
X288290Y231750D03*
D17*
X83820Y10280D03*
X83820Y25280D03*
D20*
X232918Y81915D02*
X248158Y81915D01*
X157480Y92083D02*
X146848Y104960D01*
X146848Y111310D01*
X223393Y72390D02*
X232918Y81915D01*
X248158Y56500D02*
X248348Y56310D01*
X248158Y56500D02*
X248158Y81915D01*
X121348Y48310D02*
X113348Y56310D01*
X121348Y48310D02*
X180848Y48310D01*
X240348Y48310D01*
X248348Y56310D01*
X113348Y518238D02*
X121398Y526288D01*
X180798Y526288D02*
X180848Y526238D01*
X180798Y526288D02*
X121398Y526288D01*
X240348Y526238D02*
X248348Y518238D01*
X240348Y526238D02*
X180848Y526238D01*
X113348Y56310D02*
X113348Y14034D01*
X109841Y10527D02*
X109594Y10534D01*
X99060Y10280D01*
X109841Y10527D02*
X113348Y14034D01*
X248158Y15494D02*
X248158Y56500D01*
X113030Y238760D02*
X105560Y238760D01*
X113030Y238760D02*
X124310Y238760D01*
X113030Y238760D02*
X113030Y280670D01*
X113030Y293370D01*
X120500Y293370D01*
X113030Y293370D02*
X103020Y293370D01*
X153670Y320040D02*
X167190Y320040D01*
X233680Y210820D02*
X234950Y210820D01*
X253365Y229235D01*
X285600Y283210D02*
X285600Y295910D01*
X275590Y295910D02*
X265580Y295910D01*
X275590Y295910D02*
X285600Y295910D01*
D21*
X78740Y269240D03*
X113030Y280670D03*
X144780Y279400D03*
D20*
X83410Y273910D02*
X78740Y269240D01*
D21*
X238760Y269240D03*
X275590Y284480D03*
D20*
X275590Y295910D01*
X238760Y269240D02*
X221430Y269240D01*
X144780Y264160D02*
X144780Y279400D01*
X144780Y264160D02*
X152400Y256540D01*
X167190Y256540D01*
X180340Y320040D02*
X181610Y321310D01*
D21*
X181610Y321310D03*
X207010Y332740D03*
D20*
X221430Y332740D01*
X180340Y320040D02*
X167190Y320040D01*
X280060Y382270D02*
X280060Y398026D01*
X214848Y463238D01*
D21*
X264160Y382270D03*
D20*
X280060Y382270D01*
X253365Y250975D02*
X253365Y229235D01*
X253365Y250975D02*
X285600Y283210D01*
X248158Y15494D02*
X253372Y10280D01*
X262890Y10280D01*
X278130Y10280D01*
X285750Y10280D02*
X287100Y11630D01*
X285750Y10280D02*
X278130Y10280D01*
X157480Y73660D02*
X157480Y92083D01*
X157480Y73660D02*
X158750Y72390D01*
X223393Y72390D01*
X77470Y270510D02*
X77470Y321310D01*
X77470Y270510D02*
X78740Y269240D01*
D21*
X290830Y340360D03*
D20*
X306070Y220980D02*
X306070Y185420D01*
X306070Y220980D02*
X295300Y231750D01*
X288290Y231750D01*
X287100Y33020D02*
X287100Y11630D01*
X99060Y10280D02*
X83820Y10280D01*
D21*
X278130Y254000D03*
D20*
X288290Y243840D01*
X288290Y231750D01*
X278210Y41910D02*
X287100Y33020D01*
X278210Y41910D02*
X278130Y41910D01*
X278130Y157480D01*
X306070Y185420D01*
X82430Y326270D02*
X77470Y321310D01*
X82430Y326270D02*
X97280Y326270D01*
X95030Y273910D02*
X83410Y273910D01*
X95030Y273910D02*
X97280Y271660D01*
X128780Y271660D02*
X136520Y279400D01*
X144780Y279400D01*
X153670Y320040D02*
X147440Y326270D01*
X128780Y326270D01*
X291340Y327540D02*
X291340Y339850D01*
X290830Y340360D01*
X97280Y332230D02*
X97280Y326270D01*
X97280Y332230D02*
X100330Y335280D01*
X123190Y335280D01*
X128780Y329690D01*
X128780Y326270D01*
X97280Y266660D02*
X81320Y266660D01*
X78740Y269240D01*
D21*
X152400Y267970D03*
D22*
X153670Y269240D01*
X167190Y269240D01*
D21*
X144780Y168402D03*
D22*
X144526Y168148D01*
X114912Y168148D01*
X83820Y199240D01*
X83820Y208130D01*
D21*
X292100Y353060D03*
D22*
X283210Y344170D01*
X283210Y321687D01*
X287357Y317540D01*
X291340Y317540D01*
D21*
X306070Y353060D03*
D22*
X306520Y327100D02*
X302765Y323345D01*
X302710Y323290D01*
X306520Y327100D02*
X306520Y352610D01*
X306070Y353060D01*
X302710Y323290D02*
X301960Y322540D01*
X291340Y322540D01*
X81280Y256540D02*
X81280Y236220D01*
X93726Y223774D01*
X119126Y223774D01*
X132080Y210820D01*
X81280Y256540D02*
X74930Y256540D01*
X71120Y260350D01*
X68430Y278280D02*
X60960Y278280D01*
X71120Y275590D02*
X71120Y260350D01*
X71120Y275590D02*
X68430Y278280D01*
X86400Y261660D02*
X97280Y261660D01*
X86400Y261660D02*
X81280Y256540D01*
D20*
X90020Y293370D02*
X90020Y305510D01*
X190500Y228600D02*
X208280Y210820D01*
X92560Y237640D02*
X92560Y238760D01*
X101600Y228600D02*
X190500Y228600D01*
X101600Y228600D02*
X92560Y237640D01*
X252580Y295910D02*
X252580Y306780D01*
X259840Y312540D01*
X222250Y224790D02*
X208280Y210820D01*
X222250Y224790D02*
X240030Y224790D01*
X247500Y232260D01*
X247500Y290830D02*
X252580Y295910D01*
X247500Y290830D02*
X247500Y232260D01*
X224790Y194310D02*
X208280Y210820D01*
X269850Y194310D02*
X288290Y212750D01*
X269850Y194310D02*
X224790Y194310D01*
X92560Y238760D02*
X92200Y239120D01*
X92200Y251580D01*
X97280Y256660D01*
X104260Y256660D01*
X106680Y259080D01*
X106680Y276710D01*
X90020Y293370D01*
X90020Y305510D02*
X95780Y311270D01*
X97280Y311270D01*
D22*
X154536Y207876D02*
X154536Y187960D01*
X154536Y207876D02*
X157480Y210820D01*
X187302Y206398D02*
X187302Y187960D01*
X187302Y206398D02*
X182880Y210820D01*
D21*
X184150Y303530D03*
D22*
X180340Y307340D01*
X167190Y307340D01*
D21*
X170434Y159004D03*
D22*
X72390Y197970D02*
X72390Y208130D01*
X72390Y197970D02*
X111356Y159004D01*
X170434Y159004D01*
D20*
X137310Y249630D02*
X128780Y256660D01*
X137310Y249630D02*
X137310Y238760D01*
X142390Y243840D01*
X167190Y243840D01*
X180340Y243840D01*
X189230Y234950D01*
X259080Y247650D02*
X259080Y210820D01*
X259080Y247650D02*
X298600Y287170D01*
X298600Y295910D01*
X298600Y306780D01*
D21*
X236220Y233680D03*
D20*
X234950Y234950D02*
X189230Y234950D01*
X234950Y234950D02*
X236220Y233680D01*
X167848Y488238D02*
X182530Y502920D01*
X220980Y502920D01*
X266700Y457200D01*
X299060Y418490D02*
X299060Y382270D01*
X266700Y450850D02*
X266700Y457200D01*
X266700Y450850D02*
X299060Y418490D01*
X299060Y382270D02*
X299060Y373380D01*
X275590Y349910D01*
X275590Y343290D01*
X193848Y90978D02*
X193848Y86310D01*
X204760Y101890D02*
X204760Y117130D01*
X222250Y134620D02*
X222250Y140970D01*
X222250Y134620D02*
X204760Y117130D01*
D21*
X222250Y140970D03*
D20*
X204760Y101890D02*
X193848Y90978D01*
X193848Y86310D02*
X182368Y97790D01*
X158750Y104140D02*
X158750Y118110D01*
X149860Y127000D01*
X127000Y127000D01*
X165100Y97790D02*
X182368Y97790D01*
X165100Y97790D02*
X158750Y104140D01*
X114046Y139954D02*
X94996Y139954D01*
X40640Y194310D01*
X40640Y231140D02*
X49530Y231140D01*
X60960Y231140D01*
X72390Y231140D01*
X77470Y231140D01*
X83820Y224790D01*
X83820Y221130D01*
X114046Y139954D02*
X127000Y127000D01*
X40640Y194310D02*
X40640Y231140D01*
X72390Y231140D02*
X72390Y221130D01*
X60960Y221130D02*
X60960Y231140D01*
X49530Y231140D02*
X49530Y221130D01*
X123070Y256660D02*
X128780Y256660D01*
X123070Y256660D02*
X119380Y260350D01*
X119380Y276710D01*
X259840Y327540D02*
X275590Y343290D01*
X265550Y327540D02*
X259840Y327540D01*
X280550Y312540D02*
X291340Y312540D01*
X280550Y312540D02*
X265550Y327540D01*
X292840Y312540D02*
X298600Y306780D01*
X292840Y312540D02*
X291340Y312540D01*
X133500Y306550D02*
X128780Y311270D01*
X128420Y285750D02*
X119380Y276710D01*
X128420Y285750D02*
X132080Y285750D01*
X133500Y287170D01*
X133500Y293370D01*
X133500Y306550D01*
D21*
X205740Y292100D03*
D22*
X208280Y294640D01*
X221430Y294640D01*
D21*
X182372Y151892D03*
D22*
X60960Y197970D02*
X60960Y208130D01*
X60960Y197970D02*
X106784Y152146D01*
X182118Y152146D02*
X182372Y151892D01*
X182118Y152146D02*
X106784Y152146D01*
X190500Y243840D02*
X184150Y250190D01*
X190500Y243840D02*
X221430Y243840D01*
X184150Y250190D02*
X148590Y250190D01*
X137120Y261660D02*
X128780Y261660D01*
X137120Y261660D02*
X148590Y250190D01*
X202438Y475828D02*
X214848Y488238D01*
X202438Y475828D02*
X202438Y440182D01*
X238910Y403710D02*
X238910Y386080D01*
X238910Y403710D02*
X202438Y440182D01*
X167848Y453182D02*
X167848Y463238D01*
X208430Y412600D02*
X208430Y386080D01*
X208430Y412600D02*
X167848Y453182D01*
X134620Y469660D02*
X134620Y435610D01*
X146848Y481888D02*
X146848Y488238D01*
X146848Y481888D02*
X134620Y469660D01*
X157330Y412900D02*
X157330Y386080D01*
X157330Y412900D02*
X134620Y435610D01*
D21*
X208280Y140970D03*
X205740Y255270D03*
D22*
X207010Y256540D01*
X221430Y256540D01*
D21*
X149860Y140970D03*
D22*
X151130Y140970D02*
X208280Y140970D01*
X151130Y140970D02*
X149860Y140970D01*
X49530Y199240D02*
X49530Y208130D01*
X49530Y199240D02*
X101704Y147066D01*
X145034Y147066D02*
X151130Y140970D01*
X145034Y147066D02*
X101704Y147066D01*
X156210Y294640D02*
X167190Y294640D01*
X156210Y294640D02*
X149860Y300990D01*
D21*
X149860Y300990D03*
X148590Y336550D03*
D22*
X148590Y350520D02*
X144780Y354330D01*
X144780Y379880D02*
X138580Y386080D01*
X148590Y350520D02*
X148590Y336550D01*
X144780Y354330D02*
X144780Y379880D01*
X221430Y281940D02*
X232410Y281940D01*
X240030Y289560D01*
X240030Y339090D02*
X220980Y358140D01*
X240030Y339090D02*
X240030Y289560D01*
X220980Y358140D02*
X220980Y381150D01*
X225910Y386080D01*
X221430Y320040D02*
X208280Y320040D01*
X195430Y332890D02*
X195430Y386080D01*
X195430Y332890D02*
X208280Y320040D01*
D21*
X116840Y400050D03*
D22*
X125580Y391310D02*
X125580Y386080D01*
X125580Y391310D02*
X116840Y400050D01*
X167190Y350070D02*
X167190Y332740D01*
X170330Y353210D02*
X170330Y386080D01*
X170330Y353210D02*
X167190Y350070D01*
X167536Y187960D02*
X186332Y169164D01*
X262890Y133350D02*
X262890Y25280D01*
X227076Y169164D02*
X186332Y169164D01*
X227076Y169164D02*
X262890Y133350D01*
X167190Y281940D02*
X153670Y281940D01*
X143510Y292100D02*
X143510Y309023D01*
X143510Y292100D02*
X153670Y281940D01*
X136263Y316270D02*
X128780Y316270D01*
X136263Y316270D02*
X143510Y309023D01*
X200302Y187960D02*
X225806Y187960D01*
X270130Y143636D01*
X270130Y38280D01*
X278130Y30280D01*
X278130Y25280D01*
X60960Y260350D02*
X60960Y265280D01*
X60960Y260350D02*
X36830Y236220D01*
X99060Y128270D02*
X99060Y25280D01*
X36830Y190500D02*
X36830Y236220D01*
X36830Y190500D02*
X99060Y128270D01*
X247650Y342900D02*
X259080Y354330D01*
X259080Y363220D01*
X247650Y342900D02*
X247650Y325120D01*
X250230Y322540D02*
X259840Y322540D01*
X250230Y322540D02*
X247650Y325120D01*
X132080Y359410D02*
X121285Y348615D01*
X132080Y359410D02*
X132080Y363220D01*
X121285Y348615D02*
X89535Y348615D01*
X49530Y308610D02*
X49530Y278280D01*
X49530Y308610D02*
X89535Y348615D01*
D21*
X113146Y314844D03*
D22*
X111720Y316270D02*
X97280Y316270D01*
X111720Y316270D02*
X113146Y314844D01*
D21*
X109220Y326390D03*
D22*
X104100Y321270D02*
X97280Y321270D01*
X104100Y321270D02*
X109220Y326390D01*
X201930Y313690D02*
X208280Y307340D01*
X221430Y307340D01*
X151130Y313690D02*
X145415Y319405D01*
X151130Y313690D02*
X201930Y313690D01*
X143550Y321270D02*
X128780Y321270D01*
X143550Y321270D02*
X145415Y319405D01*
X233680Y363220D02*
X243840Y353060D01*
X243840Y323850D01*
X250190Y317500D01*
X259800Y317500D01*
X259840Y317540D01*
X49530Y265280D02*
X49530Y260350D01*
X33020Y243840D01*
X33020Y189230D01*
X83820Y138430D01*
X83820Y25280D01*
M02*
