G04 EAGLE Gerber RS-274X export*
G75*
%MOMM*%
%FSLAX34Y34*%
%LPD*%
%INBottom Copper*%
%IPPOS*%
%AMOC8*
5,1,8,0,0,1.08239X$1,22.5*%
G01*
%ADD10C,1.408000*%
%ADD11C,1.500000*%
%ADD12C,1.879600*%
%ADD13C,0.304800*%
%ADD14C,0.762000*%
%ADD15C,0.152400*%

G36*
X352279Y5090D02*
X352279Y5090D01*
X352356Y5089D01*
X352451Y5110D01*
X352548Y5121D01*
X352621Y5147D01*
X352697Y5164D01*
X352784Y5205D01*
X352876Y5238D01*
X352941Y5280D01*
X353011Y5314D01*
X353087Y5374D01*
X353169Y5427D01*
X353223Y5483D01*
X353283Y5532D01*
X353377Y5643D01*
X353411Y5678D01*
X353421Y5695D01*
X353441Y5719D01*
X356586Y10121D01*
X356586Y10122D01*
X356676Y10285D01*
X356754Y10426D01*
X356755Y10427D01*
X356797Y10577D01*
X356849Y10761D01*
X356849Y10762D01*
X356850Y10763D01*
X356869Y11006D01*
X356869Y564955D01*
X356855Y565080D01*
X356848Y565206D01*
X356835Y565253D01*
X356829Y565301D01*
X356787Y565420D01*
X356752Y565541D01*
X356728Y565583D01*
X356712Y565629D01*
X356643Y565735D01*
X356582Y565845D01*
X356542Y565892D01*
X356523Y565922D01*
X356488Y565955D01*
X356423Y566032D01*
X353942Y568513D01*
X353843Y568592D01*
X353749Y568676D01*
X353706Y568700D01*
X353669Y568730D01*
X353554Y568784D01*
X353444Y568845D01*
X353397Y568858D01*
X353354Y568879D01*
X353230Y568905D01*
X353108Y568940D01*
X353048Y568945D01*
X353013Y568952D01*
X352965Y568951D01*
X352865Y568959D01*
X9085Y568959D01*
X8960Y568945D01*
X8834Y568938D01*
X8787Y568925D01*
X8739Y568919D01*
X8620Y568877D01*
X8499Y568842D01*
X8457Y568818D01*
X8411Y568802D01*
X8305Y568733D01*
X8195Y568672D01*
X8148Y568632D01*
X8118Y568613D01*
X8085Y568578D01*
X8008Y568513D01*
X5527Y566032D01*
X5448Y565933D01*
X5364Y565839D01*
X5340Y565796D01*
X5310Y565759D01*
X5256Y565644D01*
X5195Y565534D01*
X5182Y565487D01*
X5161Y565444D01*
X5135Y565320D01*
X5100Y565198D01*
X5095Y565138D01*
X5088Y565103D01*
X5089Y565055D01*
X5081Y564955D01*
X5081Y11006D01*
X5081Y11005D01*
X5101Y10827D01*
X5121Y10660D01*
X5121Y10659D01*
X5182Y10488D01*
X5238Y10332D01*
X5238Y10331D01*
X5239Y10331D01*
X5364Y10121D01*
X8509Y5719D01*
X8561Y5661D01*
X8606Y5597D01*
X8678Y5532D01*
X8743Y5460D01*
X8807Y5416D01*
X8864Y5364D01*
X8949Y5317D01*
X9029Y5261D01*
X9101Y5233D01*
X9169Y5195D01*
X9263Y5169D01*
X9353Y5133D01*
X9430Y5122D01*
X9505Y5100D01*
X9650Y5089D01*
X9698Y5082D01*
X9718Y5083D01*
X9749Y5081D01*
X352201Y5081D01*
X352279Y5090D01*
G37*
%LPC*%
G36*
X185743Y72643D02*
X185743Y72643D01*
X183957Y74429D01*
X179839Y78547D01*
X178053Y80333D01*
X178053Y80909D01*
X178047Y80959D01*
X178050Y81010D01*
X178028Y81132D01*
X178013Y81255D01*
X177996Y81303D01*
X177987Y81352D01*
X177938Y81466D01*
X177896Y81583D01*
X177869Y81626D01*
X177848Y81672D01*
X177774Y81772D01*
X177707Y81876D01*
X177671Y81911D01*
X177641Y81952D01*
X177546Y82032D01*
X177456Y82118D01*
X177413Y82144D01*
X177375Y82177D01*
X177264Y82234D01*
X177157Y82297D01*
X177109Y82313D01*
X177064Y82336D01*
X176943Y82366D01*
X176825Y82404D01*
X176775Y82408D01*
X176726Y82420D01*
X176602Y82422D01*
X176478Y82431D01*
X176428Y82424D01*
X176378Y82425D01*
X176256Y82398D01*
X176133Y82380D01*
X176086Y82361D01*
X176037Y82350D01*
X175925Y82297D01*
X175809Y82251D01*
X175768Y82222D01*
X175722Y82201D01*
X175625Y82123D01*
X175523Y82052D01*
X175489Y82015D01*
X175450Y81983D01*
X175373Y81886D01*
X175290Y81793D01*
X175265Y81749D01*
X175234Y81710D01*
X175123Y81492D01*
X175109Y81458D01*
X172700Y79049D01*
X169552Y77745D01*
X166144Y77745D01*
X162996Y79049D01*
X160587Y81458D01*
X159283Y84606D01*
X159283Y88014D01*
X159956Y89638D01*
X159977Y89712D01*
X160007Y89782D01*
X160025Y89879D01*
X160052Y89973D01*
X160056Y90050D01*
X160069Y90125D01*
X160064Y90223D01*
X160069Y90321D01*
X160055Y90396D01*
X160051Y90473D01*
X160024Y90567D01*
X160006Y90664D01*
X159976Y90734D01*
X159955Y90808D01*
X159907Y90894D01*
X159867Y90984D01*
X159822Y91045D01*
X159784Y91112D01*
X159688Y91226D01*
X159659Y91264D01*
X159645Y91276D01*
X159626Y91298D01*
X158249Y92675D01*
X156463Y94461D01*
X156463Y103699D01*
X156452Y103798D01*
X156450Y103899D01*
X156432Y103971D01*
X156423Y104045D01*
X156390Y104139D01*
X156365Y104237D01*
X156331Y104303D01*
X156306Y104373D01*
X156251Y104457D01*
X156205Y104547D01*
X156157Y104603D01*
X156117Y104666D01*
X156045Y104736D01*
X155980Y104812D01*
X155920Y104856D01*
X155866Y104908D01*
X155780Y104960D01*
X155699Y105019D01*
X155631Y105049D01*
X155567Y105087D01*
X155472Y105117D01*
X155379Y105157D01*
X155306Y105170D01*
X155235Y105193D01*
X155135Y105201D01*
X155036Y105219D01*
X154962Y105215D01*
X154888Y105221D01*
X154788Y105206D01*
X154688Y105201D01*
X154617Y105180D01*
X154543Y105169D01*
X154450Y105132D01*
X154353Y105104D01*
X154288Y105068D01*
X154219Y105041D01*
X154137Y104983D01*
X154049Y104934D01*
X153973Y104869D01*
X153933Y104842D01*
X153909Y104815D01*
X153863Y104776D01*
X153089Y104002D01*
X151869Y103116D01*
X150526Y102431D01*
X149097Y101967D01*
X149097Y110584D01*
X149094Y110610D01*
X149096Y110636D01*
X149074Y110783D01*
X149057Y110930D01*
X149049Y110955D01*
X149045Y110981D01*
X148990Y111118D01*
X148940Y111258D01*
X148926Y111280D01*
X148916Y111305D01*
X148907Y111317D01*
X148962Y111409D01*
X148970Y111434D01*
X148983Y111457D01*
X149023Y111600D01*
X149068Y111741D01*
X149070Y111767D01*
X149078Y111792D01*
X149097Y112036D01*
X149097Y120653D01*
X150526Y120189D01*
X151869Y119504D01*
X153089Y118618D01*
X153863Y117844D01*
X153942Y117782D01*
X154014Y117712D01*
X154078Y117674D01*
X154136Y117628D01*
X154227Y117585D01*
X154313Y117533D01*
X154384Y117511D01*
X154451Y117479D01*
X154549Y117458D01*
X154645Y117427D01*
X154719Y117421D01*
X154792Y117405D01*
X154892Y117407D01*
X154992Y117399D01*
X155066Y117410D01*
X155140Y117411D01*
X155237Y117436D01*
X155337Y117451D01*
X155406Y117478D01*
X155478Y117496D01*
X155567Y117542D01*
X155661Y117579D01*
X155722Y117622D01*
X155788Y117656D01*
X155865Y117721D01*
X155947Y117778D01*
X155997Y117834D01*
X156053Y117882D01*
X156113Y117963D01*
X156180Y118037D01*
X156216Y118102D01*
X156261Y118162D01*
X156300Y118254D01*
X156349Y118342D01*
X156369Y118414D01*
X156399Y118482D01*
X156416Y118581D01*
X156444Y118678D01*
X156452Y118778D01*
X156460Y118825D01*
X156458Y118861D01*
X156463Y118921D01*
X156463Y136351D01*
X156452Y136451D01*
X156450Y136552D01*
X156432Y136624D01*
X156423Y136698D01*
X156389Y136792D01*
X156365Y136890D01*
X156331Y136956D01*
X156306Y137026D01*
X156251Y137110D01*
X156205Y137199D01*
X156157Y137256D01*
X156117Y137319D01*
X156045Y137388D01*
X155980Y137465D01*
X155920Y137509D01*
X155866Y137561D01*
X155780Y137612D01*
X155699Y137672D01*
X155631Y137701D01*
X155567Y137740D01*
X155471Y137770D01*
X155379Y137810D01*
X155306Y137823D01*
X155235Y137846D01*
X155135Y137854D01*
X155036Y137872D01*
X154962Y137868D01*
X154888Y137874D01*
X154788Y137859D01*
X154688Y137854D01*
X154617Y137833D01*
X154543Y137822D01*
X154450Y137785D01*
X154353Y137757D01*
X154288Y137721D01*
X154219Y137693D01*
X154137Y137636D01*
X154049Y137587D01*
X153973Y137522D01*
X153933Y137494D01*
X153909Y137468D01*
X153863Y137428D01*
X152882Y136447D01*
X150921Y135635D01*
X148706Y135635D01*
X148669Y135646D01*
X148593Y135650D01*
X148517Y135663D01*
X148419Y135658D01*
X148321Y135663D01*
X148246Y135649D01*
X148169Y135645D01*
X148075Y135618D01*
X147978Y135600D01*
X147908Y135570D01*
X147834Y135549D01*
X147749Y135501D01*
X147658Y135462D01*
X147597Y135416D01*
X147530Y135379D01*
X147417Y135282D01*
X147379Y135254D01*
X147366Y135239D01*
X147344Y135220D01*
X137353Y125229D01*
X137274Y125130D01*
X137190Y125036D01*
X137166Y124994D01*
X137136Y124956D01*
X137082Y124842D01*
X137021Y124731D01*
X137008Y124684D01*
X136987Y124641D01*
X136961Y124517D01*
X136926Y124396D01*
X136921Y124335D01*
X136914Y124300D01*
X136915Y124252D01*
X136907Y124152D01*
X136907Y118595D01*
X136918Y118496D01*
X136920Y118395D01*
X136938Y118323D01*
X136947Y118249D01*
X136981Y118154D01*
X137005Y118057D01*
X137039Y117991D01*
X137064Y117921D01*
X137119Y117837D01*
X137165Y117747D01*
X137213Y117691D01*
X137253Y117628D01*
X137325Y117558D01*
X137390Y117482D01*
X137450Y117438D01*
X137504Y117386D01*
X137590Y117334D01*
X137671Y117275D01*
X137739Y117245D01*
X137803Y117207D01*
X137899Y117177D01*
X137991Y117137D01*
X138064Y117124D01*
X138135Y117101D01*
X138235Y117093D01*
X138334Y117075D01*
X138408Y117079D01*
X138482Y117073D01*
X138582Y117088D01*
X138682Y117093D01*
X138753Y117114D01*
X138827Y117125D01*
X138920Y117162D01*
X139017Y117190D01*
X139082Y117226D01*
X139151Y117253D01*
X139233Y117311D01*
X139321Y117360D01*
X139397Y117425D01*
X139437Y117452D01*
X139461Y117479D01*
X139507Y117518D01*
X140607Y118618D01*
X141827Y119504D01*
X143170Y120189D01*
X144599Y120653D01*
X144599Y112036D01*
X144602Y112010D01*
X144600Y111984D01*
X144622Y111837D01*
X144639Y111690D01*
X144647Y111665D01*
X144651Y111639D01*
X144706Y111502D01*
X144756Y111362D01*
X144770Y111340D01*
X144780Y111315D01*
X144789Y111303D01*
X144734Y111211D01*
X144726Y111186D01*
X144713Y111163D01*
X144673Y111020D01*
X144628Y110879D01*
X144625Y110853D01*
X144618Y110828D01*
X144599Y110584D01*
X144599Y101967D01*
X143170Y102431D01*
X141827Y103116D01*
X140607Y104002D01*
X139507Y105102D01*
X139428Y105164D01*
X139356Y105234D01*
X139292Y105272D01*
X139234Y105318D01*
X139143Y105361D01*
X139057Y105413D01*
X138986Y105435D01*
X138919Y105467D01*
X138821Y105488D01*
X138725Y105519D01*
X138651Y105525D01*
X138578Y105541D01*
X138478Y105539D01*
X138378Y105547D01*
X138304Y105536D01*
X138230Y105535D01*
X138133Y105510D01*
X138033Y105495D01*
X137964Y105468D01*
X137892Y105450D01*
X137803Y105404D01*
X137709Y105367D01*
X137648Y105324D01*
X137582Y105290D01*
X137506Y105225D01*
X137423Y105168D01*
X137373Y105112D01*
X137317Y105064D01*
X137257Y104983D01*
X137190Y104909D01*
X137154Y104844D01*
X137109Y104784D01*
X137070Y104692D01*
X137021Y104604D01*
X137001Y104532D01*
X136971Y104464D01*
X136954Y104365D01*
X136926Y104268D01*
X136918Y104168D01*
X136910Y104121D01*
X136912Y104085D01*
X136907Y104025D01*
X136907Y100116D01*
X136921Y99991D01*
X136928Y99864D01*
X136941Y99818D01*
X136947Y99770D01*
X136989Y99651D01*
X137024Y99530D01*
X137048Y99487D01*
X137064Y99442D01*
X137133Y99335D01*
X137194Y99225D01*
X137234Y99179D01*
X137253Y99149D01*
X137288Y99115D01*
X137353Y99039D01*
X141860Y94532D01*
X141920Y94485D01*
X141973Y94430D01*
X142056Y94377D01*
X142133Y94315D01*
X142202Y94283D01*
X142266Y94241D01*
X142359Y94209D01*
X142448Y94167D01*
X142523Y94150D01*
X142595Y94125D01*
X142693Y94114D01*
X142789Y94093D01*
X142865Y94094D01*
X142941Y94086D01*
X143039Y94097D01*
X143137Y94099D01*
X143211Y94118D01*
X143287Y94127D01*
X143429Y94173D01*
X143475Y94184D01*
X143492Y94193D01*
X143520Y94202D01*
X145144Y94875D01*
X148552Y94875D01*
X151700Y93571D01*
X154109Y91162D01*
X155413Y88014D01*
X155413Y84606D01*
X154109Y81458D01*
X151700Y79049D01*
X148552Y77745D01*
X145144Y77745D01*
X141996Y79049D01*
X139587Y81458D01*
X138283Y84606D01*
X138283Y88014D01*
X138956Y89638D01*
X138977Y89712D01*
X139007Y89782D01*
X139025Y89879D01*
X139052Y89973D01*
X139056Y90050D01*
X139069Y90125D01*
X139064Y90223D01*
X139069Y90321D01*
X139055Y90396D01*
X139051Y90473D01*
X139024Y90567D01*
X139006Y90664D01*
X138976Y90734D01*
X138955Y90808D01*
X138907Y90894D01*
X138867Y90984D01*
X138822Y91045D01*
X138784Y91112D01*
X138688Y91226D01*
X138659Y91264D01*
X138645Y91276D01*
X138626Y91298D01*
X134119Y95805D01*
X132333Y97591D01*
X132333Y126677D01*
X134119Y128463D01*
X144110Y138454D01*
X144158Y138514D01*
X144212Y138567D01*
X144266Y138650D01*
X144327Y138727D01*
X144359Y138796D01*
X144401Y138861D01*
X144434Y138953D01*
X144476Y139042D01*
X144492Y139117D01*
X144517Y139189D01*
X144528Y139287D01*
X144549Y139383D01*
X144548Y139459D01*
X144556Y139535D01*
X144545Y139633D01*
X144543Y139731D01*
X144525Y139802D01*
X144525Y142031D01*
X145337Y143992D01*
X146838Y145493D01*
X148799Y146305D01*
X150921Y146305D01*
X152882Y145493D01*
X153863Y144512D01*
X153942Y144449D01*
X154014Y144379D01*
X154078Y144341D01*
X154136Y144295D01*
X154227Y144252D01*
X154313Y144200D01*
X154384Y144178D01*
X154451Y144146D01*
X154549Y144125D01*
X154645Y144094D01*
X154719Y144088D01*
X154792Y144073D01*
X154892Y144074D01*
X154992Y144066D01*
X155066Y144077D01*
X155140Y144079D01*
X155237Y144103D01*
X155337Y144118D01*
X155406Y144145D01*
X155478Y144164D01*
X155567Y144210D01*
X155661Y144247D01*
X155722Y144289D01*
X155788Y144323D01*
X155864Y144388D01*
X155947Y144446D01*
X155997Y144501D01*
X156053Y144549D01*
X156113Y144630D01*
X156180Y144704D01*
X156216Y144770D01*
X156261Y144829D01*
X156300Y144921D01*
X156349Y145009D01*
X156369Y145081D01*
X156399Y145149D01*
X156416Y145248D01*
X156444Y145345D01*
X156452Y145445D01*
X156460Y145492D01*
X156458Y145528D01*
X156463Y145589D01*
X156463Y152854D01*
X156461Y152873D01*
X156462Y152888D01*
X156449Y152976D01*
X156449Y152979D01*
X156442Y153106D01*
X156429Y153152D01*
X156423Y153200D01*
X156381Y153319D01*
X156346Y153440D01*
X156322Y153483D01*
X156306Y153528D01*
X156237Y153635D01*
X156176Y153745D01*
X156136Y153791D01*
X156117Y153821D01*
X156082Y153855D01*
X156017Y153931D01*
X147296Y162652D01*
X147236Y162700D01*
X147183Y162754D01*
X147100Y162808D01*
X147023Y162869D01*
X146954Y162901D01*
X146889Y162943D01*
X146797Y162976D01*
X146708Y163018D01*
X146633Y163034D01*
X146561Y163059D01*
X146463Y163070D01*
X146367Y163091D01*
X146291Y163090D01*
X146215Y163098D01*
X146117Y163087D01*
X146019Y163085D01*
X145948Y163067D01*
X143719Y163067D01*
X141758Y163879D01*
X140257Y165380D01*
X139445Y167341D01*
X139445Y169463D01*
X140257Y171424D01*
X141823Y172990D01*
X141857Y173009D01*
X141914Y173060D01*
X141977Y173104D01*
X142043Y173177D01*
X142115Y173243D01*
X142159Y173306D01*
X142210Y173363D01*
X142258Y173449D01*
X142314Y173529D01*
X142342Y173601D01*
X142379Y173668D01*
X142406Y173762D01*
X142442Y173854D01*
X142453Y173929D01*
X142474Y174003D01*
X142486Y174152D01*
X142492Y174198D01*
X142491Y174217D01*
X142493Y174247D01*
X142493Y202109D01*
X142482Y202209D01*
X142480Y202309D01*
X142462Y202381D01*
X142453Y202455D01*
X142420Y202549D01*
X142395Y202647D01*
X142361Y202713D01*
X142336Y202783D01*
X142281Y202867D01*
X142235Y202957D01*
X142187Y203013D01*
X142147Y203076D01*
X142075Y203146D01*
X142010Y203222D01*
X141950Y203266D01*
X141896Y203318D01*
X141810Y203370D01*
X141729Y203429D01*
X141661Y203459D01*
X141597Y203497D01*
X141501Y203528D01*
X141409Y203567D01*
X141336Y203580D01*
X141265Y203603D01*
X141165Y203611D01*
X141066Y203629D01*
X140992Y203625D01*
X140918Y203631D01*
X140818Y203616D01*
X140718Y203611D01*
X140647Y203590D01*
X140573Y203579D01*
X140480Y203542D01*
X140383Y203515D01*
X140318Y203478D01*
X140249Y203451D01*
X140167Y203393D01*
X140079Y203344D01*
X140003Y203279D01*
X139963Y203252D01*
X139939Y203225D01*
X139893Y203186D01*
X138267Y201560D01*
X134253Y199897D01*
X129907Y199897D01*
X125893Y201560D01*
X122820Y204633D01*
X121157Y208647D01*
X121157Y212993D01*
X122820Y217007D01*
X125893Y220080D01*
X129907Y221743D01*
X134253Y221743D01*
X138267Y220080D01*
X139893Y218454D01*
X139972Y218392D01*
X140044Y218322D01*
X140108Y218284D01*
X140166Y218238D01*
X140257Y218195D01*
X140343Y218143D01*
X140414Y218120D01*
X140481Y218089D01*
X140579Y218067D01*
X140675Y218037D01*
X140749Y218031D01*
X140822Y218015D01*
X140922Y218017D01*
X141022Y218009D01*
X141096Y218020D01*
X141170Y218021D01*
X141267Y218046D01*
X141367Y218061D01*
X141436Y218088D01*
X141508Y218106D01*
X141597Y218152D01*
X141691Y218189D01*
X141752Y218232D01*
X141818Y218266D01*
X141894Y218331D01*
X141977Y218388D01*
X142027Y218443D01*
X142083Y218492D01*
X142143Y218572D01*
X142210Y218647D01*
X142246Y218712D01*
X142291Y218772D01*
X142330Y218864D01*
X142379Y218952D01*
X142399Y219024D01*
X142429Y219092D01*
X142446Y219191D01*
X142474Y219287D01*
X142482Y219387D01*
X142490Y219435D01*
X142488Y219471D01*
X142493Y219531D01*
X142493Y256217D01*
X148474Y262198D01*
X148490Y262218D01*
X148510Y262235D01*
X148598Y262355D01*
X148690Y262471D01*
X148702Y262494D01*
X148717Y262516D01*
X148776Y262652D01*
X148839Y262786D01*
X148845Y262811D01*
X148855Y262836D01*
X148882Y262982D01*
X148913Y263126D01*
X148912Y263153D01*
X148917Y263179D01*
X148909Y263327D01*
X148907Y263475D01*
X148900Y263500D01*
X148899Y263527D01*
X148858Y263669D01*
X148822Y263813D01*
X148810Y263836D01*
X148802Y263861D01*
X148730Y263991D01*
X148662Y264123D01*
X148645Y264143D01*
X148632Y264166D01*
X148474Y264352D01*
X147877Y264948D01*
X147065Y266909D01*
X147065Y269031D01*
X147877Y270992D01*
X149378Y272493D01*
X151339Y273305D01*
X153461Y273305D01*
X155422Y272493D01*
X156923Y270992D01*
X157735Y269031D01*
X157735Y266909D01*
X156923Y264948D01*
X155357Y263382D01*
X155323Y263363D01*
X155266Y263312D01*
X155203Y263268D01*
X155137Y263195D01*
X155065Y263129D01*
X155021Y263066D01*
X154970Y263009D01*
X154922Y262923D01*
X154866Y262843D01*
X154838Y262771D01*
X154801Y262704D01*
X154774Y262610D01*
X154738Y262518D01*
X154727Y262443D01*
X154706Y262369D01*
X154694Y262220D01*
X154688Y262174D01*
X154689Y262155D01*
X154687Y262125D01*
X154687Y261943D01*
X147513Y254769D01*
X147434Y254670D01*
X147350Y254576D01*
X147326Y254534D01*
X147296Y254496D01*
X147242Y254382D01*
X147181Y254271D01*
X147168Y254224D01*
X147147Y254181D01*
X147121Y254057D01*
X147086Y253936D01*
X147081Y253875D01*
X147074Y253840D01*
X147075Y253792D01*
X147067Y253692D01*
X147067Y219531D01*
X147078Y219431D01*
X147080Y219331D01*
X147098Y219259D01*
X147107Y219185D01*
X147140Y219091D01*
X147165Y218993D01*
X147199Y218927D01*
X147224Y218857D01*
X147279Y218773D01*
X147325Y218683D01*
X147373Y218627D01*
X147413Y218564D01*
X147485Y218494D01*
X147550Y218418D01*
X147610Y218374D01*
X147664Y218322D01*
X147750Y218270D01*
X147831Y218211D01*
X147899Y218181D01*
X147963Y218143D01*
X148059Y218112D01*
X148151Y218073D01*
X148224Y218060D01*
X148295Y218037D01*
X148395Y218029D01*
X148494Y218011D01*
X148568Y218015D01*
X148642Y218009D01*
X148742Y218024D01*
X148842Y218029D01*
X148913Y218050D01*
X148987Y218061D01*
X149080Y218098D01*
X149177Y218125D01*
X149242Y218162D01*
X149311Y218189D01*
X149393Y218247D01*
X149481Y218296D01*
X149557Y218361D01*
X149597Y218388D01*
X149621Y218415D01*
X149667Y218454D01*
X151293Y220080D01*
X155307Y221743D01*
X159653Y221743D01*
X163667Y220080D01*
X165547Y218200D01*
X165625Y218138D01*
X165698Y218068D01*
X165762Y218030D01*
X165820Y217984D01*
X165911Y217941D01*
X165997Y217889D01*
X166068Y217866D01*
X166135Y217835D01*
X166233Y217813D01*
X166329Y217783D01*
X166403Y217777D01*
X166476Y217761D01*
X166576Y217763D01*
X166676Y217755D01*
X166750Y217766D01*
X166824Y217767D01*
X166921Y217792D01*
X167021Y217807D01*
X167090Y217834D01*
X167162Y217852D01*
X167251Y217898D01*
X167345Y217935D01*
X167406Y217978D01*
X167472Y218012D01*
X167548Y218077D01*
X167631Y218134D01*
X167681Y218189D01*
X167737Y218238D01*
X167797Y218318D01*
X167864Y218393D01*
X167900Y218458D01*
X167945Y218518D01*
X167984Y218610D01*
X168033Y218698D01*
X168053Y218770D01*
X168083Y218838D01*
X168100Y218937D01*
X168128Y219033D01*
X168136Y219133D01*
X168144Y219181D01*
X168142Y219217D01*
X168147Y219277D01*
X168147Y224721D01*
X182687Y239261D01*
X182766Y239360D01*
X182850Y239454D01*
X182874Y239496D01*
X182904Y239534D01*
X182958Y239648D01*
X183019Y239759D01*
X183032Y239806D01*
X183053Y239849D01*
X183079Y239973D01*
X183114Y240094D01*
X183119Y240155D01*
X183126Y240190D01*
X183125Y240238D01*
X183133Y240338D01*
X183133Y297159D01*
X183125Y297235D01*
X183126Y297311D01*
X183105Y297408D01*
X183093Y297505D01*
X183068Y297577D01*
X183051Y297652D01*
X183009Y297741D01*
X182976Y297833D01*
X182934Y297898D01*
X182902Y297967D01*
X182840Y298043D01*
X182787Y298126D01*
X182732Y298179D01*
X182684Y298239D01*
X182607Y298300D01*
X182536Y298368D01*
X182471Y298408D01*
X182411Y298455D01*
X182278Y298523D01*
X182237Y298547D01*
X182219Y298553D01*
X182193Y298566D01*
X181128Y299007D01*
X179627Y300508D01*
X178815Y302469D01*
X178815Y304591D01*
X179627Y306552D01*
X181128Y308053D01*
X183089Y308865D01*
X185211Y308865D01*
X187172Y308053D01*
X188673Y306552D01*
X189485Y304591D01*
X189485Y302469D01*
X188673Y300508D01*
X188153Y299988D01*
X188074Y299889D01*
X187990Y299796D01*
X187966Y299753D01*
X187936Y299715D01*
X187882Y299601D01*
X187821Y299491D01*
X187808Y299444D01*
X187787Y299400D01*
X187761Y299277D01*
X187726Y299155D01*
X187721Y299094D01*
X187714Y299060D01*
X187715Y299012D01*
X187707Y298911D01*
X187707Y237813D01*
X173167Y223273D01*
X173088Y223174D01*
X173004Y223080D01*
X172980Y223038D01*
X172950Y223000D01*
X172896Y222886D01*
X172835Y222775D01*
X172822Y222728D01*
X172801Y222685D01*
X172775Y222561D01*
X172740Y222440D01*
X172735Y222379D01*
X172728Y222344D01*
X172729Y222296D01*
X172721Y222196D01*
X172721Y219785D01*
X172732Y219685D01*
X172734Y219585D01*
X172752Y219513D01*
X172761Y219439D01*
X172794Y219345D01*
X172819Y219247D01*
X172853Y219181D01*
X172878Y219111D01*
X172933Y219027D01*
X172979Y218937D01*
X173027Y218881D01*
X173067Y218818D01*
X173139Y218748D01*
X173204Y218672D01*
X173264Y218628D01*
X173318Y218576D01*
X173404Y218524D01*
X173485Y218465D01*
X173553Y218435D01*
X173617Y218397D01*
X173713Y218366D01*
X173805Y218327D01*
X173878Y218314D01*
X173949Y218291D01*
X174049Y218283D01*
X174148Y218265D01*
X174222Y218269D01*
X174296Y218263D01*
X174396Y218278D01*
X174496Y218283D01*
X174567Y218304D01*
X174641Y218315D01*
X174734Y218352D01*
X174831Y218379D01*
X174896Y218416D01*
X174965Y218443D01*
X175047Y218501D01*
X175135Y218550D01*
X175211Y218615D01*
X175251Y218642D01*
X175275Y218669D01*
X175321Y218708D01*
X176693Y220080D01*
X180707Y221743D01*
X185053Y221743D01*
X189067Y220080D01*
X190439Y218708D01*
X190518Y218646D01*
X190590Y218576D01*
X190654Y218538D01*
X190712Y218492D01*
X190803Y218449D01*
X190889Y218397D01*
X190960Y218374D01*
X191027Y218343D01*
X191125Y218321D01*
X191221Y218291D01*
X191295Y218285D01*
X191368Y218269D01*
X191468Y218271D01*
X191568Y218263D01*
X191642Y218274D01*
X191716Y218275D01*
X191813Y218300D01*
X191913Y218315D01*
X191982Y218342D01*
X192054Y218360D01*
X192143Y218406D01*
X192237Y218443D01*
X192298Y218486D01*
X192364Y218520D01*
X192440Y218585D01*
X192523Y218642D01*
X192573Y218697D01*
X192629Y218746D01*
X192689Y218826D01*
X192756Y218901D01*
X192792Y218966D01*
X192837Y219026D01*
X192876Y219118D01*
X192925Y219206D01*
X192945Y219278D01*
X192975Y219346D01*
X192992Y219445D01*
X193020Y219541D01*
X193028Y219641D01*
X193036Y219689D01*
X193034Y219725D01*
X193039Y219785D01*
X193039Y224467D01*
X194371Y225799D01*
X194450Y225898D01*
X194534Y225992D01*
X194558Y226034D01*
X194588Y226072D01*
X194642Y226186D01*
X194703Y226297D01*
X194716Y226344D01*
X194737Y226387D01*
X194763Y226511D01*
X194798Y226632D01*
X194803Y226693D01*
X194810Y226728D01*
X194809Y226776D01*
X194817Y226876D01*
X194817Y258742D01*
X203007Y266932D01*
X203086Y267031D01*
X203170Y267125D01*
X203194Y267167D01*
X203224Y267205D01*
X203278Y267319D01*
X203339Y267430D01*
X203352Y267477D01*
X203373Y267520D01*
X203399Y267644D01*
X203434Y267765D01*
X203439Y267826D01*
X203446Y267861D01*
X203445Y267909D01*
X203453Y268009D01*
X203453Y286255D01*
X203444Y286331D01*
X203446Y286408D01*
X203425Y286504D01*
X203413Y286601D01*
X203388Y286673D01*
X203371Y286748D01*
X203329Y286837D01*
X203296Y286929D01*
X203254Y286994D01*
X203221Y287063D01*
X203160Y287140D01*
X203107Y287222D01*
X203052Y287276D01*
X203004Y287335D01*
X202927Y287396D01*
X202856Y287464D01*
X202794Y287502D01*
X201217Y289078D01*
X200405Y291039D01*
X200405Y293161D01*
X201217Y295122D01*
X202718Y296623D01*
X204679Y297435D01*
X206801Y297435D01*
X208762Y296623D01*
X210263Y295122D01*
X211075Y293161D01*
X211075Y291039D01*
X210263Y289078D01*
X208697Y287512D01*
X208663Y287493D01*
X208606Y287442D01*
X208543Y287398D01*
X208477Y287325D01*
X208405Y287259D01*
X208361Y287196D01*
X208310Y287139D01*
X208262Y287053D01*
X208206Y286973D01*
X208178Y286901D01*
X208141Y286834D01*
X208114Y286740D01*
X208078Y286648D01*
X208067Y286573D01*
X208046Y286499D01*
X208034Y286350D01*
X208028Y286304D01*
X208029Y286285D01*
X208027Y286255D01*
X208027Y265484D01*
X206241Y263698D01*
X205748Y263205D01*
X205686Y263127D01*
X205616Y263054D01*
X205577Y262990D01*
X205531Y262932D01*
X205488Y262841D01*
X205437Y262755D01*
X205414Y262684D01*
X205382Y262617D01*
X205361Y262519D01*
X205331Y262423D01*
X205325Y262349D01*
X205309Y262276D01*
X205311Y262176D01*
X205303Y262076D01*
X205314Y262002D01*
X205315Y261928D01*
X205340Y261830D01*
X205354Y261731D01*
X205382Y261662D01*
X205400Y261590D01*
X205446Y261501D01*
X205483Y261407D01*
X205526Y261346D01*
X205560Y261280D01*
X205625Y261204D01*
X205682Y261121D01*
X205737Y261071D01*
X205785Y261015D01*
X205866Y260955D01*
X205941Y260888D01*
X206006Y260852D01*
X206066Y260807D01*
X206158Y260768D01*
X206246Y260719D01*
X206317Y260699D01*
X206386Y260669D01*
X206485Y260652D01*
X206581Y260624D01*
X206681Y260616D01*
X206729Y260608D01*
X206764Y260610D01*
X206795Y260607D01*
X208762Y259793D01*
X210263Y258292D01*
X211075Y256331D01*
X211075Y254209D01*
X210263Y252248D01*
X209743Y251728D01*
X209664Y251629D01*
X209580Y251536D01*
X209556Y251493D01*
X209526Y251455D01*
X209472Y251341D01*
X209411Y251231D01*
X209398Y251184D01*
X209377Y251140D01*
X209351Y251017D01*
X209316Y250895D01*
X209311Y250834D01*
X209304Y250800D01*
X209305Y250752D01*
X209297Y250651D01*
X209297Y245418D01*
X209311Y245293D01*
X209318Y245166D01*
X209331Y245120D01*
X209337Y245072D01*
X209379Y244953D01*
X209414Y244832D01*
X209438Y244789D01*
X209454Y244744D01*
X209523Y244637D01*
X209584Y244527D01*
X209624Y244481D01*
X209643Y244451D01*
X209678Y244417D01*
X209743Y244341D01*
X221227Y232857D01*
X223013Y231071D01*
X223013Y220714D01*
X223024Y220614D01*
X223026Y220514D01*
X223044Y220442D01*
X223053Y220368D01*
X223086Y220273D01*
X223111Y220176D01*
X223145Y220110D01*
X223170Y220040D01*
X223225Y219955D01*
X223271Y219866D01*
X223319Y219809D01*
X223359Y219747D01*
X223431Y219677D01*
X223496Y219601D01*
X223556Y219556D01*
X223610Y219505D01*
X223696Y219453D01*
X223777Y219394D01*
X223845Y219364D01*
X223909Y219326D01*
X224004Y219295D01*
X224097Y219256D01*
X224170Y219242D01*
X224241Y219220D01*
X224341Y219212D01*
X224440Y219194D01*
X224514Y219198D01*
X224588Y219192D01*
X224687Y219207D01*
X224788Y219212D01*
X224859Y219232D01*
X224933Y219243D01*
X225026Y219281D01*
X225123Y219308D01*
X225188Y219345D01*
X225257Y219372D01*
X225339Y219429D01*
X225427Y219479D01*
X225503Y219544D01*
X225543Y219571D01*
X225567Y219597D01*
X225613Y219637D01*
X225903Y219927D01*
X227423Y221031D01*
X229097Y221884D01*
X230884Y222465D01*
X231141Y222505D01*
X231141Y211836D01*
X231144Y211810D01*
X231142Y211784D01*
X231164Y211637D01*
X231181Y211490D01*
X231189Y211465D01*
X231193Y211439D01*
X231248Y211302D01*
X231298Y211162D01*
X231312Y211140D01*
X231322Y211115D01*
X231407Y210994D01*
X231487Y210869D01*
X231506Y210851D01*
X231521Y210829D01*
X231537Y210815D01*
X231455Y210730D01*
X231441Y210707D01*
X231424Y210688D01*
X231352Y210558D01*
X231276Y210431D01*
X231268Y210406D01*
X231255Y210383D01*
X231215Y210240D01*
X231170Y210099D01*
X231167Y210073D01*
X231160Y210048D01*
X231141Y209804D01*
X231141Y199135D01*
X230884Y199175D01*
X229097Y199756D01*
X227423Y200609D01*
X225903Y201713D01*
X225613Y202003D01*
X225534Y202065D01*
X225462Y202135D01*
X225398Y202173D01*
X225340Y202220D01*
X225249Y202263D01*
X225163Y202314D01*
X225092Y202337D01*
X225025Y202369D01*
X224927Y202390D01*
X224831Y202420D01*
X224757Y202426D01*
X224684Y202442D01*
X224584Y202440D01*
X224484Y202448D01*
X224410Y202437D01*
X224336Y202436D01*
X224238Y202411D01*
X224139Y202397D01*
X224070Y202369D01*
X223998Y202351D01*
X223909Y202305D01*
X223815Y202268D01*
X223754Y202225D01*
X223688Y202191D01*
X223612Y202126D01*
X223529Y202069D01*
X223479Y202014D01*
X223423Y201966D01*
X223363Y201885D01*
X223296Y201810D01*
X223260Y201745D01*
X223215Y201685D01*
X223176Y201593D01*
X223127Y201505D01*
X223107Y201434D01*
X223077Y201365D01*
X223060Y201266D01*
X223032Y201170D01*
X223024Y201069D01*
X223016Y201022D01*
X223018Y200987D01*
X223013Y200926D01*
X223013Y161359D01*
X221227Y159573D01*
X211013Y149359D01*
X210934Y149260D01*
X210850Y149166D01*
X210826Y149124D01*
X210796Y149086D01*
X210742Y148972D01*
X210681Y148861D01*
X210668Y148814D01*
X210647Y148771D01*
X210621Y148647D01*
X210603Y148585D01*
X210596Y148561D01*
X210595Y148557D01*
X210586Y148526D01*
X210581Y148465D01*
X210574Y148430D01*
X210575Y148382D01*
X210567Y148282D01*
X210567Y146815D01*
X210576Y146739D01*
X210574Y146662D01*
X210595Y146566D01*
X210607Y146469D01*
X210632Y146397D01*
X210649Y146322D01*
X210691Y146233D01*
X210724Y146141D01*
X210766Y146076D01*
X210799Y146007D01*
X210860Y145930D01*
X210913Y145848D01*
X210968Y145794D01*
X211016Y145735D01*
X211093Y145674D01*
X211164Y145606D01*
X211226Y145568D01*
X212803Y143992D01*
X213615Y142031D01*
X213615Y139909D01*
X212803Y137948D01*
X211302Y136447D01*
X209341Y135635D01*
X207219Y135635D01*
X205258Y136447D01*
X203757Y137948D01*
X202945Y139909D01*
X202945Y142031D01*
X203757Y143992D01*
X205323Y145558D01*
X205357Y145577D01*
X205414Y145628D01*
X205477Y145672D01*
X205543Y145745D01*
X205615Y145811D01*
X205659Y145874D01*
X205710Y145931D01*
X205758Y146017D01*
X205814Y146097D01*
X205842Y146169D01*
X205879Y146236D01*
X205906Y146330D01*
X205942Y146422D01*
X205953Y146497D01*
X205974Y146571D01*
X205986Y146720D01*
X205992Y146766D01*
X205991Y146785D01*
X205993Y146815D01*
X205993Y150807D01*
X217993Y162807D01*
X218072Y162906D01*
X218156Y163000D01*
X218180Y163042D01*
X218210Y163080D01*
X218264Y163194D01*
X218325Y163305D01*
X218338Y163351D01*
X218359Y163395D01*
X218385Y163518D01*
X218420Y163640D01*
X218425Y163701D01*
X218432Y163736D01*
X218431Y163784D01*
X218439Y163884D01*
X218439Y201855D01*
X218428Y201955D01*
X218426Y202055D01*
X218408Y202127D01*
X218399Y202201D01*
X218366Y202295D01*
X218341Y202393D01*
X218307Y202459D01*
X218282Y202529D01*
X218227Y202613D01*
X218181Y202703D01*
X218133Y202759D01*
X218093Y202822D01*
X218021Y202892D01*
X217956Y202968D01*
X217896Y203012D01*
X217842Y203064D01*
X217756Y203116D01*
X217675Y203175D01*
X217607Y203205D01*
X217543Y203243D01*
X217447Y203274D01*
X217355Y203313D01*
X217282Y203326D01*
X217211Y203349D01*
X217111Y203357D01*
X217012Y203375D01*
X216938Y203371D01*
X216864Y203377D01*
X216764Y203362D01*
X216664Y203357D01*
X216593Y203336D01*
X216519Y203325D01*
X216426Y203288D01*
X216329Y203261D01*
X216264Y203224D01*
X216195Y203197D01*
X216113Y203139D01*
X216025Y203090D01*
X215949Y203025D01*
X215909Y202998D01*
X215885Y202971D01*
X215839Y202932D01*
X214467Y201560D01*
X210453Y199897D01*
X206107Y199897D01*
X202093Y201560D01*
X200213Y203440D01*
X200135Y203502D01*
X200062Y203572D01*
X199998Y203610D01*
X199940Y203656D01*
X199849Y203699D01*
X199763Y203751D01*
X199692Y203774D01*
X199625Y203805D01*
X199527Y203827D01*
X199431Y203857D01*
X199357Y203863D01*
X199284Y203879D01*
X199184Y203877D01*
X199084Y203885D01*
X199010Y203874D01*
X198936Y203873D01*
X198839Y203848D01*
X198739Y203833D01*
X198670Y203806D01*
X198598Y203788D01*
X198509Y203742D01*
X198415Y203705D01*
X198354Y203662D01*
X198288Y203628D01*
X198212Y203563D01*
X198129Y203506D01*
X198079Y203451D01*
X198023Y203402D01*
X197963Y203322D01*
X197896Y203247D01*
X197860Y203182D01*
X197815Y203122D01*
X197776Y203030D01*
X197727Y202942D01*
X197707Y202870D01*
X197677Y202802D01*
X197660Y202703D01*
X197632Y202607D01*
X197624Y202507D01*
X197616Y202459D01*
X197618Y202423D01*
X197613Y202363D01*
X197613Y180917D01*
X185105Y168409D01*
X185026Y168310D01*
X184942Y168216D01*
X184918Y168174D01*
X184888Y168136D01*
X184834Y168022D01*
X184773Y167911D01*
X184760Y167864D01*
X184739Y167821D01*
X184713Y167697D01*
X184678Y167576D01*
X184673Y167515D01*
X184666Y167480D01*
X184667Y167432D01*
X184659Y167332D01*
X184659Y157737D01*
X184667Y157661D01*
X184666Y157585D01*
X184687Y157488D01*
X184699Y157391D01*
X184724Y157319D01*
X184741Y157244D01*
X184783Y157155D01*
X184816Y157063D01*
X184858Y156998D01*
X184890Y156929D01*
X184952Y156853D01*
X185005Y156770D01*
X185060Y156717D01*
X185108Y156657D01*
X185185Y156596D01*
X185256Y156528D01*
X185318Y156490D01*
X186895Y154914D01*
X187707Y152953D01*
X187707Y150738D01*
X187696Y150701D01*
X187692Y150625D01*
X187679Y150549D01*
X187684Y150451D01*
X187679Y150353D01*
X187693Y150278D01*
X187697Y150201D01*
X187724Y150107D01*
X187742Y150010D01*
X187772Y149940D01*
X187793Y149866D01*
X187841Y149781D01*
X187880Y149690D01*
X187926Y149629D01*
X187963Y149562D01*
X188060Y149449D01*
X188088Y149411D01*
X188103Y149398D01*
X188122Y149376D01*
X194095Y143403D01*
X195881Y141617D01*
X195881Y120756D01*
X195889Y120680D01*
X195888Y120604D01*
X195909Y120508D01*
X195921Y120410D01*
X195946Y120338D01*
X195963Y120263D01*
X196005Y120175D01*
X196038Y120082D01*
X196080Y120018D01*
X196112Y119949D01*
X196174Y119872D01*
X196227Y119789D01*
X196282Y119736D01*
X196330Y119676D01*
X196407Y119615D01*
X196478Y119547D01*
X196543Y119508D01*
X196603Y119460D01*
X196736Y119392D01*
X196777Y119368D01*
X196795Y119362D01*
X196821Y119349D01*
X198700Y118571D01*
X201109Y116162D01*
X202413Y113014D01*
X202413Y109606D01*
X201109Y106458D01*
X198597Y103947D01*
X198535Y103869D01*
X198465Y103796D01*
X198427Y103732D01*
X198381Y103674D01*
X198338Y103583D01*
X198286Y103497D01*
X198264Y103426D01*
X198232Y103359D01*
X198211Y103261D01*
X198180Y103165D01*
X198174Y103091D01*
X198159Y103018D01*
X198160Y102918D01*
X198152Y102818D01*
X198163Y102744D01*
X198164Y102670D01*
X198189Y102573D01*
X198204Y102473D01*
X198231Y102404D01*
X198249Y102332D01*
X198295Y102243D01*
X198333Y102149D01*
X198375Y102088D01*
X198409Y102022D01*
X198474Y101946D01*
X198532Y101863D01*
X198587Y101813D01*
X198635Y101757D01*
X198716Y101697D01*
X198790Y101630D01*
X198855Y101594D01*
X198915Y101549D01*
X199007Y101510D01*
X199095Y101461D01*
X199167Y101441D01*
X199235Y101411D01*
X199334Y101394D01*
X199431Y101366D01*
X199531Y101358D01*
X199578Y101350D01*
X199614Y101352D01*
X199675Y101347D01*
X203045Y101347D01*
X204831Y99561D01*
X209860Y94532D01*
X209920Y94485D01*
X209973Y94430D01*
X210056Y94377D01*
X210133Y94315D01*
X210202Y94283D01*
X210266Y94241D01*
X210359Y94209D01*
X210448Y94167D01*
X210523Y94150D01*
X210595Y94125D01*
X210693Y94114D01*
X210789Y94093D01*
X210865Y94094D01*
X210941Y94086D01*
X211039Y94097D01*
X211137Y94099D01*
X211211Y94118D01*
X211287Y94127D01*
X211429Y94173D01*
X211475Y94184D01*
X211492Y94193D01*
X211520Y94202D01*
X213144Y94875D01*
X216552Y94875D01*
X219700Y93571D01*
X222109Y91162D01*
X223413Y88014D01*
X223413Y84606D01*
X222109Y81458D01*
X220467Y79817D01*
X220405Y79738D01*
X220335Y79666D01*
X220297Y79602D01*
X220251Y79544D01*
X220208Y79453D01*
X220156Y79367D01*
X220134Y79296D01*
X220102Y79229D01*
X220081Y79131D01*
X220050Y79035D01*
X220044Y78961D01*
X220029Y78888D01*
X220030Y78788D01*
X220022Y78688D01*
X220033Y78614D01*
X220034Y78540D01*
X220059Y78443D01*
X220074Y78343D01*
X220101Y78274D01*
X220119Y78202D01*
X220165Y78113D01*
X220203Y78019D01*
X220245Y77958D01*
X220279Y77892D01*
X220344Y77816D01*
X220402Y77733D01*
X220457Y77683D01*
X220505Y77627D01*
X220586Y77567D01*
X220660Y77500D01*
X220725Y77464D01*
X220785Y77419D01*
X220877Y77380D01*
X220965Y77331D01*
X221037Y77311D01*
X221105Y77281D01*
X221204Y77264D01*
X221301Y77236D01*
X221401Y77228D01*
X221448Y77220D01*
X221484Y77222D01*
X221545Y77217D01*
X224482Y77217D01*
X224607Y77231D01*
X224734Y77238D01*
X224780Y77251D01*
X224828Y77257D01*
X224947Y77299D01*
X225068Y77334D01*
X225111Y77358D01*
X225156Y77374D01*
X225263Y77443D01*
X225373Y77504D01*
X225419Y77544D01*
X225449Y77563D01*
X225483Y77598D01*
X225559Y77663D01*
X229677Y81781D01*
X229756Y81880D01*
X229840Y81974D01*
X229864Y82016D01*
X229894Y82054D01*
X229948Y82168D01*
X230009Y82279D01*
X230022Y82325D01*
X230043Y82369D01*
X230069Y82493D01*
X230104Y82614D01*
X230109Y82675D01*
X230116Y82710D01*
X230115Y82758D01*
X230123Y82858D01*
X230123Y128564D01*
X230112Y128664D01*
X230110Y128764D01*
X230092Y128836D01*
X230083Y128910D01*
X230050Y129005D01*
X230025Y129102D01*
X229991Y129168D01*
X229966Y129238D01*
X229911Y129323D01*
X229865Y129412D01*
X229817Y129469D01*
X229777Y129531D01*
X229705Y129601D01*
X229640Y129677D01*
X229580Y129721D01*
X229526Y129773D01*
X229440Y129825D01*
X229359Y129884D01*
X229291Y129914D01*
X229227Y129952D01*
X229131Y129983D01*
X229039Y130022D01*
X228966Y130036D01*
X228895Y130058D01*
X228795Y130066D01*
X228696Y130084D01*
X228622Y130080D01*
X228548Y130086D01*
X228448Y130071D01*
X228348Y130066D01*
X228277Y130046D01*
X228203Y130035D01*
X228110Y129997D01*
X228013Y129970D01*
X227948Y129933D01*
X227879Y129906D01*
X227797Y129849D01*
X227709Y129799D01*
X227633Y129734D01*
X227593Y129707D01*
X227569Y129680D01*
X227523Y129641D01*
X219016Y121134D01*
X218922Y121016D01*
X218825Y120901D01*
X218814Y120880D01*
X218799Y120861D01*
X218735Y120725D01*
X218666Y120591D01*
X218660Y120568D01*
X218650Y120546D01*
X218619Y120399D01*
X218582Y120253D01*
X218582Y120229D01*
X218577Y120205D01*
X218579Y120055D01*
X218577Y119904D01*
X218582Y119881D01*
X218583Y119857D01*
X218619Y119711D01*
X218651Y119564D01*
X218662Y119542D01*
X218668Y119519D01*
X218737Y119385D01*
X218801Y119249D01*
X218816Y119230D01*
X218827Y119209D01*
X218925Y119094D01*
X219019Y118977D01*
X219038Y118962D01*
X219053Y118943D01*
X219174Y118854D01*
X219292Y118761D01*
X219318Y118748D01*
X219334Y118736D01*
X219377Y118717D01*
X219510Y118649D01*
X219700Y118571D01*
X222109Y116162D01*
X223413Y113014D01*
X223413Y109606D01*
X222109Y106458D01*
X219700Y104049D01*
X216552Y102745D01*
X213144Y102745D01*
X209996Y104049D01*
X207587Y106458D01*
X206283Y109606D01*
X206283Y113014D01*
X207587Y116162D01*
X209996Y118571D01*
X211621Y119244D01*
X211688Y119281D01*
X211759Y119309D01*
X211840Y119365D01*
X211926Y119413D01*
X211982Y119464D01*
X212045Y119508D01*
X212111Y119581D01*
X212184Y119647D01*
X212227Y119710D01*
X212278Y119767D01*
X212326Y119853D01*
X212382Y119934D01*
X212410Y120005D01*
X212447Y120072D01*
X212474Y120167D01*
X212510Y120258D01*
X212521Y120334D01*
X212542Y120407D01*
X212554Y120556D01*
X212561Y120603D01*
X212559Y120622D01*
X212561Y120651D01*
X212561Y121147D01*
X214347Y122933D01*
X224449Y133035D01*
X224511Y133113D01*
X224581Y133186D01*
X224619Y133250D01*
X224666Y133308D01*
X224709Y133399D01*
X224760Y133485D01*
X224783Y133556D01*
X224815Y133623D01*
X224836Y133721D01*
X224866Y133817D01*
X224872Y133891D01*
X224888Y133964D01*
X224886Y134064D01*
X224894Y134164D01*
X224883Y134238D01*
X224882Y134312D01*
X224857Y134409D01*
X224843Y134509D01*
X224815Y134578D01*
X224797Y134650D01*
X224751Y134740D01*
X224714Y134833D01*
X224671Y134894D01*
X224637Y134960D01*
X224572Y135037D01*
X224515Y135119D01*
X224460Y135169D01*
X224411Y135225D01*
X224331Y135285D01*
X224256Y135352D01*
X224191Y135388D01*
X224131Y135433D01*
X224039Y135472D01*
X223951Y135521D01*
X223879Y135541D01*
X223811Y135571D01*
X223712Y135588D01*
X223616Y135616D01*
X223516Y135624D01*
X223468Y135632D01*
X223432Y135630D01*
X223372Y135635D01*
X221189Y135635D01*
X219228Y136447D01*
X217727Y137948D01*
X216915Y139909D01*
X216915Y142031D01*
X217727Y143992D01*
X218755Y145020D01*
X218834Y145119D01*
X218918Y145212D01*
X218942Y145255D01*
X218972Y145293D01*
X219026Y145407D01*
X219087Y145517D01*
X219100Y145564D01*
X219121Y145608D01*
X219147Y145731D01*
X219182Y145853D01*
X219187Y145914D01*
X219194Y145948D01*
X219193Y145996D01*
X219201Y146097D01*
X219201Y151123D01*
X255585Y187507D01*
X255664Y187606D01*
X255748Y187700D01*
X255772Y187742D01*
X255802Y187780D01*
X255856Y187894D01*
X255917Y188005D01*
X255930Y188051D01*
X255951Y188095D01*
X255977Y188218D01*
X256012Y188340D01*
X256017Y188401D01*
X256024Y188436D01*
X256023Y188484D01*
X256031Y188584D01*
X256031Y199242D01*
X256023Y199318D01*
X256024Y199395D01*
X256003Y199491D01*
X255991Y199589D01*
X255966Y199661D01*
X255949Y199735D01*
X255907Y199824D01*
X255874Y199917D01*
X255832Y199981D01*
X255800Y200050D01*
X255738Y200127D01*
X255685Y200209D01*
X255630Y200263D01*
X255582Y200322D01*
X255505Y200383D01*
X255434Y200452D01*
X255369Y200491D01*
X255309Y200538D01*
X255176Y200606D01*
X255135Y200631D01*
X255117Y200636D01*
X255091Y200650D01*
X252893Y201560D01*
X249820Y204633D01*
X248247Y208432D01*
X248195Y208524D01*
X248153Y208620D01*
X248111Y208676D01*
X248077Y208736D01*
X248006Y208814D01*
X247943Y208898D01*
X247890Y208943D01*
X247843Y208995D01*
X247756Y209055D01*
X247676Y209122D01*
X247614Y209153D01*
X247556Y209193D01*
X247458Y209231D01*
X247365Y209279D01*
X247297Y209295D01*
X247232Y209321D01*
X247128Y209336D01*
X247026Y209361D01*
X246956Y209361D01*
X246887Y209371D01*
X246782Y209363D01*
X246677Y209364D01*
X246609Y209348D01*
X246540Y209343D01*
X246440Y209310D01*
X246337Y209287D01*
X246275Y209257D01*
X246208Y209235D01*
X246118Y209181D01*
X246024Y209135D01*
X245969Y209092D01*
X245910Y209056D01*
X245834Y208982D01*
X245753Y208916D01*
X245710Y208862D01*
X245660Y208813D01*
X245603Y208724D01*
X245538Y208641D01*
X245509Y208578D01*
X245472Y208520D01*
X245436Y208421D01*
X245392Y208325D01*
X245370Y208235D01*
X245355Y208191D01*
X245351Y208153D01*
X245335Y208087D01*
X245325Y208024D01*
X244744Y206237D01*
X243891Y204563D01*
X242786Y203042D01*
X241458Y201714D01*
X239937Y200609D01*
X238263Y199756D01*
X236476Y199175D01*
X236219Y199135D01*
X236219Y209804D01*
X236216Y209830D01*
X236218Y209856D01*
X236196Y210003D01*
X236179Y210150D01*
X236171Y210175D01*
X236167Y210201D01*
X236112Y210338D01*
X236062Y210478D01*
X236048Y210500D01*
X236038Y210525D01*
X235953Y210646D01*
X235873Y210771D01*
X235854Y210789D01*
X235839Y210811D01*
X235823Y210825D01*
X235905Y210910D01*
X235919Y210933D01*
X235936Y210952D01*
X236008Y211082D01*
X236084Y211209D01*
X236092Y211234D01*
X236105Y211257D01*
X236145Y211400D01*
X236190Y211541D01*
X236192Y211567D01*
X236200Y211592D01*
X236219Y211836D01*
X236219Y222505D01*
X236476Y222465D01*
X238263Y221884D01*
X239937Y221031D01*
X241175Y220132D01*
X241223Y220105D01*
X241266Y220070D01*
X241374Y220019D01*
X241478Y219961D01*
X241531Y219945D01*
X241581Y219922D01*
X241698Y219896D01*
X241813Y219863D01*
X241868Y219860D01*
X241922Y219848D01*
X242041Y219850D01*
X242161Y219844D01*
X242215Y219853D01*
X242270Y219854D01*
X242386Y219883D01*
X242504Y219904D01*
X242555Y219926D01*
X242608Y219939D01*
X242715Y219994D01*
X242824Y220041D01*
X242869Y220073D01*
X242918Y220099D01*
X243009Y220176D01*
X243106Y220247D01*
X243141Y220289D01*
X243183Y220325D01*
X243255Y220421D01*
X243332Y220512D01*
X243358Y220560D01*
X243391Y220605D01*
X243438Y220715D01*
X243493Y220821D01*
X243507Y220874D01*
X243529Y220925D01*
X243550Y221043D01*
X243579Y221158D01*
X243581Y221214D01*
X243590Y221268D01*
X243584Y221387D01*
X243587Y221507D01*
X243575Y221561D01*
X243572Y221616D01*
X243539Y221731D01*
X243514Y221848D01*
X243491Y221898D01*
X243476Y221951D01*
X243417Y222055D01*
X243367Y222164D01*
X243333Y222207D01*
X243306Y222255D01*
X243210Y222367D01*
X243195Y222389D01*
X243180Y222402D01*
X243158Y222428D01*
X243151Y222437D01*
X243149Y222439D01*
X243147Y222441D01*
X237689Y227899D01*
X237590Y227978D01*
X237496Y228062D01*
X237454Y228086D01*
X237416Y228116D01*
X237302Y228170D01*
X237191Y228231D01*
X237145Y228244D01*
X237101Y228265D01*
X236978Y228291D01*
X236856Y228326D01*
X236795Y228331D01*
X236760Y228338D01*
X236712Y228337D01*
X236612Y228345D01*
X235159Y228345D01*
X233198Y229157D01*
X231697Y230658D01*
X230885Y232619D01*
X230885Y234741D01*
X231697Y236702D01*
X233198Y238203D01*
X235159Y239015D01*
X237281Y239015D01*
X239242Y238203D01*
X240743Y236702D01*
X241555Y234741D01*
X241555Y233288D01*
X241569Y233162D01*
X241576Y233036D01*
X241589Y232990D01*
X241595Y232942D01*
X241637Y232823D01*
X241672Y232701D01*
X241696Y232659D01*
X241712Y232613D01*
X241781Y232507D01*
X241842Y232397D01*
X241882Y232351D01*
X241901Y232321D01*
X241936Y232287D01*
X242001Y232211D01*
X253049Y221162D01*
X253109Y221115D01*
X253162Y221060D01*
X253245Y221007D01*
X253322Y220946D01*
X253391Y220913D01*
X253456Y220872D01*
X253548Y220839D01*
X253637Y220797D01*
X253712Y220781D01*
X253784Y220755D01*
X253882Y220744D01*
X253978Y220724D01*
X254054Y220725D01*
X254130Y220716D01*
X254228Y220728D01*
X254326Y220729D01*
X254401Y220748D01*
X254476Y220757D01*
X254619Y220803D01*
X254664Y220814D01*
X254681Y220823D01*
X254709Y220832D01*
X256907Y221743D01*
X261253Y221743D01*
X265267Y220080D01*
X268340Y217007D01*
X270003Y212993D01*
X270003Y208647D01*
X268340Y204633D01*
X265267Y201560D01*
X263069Y200650D01*
X263002Y200613D01*
X262931Y200584D01*
X262850Y200528D01*
X262764Y200480D01*
X262708Y200429D01*
X262645Y200385D01*
X262579Y200312D01*
X262506Y200246D01*
X262463Y200183D01*
X262412Y200127D01*
X262364Y200040D01*
X262308Y199960D01*
X262280Y199889D01*
X262243Y199822D01*
X262216Y199727D01*
X262180Y199635D01*
X262169Y199560D01*
X262148Y199486D01*
X262136Y199337D01*
X262129Y199291D01*
X262131Y199271D01*
X262129Y199242D01*
X262129Y185427D01*
X225745Y149043D01*
X225666Y148944D01*
X225582Y148850D01*
X225558Y148808D01*
X225528Y148770D01*
X225474Y148656D01*
X225413Y148545D01*
X225400Y148499D01*
X225379Y148455D01*
X225353Y148332D01*
X225318Y148210D01*
X225313Y148149D01*
X225306Y148114D01*
X225307Y148066D01*
X225299Y147966D01*
X225299Y146097D01*
X225313Y145971D01*
X225320Y145845D01*
X225333Y145798D01*
X225339Y145750D01*
X225381Y145631D01*
X225416Y145510D01*
X225440Y145468D01*
X225456Y145422D01*
X225525Y145316D01*
X225586Y145206D01*
X225626Y145160D01*
X225645Y145130D01*
X225680Y145096D01*
X225745Y145020D01*
X226773Y143992D01*
X227585Y142031D01*
X227585Y139848D01*
X227596Y139748D01*
X227598Y139648D01*
X227616Y139576D01*
X227625Y139502D01*
X227658Y139407D01*
X227683Y139310D01*
X227717Y139244D01*
X227742Y139174D01*
X227797Y139089D01*
X227843Y139000D01*
X227891Y138943D01*
X227931Y138881D01*
X228003Y138811D01*
X228068Y138735D01*
X228128Y138691D01*
X228182Y138639D01*
X228268Y138587D01*
X228349Y138528D01*
X228417Y138498D01*
X228481Y138460D01*
X228577Y138429D01*
X228669Y138390D01*
X228742Y138376D01*
X228813Y138354D01*
X228913Y138346D01*
X229012Y138328D01*
X229086Y138332D01*
X229160Y138326D01*
X229260Y138341D01*
X229360Y138346D01*
X229431Y138366D01*
X229505Y138377D01*
X229598Y138415D01*
X229695Y138442D01*
X229760Y138479D01*
X229829Y138506D01*
X229911Y138563D01*
X229999Y138613D01*
X230075Y138678D01*
X230115Y138705D01*
X230139Y138732D01*
X230185Y138771D01*
X302067Y210653D01*
X302146Y210752D01*
X302230Y210846D01*
X302254Y210888D01*
X302284Y210926D01*
X302338Y211040D01*
X302399Y211151D01*
X302412Y211198D01*
X302433Y211241D01*
X302459Y211365D01*
X302494Y211486D01*
X302499Y211547D01*
X302506Y211582D01*
X302505Y211630D01*
X302513Y211730D01*
X302513Y338782D01*
X302499Y338907D01*
X302492Y339034D01*
X302479Y339080D01*
X302473Y339128D01*
X302431Y339247D01*
X302396Y339368D01*
X302372Y339411D01*
X302356Y339456D01*
X302287Y339563D01*
X302226Y339673D01*
X302186Y339719D01*
X302167Y339749D01*
X302132Y339783D01*
X302067Y339859D01*
X294616Y347310D01*
X294556Y347358D01*
X294503Y347412D01*
X294420Y347466D01*
X294343Y347527D01*
X294274Y347559D01*
X294209Y347601D01*
X294117Y347634D01*
X294028Y347676D01*
X293953Y347692D01*
X293881Y347717D01*
X293783Y347728D01*
X293687Y347749D01*
X293611Y347748D01*
X293535Y347756D01*
X293437Y347745D01*
X293339Y347743D01*
X293268Y347725D01*
X291039Y347725D01*
X289078Y348537D01*
X287577Y350038D01*
X286765Y351999D01*
X286765Y354121D01*
X287577Y356082D01*
X289143Y357648D01*
X289177Y357667D01*
X289234Y357718D01*
X289297Y357762D01*
X289363Y357835D01*
X289435Y357901D01*
X289479Y357964D01*
X289530Y358021D01*
X289578Y358107D01*
X289634Y358187D01*
X289662Y358259D01*
X289699Y358326D01*
X289726Y358420D01*
X289762Y358512D01*
X289773Y358587D01*
X289794Y358661D01*
X289806Y358810D01*
X289812Y358856D01*
X289811Y358875D01*
X289813Y358905D01*
X289813Y370532D01*
X289799Y370657D01*
X289792Y370784D01*
X289779Y370830D01*
X289773Y370878D01*
X289731Y370997D01*
X289696Y371118D01*
X289672Y371161D01*
X289656Y371206D01*
X289587Y371312D01*
X289526Y371423D01*
X289486Y371469D01*
X289467Y371499D01*
X289432Y371532D01*
X289367Y371609D01*
X254769Y406207D01*
X254670Y406286D01*
X254576Y406370D01*
X254534Y406394D01*
X254496Y406424D01*
X254382Y406478D01*
X254271Y406539D01*
X254224Y406552D01*
X254181Y406573D01*
X254057Y406599D01*
X253936Y406634D01*
X253875Y406639D01*
X253840Y406646D01*
X253792Y406645D01*
X253692Y406653D01*
X200199Y406653D01*
X198413Y408439D01*
X151836Y455016D01*
X151776Y455063D01*
X151723Y455118D01*
X151640Y455171D01*
X151563Y455233D01*
X151494Y455265D01*
X151430Y455307D01*
X151337Y455339D01*
X151248Y455381D01*
X151173Y455398D01*
X151101Y455423D01*
X151003Y455434D01*
X150907Y455455D01*
X150831Y455454D01*
X150755Y455462D01*
X150657Y455451D01*
X150559Y455449D01*
X150485Y455430D01*
X150409Y455421D01*
X150267Y455375D01*
X150221Y455364D01*
X150204Y455355D01*
X150176Y455346D01*
X148552Y454673D01*
X145144Y454673D01*
X141996Y455977D01*
X139587Y458386D01*
X138283Y461534D01*
X138283Y464942D01*
X139587Y468090D01*
X141996Y470499D01*
X145144Y471803D01*
X148552Y471803D01*
X151700Y470499D01*
X154109Y468090D01*
X155413Y464942D01*
X155413Y461534D01*
X154740Y459910D01*
X154719Y459836D01*
X154689Y459766D01*
X154671Y459669D01*
X154644Y459575D01*
X154640Y459498D01*
X154627Y459423D01*
X154632Y459325D01*
X154627Y459227D01*
X154641Y459152D01*
X154645Y459075D01*
X154672Y458981D01*
X154690Y458884D01*
X154720Y458814D01*
X154741Y458740D01*
X154789Y458654D01*
X154829Y458564D01*
X154874Y458503D01*
X154912Y458436D01*
X155008Y458322D01*
X155037Y458284D01*
X155051Y458272D01*
X155070Y458250D01*
X201647Y411673D01*
X201746Y411594D01*
X201840Y411510D01*
X201882Y411486D01*
X201920Y411456D01*
X202034Y411402D01*
X202145Y411341D01*
X202192Y411328D01*
X202235Y411307D01*
X202359Y411281D01*
X202480Y411246D01*
X202541Y411241D01*
X202576Y411234D01*
X202624Y411235D01*
X202724Y411227D01*
X256217Y411227D01*
X294387Y373057D01*
X294387Y358905D01*
X294396Y358829D01*
X294394Y358752D01*
X294415Y358656D01*
X294427Y358559D01*
X294452Y358487D01*
X294469Y358412D01*
X294511Y358323D01*
X294544Y358231D01*
X294586Y358166D01*
X294619Y358097D01*
X294680Y358020D01*
X294733Y357938D01*
X294788Y357884D01*
X294836Y357825D01*
X294913Y357764D01*
X294984Y357696D01*
X295046Y357658D01*
X296623Y356082D01*
X297435Y354121D01*
X297435Y351906D01*
X297424Y351869D01*
X297420Y351793D01*
X297407Y351717D01*
X297412Y351619D01*
X297407Y351521D01*
X297421Y351446D01*
X297425Y351369D01*
X297452Y351275D01*
X297470Y351178D01*
X297500Y351108D01*
X297521Y351034D01*
X297569Y350949D01*
X297608Y350858D01*
X297654Y350797D01*
X297691Y350730D01*
X297788Y350617D01*
X297816Y350579D01*
X297831Y350566D01*
X297850Y350544D01*
X298389Y350005D01*
X298429Y349973D01*
X298463Y349936D01*
X298565Y349865D01*
X298662Y349788D01*
X298708Y349767D01*
X298749Y349738D01*
X298865Y349692D01*
X298977Y349639D01*
X299027Y349629D01*
X299073Y349610D01*
X299197Y349592D01*
X299318Y349566D01*
X299368Y349567D01*
X299418Y349559D01*
X299543Y349570D01*
X299667Y349572D01*
X299715Y349584D01*
X299766Y349588D01*
X299884Y349626D01*
X300005Y349657D01*
X300049Y349680D01*
X300097Y349695D01*
X300204Y349759D01*
X300314Y349816D01*
X300353Y349849D01*
X300396Y349875D01*
X300485Y349962D01*
X300580Y350042D01*
X300610Y350083D01*
X300646Y350118D01*
X300713Y350222D01*
X300787Y350322D01*
X300807Y350369D01*
X300834Y350411D01*
X300876Y350528D01*
X300925Y350642D01*
X300934Y350692D01*
X300951Y350739D01*
X300965Y350863D01*
X300987Y350985D01*
X300984Y351036D01*
X300990Y351086D01*
X300975Y351209D01*
X300969Y351334D01*
X300955Y351382D01*
X300949Y351432D01*
X300874Y351665D01*
X300735Y351999D01*
X300735Y354121D01*
X301547Y356082D01*
X303114Y357648D01*
X303148Y357667D01*
X303204Y357718D01*
X303267Y357762D01*
X303333Y357835D01*
X303406Y357901D01*
X303449Y357964D01*
X303500Y358021D01*
X303548Y358107D01*
X303604Y358188D01*
X303632Y358259D01*
X303669Y358326D01*
X303696Y358421D01*
X303732Y358512D01*
X303743Y358588D01*
X303764Y358661D01*
X303776Y358810D01*
X303783Y358857D01*
X303781Y358876D01*
X303783Y358905D01*
X303783Y388312D01*
X303769Y388437D01*
X303762Y388564D01*
X303749Y388610D01*
X303743Y388658D01*
X303701Y388777D01*
X303666Y388898D01*
X303642Y388941D01*
X303626Y388986D01*
X303557Y389092D01*
X303496Y389203D01*
X303456Y389249D01*
X303437Y389279D01*
X303402Y389312D01*
X303337Y389389D01*
X256039Y436687D01*
X255940Y436766D01*
X255846Y436850D01*
X255804Y436874D01*
X255766Y436904D01*
X255652Y436958D01*
X255541Y437019D01*
X255494Y437032D01*
X255451Y437053D01*
X255327Y437079D01*
X255206Y437114D01*
X255145Y437119D01*
X255110Y437126D01*
X255062Y437125D01*
X254962Y437133D01*
X212719Y437133D01*
X210933Y438919D01*
X194836Y455016D01*
X194776Y455063D01*
X194723Y455118D01*
X194640Y455171D01*
X194563Y455233D01*
X194494Y455265D01*
X194430Y455307D01*
X194337Y455339D01*
X194248Y455381D01*
X194173Y455398D01*
X194101Y455423D01*
X194003Y455434D01*
X193907Y455455D01*
X193831Y455454D01*
X193755Y455462D01*
X193657Y455451D01*
X193559Y455449D01*
X193485Y455430D01*
X193409Y455421D01*
X193267Y455375D01*
X193221Y455364D01*
X193204Y455355D01*
X193176Y455346D01*
X191552Y454673D01*
X188144Y454673D01*
X184996Y455977D01*
X182587Y458386D01*
X181283Y461534D01*
X181283Y464942D01*
X182587Y468090D01*
X184996Y470499D01*
X188144Y471803D01*
X191552Y471803D01*
X194700Y470499D01*
X197109Y468090D01*
X198413Y464942D01*
X198413Y461534D01*
X197740Y459910D01*
X197719Y459836D01*
X197689Y459766D01*
X197671Y459669D01*
X197644Y459575D01*
X197640Y459498D01*
X197627Y459423D01*
X197632Y459325D01*
X197627Y459227D01*
X197641Y459152D01*
X197645Y459075D01*
X197672Y458981D01*
X197690Y458884D01*
X197720Y458814D01*
X197741Y458740D01*
X197789Y458654D01*
X197829Y458564D01*
X197874Y458503D01*
X197912Y458436D01*
X198008Y458322D01*
X198037Y458284D01*
X198051Y458272D01*
X198070Y458250D01*
X214167Y442153D01*
X214266Y442074D01*
X214360Y441990D01*
X214402Y441966D01*
X214440Y441936D01*
X214554Y441882D01*
X214665Y441821D01*
X214712Y441808D01*
X214755Y441787D01*
X214879Y441761D01*
X215000Y441726D01*
X215061Y441721D01*
X215096Y441714D01*
X215144Y441715D01*
X215244Y441707D01*
X257487Y441707D01*
X308357Y390837D01*
X308357Y358905D01*
X308365Y358829D01*
X308364Y358753D01*
X308385Y358656D01*
X308397Y358559D01*
X308422Y358487D01*
X308439Y358412D01*
X308481Y358323D01*
X308514Y358231D01*
X308556Y358166D01*
X308588Y358097D01*
X308650Y358021D01*
X308703Y357938D01*
X308758Y357885D01*
X308806Y357825D01*
X308883Y357764D01*
X308954Y357696D01*
X309016Y357658D01*
X310593Y356082D01*
X311405Y354121D01*
X311405Y351999D01*
X311013Y351052D01*
X311012Y351050D01*
X311011Y351049D01*
X310963Y350878D01*
X310917Y350717D01*
X310917Y350715D01*
X310916Y350713D01*
X310897Y350469D01*
X310897Y206063D01*
X309111Y204277D01*
X235143Y130309D01*
X235064Y130210D01*
X234980Y130116D01*
X234956Y130074D01*
X234926Y130036D01*
X234872Y129922D01*
X234811Y129811D01*
X234798Y129765D01*
X234777Y129721D01*
X234751Y129597D01*
X234716Y129476D01*
X234711Y129415D01*
X234704Y129380D01*
X234705Y129332D01*
X234697Y129232D01*
X234697Y80333D01*
X232911Y78547D01*
X227007Y72643D01*
X185743Y72643D01*
G37*
%LPD*%
%LPC*%
G36*
X148799Y295655D02*
X148799Y295655D01*
X146838Y296467D01*
X145337Y297968D01*
X144525Y299929D01*
X144525Y302051D01*
X145337Y304012D01*
X145857Y304532D01*
X145936Y304631D01*
X146020Y304724D01*
X146044Y304767D01*
X146074Y304805D01*
X146128Y304919D01*
X146189Y305029D01*
X146202Y305076D01*
X146223Y305120D01*
X146249Y305243D01*
X146284Y305365D01*
X146289Y305426D01*
X146296Y305460D01*
X146295Y305508D01*
X146303Y305609D01*
X146303Y330705D01*
X146294Y330781D01*
X146296Y330858D01*
X146275Y330954D01*
X146263Y331051D01*
X146238Y331123D01*
X146221Y331198D01*
X146179Y331287D01*
X146146Y331379D01*
X146104Y331444D01*
X146071Y331513D01*
X146010Y331590D01*
X145957Y331672D01*
X145902Y331726D01*
X145854Y331785D01*
X145777Y331846D01*
X145706Y331914D01*
X145644Y331952D01*
X144067Y333528D01*
X143255Y335489D01*
X143255Y336550D01*
X143252Y336576D01*
X143254Y336602D01*
X143232Y336749D01*
X143215Y336896D01*
X143207Y336921D01*
X143203Y336947D01*
X143148Y337085D01*
X143098Y337224D01*
X143084Y337246D01*
X143074Y337271D01*
X142989Y337392D01*
X142909Y337517D01*
X142890Y337535D01*
X142875Y337557D01*
X142765Y337656D01*
X142658Y337759D01*
X142636Y337773D01*
X142616Y337790D01*
X142486Y337862D01*
X142359Y337938D01*
X142334Y337946D01*
X142311Y337959D01*
X142168Y337999D01*
X142027Y338044D01*
X142001Y338046D01*
X141976Y338054D01*
X141732Y338073D01*
X123498Y338073D01*
X123373Y338059D01*
X123246Y338052D01*
X123200Y338039D01*
X123152Y338033D01*
X123033Y337991D01*
X122912Y337956D01*
X122869Y337932D01*
X122824Y337916D01*
X122718Y337847D01*
X122607Y337786D01*
X122561Y337746D01*
X122531Y337727D01*
X122498Y337692D01*
X122421Y337627D01*
X118303Y333509D01*
X118224Y333410D01*
X118140Y333316D01*
X118116Y333274D01*
X118086Y333236D01*
X118032Y333122D01*
X117971Y333011D01*
X117958Y332964D01*
X117937Y332921D01*
X117911Y332797D01*
X117876Y332676D01*
X117871Y332615D01*
X117864Y332580D01*
X117865Y332532D01*
X117857Y332432D01*
X117857Y317714D01*
X117857Y317712D01*
X117857Y317710D01*
X117877Y317539D01*
X117897Y317368D01*
X117897Y317366D01*
X117898Y317364D01*
X117973Y317131D01*
X118481Y315905D01*
X118481Y313783D01*
X117668Y311822D01*
X116168Y310322D01*
X114207Y309509D01*
X112085Y309509D01*
X110124Y310322D01*
X108623Y311822D01*
X107811Y313783D01*
X107811Y315905D01*
X108623Y317866D01*
X109212Y318455D01*
X109275Y318534D01*
X109344Y318606D01*
X109382Y318670D01*
X109429Y318728D01*
X109472Y318819D01*
X109523Y318905D01*
X109546Y318976D01*
X109578Y319043D01*
X109599Y319141D01*
X109629Y319237D01*
X109635Y319311D01*
X109651Y319384D01*
X109649Y319484D01*
X109657Y319584D01*
X109646Y319658D01*
X109645Y319732D01*
X109621Y319829D01*
X109606Y319929D01*
X109578Y319998D01*
X109560Y320070D01*
X109514Y320159D01*
X109477Y320253D01*
X109435Y320314D01*
X109400Y320380D01*
X109335Y320457D01*
X109278Y320539D01*
X109223Y320589D01*
X109175Y320645D01*
X109094Y320705D01*
X109019Y320772D01*
X108954Y320808D01*
X108894Y320853D01*
X108802Y320892D01*
X108714Y320941D01*
X108643Y320961D01*
X108574Y320991D01*
X108475Y321008D01*
X108379Y321036D01*
X108279Y321044D01*
X108231Y321052D01*
X108196Y321050D01*
X108165Y321053D01*
X106198Y321867D01*
X104697Y323368D01*
X103885Y325329D01*
X103885Y327451D01*
X104697Y329412D01*
X106264Y330978D01*
X106298Y330997D01*
X106354Y331048D01*
X106417Y331092D01*
X106483Y331165D01*
X106556Y331231D01*
X106599Y331294D01*
X106650Y331351D01*
X106698Y331437D01*
X106754Y331518D01*
X106782Y331589D01*
X106819Y331656D01*
X106846Y331751D01*
X106882Y331842D01*
X106893Y331918D01*
X106914Y331991D01*
X106926Y332140D01*
X106933Y332187D01*
X106931Y332206D01*
X106933Y332235D01*
X106933Y340037D01*
X115893Y348997D01*
X139392Y348997D01*
X139517Y349011D01*
X139644Y349018D01*
X139690Y349031D01*
X139738Y349037D01*
X139857Y349079D01*
X139979Y349114D01*
X140021Y349138D01*
X140066Y349154D01*
X140172Y349223D01*
X140283Y349284D01*
X140329Y349324D01*
X140359Y349343D01*
X140393Y349378D01*
X140469Y349443D01*
X147453Y356427D01*
X147501Y356487D01*
X147556Y356540D01*
X147609Y356623D01*
X147670Y356700D01*
X147702Y356769D01*
X147744Y356834D01*
X147777Y356926D01*
X147819Y357015D01*
X147835Y357090D01*
X147860Y357162D01*
X147871Y357260D01*
X147892Y357356D01*
X147891Y357432D01*
X147899Y357508D01*
X147888Y357606D01*
X147886Y357704D01*
X147868Y357778D01*
X147859Y357854D01*
X147813Y357997D01*
X147801Y358042D01*
X147792Y358059D01*
X147783Y358087D01*
X146557Y361047D01*
X146557Y365393D01*
X148220Y369407D01*
X151293Y372480D01*
X155307Y374143D01*
X159653Y374143D01*
X163667Y372480D01*
X166740Y369407D01*
X168403Y365393D01*
X168403Y361047D01*
X166740Y357033D01*
X163667Y353960D01*
X159653Y352297D01*
X155307Y352297D01*
X152347Y353523D01*
X152273Y353544D01*
X152203Y353575D01*
X152107Y353592D01*
X152012Y353619D01*
X151936Y353623D01*
X151860Y353636D01*
X151762Y353631D01*
X151664Y353636D01*
X151589Y353622D01*
X151512Y353618D01*
X151418Y353591D01*
X151321Y353573D01*
X151251Y353543D01*
X151178Y353522D01*
X151092Y353474D01*
X151001Y353435D01*
X150940Y353389D01*
X150873Y353352D01*
X150760Y353255D01*
X150722Y353227D01*
X150709Y353212D01*
X150687Y353193D01*
X149091Y351597D01*
X149029Y351519D01*
X148959Y351446D01*
X148921Y351382D01*
X148874Y351324D01*
X148831Y351233D01*
X148780Y351147D01*
X148757Y351076D01*
X148725Y351009D01*
X148704Y350911D01*
X148674Y350815D01*
X148668Y350741D01*
X148652Y350668D01*
X148654Y350568D01*
X148646Y350468D01*
X148657Y350394D01*
X148658Y350320D01*
X148683Y350223D01*
X148697Y350123D01*
X148725Y350054D01*
X148743Y349982D01*
X148789Y349892D01*
X148826Y349799D01*
X148869Y349738D01*
X148903Y349672D01*
X148968Y349595D01*
X149025Y349513D01*
X149080Y349463D01*
X149129Y349407D01*
X149209Y349347D01*
X149284Y349280D01*
X149349Y349244D01*
X149409Y349199D01*
X149501Y349160D01*
X149589Y349111D01*
X149661Y349091D01*
X149729Y349061D01*
X149828Y349044D01*
X149924Y349016D01*
X150024Y349008D01*
X150072Y349000D01*
X150108Y349002D01*
X150168Y348997D01*
X196542Y348997D01*
X196667Y349011D01*
X196794Y349018D01*
X196840Y349031D01*
X196888Y349037D01*
X197007Y349079D01*
X197128Y349114D01*
X197171Y349138D01*
X197216Y349154D01*
X197323Y349223D01*
X197433Y349284D01*
X197479Y349324D01*
X197509Y349343D01*
X197543Y349378D01*
X197619Y349443D01*
X201037Y352861D01*
X201054Y352882D01*
X201074Y352899D01*
X201122Y352964D01*
X201136Y352979D01*
X201151Y353003D01*
X201162Y353018D01*
X201254Y353134D01*
X201265Y353158D01*
X201281Y353179D01*
X201340Y353315D01*
X201403Y353449D01*
X201408Y353475D01*
X201419Y353499D01*
X201445Y353645D01*
X201476Y353790D01*
X201476Y353816D01*
X201481Y353842D01*
X201473Y353991D01*
X201470Y354139D01*
X201464Y354164D01*
X201463Y354190D01*
X201421Y354333D01*
X201385Y354477D01*
X201373Y354500D01*
X201366Y354525D01*
X201294Y354655D01*
X201226Y354786D01*
X201209Y354806D01*
X201196Y354829D01*
X201037Y355016D01*
X199020Y357033D01*
X197357Y361047D01*
X197357Y365393D01*
X199020Y369407D01*
X202093Y372480D01*
X206107Y374143D01*
X210453Y374143D01*
X214467Y372480D01*
X217540Y369407D01*
X219203Y365393D01*
X219203Y361047D01*
X217540Y357033D01*
X214467Y353960D01*
X210453Y352297D01*
X207572Y352297D01*
X207447Y352283D01*
X207320Y352276D01*
X207274Y352263D01*
X207226Y352257D01*
X207107Y352215D01*
X206986Y352180D01*
X206943Y352156D01*
X206898Y352140D01*
X206792Y352071D01*
X206681Y352010D01*
X206635Y351970D01*
X206605Y351951D01*
X206572Y351916D01*
X206495Y351851D01*
X199067Y344423D01*
X151180Y344423D01*
X151130Y344418D01*
X151080Y344420D01*
X150958Y344398D01*
X150834Y344383D01*
X150787Y344366D01*
X150737Y344357D01*
X150623Y344308D01*
X150506Y344266D01*
X150464Y344239D01*
X150418Y344218D01*
X150318Y344144D01*
X150213Y344077D01*
X150178Y344041D01*
X150138Y344011D01*
X150058Y343916D01*
X149971Y343826D01*
X149945Y343783D01*
X149913Y343745D01*
X149856Y343634D01*
X149792Y343527D01*
X149777Y343479D01*
X149754Y343434D01*
X149724Y343314D01*
X149686Y343195D01*
X149682Y343145D01*
X149670Y343096D01*
X149668Y342972D01*
X149658Y342848D01*
X149666Y342798D01*
X149665Y342748D01*
X149691Y342626D01*
X149710Y342503D01*
X149728Y342456D01*
X149739Y342407D01*
X149793Y342295D01*
X149838Y342179D01*
X149867Y342138D01*
X149889Y342092D01*
X149967Y341995D01*
X150037Y341893D01*
X150075Y341860D01*
X150106Y341820D01*
X150204Y341743D01*
X150296Y341660D01*
X150340Y341635D01*
X150380Y341604D01*
X150598Y341493D01*
X151612Y341073D01*
X153113Y339572D01*
X153925Y337611D01*
X153925Y335489D01*
X153113Y333528D01*
X151547Y331962D01*
X151513Y331943D01*
X151456Y331892D01*
X151393Y331848D01*
X151327Y331775D01*
X151255Y331709D01*
X151211Y331646D01*
X151160Y331589D01*
X151112Y331503D01*
X151056Y331423D01*
X151028Y331351D01*
X150991Y331284D01*
X150964Y331190D01*
X150928Y331098D01*
X150917Y331023D01*
X150896Y330949D01*
X150884Y330800D01*
X150878Y330754D01*
X150879Y330735D01*
X150877Y330705D01*
X150877Y307361D01*
X150885Y307285D01*
X150884Y307209D01*
X150905Y307112D01*
X150917Y307015D01*
X150942Y306943D01*
X150959Y306868D01*
X151001Y306779D01*
X151034Y306687D01*
X151076Y306622D01*
X151108Y306553D01*
X151170Y306477D01*
X151223Y306394D01*
X151278Y306341D01*
X151326Y306281D01*
X151403Y306220D01*
X151474Y306152D01*
X151539Y306112D01*
X151599Y306065D01*
X151732Y305997D01*
X151773Y305973D01*
X151791Y305967D01*
X151817Y305954D01*
X152882Y305513D01*
X154383Y304012D01*
X155195Y302051D01*
X155195Y299929D01*
X154383Y297968D01*
X152882Y296467D01*
X150921Y295655D01*
X148799Y295655D01*
G37*
%LPD*%
%LPC*%
G36*
X115779Y394715D02*
X115779Y394715D01*
X113818Y395527D01*
X112317Y397028D01*
X111505Y398989D01*
X111505Y401111D01*
X112317Y403072D01*
X113818Y404573D01*
X115779Y405385D01*
X117994Y405385D01*
X118031Y405374D01*
X118107Y405370D01*
X118183Y405357D01*
X118281Y405362D01*
X118379Y405357D01*
X118454Y405371D01*
X118531Y405375D01*
X118625Y405402D01*
X118722Y405420D01*
X118792Y405450D01*
X118866Y405471D01*
X118951Y405519D01*
X119042Y405558D01*
X119103Y405604D01*
X119170Y405641D01*
X119283Y405738D01*
X119321Y405766D01*
X119334Y405781D01*
X119356Y405800D01*
X126807Y413251D01*
X126886Y413350D01*
X126970Y413444D01*
X126994Y413486D01*
X127024Y413524D01*
X127078Y413638D01*
X127139Y413749D01*
X127152Y413796D01*
X127173Y413839D01*
X127199Y413963D01*
X127234Y414084D01*
X127239Y414145D01*
X127246Y414180D01*
X127245Y414228D01*
X127253Y414328D01*
X127253Y492437D01*
X138753Y503937D01*
X181383Y503937D01*
X183169Y502151D01*
X188860Y496460D01*
X188920Y496413D01*
X188973Y496358D01*
X189056Y496305D01*
X189133Y496243D01*
X189202Y496211D01*
X189266Y496169D01*
X189359Y496137D01*
X189448Y496095D01*
X189523Y496078D01*
X189595Y496053D01*
X189693Y496042D01*
X189789Y496021D01*
X189865Y496022D01*
X189941Y496014D01*
X190039Y496025D01*
X190137Y496027D01*
X190211Y496046D01*
X190287Y496055D01*
X190429Y496101D01*
X190475Y496112D01*
X190492Y496121D01*
X190520Y496130D01*
X192144Y496803D01*
X195552Y496803D01*
X198700Y495499D01*
X201109Y493090D01*
X202413Y489942D01*
X202413Y486534D01*
X201109Y483386D01*
X198700Y480977D01*
X195552Y479673D01*
X192144Y479673D01*
X188996Y480977D01*
X186587Y483386D01*
X185283Y486534D01*
X185283Y489942D01*
X185956Y491566D01*
X185977Y491640D01*
X186007Y491710D01*
X186025Y491807D01*
X186052Y491901D01*
X186056Y491978D01*
X186069Y492053D01*
X186064Y492151D01*
X186069Y492249D01*
X186055Y492324D01*
X186051Y492401D01*
X186024Y492495D01*
X186006Y492592D01*
X185976Y492662D01*
X185955Y492736D01*
X185907Y492822D01*
X185867Y492912D01*
X185822Y492973D01*
X185784Y493040D01*
X185688Y493154D01*
X185659Y493192D01*
X185645Y493204D01*
X185626Y493226D01*
X179935Y498917D01*
X179836Y498996D01*
X179742Y499080D01*
X179700Y499104D01*
X179662Y499134D01*
X179548Y499188D01*
X179437Y499249D01*
X179390Y499262D01*
X179347Y499283D01*
X179223Y499309D01*
X179102Y499344D01*
X179041Y499349D01*
X179006Y499356D01*
X178958Y499355D01*
X178858Y499363D01*
X171028Y499363D01*
X170978Y499358D01*
X170927Y499360D01*
X170805Y499338D01*
X170682Y499323D01*
X170634Y499306D01*
X170585Y499297D01*
X170470Y499248D01*
X170353Y499206D01*
X170311Y499179D01*
X170265Y499159D01*
X170165Y499084D01*
X170061Y499017D01*
X170026Y498981D01*
X169985Y498951D01*
X169905Y498856D01*
X169818Y498766D01*
X169793Y498723D01*
X169760Y498685D01*
X169703Y498574D01*
X169640Y498467D01*
X169624Y498419D01*
X169601Y498374D01*
X169571Y498254D01*
X169533Y498135D01*
X169529Y498085D01*
X169517Y498036D01*
X169515Y497912D01*
X169505Y497788D01*
X169513Y497738D01*
X169512Y497688D01*
X169539Y497566D01*
X169557Y497443D01*
X169576Y497396D01*
X169586Y497347D01*
X169640Y497235D01*
X169686Y497119D01*
X169715Y497078D01*
X169736Y497032D01*
X169814Y496935D01*
X169885Y496833D01*
X169922Y496799D01*
X169954Y496760D01*
X170051Y496683D01*
X170144Y496600D01*
X170188Y496575D01*
X170227Y496544D01*
X170445Y496433D01*
X172700Y495499D01*
X175109Y493090D01*
X176413Y489942D01*
X176413Y486534D01*
X175109Y483386D01*
X172700Y480977D01*
X169552Y479673D01*
X166144Y479673D01*
X162996Y480977D01*
X160587Y483386D01*
X159283Y486534D01*
X159283Y489942D01*
X160587Y493090D01*
X162996Y495499D01*
X165251Y496433D01*
X165295Y496457D01*
X165343Y496474D01*
X165447Y496542D01*
X165556Y496602D01*
X165593Y496636D01*
X165635Y496663D01*
X165722Y496753D01*
X165814Y496836D01*
X165843Y496878D01*
X165878Y496914D01*
X165941Y497021D01*
X166012Y497123D01*
X166031Y497170D01*
X166056Y497213D01*
X166094Y497331D01*
X166140Y497447D01*
X166147Y497497D01*
X166163Y497545D01*
X166173Y497669D01*
X166191Y497792D01*
X166187Y497842D01*
X166191Y497892D01*
X166172Y498015D01*
X166162Y498139D01*
X166146Y498187D01*
X166139Y498237D01*
X166093Y498352D01*
X166055Y498471D01*
X166029Y498514D01*
X166010Y498561D01*
X165939Y498663D01*
X165875Y498769D01*
X165840Y498806D01*
X165811Y498847D01*
X165719Y498930D01*
X165632Y499019D01*
X165590Y499047D01*
X165552Y499080D01*
X165444Y499140D01*
X165339Y499208D01*
X165291Y499225D01*
X165247Y499249D01*
X165128Y499283D01*
X165010Y499324D01*
X164961Y499330D01*
X164912Y499344D01*
X164668Y499363D01*
X150028Y499363D01*
X149978Y499358D01*
X149927Y499360D01*
X149805Y499338D01*
X149682Y499323D01*
X149634Y499306D01*
X149585Y499297D01*
X149470Y499248D01*
X149353Y499206D01*
X149311Y499179D01*
X149265Y499159D01*
X149165Y499084D01*
X149061Y499017D01*
X149026Y498981D01*
X148985Y498951D01*
X148905Y498856D01*
X148818Y498766D01*
X148793Y498723D01*
X148760Y498685D01*
X148703Y498574D01*
X148640Y498467D01*
X148624Y498419D01*
X148601Y498374D01*
X148571Y498254D01*
X148533Y498135D01*
X148529Y498085D01*
X148517Y498036D01*
X148515Y497912D01*
X148505Y497788D01*
X148513Y497738D01*
X148512Y497688D01*
X148539Y497566D01*
X148557Y497443D01*
X148576Y497396D01*
X148586Y497347D01*
X148640Y497235D01*
X148686Y497119D01*
X148715Y497078D01*
X148736Y497032D01*
X148814Y496935D01*
X148885Y496833D01*
X148922Y496799D01*
X148954Y496760D01*
X149051Y496683D01*
X149144Y496600D01*
X149188Y496575D01*
X149227Y496544D01*
X149445Y496433D01*
X151700Y495499D01*
X154109Y493090D01*
X155413Y489942D01*
X155413Y486534D01*
X154109Y483386D01*
X151700Y480977D01*
X148552Y479673D01*
X145144Y479673D01*
X141996Y480977D01*
X139587Y483386D01*
X138283Y486534D01*
X138283Y489942D01*
X139587Y493090D01*
X141996Y495499D01*
X144251Y496433D01*
X144295Y496457D01*
X144343Y496474D01*
X144447Y496542D01*
X144556Y496602D01*
X144593Y496636D01*
X144635Y496663D01*
X144722Y496753D01*
X144814Y496836D01*
X144843Y496878D01*
X144878Y496914D01*
X144941Y497021D01*
X145012Y497123D01*
X145031Y497170D01*
X145056Y497213D01*
X145094Y497331D01*
X145140Y497447D01*
X145147Y497497D01*
X145163Y497545D01*
X145173Y497669D01*
X145191Y497792D01*
X145187Y497842D01*
X145191Y497892D01*
X145172Y498015D01*
X145162Y498139D01*
X145146Y498187D01*
X145139Y498237D01*
X145093Y498352D01*
X145055Y498471D01*
X145029Y498514D01*
X145010Y498561D01*
X144939Y498663D01*
X144875Y498769D01*
X144840Y498806D01*
X144811Y498847D01*
X144719Y498930D01*
X144632Y499019D01*
X144590Y499047D01*
X144552Y499080D01*
X144444Y499140D01*
X144339Y499208D01*
X144291Y499225D01*
X144247Y499249D01*
X144128Y499283D01*
X144010Y499324D01*
X143961Y499330D01*
X143912Y499344D01*
X143668Y499363D01*
X141278Y499363D01*
X141153Y499349D01*
X141026Y499342D01*
X140980Y499329D01*
X140932Y499323D01*
X140813Y499281D01*
X140692Y499246D01*
X140649Y499222D01*
X140604Y499206D01*
X140498Y499137D01*
X140387Y499076D01*
X140341Y499036D01*
X140311Y499017D01*
X140278Y498982D01*
X140201Y498917D01*
X132273Y490989D01*
X132194Y490890D01*
X132110Y490796D01*
X132086Y490754D01*
X132056Y490716D01*
X132002Y490602D01*
X131941Y490491D01*
X131928Y490444D01*
X131907Y490401D01*
X131881Y490277D01*
X131846Y490156D01*
X131841Y490095D01*
X131834Y490060D01*
X131835Y490012D01*
X131827Y489912D01*
X131827Y411803D01*
X130041Y410017D01*
X122590Y402566D01*
X122542Y402506D01*
X122488Y402453D01*
X122434Y402370D01*
X122373Y402293D01*
X122341Y402224D01*
X122299Y402159D01*
X122266Y402067D01*
X122224Y401978D01*
X122208Y401903D01*
X122183Y401831D01*
X122172Y401733D01*
X122151Y401637D01*
X122152Y401561D01*
X122144Y401485D01*
X122155Y401387D01*
X122157Y401289D01*
X122175Y401218D01*
X122175Y398989D01*
X121363Y397028D01*
X119862Y395527D01*
X117901Y394715D01*
X115779Y394715D01*
G37*
%LPD*%
%LPC*%
G36*
X303346Y71359D02*
X303346Y71359D01*
X295965Y74416D01*
X290316Y80065D01*
X287259Y87446D01*
X287259Y95434D01*
X290316Y102815D01*
X295965Y108464D01*
X303346Y111521D01*
X311334Y111521D01*
X318715Y108464D01*
X324364Y102815D01*
X327421Y95434D01*
X327421Y87446D01*
X324364Y80065D01*
X318715Y74416D01*
X311334Y71359D01*
X303346Y71359D01*
G37*
%LPD*%
%LPC*%
G36*
X50616Y71359D02*
X50616Y71359D01*
X43235Y74416D01*
X37586Y80065D01*
X34529Y87446D01*
X34529Y95434D01*
X37586Y102815D01*
X43235Y108464D01*
X50616Y111521D01*
X58604Y111521D01*
X65985Y108464D01*
X71634Y102815D01*
X74691Y95434D01*
X74691Y87446D01*
X71634Y80065D01*
X65985Y74416D01*
X58604Y71359D01*
X50616Y71359D01*
G37*
%LPD*%
%LPC*%
G36*
X50616Y487919D02*
X50616Y487919D01*
X43235Y490976D01*
X37586Y496625D01*
X34529Y504006D01*
X34529Y511994D01*
X37586Y519375D01*
X43235Y525024D01*
X50616Y528081D01*
X58604Y528081D01*
X65985Y525024D01*
X71634Y519375D01*
X74691Y511994D01*
X74691Y504006D01*
X71634Y496625D01*
X65985Y490976D01*
X58604Y487919D01*
X50616Y487919D01*
G37*
%LPD*%
%LPC*%
G36*
X303346Y487919D02*
X303346Y487919D01*
X295965Y490976D01*
X290316Y496625D01*
X287259Y504006D01*
X287259Y511994D01*
X290316Y519375D01*
X295965Y525024D01*
X303346Y528081D01*
X311334Y528081D01*
X318715Y525024D01*
X324364Y519375D01*
X327421Y511994D01*
X327421Y504006D01*
X324364Y496625D01*
X318715Y490976D01*
X311334Y487919D01*
X303346Y487919D01*
G37*
%LPD*%
%LPC*%
G36*
X104507Y199897D02*
X104507Y199897D01*
X100493Y201560D01*
X97420Y204633D01*
X95757Y208647D01*
X95757Y212993D01*
X97420Y217007D01*
X100493Y220080D01*
X104507Y221743D01*
X108853Y221743D01*
X112867Y220080D01*
X115940Y217007D01*
X117603Y212993D01*
X117603Y208647D01*
X115940Y204633D01*
X112867Y201560D01*
X108853Y199897D01*
X104507Y199897D01*
G37*
%LPD*%
%LPC*%
G36*
X104507Y352297D02*
X104507Y352297D01*
X100493Y353960D01*
X97420Y357033D01*
X95757Y361047D01*
X95757Y365393D01*
X97420Y369407D01*
X100493Y372480D01*
X104507Y374143D01*
X108853Y374143D01*
X112867Y372480D01*
X115940Y369407D01*
X117603Y365393D01*
X117603Y361047D01*
X115940Y357033D01*
X112867Y353960D01*
X108853Y352297D01*
X104507Y352297D01*
G37*
%LPD*%
%LPC*%
G36*
X129907Y352297D02*
X129907Y352297D01*
X125893Y353960D01*
X122820Y357033D01*
X121157Y361047D01*
X121157Y365393D01*
X122820Y369407D01*
X125893Y372480D01*
X129907Y374143D01*
X134253Y374143D01*
X138267Y372480D01*
X141340Y369407D01*
X143003Y365393D01*
X143003Y361047D01*
X141340Y357033D01*
X138267Y353960D01*
X134253Y352297D01*
X129907Y352297D01*
G37*
%LPD*%
%LPC*%
G36*
X180707Y352297D02*
X180707Y352297D01*
X176693Y353960D01*
X173620Y357033D01*
X171957Y361047D01*
X171957Y365393D01*
X173620Y369407D01*
X176693Y372480D01*
X180707Y374143D01*
X185053Y374143D01*
X189067Y372480D01*
X192140Y369407D01*
X193803Y365393D01*
X193803Y361047D01*
X192140Y357033D01*
X189067Y353960D01*
X185053Y352297D01*
X180707Y352297D01*
G37*
%LPD*%
%LPC*%
G36*
X231507Y352297D02*
X231507Y352297D01*
X227493Y353960D01*
X224420Y357033D01*
X222757Y361047D01*
X222757Y365393D01*
X224420Y369407D01*
X227493Y372480D01*
X231507Y374143D01*
X235853Y374143D01*
X239867Y372480D01*
X242940Y369407D01*
X244603Y365393D01*
X244603Y361047D01*
X242940Y357033D01*
X239867Y353960D01*
X235853Y352297D01*
X231507Y352297D01*
G37*
%LPD*%
%LPC*%
G36*
X256907Y352297D02*
X256907Y352297D01*
X252893Y353960D01*
X249820Y357033D01*
X248157Y361047D01*
X248157Y365393D01*
X249820Y369407D01*
X252893Y372480D01*
X256907Y374143D01*
X261253Y374143D01*
X265267Y372480D01*
X268340Y369407D01*
X270003Y365393D01*
X270003Y361047D01*
X268340Y357033D01*
X265267Y353960D01*
X261253Y352297D01*
X256907Y352297D01*
G37*
%LPD*%
%LPC*%
G36*
X213144Y479673D02*
X213144Y479673D01*
X209996Y480977D01*
X207587Y483386D01*
X206283Y486534D01*
X206283Y489942D01*
X207587Y493090D01*
X209996Y495499D01*
X213144Y496803D01*
X216552Y496803D01*
X219700Y495499D01*
X222109Y493090D01*
X223413Y489942D01*
X223413Y486534D01*
X222109Y483386D01*
X219700Y480977D01*
X216552Y479673D01*
X213144Y479673D01*
G37*
%LPD*%
%LPC*%
G36*
X166144Y454673D02*
X166144Y454673D01*
X162996Y455977D01*
X160587Y458386D01*
X159283Y461534D01*
X159283Y464942D01*
X160587Y468090D01*
X162996Y470499D01*
X166144Y471803D01*
X169552Y471803D01*
X172700Y470499D01*
X175109Y468090D01*
X176413Y464942D01*
X176413Y461534D01*
X175109Y458386D01*
X172700Y455977D01*
X169552Y454673D01*
X166144Y454673D01*
G37*
%LPD*%
%LPC*%
G36*
X182597Y50059D02*
X182597Y50059D01*
X182597Y58351D01*
X189138Y58351D01*
X190699Y58103D01*
X192202Y57615D01*
X193611Y56898D01*
X194889Y55969D01*
X196007Y54851D01*
X196936Y53573D01*
X197653Y52164D01*
X198141Y50661D01*
X198237Y50059D01*
X182597Y50059D01*
G37*
%LPD*%
%LPC*%
G36*
X250097Y58059D02*
X250097Y58059D01*
X250097Y73699D01*
X250699Y73603D01*
X252202Y73115D01*
X253611Y72398D01*
X254889Y71469D01*
X256007Y70351D01*
X256936Y69073D01*
X257653Y67664D01*
X258141Y66161D01*
X258389Y64600D01*
X258389Y58059D01*
X250097Y58059D01*
G37*
%LPD*%
%LPC*%
G36*
X115097Y58059D02*
X115097Y58059D01*
X115097Y73699D01*
X115699Y73603D01*
X117202Y73115D01*
X118611Y72398D01*
X119889Y71469D01*
X121007Y70351D01*
X121936Y69073D01*
X122653Y67664D01*
X123141Y66161D01*
X123389Y64600D01*
X123389Y58059D01*
X115097Y58059D01*
G37*
%LPD*%
%LPC*%
G36*
X182597Y527987D02*
X182597Y527987D01*
X182597Y536279D01*
X189138Y536279D01*
X190699Y536031D01*
X192202Y535543D01*
X193611Y534826D01*
X194889Y533897D01*
X196007Y532779D01*
X196936Y531501D01*
X197653Y530092D01*
X198141Y528589D01*
X198237Y527987D01*
X182597Y527987D01*
G37*
%LPD*%
%LPC*%
G36*
X115097Y519987D02*
X115097Y519987D01*
X115097Y535627D01*
X115699Y535531D01*
X117202Y535043D01*
X118611Y534326D01*
X119889Y533397D01*
X121007Y532279D01*
X121936Y531001D01*
X122653Y529592D01*
X123141Y528089D01*
X123389Y526528D01*
X123389Y519987D01*
X115097Y519987D01*
G37*
%LPD*%
%LPC*%
G36*
X250097Y519987D02*
X250097Y519987D01*
X250097Y535627D01*
X250699Y535531D01*
X252202Y535043D01*
X253611Y534326D01*
X254889Y533397D01*
X256007Y532279D01*
X256936Y531001D01*
X257653Y529592D01*
X258141Y528089D01*
X258389Y526528D01*
X258389Y519987D01*
X250097Y519987D01*
G37*
%LPD*%
%LPC*%
G36*
X250097Y54561D02*
X250097Y54561D01*
X258389Y54561D01*
X258389Y48020D01*
X258141Y46459D01*
X257653Y44956D01*
X256936Y43547D01*
X256007Y42269D01*
X254889Y41151D01*
X253611Y40222D01*
X252202Y39505D01*
X250699Y39017D01*
X250097Y38921D01*
X250097Y54561D01*
G37*
%LPD*%
%LPC*%
G36*
X115097Y516489D02*
X115097Y516489D01*
X123389Y516489D01*
X123389Y509948D01*
X123141Y508387D01*
X122653Y506884D01*
X121936Y505475D01*
X121007Y504197D01*
X119889Y503079D01*
X118611Y502150D01*
X117202Y501433D01*
X115699Y500945D01*
X115097Y500849D01*
X115097Y516489D01*
G37*
%LPD*%
%LPC*%
G36*
X163459Y50059D02*
X163459Y50059D01*
X163555Y50661D01*
X164043Y52164D01*
X164760Y53573D01*
X165689Y54851D01*
X166807Y55969D01*
X168085Y56898D01*
X169494Y57615D01*
X170997Y58103D01*
X172558Y58351D01*
X179099Y58351D01*
X179099Y50059D01*
X163459Y50059D01*
G37*
%LPD*%
%LPC*%
G36*
X115097Y54561D02*
X115097Y54561D01*
X123389Y54561D01*
X123389Y48020D01*
X123141Y46459D01*
X122653Y44956D01*
X121936Y43547D01*
X121007Y42269D01*
X119889Y41151D01*
X118611Y40222D01*
X117202Y39505D01*
X115699Y39017D01*
X115097Y38921D01*
X115097Y54561D01*
G37*
%LPD*%
%LPC*%
G36*
X163459Y527987D02*
X163459Y527987D01*
X163555Y528589D01*
X164043Y530092D01*
X164760Y531501D01*
X165689Y532779D01*
X166807Y533897D01*
X168085Y534826D01*
X169494Y535543D01*
X170997Y536031D01*
X172558Y536279D01*
X179099Y536279D01*
X179099Y527987D01*
X163459Y527987D01*
G37*
%LPD*%
%LPC*%
G36*
X250097Y516489D02*
X250097Y516489D01*
X258389Y516489D01*
X258389Y509948D01*
X258141Y508387D01*
X257653Y506884D01*
X256936Y505475D01*
X256007Y504197D01*
X254889Y503079D01*
X253611Y502150D01*
X252202Y501433D01*
X250699Y500945D01*
X250097Y500849D01*
X250097Y516489D01*
G37*
%LPD*%
%LPC*%
G36*
X103307Y519987D02*
X103307Y519987D01*
X103307Y526528D01*
X103555Y528089D01*
X104043Y529592D01*
X104760Y531001D01*
X105689Y532279D01*
X106807Y533397D01*
X108085Y534326D01*
X109494Y535043D01*
X110997Y535531D01*
X111599Y535627D01*
X111599Y519987D01*
X103307Y519987D01*
G37*
%LPD*%
%LPC*%
G36*
X238307Y519987D02*
X238307Y519987D01*
X238307Y526528D01*
X238555Y528089D01*
X239043Y529592D01*
X239760Y531001D01*
X240689Y532279D01*
X241807Y533397D01*
X243085Y534326D01*
X244494Y535043D01*
X245997Y535531D01*
X246599Y535627D01*
X246599Y519987D01*
X238307Y519987D01*
G37*
%LPD*%
%LPC*%
G36*
X238307Y58059D02*
X238307Y58059D01*
X238307Y64600D01*
X238555Y66161D01*
X239043Y67664D01*
X239760Y69073D01*
X240689Y70351D01*
X241807Y71469D01*
X243085Y72398D01*
X244494Y73115D01*
X245997Y73603D01*
X246599Y73699D01*
X246599Y58059D01*
X238307Y58059D01*
G37*
%LPD*%
%LPC*%
G36*
X103307Y58059D02*
X103307Y58059D01*
X103307Y64600D01*
X103555Y66161D01*
X104043Y67664D01*
X104760Y69073D01*
X105689Y70351D01*
X106807Y71469D01*
X108085Y72398D01*
X109494Y73115D01*
X110997Y73603D01*
X111599Y73699D01*
X111599Y58059D01*
X103307Y58059D01*
G37*
%LPD*%
%LPC*%
G36*
X182597Y38269D02*
X182597Y38269D01*
X182597Y46561D01*
X198237Y46561D01*
X198141Y45959D01*
X197653Y44456D01*
X196936Y43047D01*
X196007Y41769D01*
X194889Y40651D01*
X193611Y39722D01*
X192202Y39005D01*
X190699Y38517D01*
X189138Y38269D01*
X182597Y38269D01*
G37*
%LPD*%
%LPC*%
G36*
X182597Y516197D02*
X182597Y516197D01*
X182597Y524489D01*
X198237Y524489D01*
X198141Y523887D01*
X197653Y522384D01*
X196936Y520975D01*
X196007Y519697D01*
X194889Y518579D01*
X193611Y517650D01*
X192202Y516933D01*
X190699Y516445D01*
X189138Y516197D01*
X182597Y516197D01*
G37*
%LPD*%
%LPC*%
G36*
X172558Y38269D02*
X172558Y38269D01*
X170997Y38517D01*
X169494Y39005D01*
X168085Y39722D01*
X166807Y40651D01*
X165689Y41769D01*
X164760Y43047D01*
X164043Y44456D01*
X163555Y45959D01*
X163459Y46561D01*
X179099Y46561D01*
X179099Y38269D01*
X172558Y38269D01*
G37*
%LPD*%
%LPC*%
G36*
X172558Y516197D02*
X172558Y516197D01*
X170997Y516445D01*
X169494Y516933D01*
X168085Y517650D01*
X166807Y518579D01*
X165689Y519697D01*
X164760Y520975D01*
X164043Y522384D01*
X163555Y523887D01*
X163459Y524489D01*
X179099Y524489D01*
X179099Y516197D01*
X172558Y516197D01*
G37*
%LPD*%
%LPC*%
G36*
X110997Y500945D02*
X110997Y500945D01*
X109494Y501433D01*
X108085Y502150D01*
X106807Y503079D01*
X105689Y504197D01*
X104760Y505475D01*
X104043Y506884D01*
X103555Y508387D01*
X103307Y509948D01*
X103307Y516489D01*
X111599Y516489D01*
X111599Y500849D01*
X110997Y500945D01*
G37*
%LPD*%
%LPC*%
G36*
X245997Y39017D02*
X245997Y39017D01*
X244494Y39505D01*
X243085Y40222D01*
X241807Y41151D01*
X240689Y42269D01*
X239760Y43547D01*
X239043Y44956D01*
X238555Y46459D01*
X238307Y48020D01*
X238307Y54561D01*
X246599Y54561D01*
X246599Y38921D01*
X245997Y39017D01*
G37*
%LPD*%
%LPC*%
G36*
X245997Y500945D02*
X245997Y500945D01*
X244494Y501433D01*
X243085Y502150D01*
X241807Y503079D01*
X240689Y504197D01*
X239760Y505475D01*
X239043Y506884D01*
X238555Y508387D01*
X238307Y509948D01*
X238307Y516489D01*
X246599Y516489D01*
X246599Y500849D01*
X245997Y500945D01*
G37*
%LPD*%
%LPC*%
G36*
X110997Y39017D02*
X110997Y39017D01*
X109494Y39505D01*
X108085Y40222D01*
X106807Y41151D01*
X105689Y42269D01*
X104760Y43547D01*
X104043Y44956D01*
X103555Y46459D01*
X103307Y48020D01*
X103307Y54561D01*
X111599Y54561D01*
X111599Y38921D01*
X110997Y39017D01*
G37*
%LPD*%
%LPC*%
G36*
X217097Y465487D02*
X217097Y465487D01*
X217097Y472581D01*
X218526Y472117D01*
X219869Y471432D01*
X221090Y470546D01*
X222156Y469480D01*
X223042Y468259D01*
X223727Y466916D01*
X224191Y465487D01*
X217097Y465487D01*
G37*
%LPD*%
%LPC*%
G36*
X217097Y460989D02*
X217097Y460989D01*
X224191Y460989D01*
X223727Y459560D01*
X223042Y458217D01*
X222156Y456996D01*
X221090Y455930D01*
X219869Y455044D01*
X218526Y454359D01*
X217097Y453895D01*
X217097Y460989D01*
G37*
%LPD*%
%LPC*%
G36*
X205505Y465487D02*
X205505Y465487D01*
X205969Y466916D01*
X206654Y468259D01*
X207540Y469480D01*
X208606Y470546D01*
X209827Y471432D01*
X211170Y472117D01*
X212599Y472581D01*
X212599Y465487D01*
X205505Y465487D01*
G37*
%LPD*%
%LPC*%
G36*
X211170Y454359D02*
X211170Y454359D01*
X209827Y455044D01*
X208606Y455930D01*
X207540Y456996D01*
X206654Y458217D01*
X205969Y459560D01*
X205505Y460989D01*
X212599Y460989D01*
X212599Y453895D01*
X211170Y454359D01*
G37*
%LPD*%
D10*
X193848Y86310D03*
X167848Y86310D03*
X214848Y86310D03*
X193848Y111310D03*
X146848Y86310D03*
X214848Y111310D03*
X171848Y111310D03*
X146848Y111310D03*
D11*
X173348Y48310D02*
X188348Y48310D01*
X248348Y48810D02*
X248348Y63810D01*
X113348Y63810D02*
X113348Y48810D01*
D10*
X167848Y488238D03*
X193848Y488238D03*
X146848Y488238D03*
X167848Y463238D03*
X214848Y488238D03*
X146848Y463238D03*
X189848Y463238D03*
X214848Y463238D03*
D11*
X188348Y526238D02*
X173348Y526238D01*
X113348Y525738D02*
X113348Y510738D01*
X248348Y510738D02*
X248348Y525738D01*
D12*
X106680Y363220D03*
X132080Y363220D03*
X157480Y363220D03*
X182880Y363220D03*
X208280Y363220D03*
X233680Y363220D03*
X259080Y363220D03*
X106680Y210820D03*
X132080Y210820D03*
X157480Y210820D03*
X182880Y210820D03*
X208280Y210820D03*
X233680Y210820D03*
X259080Y210820D03*
D13*
X214848Y463238D02*
X248348Y496738D01*
X248348Y518238D01*
D14*
X78740Y269240D03*
D13*
X90170Y280670D01*
X113030Y280670D01*
D14*
X113030Y280670D03*
X144780Y279400D03*
D13*
X143510Y280670D01*
X113030Y280670D01*
D14*
X238760Y269240D03*
D13*
X260350Y269240D01*
X275590Y284480D01*
D14*
X275590Y284480D03*
X181610Y321310D03*
X207010Y332740D03*
D13*
X193040Y332740D02*
X181610Y321310D01*
X193040Y332740D02*
X207010Y332740D01*
X228600Y332740D01*
X238760Y322580D02*
X238760Y269240D01*
X238760Y322580D02*
X228600Y332740D01*
X220980Y346710D02*
X207010Y332740D01*
X220980Y346710D02*
X220980Y372110D01*
X231140Y382270D01*
X264160Y382270D01*
D14*
X264160Y382270D03*
D13*
X264160Y381000D01*
X280670Y364490D02*
X280670Y350520D01*
X290830Y340360D01*
D14*
X290830Y340360D03*
D13*
X280670Y364490D02*
X264160Y381000D01*
X275590Y284480D02*
X275590Y256540D01*
D14*
X278130Y254000D03*
D13*
X275590Y256540D01*
D15*
X158750Y95408D02*
X167848Y86310D01*
X152400Y262890D02*
X152400Y267970D01*
D14*
X152400Y267970D03*
D15*
X144780Y255270D02*
X144780Y168402D01*
X144780Y255270D02*
X152400Y262890D01*
X158750Y154432D02*
X158750Y95408D01*
X158750Y154432D02*
X144780Y168402D01*
D14*
X144780Y168402D03*
D15*
X201146Y408940D02*
X146848Y463238D01*
X255270Y408940D02*
X292100Y372110D01*
X292100Y353060D01*
D14*
X292100Y353060D03*
D15*
X255270Y408940D02*
X201146Y408940D01*
X304800Y210152D02*
X214848Y120200D01*
X214848Y111310D01*
X304800Y340360D02*
X292100Y353060D01*
X304800Y340360D02*
X304800Y210152D01*
X213666Y439420D02*
X189848Y463238D01*
X256540Y439420D02*
X306070Y389890D01*
X306070Y353060D01*
D14*
X306070Y353060D03*
D15*
X256540Y439420D02*
X213666Y439420D01*
X171848Y102420D02*
X180340Y93928D01*
X171848Y102420D02*
X171848Y111310D01*
X180340Y93928D02*
X180340Y81280D01*
X186690Y74930D01*
X226060Y74930D01*
X232410Y81280D01*
X232410Y130810D02*
X308610Y207010D01*
X308610Y350520D01*
X306070Y353060D01*
X232410Y130810D02*
X232410Y81280D01*
X214848Y86310D02*
X202098Y99060D01*
X189230Y99060D01*
X183134Y105029D01*
X185420Y302260D02*
X184150Y303530D01*
D14*
X184150Y303530D03*
D15*
X170434Y223774D02*
X170434Y159004D01*
X170434Y223774D02*
X185420Y238760D01*
X185420Y302260D01*
D14*
X170434Y159004D03*
D15*
X183134Y122809D02*
X183134Y105029D01*
X183134Y122809D02*
X170434Y135634D01*
X170434Y159004D01*
D14*
X236220Y233680D03*
D13*
X259080Y210820D01*
D14*
X222250Y140970D03*
D13*
X222250Y149860D02*
X259080Y186690D01*
X222250Y149860D02*
X222250Y140970D01*
X259080Y186690D02*
X259080Y210820D01*
D14*
X205740Y292100D03*
D15*
X197104Y225298D02*
X195326Y223520D01*
X197104Y257795D02*
X205740Y266431D01*
X197104Y257795D02*
X197104Y225298D01*
X205740Y266431D02*
X205740Y292100D01*
D14*
X182372Y151892D03*
D15*
X195326Y181864D02*
X195326Y223520D01*
X195326Y181864D02*
X182372Y168910D01*
X182372Y151892D01*
X193594Y140670D01*
X193594Y111564D01*
X193848Y111310D01*
D14*
X208280Y140970D03*
D15*
X208280Y149860D01*
X220726Y162306D01*
X220726Y230124D02*
X207010Y243840D01*
X207010Y254000D02*
X205740Y255270D01*
X207010Y254000D02*
X207010Y243840D01*
D14*
X205740Y255270D03*
D15*
X220726Y230124D02*
X220726Y162306D01*
D14*
X149860Y140970D03*
D15*
X134620Y125730D01*
X134620Y98538D02*
X146848Y86310D01*
X134620Y98538D02*
X134620Y125730D01*
D14*
X149860Y300990D03*
D15*
X148590Y302260D01*
X148590Y336550D01*
D14*
X148590Y336550D03*
D15*
X193848Y488238D02*
X180436Y501650D01*
X139700Y501650D01*
X129540Y491490D01*
X129540Y412750D02*
X116840Y400050D01*
D14*
X116840Y400050D03*
D15*
X129540Y412750D02*
X129540Y491490D01*
X208280Y363220D02*
X208280Y356870D01*
X140970Y340360D02*
X121920Y340360D01*
X115570Y334010D01*
X115570Y317268D02*
X113146Y314844D01*
D14*
X113146Y314844D03*
D15*
X198120Y346710D02*
X208280Y356870D01*
X198120Y346710D02*
X147320Y346710D01*
X140970Y340360D01*
X115570Y334010D02*
X115570Y317268D01*
X116840Y346710D02*
X140970Y346710D01*
X116840Y346710D02*
X109220Y339090D01*
X109220Y326390D01*
D14*
X109220Y326390D03*
D15*
X140970Y346710D02*
X157480Y363220D01*
M02*
