G04 EAGLE Gerber RS-274X export*
G75*
%MOMM*%
%FSLAX34Y34*%
%LPD*%
%INSoldermask Top*%
%IPPOS*%
%AMOC8*
5,1,8,0,0,1.08239X$1,22.5*%
G01*
%ADD10C,3.152400*%
%ADD11C,1.560400*%
%ADD12C,1.652400*%
%ADD13R,1.002400X0.452400*%
%ADD14R,1.052400X0.852400*%
%ADD15R,0.852400X1.052400*%
%ADD16R,1.677400X0.802400*%
%ADD17R,1.452400X1.652400*%
%ADD18R,1.102400X1.052400*%
%ADD19C,2.032000*%
%ADD20R,1.652400X1.452400*%


D10*
X54610Y508000D03*
X307340Y508000D03*
X54610Y91440D03*
X307340Y91440D03*
D11*
X193848Y86310D03*
X167848Y86310D03*
X214848Y86310D03*
X193848Y111310D03*
X146848Y86310D03*
X214848Y111310D03*
X171848Y111310D03*
X146848Y111310D03*
D12*
X173348Y48310D02*
X188348Y48310D01*
X248348Y48810D02*
X248348Y63810D01*
X113348Y63810D02*
X113348Y48810D01*
D13*
X291340Y312540D03*
X291340Y317540D03*
X291340Y322540D03*
X291340Y327540D03*
X259840Y327540D03*
X259840Y322540D03*
X259840Y317540D03*
X259840Y312540D03*
D14*
X60960Y278280D03*
X60960Y265280D03*
D11*
X167848Y488238D03*
X193848Y488238D03*
X146848Y488238D03*
X167848Y463238D03*
X214848Y488238D03*
X146848Y463238D03*
X189848Y463238D03*
X214848Y463238D03*
D12*
X188348Y526238D02*
X173348Y526238D01*
X113348Y525738D02*
X113348Y510738D01*
X248348Y510738D02*
X248348Y525738D01*
D13*
X128780Y256660D03*
X128780Y261660D03*
X128780Y266660D03*
X128780Y271660D03*
X97280Y271660D03*
X97280Y266660D03*
X97280Y261660D03*
X97280Y256660D03*
D15*
X187302Y187960D03*
X200302Y187960D03*
X298600Y295910D03*
X285600Y295910D03*
X252580Y295910D03*
X265580Y295910D03*
X137310Y238760D03*
X124310Y238760D03*
X92560Y238760D03*
X105560Y238760D03*
X154536Y187960D03*
X167536Y187960D03*
D16*
X221430Y243840D03*
X221430Y256540D03*
X221430Y269240D03*
X221430Y281940D03*
X221430Y294640D03*
X221430Y307340D03*
X221430Y320040D03*
X221430Y332740D03*
X167190Y332740D03*
X167190Y320040D03*
X167190Y307340D03*
X167190Y294640D03*
X167190Y281940D03*
X167190Y269240D03*
X167190Y256540D03*
X167190Y243840D03*
D15*
X170330Y386080D03*
X157330Y386080D03*
X138580Y386080D03*
X125580Y386080D03*
X195430Y386080D03*
X208430Y386080D03*
X225910Y386080D03*
X238910Y386080D03*
D14*
X49530Y221130D03*
X49530Y208130D03*
X60960Y221130D03*
X60960Y208130D03*
X72390Y221130D03*
X72390Y208130D03*
X83820Y221130D03*
X83820Y208130D03*
D13*
X128780Y311270D03*
X128780Y316270D03*
X128780Y321270D03*
X128780Y326270D03*
X97280Y326270D03*
X97280Y321270D03*
X97280Y316270D03*
X97280Y311270D03*
D15*
X133500Y293370D03*
X120500Y293370D03*
X90020Y293370D03*
X103020Y293370D03*
D17*
X299060Y382270D03*
X280060Y382270D03*
D18*
X99060Y10280D03*
X99060Y25280D03*
X278130Y10280D03*
X278130Y25280D03*
X262890Y10280D03*
X262890Y25280D03*
D19*
X106680Y363220D03*
X132080Y363220D03*
X157480Y363220D03*
X182880Y363220D03*
X208280Y363220D03*
X233680Y363220D03*
X259080Y363220D03*
X106680Y210820D03*
X132080Y210820D03*
X157480Y210820D03*
X182880Y210820D03*
X208280Y210820D03*
X233680Y210820D03*
X259080Y210820D03*
D14*
X49530Y278280D03*
X49530Y265280D03*
D20*
X288290Y212750D03*
X288290Y231750D03*
D18*
X83820Y10280D03*
X83820Y25280D03*
M02*
