G04 EAGLE Gerber RS-274X export*
G75*
%MOMM*%
%FSLAX34Y34*%
%LPD*%
%INSolderpaste Top*%
%IPPOS*%
%AMOC8*
5,1,8,0,0,1.08239X$1,22.5*%
G01*
%ADD10R,0.850000X0.300000*%
%ADD11R,0.900000X0.700000*%
%ADD12R,0.700000X0.900000*%
%ADD13R,1.525000X0.650000*%
%ADD14R,1.300000X1.500000*%
%ADD15R,0.950000X0.900000*%
%ADD16R,1.500000X1.300000*%


D10*
X291340Y312540D03*
X291340Y317540D03*
X291340Y322540D03*
X291340Y327540D03*
X259840Y327540D03*
X259840Y322540D03*
X259840Y317540D03*
X259840Y312540D03*
D11*
X60960Y278280D03*
X60960Y265280D03*
D10*
X128780Y256660D03*
X128780Y261660D03*
X128780Y266660D03*
X128780Y271660D03*
X97280Y271660D03*
X97280Y266660D03*
X97280Y261660D03*
X97280Y256660D03*
D12*
X187302Y187960D03*
X200302Y187960D03*
X298600Y295910D03*
X285600Y295910D03*
X252580Y295910D03*
X265580Y295910D03*
X137310Y238760D03*
X124310Y238760D03*
X92560Y238760D03*
X105560Y238760D03*
X154536Y187960D03*
X167536Y187960D03*
D13*
X221430Y243840D03*
X221430Y256540D03*
X221430Y269240D03*
X221430Y281940D03*
X221430Y294640D03*
X221430Y307340D03*
X221430Y320040D03*
X221430Y332740D03*
X167190Y332740D03*
X167190Y320040D03*
X167190Y307340D03*
X167190Y294640D03*
X167190Y281940D03*
X167190Y269240D03*
X167190Y256540D03*
X167190Y243840D03*
D12*
X170330Y386080D03*
X157330Y386080D03*
X138580Y386080D03*
X125580Y386080D03*
X195430Y386080D03*
X208430Y386080D03*
X225910Y386080D03*
X238910Y386080D03*
D11*
X49530Y221130D03*
X49530Y208130D03*
X60960Y221130D03*
X60960Y208130D03*
X72390Y221130D03*
X72390Y208130D03*
X83820Y221130D03*
X83820Y208130D03*
D10*
X128780Y311270D03*
X128780Y316270D03*
X128780Y321270D03*
X128780Y326270D03*
X97280Y326270D03*
X97280Y321270D03*
X97280Y316270D03*
X97280Y311270D03*
D12*
X133500Y293370D03*
X120500Y293370D03*
X90020Y293370D03*
X103020Y293370D03*
D14*
X299060Y382270D03*
X280060Y382270D03*
D15*
X99060Y10280D03*
X99060Y25280D03*
X278130Y10280D03*
X278130Y25280D03*
X262890Y10280D03*
X262890Y25280D03*
D11*
X49530Y278280D03*
X49530Y265280D03*
D16*
X288290Y212750D03*
X288290Y231750D03*
D15*
X83820Y10280D03*
X83820Y25280D03*
M02*
