G04 EAGLE Gerber RS-274X export*
G75*
%MOMM*%
%FSLAX34Y34*%
%LPD*%
%INSoldermask Bottom*%
%IPPOS*%
%AMOC8*
5,1,8,0,0,1.08239X$1,22.5*%
G01*
%ADD10C,3.152400*%
%ADD11C,1.560400*%
%ADD12C,1.652400*%
%ADD13C,2.032000*%


D10*
X54610Y508000D03*
X307340Y508000D03*
X54610Y91440D03*
X307340Y91440D03*
D11*
X193848Y86310D03*
X167848Y86310D03*
X214848Y86310D03*
X193848Y111310D03*
X146848Y86310D03*
X214848Y111310D03*
X171848Y111310D03*
X146848Y111310D03*
D12*
X173348Y48310D02*
X188348Y48310D01*
X248348Y48810D02*
X248348Y63810D01*
X113348Y63810D02*
X113348Y48810D01*
D11*
X167848Y488238D03*
X193848Y488238D03*
X146848Y488238D03*
X167848Y463238D03*
X214848Y488238D03*
X146848Y463238D03*
X189848Y463238D03*
X214848Y463238D03*
D12*
X188348Y526238D02*
X173348Y526238D01*
X113348Y525738D02*
X113348Y510738D01*
X248348Y510738D02*
X248348Y525738D01*
D13*
X106680Y363220D03*
X132080Y363220D03*
X157480Y363220D03*
X182880Y363220D03*
X208280Y363220D03*
X233680Y363220D03*
X259080Y363220D03*
X106680Y210820D03*
X132080Y210820D03*
X157480Y210820D03*
X182880Y210820D03*
X208280Y210820D03*
X233680Y210820D03*
X259080Y210820D03*
M02*
