G04 EAGLE Gerber RS-274X export*
G75*
%MOMM*%
%FSLAX34Y34*%
%LPD*%
%INSilkscreen Top*%
%IPPOS*%
%AMOC8*
5,1,8,0,0,1.08239X$1,22.5*%
G01*
%ADD10C,0.076200*%


D10*
X337947Y225171D02*
X328549Y225171D01*
X328549Y227782D01*
X328551Y227883D01*
X328557Y227984D01*
X328567Y228085D01*
X328580Y228185D01*
X328598Y228285D01*
X328619Y228384D01*
X328645Y228482D01*
X328674Y228579D01*
X328706Y228675D01*
X328743Y228769D01*
X328783Y228862D01*
X328827Y228954D01*
X328874Y229043D01*
X328925Y229131D01*
X328979Y229217D01*
X329036Y229300D01*
X329096Y229382D01*
X329160Y229460D01*
X329226Y229537D01*
X329296Y229610D01*
X329368Y229681D01*
X329443Y229749D01*
X329521Y229814D01*
X329601Y229876D01*
X329683Y229935D01*
X329768Y229991D01*
X329855Y230043D01*
X329943Y230092D01*
X330034Y230138D01*
X330126Y230179D01*
X330220Y230218D01*
X330315Y230252D01*
X330411Y230283D01*
X330509Y230310D01*
X330607Y230334D01*
X330707Y230353D01*
X330807Y230369D01*
X330907Y230381D01*
X331008Y230389D01*
X331109Y230393D01*
X331211Y230393D01*
X331312Y230389D01*
X331413Y230381D01*
X331513Y230369D01*
X331613Y230353D01*
X331713Y230334D01*
X331811Y230310D01*
X331909Y230283D01*
X332005Y230252D01*
X332100Y230218D01*
X332194Y230179D01*
X332286Y230138D01*
X332377Y230092D01*
X332466Y230043D01*
X332552Y229991D01*
X332637Y229935D01*
X332719Y229876D01*
X332799Y229814D01*
X332877Y229749D01*
X332952Y229681D01*
X333024Y229610D01*
X333094Y229537D01*
X333160Y229460D01*
X333224Y229382D01*
X333284Y229300D01*
X333341Y229217D01*
X333395Y229131D01*
X333446Y229043D01*
X333493Y228954D01*
X333537Y228862D01*
X333577Y228769D01*
X333614Y228675D01*
X333646Y228579D01*
X333675Y228482D01*
X333701Y228384D01*
X333722Y228285D01*
X333740Y228185D01*
X333753Y228085D01*
X333763Y227984D01*
X333769Y227883D01*
X333771Y227782D01*
X333770Y227782D02*
X333770Y225171D01*
X337947Y235942D02*
X337947Y238030D01*
X337947Y235942D02*
X337945Y235853D01*
X337939Y235765D01*
X337930Y235677D01*
X337917Y235589D01*
X337900Y235502D01*
X337880Y235416D01*
X337855Y235331D01*
X337828Y235246D01*
X337796Y235163D01*
X337762Y235082D01*
X337723Y235002D01*
X337682Y234924D01*
X337637Y234847D01*
X337589Y234773D01*
X337538Y234700D01*
X337484Y234630D01*
X337426Y234563D01*
X337366Y234497D01*
X337304Y234435D01*
X337238Y234375D01*
X337171Y234317D01*
X337101Y234263D01*
X337028Y234212D01*
X336954Y234164D01*
X336877Y234119D01*
X336799Y234078D01*
X336719Y234039D01*
X336638Y234005D01*
X336555Y233973D01*
X336470Y233946D01*
X336385Y233921D01*
X336299Y233901D01*
X336212Y233884D01*
X336124Y233871D01*
X336036Y233862D01*
X335948Y233856D01*
X335859Y233854D01*
X335859Y233853D02*
X330637Y233853D01*
X330546Y233855D01*
X330455Y233861D01*
X330364Y233871D01*
X330274Y233885D01*
X330185Y233903D01*
X330096Y233924D01*
X330009Y233950D01*
X329923Y233979D01*
X329838Y234012D01*
X329754Y234049D01*
X329672Y234089D01*
X329593Y234133D01*
X329515Y234180D01*
X329439Y234231D01*
X329365Y234285D01*
X329294Y234342D01*
X329226Y234402D01*
X329160Y234465D01*
X329097Y234531D01*
X329037Y234599D01*
X328980Y234670D01*
X328926Y234744D01*
X328875Y234820D01*
X328828Y234897D01*
X328784Y234977D01*
X328744Y235059D01*
X328707Y235143D01*
X328674Y235227D01*
X328645Y235314D01*
X328619Y235401D01*
X328598Y235490D01*
X328580Y235579D01*
X328566Y235669D01*
X328556Y235760D01*
X328550Y235851D01*
X328548Y235942D01*
X328549Y235942D02*
X328549Y238030D01*
X337947Y241821D02*
X337947Y245998D01*
X337947Y241821D02*
X328549Y241821D01*
X328549Y245998D01*
X332726Y244954D02*
X332726Y241821D01*
X330637Y249424D02*
X328549Y252034D01*
X337947Y252034D01*
X337947Y249424D02*
X337947Y254645D01*
X330899Y263789D02*
X330804Y263787D01*
X330710Y263781D01*
X330616Y263772D01*
X330522Y263759D01*
X330429Y263742D01*
X330337Y263721D01*
X330245Y263696D01*
X330155Y263668D01*
X330066Y263636D01*
X329978Y263601D01*
X329892Y263562D01*
X329807Y263520D01*
X329724Y263474D01*
X329643Y263425D01*
X329564Y263373D01*
X329487Y263318D01*
X329413Y263259D01*
X329341Y263198D01*
X329271Y263134D01*
X329204Y263067D01*
X329140Y262997D01*
X329079Y262925D01*
X329020Y262851D01*
X328965Y262774D01*
X328913Y262695D01*
X328864Y262614D01*
X328818Y262531D01*
X328776Y262446D01*
X328737Y262360D01*
X328702Y262272D01*
X328670Y262183D01*
X328642Y262093D01*
X328617Y262001D01*
X328596Y261909D01*
X328579Y261816D01*
X328566Y261722D01*
X328557Y261628D01*
X328551Y261534D01*
X328549Y261439D01*
X328551Y261331D01*
X328557Y261222D01*
X328567Y261114D01*
X328580Y261007D01*
X328598Y260900D01*
X328619Y260793D01*
X328644Y260688D01*
X328673Y260583D01*
X328705Y260480D01*
X328742Y260378D01*
X328782Y260277D01*
X328825Y260178D01*
X328872Y260080D01*
X328923Y259984D01*
X328977Y259890D01*
X329034Y259798D01*
X329095Y259708D01*
X329159Y259620D01*
X329225Y259535D01*
X329295Y259452D01*
X329368Y259372D01*
X329444Y259294D01*
X329522Y259219D01*
X329603Y259147D01*
X329687Y259078D01*
X329773Y259012D01*
X329861Y258949D01*
X329952Y258890D01*
X330044Y258833D01*
X330139Y258780D01*
X330236Y258731D01*
X330334Y258685D01*
X330433Y258642D01*
X330535Y258603D01*
X330637Y258568D01*
X332727Y263006D02*
X332658Y263075D01*
X332587Y263141D01*
X332514Y263205D01*
X332438Y263266D01*
X332359Y263324D01*
X332279Y263378D01*
X332196Y263430D01*
X332112Y263478D01*
X332026Y263524D01*
X331938Y263565D01*
X331848Y263604D01*
X331757Y263639D01*
X331665Y263670D01*
X331572Y263698D01*
X331478Y263722D01*
X331383Y263742D01*
X331287Y263759D01*
X331190Y263772D01*
X331093Y263781D01*
X330996Y263787D01*
X330899Y263789D01*
X332726Y263006D02*
X337947Y258568D01*
X337947Y263789D01*
X335336Y267711D02*
X335235Y267713D01*
X335134Y267719D01*
X335033Y267729D01*
X334933Y267742D01*
X334833Y267760D01*
X334734Y267781D01*
X334636Y267807D01*
X334539Y267836D01*
X334443Y267868D01*
X334349Y267905D01*
X334256Y267945D01*
X334164Y267989D01*
X334075Y268036D01*
X333987Y268087D01*
X333901Y268141D01*
X333818Y268198D01*
X333736Y268258D01*
X333658Y268322D01*
X333581Y268388D01*
X333508Y268458D01*
X333437Y268530D01*
X333369Y268605D01*
X333304Y268683D01*
X333242Y268763D01*
X333183Y268845D01*
X333127Y268930D01*
X333075Y269017D01*
X333026Y269105D01*
X332980Y269196D01*
X332939Y269288D01*
X332900Y269382D01*
X332866Y269477D01*
X332835Y269573D01*
X332808Y269671D01*
X332784Y269769D01*
X332765Y269869D01*
X332749Y269969D01*
X332737Y270069D01*
X332729Y270170D01*
X332725Y270271D01*
X332725Y270373D01*
X332729Y270474D01*
X332737Y270575D01*
X332749Y270675D01*
X332765Y270775D01*
X332784Y270875D01*
X332808Y270973D01*
X332835Y271071D01*
X332866Y271167D01*
X332900Y271262D01*
X332939Y271356D01*
X332980Y271448D01*
X333026Y271539D01*
X333075Y271628D01*
X333127Y271714D01*
X333183Y271799D01*
X333242Y271881D01*
X333304Y271961D01*
X333369Y272039D01*
X333437Y272114D01*
X333508Y272186D01*
X333581Y272256D01*
X333658Y272322D01*
X333736Y272386D01*
X333818Y272446D01*
X333901Y272503D01*
X333987Y272557D01*
X334075Y272608D01*
X334164Y272655D01*
X334256Y272699D01*
X334349Y272739D01*
X334443Y272776D01*
X334539Y272808D01*
X334636Y272837D01*
X334734Y272863D01*
X334833Y272884D01*
X334933Y272902D01*
X335033Y272915D01*
X335134Y272925D01*
X335235Y272931D01*
X335336Y272933D01*
X335437Y272931D01*
X335538Y272925D01*
X335639Y272915D01*
X335739Y272902D01*
X335839Y272884D01*
X335938Y272863D01*
X336036Y272837D01*
X336133Y272808D01*
X336229Y272776D01*
X336323Y272739D01*
X336416Y272699D01*
X336508Y272655D01*
X336597Y272608D01*
X336685Y272557D01*
X336771Y272503D01*
X336854Y272446D01*
X336936Y272386D01*
X337014Y272322D01*
X337091Y272256D01*
X337164Y272186D01*
X337235Y272114D01*
X337303Y272039D01*
X337368Y271961D01*
X337430Y271881D01*
X337489Y271799D01*
X337545Y271714D01*
X337597Y271627D01*
X337646Y271539D01*
X337692Y271448D01*
X337733Y271356D01*
X337772Y271262D01*
X337806Y271167D01*
X337837Y271071D01*
X337864Y270973D01*
X337888Y270875D01*
X337907Y270775D01*
X337923Y270675D01*
X337935Y270575D01*
X337943Y270474D01*
X337947Y270373D01*
X337947Y270271D01*
X337943Y270170D01*
X337935Y270069D01*
X337923Y269969D01*
X337907Y269869D01*
X337888Y269769D01*
X337864Y269671D01*
X337837Y269573D01*
X337806Y269477D01*
X337772Y269382D01*
X337733Y269288D01*
X337692Y269196D01*
X337646Y269105D01*
X337597Y269017D01*
X337545Y268930D01*
X337489Y268845D01*
X337430Y268763D01*
X337368Y268683D01*
X337303Y268605D01*
X337235Y268530D01*
X337164Y268458D01*
X337091Y268388D01*
X337014Y268322D01*
X336936Y268258D01*
X336854Y268198D01*
X336771Y268141D01*
X336685Y268087D01*
X336597Y268036D01*
X336508Y267989D01*
X336416Y267945D01*
X336323Y267905D01*
X336229Y267868D01*
X336133Y267836D01*
X336036Y267807D01*
X335938Y267781D01*
X335839Y267760D01*
X335739Y267742D01*
X335639Y267729D01*
X335538Y267719D01*
X335437Y267713D01*
X335336Y267711D01*
X330637Y268234D02*
X330547Y268236D01*
X330458Y268242D01*
X330368Y268251D01*
X330279Y268265D01*
X330191Y268282D01*
X330104Y268303D01*
X330017Y268328D01*
X329932Y268357D01*
X329848Y268389D01*
X329766Y268424D01*
X329685Y268464D01*
X329606Y268506D01*
X329529Y268552D01*
X329454Y268602D01*
X329381Y268654D01*
X329310Y268710D01*
X329242Y268768D01*
X329177Y268830D01*
X329114Y268894D01*
X329054Y268961D01*
X328997Y269030D01*
X328943Y269102D01*
X328892Y269176D01*
X328844Y269252D01*
X328800Y269330D01*
X328759Y269410D01*
X328721Y269492D01*
X328687Y269575D01*
X328657Y269660D01*
X328630Y269746D01*
X328607Y269832D01*
X328588Y269920D01*
X328573Y270009D01*
X328561Y270098D01*
X328553Y270187D01*
X328549Y270277D01*
X328549Y270367D01*
X328553Y270457D01*
X328561Y270546D01*
X328573Y270635D01*
X328588Y270724D01*
X328607Y270812D01*
X328630Y270898D01*
X328657Y270984D01*
X328687Y271069D01*
X328721Y271152D01*
X328759Y271234D01*
X328800Y271314D01*
X328844Y271392D01*
X328892Y271468D01*
X328943Y271542D01*
X328997Y271614D01*
X329054Y271683D01*
X329114Y271750D01*
X329177Y271814D01*
X329242Y271876D01*
X329310Y271934D01*
X329381Y271990D01*
X329454Y272042D01*
X329529Y272092D01*
X329606Y272138D01*
X329685Y272180D01*
X329766Y272220D01*
X329848Y272255D01*
X329932Y272287D01*
X330017Y272316D01*
X330104Y272341D01*
X330191Y272362D01*
X330279Y272379D01*
X330368Y272393D01*
X330458Y272402D01*
X330547Y272408D01*
X330637Y272410D01*
X330727Y272408D01*
X330816Y272402D01*
X330906Y272393D01*
X330995Y272379D01*
X331083Y272362D01*
X331170Y272341D01*
X331257Y272316D01*
X331342Y272287D01*
X331426Y272255D01*
X331508Y272220D01*
X331589Y272180D01*
X331668Y272138D01*
X331745Y272092D01*
X331820Y272042D01*
X331893Y271990D01*
X331964Y271934D01*
X332032Y271876D01*
X332097Y271814D01*
X332160Y271750D01*
X332220Y271683D01*
X332277Y271614D01*
X332331Y271542D01*
X332382Y271468D01*
X332430Y271392D01*
X332474Y271314D01*
X332515Y271234D01*
X332553Y271152D01*
X332587Y271069D01*
X332617Y270984D01*
X332644Y270898D01*
X332667Y270812D01*
X332686Y270724D01*
X332701Y270635D01*
X332713Y270546D01*
X332721Y270457D01*
X332725Y270367D01*
X332725Y270277D01*
X332721Y270187D01*
X332713Y270098D01*
X332701Y270009D01*
X332686Y269920D01*
X332667Y269832D01*
X332644Y269746D01*
X332617Y269660D01*
X332587Y269575D01*
X332553Y269492D01*
X332515Y269410D01*
X332474Y269330D01*
X332430Y269252D01*
X332382Y269176D01*
X332331Y269102D01*
X332277Y269030D01*
X332220Y268961D01*
X332160Y268894D01*
X332097Y268830D01*
X332032Y268768D01*
X331964Y268710D01*
X331893Y268654D01*
X331820Y268602D01*
X331745Y268552D01*
X331668Y268506D01*
X331589Y268464D01*
X331508Y268424D01*
X331426Y268389D01*
X331342Y268357D01*
X331257Y268328D01*
X331170Y268303D01*
X331083Y268282D01*
X330995Y268265D01*
X330906Y268251D01*
X330816Y268242D01*
X330727Y268236D01*
X330637Y268234D01*
X337947Y276428D02*
X337947Y276950D01*
X337947Y276428D02*
X337425Y276428D01*
X337425Y276950D01*
X337947Y276950D01*
X340035Y276167D01*
X337947Y285659D02*
X331682Y285659D01*
X331682Y288791D01*
X332726Y288791D01*
X337947Y293269D02*
X337947Y295880D01*
X337947Y293269D02*
X337945Y293192D01*
X337939Y293116D01*
X337930Y293039D01*
X337917Y292963D01*
X337900Y292888D01*
X337880Y292814D01*
X337855Y292741D01*
X337828Y292670D01*
X337797Y292599D01*
X337762Y292531D01*
X337724Y292464D01*
X337683Y292399D01*
X337639Y292336D01*
X337592Y292276D01*
X337541Y292217D01*
X337488Y292162D01*
X337433Y292109D01*
X337374Y292058D01*
X337314Y292011D01*
X337251Y291967D01*
X337186Y291926D01*
X337119Y291888D01*
X337051Y291853D01*
X336980Y291822D01*
X336909Y291795D01*
X336836Y291770D01*
X336762Y291750D01*
X336687Y291733D01*
X336611Y291720D01*
X336534Y291711D01*
X336458Y291705D01*
X336381Y291703D01*
X333770Y291703D01*
X333770Y291704D02*
X333680Y291706D01*
X333591Y291712D01*
X333501Y291721D01*
X333412Y291735D01*
X333324Y291752D01*
X333237Y291773D01*
X333150Y291798D01*
X333065Y291827D01*
X332981Y291859D01*
X332899Y291894D01*
X332818Y291934D01*
X332739Y291976D01*
X332662Y292022D01*
X332587Y292072D01*
X332514Y292124D01*
X332443Y292180D01*
X332375Y292238D01*
X332310Y292300D01*
X332247Y292364D01*
X332187Y292431D01*
X332130Y292500D01*
X332076Y292572D01*
X332025Y292646D01*
X331977Y292722D01*
X331933Y292800D01*
X331892Y292880D01*
X331854Y292962D01*
X331820Y293045D01*
X331790Y293130D01*
X331763Y293216D01*
X331740Y293302D01*
X331721Y293390D01*
X331706Y293479D01*
X331694Y293568D01*
X331686Y293657D01*
X331682Y293747D01*
X331682Y293837D01*
X331686Y293927D01*
X331694Y294016D01*
X331706Y294105D01*
X331721Y294194D01*
X331740Y294282D01*
X331763Y294368D01*
X331790Y294454D01*
X331820Y294539D01*
X331854Y294622D01*
X331892Y294704D01*
X331933Y294784D01*
X331977Y294862D01*
X332025Y294938D01*
X332076Y295012D01*
X332130Y295084D01*
X332187Y295153D01*
X332247Y295220D01*
X332310Y295284D01*
X332375Y295346D01*
X332443Y295404D01*
X332514Y295460D01*
X332587Y295512D01*
X332662Y295562D01*
X332739Y295608D01*
X332818Y295650D01*
X332899Y295690D01*
X332981Y295725D01*
X333065Y295757D01*
X333150Y295786D01*
X333237Y295811D01*
X333324Y295832D01*
X333412Y295849D01*
X333501Y295863D01*
X333591Y295872D01*
X333680Y295878D01*
X333770Y295880D01*
X334814Y295880D01*
X334814Y291703D01*
X331682Y299323D02*
X337947Y301412D01*
X331682Y303500D01*
X337425Y306637D02*
X337947Y306637D01*
X337425Y306637D02*
X337425Y307159D01*
X337947Y307159D01*
X337947Y306637D01*
X337947Y317628D02*
X337947Y319716D01*
X337947Y317628D02*
X337945Y317539D01*
X337939Y317451D01*
X337930Y317363D01*
X337917Y317275D01*
X337900Y317188D01*
X337880Y317102D01*
X337855Y317017D01*
X337828Y316932D01*
X337796Y316849D01*
X337762Y316768D01*
X337723Y316688D01*
X337682Y316610D01*
X337637Y316533D01*
X337589Y316459D01*
X337538Y316386D01*
X337484Y316316D01*
X337426Y316249D01*
X337366Y316183D01*
X337304Y316121D01*
X337238Y316061D01*
X337171Y316003D01*
X337101Y315949D01*
X337028Y315898D01*
X336954Y315850D01*
X336877Y315805D01*
X336799Y315764D01*
X336719Y315725D01*
X336638Y315691D01*
X336555Y315659D01*
X336470Y315632D01*
X336385Y315607D01*
X336299Y315587D01*
X336212Y315570D01*
X336124Y315557D01*
X336036Y315548D01*
X335948Y315542D01*
X335859Y315540D01*
X335859Y315539D02*
X330637Y315539D01*
X330546Y315541D01*
X330455Y315547D01*
X330364Y315557D01*
X330274Y315571D01*
X330185Y315589D01*
X330096Y315610D01*
X330009Y315636D01*
X329923Y315665D01*
X329838Y315698D01*
X329754Y315735D01*
X329672Y315775D01*
X329593Y315819D01*
X329515Y315866D01*
X329439Y315917D01*
X329365Y315971D01*
X329294Y316028D01*
X329226Y316088D01*
X329160Y316151D01*
X329097Y316217D01*
X329037Y316285D01*
X328980Y316356D01*
X328926Y316430D01*
X328875Y316506D01*
X328828Y316583D01*
X328784Y316663D01*
X328744Y316745D01*
X328707Y316829D01*
X328674Y316913D01*
X328645Y317000D01*
X328619Y317087D01*
X328598Y317176D01*
X328580Y317265D01*
X328566Y317355D01*
X328556Y317446D01*
X328550Y317537D01*
X328548Y317628D01*
X328549Y317628D02*
X328549Y319716D01*
X333248Y328127D02*
X333033Y328130D01*
X332818Y328137D01*
X332603Y328150D01*
X332389Y328168D01*
X332175Y328192D01*
X331962Y328220D01*
X331750Y328253D01*
X331538Y328292D01*
X331328Y328336D01*
X331118Y328384D01*
X330910Y328438D01*
X330703Y328497D01*
X330498Y328561D01*
X330294Y328629D01*
X330092Y328703D01*
X329891Y328781D01*
X329693Y328864D01*
X329497Y328952D01*
X329303Y329045D01*
X329111Y329142D01*
X328921Y329244D01*
X328734Y329350D01*
X328550Y329461D01*
X328369Y329576D01*
X328190Y329695D01*
X328014Y329819D01*
X327841Y329947D01*
X327671Y330079D01*
X327505Y330215D01*
X333248Y328127D02*
X333463Y328130D01*
X333678Y328137D01*
X333893Y328150D01*
X334107Y328168D01*
X334321Y328192D01*
X334534Y328220D01*
X334746Y328253D01*
X334958Y328292D01*
X335168Y328336D01*
X335378Y328384D01*
X335586Y328438D01*
X335793Y328497D01*
X335998Y328561D01*
X336202Y328629D01*
X336404Y328703D01*
X336605Y328781D01*
X336803Y328864D01*
X336999Y328952D01*
X337193Y329045D01*
X337385Y329142D01*
X337575Y329244D01*
X337762Y329350D01*
X337946Y329461D01*
X338128Y329576D01*
X338306Y329695D01*
X338482Y329819D01*
X338655Y329947D01*
X338825Y330079D01*
X338991Y330215D01*
X337947Y336681D02*
X337945Y336770D01*
X337939Y336858D01*
X337930Y336946D01*
X337917Y337034D01*
X337900Y337121D01*
X337880Y337207D01*
X337855Y337292D01*
X337828Y337377D01*
X337796Y337460D01*
X337762Y337541D01*
X337723Y337621D01*
X337682Y337699D01*
X337637Y337776D01*
X337589Y337850D01*
X337538Y337923D01*
X337484Y337993D01*
X337426Y338060D01*
X337366Y338126D01*
X337304Y338188D01*
X337238Y338248D01*
X337171Y338306D01*
X337101Y338360D01*
X337028Y338411D01*
X336954Y338459D01*
X336877Y338504D01*
X336799Y338545D01*
X336719Y338584D01*
X336638Y338618D01*
X336555Y338650D01*
X336470Y338677D01*
X336385Y338702D01*
X336299Y338722D01*
X336212Y338739D01*
X336124Y338752D01*
X336036Y338761D01*
X335948Y338767D01*
X335859Y338769D01*
X337947Y336681D02*
X337945Y336552D01*
X337939Y336423D01*
X337930Y336294D01*
X337917Y336166D01*
X337900Y336038D01*
X337879Y335911D01*
X337855Y335784D01*
X337827Y335658D01*
X337795Y335533D01*
X337760Y335409D01*
X337721Y335286D01*
X337678Y335164D01*
X337632Y335044D01*
X337582Y334925D01*
X337529Y334807D01*
X337473Y334691D01*
X337413Y334577D01*
X337350Y334464D01*
X337283Y334354D01*
X337214Y334245D01*
X337141Y334139D01*
X337065Y334034D01*
X336986Y333932D01*
X336904Y333833D01*
X336820Y333735D01*
X336732Y333640D01*
X336642Y333548D01*
X330637Y333809D02*
X330548Y333811D01*
X330460Y333817D01*
X330372Y333826D01*
X330284Y333839D01*
X330197Y333856D01*
X330111Y333876D01*
X330026Y333901D01*
X329941Y333928D01*
X329858Y333960D01*
X329777Y333994D01*
X329697Y334033D01*
X329619Y334074D01*
X329542Y334119D01*
X329468Y334167D01*
X329395Y334218D01*
X329325Y334272D01*
X329258Y334330D01*
X329192Y334390D01*
X329130Y334452D01*
X329070Y334518D01*
X329012Y334585D01*
X328958Y334655D01*
X328907Y334728D01*
X328859Y334802D01*
X328814Y334879D01*
X328773Y334957D01*
X328734Y335037D01*
X328700Y335118D01*
X328668Y335201D01*
X328641Y335286D01*
X328616Y335371D01*
X328596Y335457D01*
X328579Y335544D01*
X328566Y335632D01*
X328557Y335720D01*
X328551Y335808D01*
X328549Y335897D01*
X328551Y336017D01*
X328556Y336137D01*
X328566Y336256D01*
X328578Y336376D01*
X328595Y336495D01*
X328615Y336613D01*
X328639Y336731D01*
X328666Y336847D01*
X328697Y336963D01*
X328731Y337078D01*
X328769Y337192D01*
X328811Y337305D01*
X328856Y337416D01*
X328904Y337526D01*
X328955Y337634D01*
X329010Y337741D01*
X329068Y337846D01*
X329130Y337949D01*
X329194Y338050D01*
X329262Y338150D01*
X329332Y338247D01*
X332464Y334853D02*
X332416Y334775D01*
X332364Y334699D01*
X332310Y334626D01*
X332252Y334555D01*
X332191Y334486D01*
X332127Y334420D01*
X332060Y334357D01*
X331991Y334297D01*
X331919Y334240D01*
X331845Y334186D01*
X331768Y334136D01*
X331689Y334088D01*
X331609Y334045D01*
X331526Y334004D01*
X331442Y333968D01*
X331357Y333935D01*
X331270Y333906D01*
X331181Y333880D01*
X331092Y333858D01*
X331002Y333841D01*
X330912Y333827D01*
X330820Y333817D01*
X330729Y333811D01*
X330637Y333809D01*
X334032Y337725D02*
X334080Y337803D01*
X334132Y337879D01*
X334186Y337952D01*
X334244Y338023D01*
X334305Y338092D01*
X334369Y338158D01*
X334436Y338221D01*
X334505Y338281D01*
X334577Y338338D01*
X334651Y338392D01*
X334728Y338442D01*
X334807Y338490D01*
X334887Y338533D01*
X334970Y338574D01*
X335054Y338610D01*
X335139Y338643D01*
X335226Y338672D01*
X335315Y338698D01*
X335404Y338720D01*
X335494Y338737D01*
X335584Y338751D01*
X335676Y338761D01*
X335767Y338767D01*
X335859Y338769D01*
X334031Y337725D02*
X332465Y334853D01*
X331682Y342604D02*
X336381Y342604D01*
X336381Y342605D02*
X336458Y342607D01*
X336534Y342613D01*
X336611Y342622D01*
X336687Y342635D01*
X336762Y342652D01*
X336836Y342672D01*
X336909Y342697D01*
X336980Y342724D01*
X337051Y342755D01*
X337119Y342790D01*
X337186Y342828D01*
X337251Y342869D01*
X337314Y342913D01*
X337374Y342960D01*
X337433Y343011D01*
X337488Y343064D01*
X337541Y343119D01*
X337592Y343178D01*
X337639Y343238D01*
X337683Y343301D01*
X337724Y343366D01*
X337762Y343433D01*
X337797Y343501D01*
X337828Y343572D01*
X337855Y343643D01*
X337880Y343716D01*
X337900Y343790D01*
X337917Y343865D01*
X337930Y343941D01*
X337939Y344018D01*
X337945Y344094D01*
X337947Y344171D01*
X337947Y346781D01*
X331682Y346781D01*
X328549Y351184D02*
X337947Y351184D01*
X337947Y353795D01*
X337945Y353872D01*
X337939Y353948D01*
X337930Y354025D01*
X337917Y354101D01*
X337900Y354176D01*
X337880Y354250D01*
X337855Y354323D01*
X337828Y354394D01*
X337797Y354465D01*
X337762Y354533D01*
X337724Y354600D01*
X337683Y354665D01*
X337639Y354728D01*
X337592Y354788D01*
X337541Y354847D01*
X337488Y354902D01*
X337433Y354955D01*
X337374Y355006D01*
X337314Y355053D01*
X337251Y355097D01*
X337186Y355138D01*
X337119Y355176D01*
X337051Y355211D01*
X336980Y355242D01*
X336909Y355269D01*
X336836Y355294D01*
X336762Y355314D01*
X336687Y355331D01*
X336611Y355344D01*
X336534Y355353D01*
X336458Y355359D01*
X336381Y355361D01*
X333248Y355361D01*
X333171Y355359D01*
X333095Y355353D01*
X333018Y355344D01*
X332942Y355331D01*
X332867Y355314D01*
X332793Y355294D01*
X332720Y355269D01*
X332649Y355242D01*
X332578Y355211D01*
X332510Y355176D01*
X332443Y355138D01*
X332378Y355097D01*
X332315Y355053D01*
X332255Y355006D01*
X332196Y354955D01*
X332141Y354902D01*
X332088Y354847D01*
X332037Y354788D01*
X331990Y354728D01*
X331946Y354665D01*
X331905Y354600D01*
X331867Y354533D01*
X331832Y354465D01*
X331801Y354394D01*
X331774Y354323D01*
X331749Y354250D01*
X331729Y354176D01*
X331712Y354101D01*
X331699Y354025D01*
X331690Y353948D01*
X331684Y353872D01*
X331682Y353795D01*
X331682Y351184D01*
X333248Y360954D02*
X333463Y360951D01*
X333678Y360944D01*
X333893Y360931D01*
X334107Y360913D01*
X334321Y360889D01*
X334534Y360861D01*
X334746Y360828D01*
X334958Y360789D01*
X335168Y360745D01*
X335378Y360697D01*
X335586Y360643D01*
X335793Y360584D01*
X335998Y360520D01*
X336202Y360452D01*
X336404Y360378D01*
X336605Y360300D01*
X336803Y360217D01*
X336999Y360129D01*
X337193Y360036D01*
X337385Y359939D01*
X337575Y359837D01*
X337762Y359731D01*
X337946Y359620D01*
X338128Y359505D01*
X338306Y359386D01*
X338482Y359262D01*
X338655Y359134D01*
X338825Y359002D01*
X338991Y358866D01*
X333248Y360954D02*
X333033Y360951D01*
X332818Y360944D01*
X332603Y360931D01*
X332389Y360913D01*
X332175Y360889D01*
X331962Y360861D01*
X331750Y360828D01*
X331538Y360789D01*
X331328Y360745D01*
X331118Y360697D01*
X330910Y360643D01*
X330703Y360584D01*
X330498Y360520D01*
X330294Y360452D01*
X330092Y360378D01*
X329891Y360300D01*
X329693Y360217D01*
X329497Y360129D01*
X329303Y360036D01*
X329111Y359939D01*
X328921Y359837D01*
X328734Y359731D01*
X328550Y359620D01*
X328369Y359505D01*
X328190Y359386D01*
X328014Y359262D01*
X327841Y359134D01*
X327671Y359002D01*
X327505Y358866D01*
X341475Y227259D02*
X341641Y227123D01*
X341811Y226991D01*
X341984Y226863D01*
X342160Y226739D01*
X342339Y226620D01*
X342520Y226505D01*
X342704Y226394D01*
X342891Y226288D01*
X343081Y226186D01*
X343273Y226089D01*
X343467Y225996D01*
X343663Y225908D01*
X343861Y225825D01*
X344062Y225747D01*
X344264Y225673D01*
X344468Y225605D01*
X344673Y225541D01*
X344880Y225482D01*
X345088Y225428D01*
X345298Y225380D01*
X345508Y225336D01*
X345720Y225297D01*
X345932Y225264D01*
X346145Y225236D01*
X346359Y225212D01*
X346573Y225194D01*
X346788Y225181D01*
X347003Y225174D01*
X347218Y225171D01*
X347433Y225174D01*
X347648Y225181D01*
X347863Y225194D01*
X348077Y225212D01*
X348291Y225236D01*
X348504Y225264D01*
X348716Y225297D01*
X348928Y225336D01*
X349138Y225380D01*
X349348Y225428D01*
X349556Y225482D01*
X349763Y225541D01*
X349968Y225605D01*
X350172Y225673D01*
X350374Y225747D01*
X350575Y225825D01*
X350773Y225908D01*
X350969Y225996D01*
X351163Y226089D01*
X351355Y226186D01*
X351545Y226288D01*
X351732Y226394D01*
X351916Y226505D01*
X352098Y226620D01*
X352276Y226739D01*
X352452Y226863D01*
X352625Y226991D01*
X352795Y227123D01*
X352961Y227259D01*
X351917Y232960D02*
X351917Y235048D01*
X351917Y232960D02*
X351915Y232871D01*
X351909Y232783D01*
X351900Y232695D01*
X351887Y232607D01*
X351870Y232520D01*
X351850Y232434D01*
X351825Y232349D01*
X351798Y232264D01*
X351766Y232181D01*
X351732Y232100D01*
X351693Y232020D01*
X351652Y231942D01*
X351607Y231865D01*
X351559Y231791D01*
X351508Y231718D01*
X351454Y231648D01*
X351396Y231581D01*
X351336Y231515D01*
X351274Y231453D01*
X351208Y231393D01*
X351141Y231335D01*
X351071Y231281D01*
X350998Y231230D01*
X350924Y231182D01*
X350847Y231137D01*
X350769Y231096D01*
X350689Y231057D01*
X350608Y231023D01*
X350525Y230991D01*
X350440Y230964D01*
X350355Y230939D01*
X350269Y230919D01*
X350182Y230902D01*
X350094Y230889D01*
X350006Y230880D01*
X349918Y230874D01*
X349829Y230872D01*
X349829Y230871D02*
X344607Y230871D01*
X344516Y230873D01*
X344425Y230879D01*
X344334Y230889D01*
X344244Y230903D01*
X344155Y230921D01*
X344066Y230942D01*
X343979Y230968D01*
X343893Y230997D01*
X343808Y231030D01*
X343724Y231067D01*
X343642Y231107D01*
X343563Y231151D01*
X343485Y231198D01*
X343409Y231249D01*
X343335Y231303D01*
X343264Y231360D01*
X343196Y231420D01*
X343130Y231483D01*
X343067Y231549D01*
X343007Y231617D01*
X342950Y231688D01*
X342896Y231762D01*
X342845Y231838D01*
X342798Y231915D01*
X342754Y231995D01*
X342714Y232077D01*
X342677Y232161D01*
X342644Y232245D01*
X342615Y232332D01*
X342589Y232419D01*
X342568Y232508D01*
X342550Y232597D01*
X342536Y232687D01*
X342526Y232778D01*
X342520Y232869D01*
X342518Y232960D01*
X342519Y232960D02*
X342519Y235048D01*
X347218Y240320D02*
X347433Y240317D01*
X347648Y240310D01*
X347863Y240297D01*
X348077Y240279D01*
X348291Y240255D01*
X348504Y240227D01*
X348716Y240194D01*
X348928Y240155D01*
X349138Y240111D01*
X349348Y240063D01*
X349556Y240009D01*
X349763Y239950D01*
X349968Y239886D01*
X350172Y239818D01*
X350374Y239744D01*
X350575Y239666D01*
X350773Y239583D01*
X350969Y239495D01*
X351163Y239402D01*
X351355Y239305D01*
X351545Y239203D01*
X351732Y239097D01*
X351916Y238986D01*
X352098Y238871D01*
X352276Y238752D01*
X352452Y238628D01*
X352625Y238500D01*
X352795Y238368D01*
X352961Y238232D01*
X347218Y240320D02*
X347003Y240317D01*
X346788Y240310D01*
X346573Y240297D01*
X346359Y240279D01*
X346145Y240255D01*
X345932Y240227D01*
X345720Y240194D01*
X345508Y240155D01*
X345298Y240111D01*
X345088Y240063D01*
X344880Y240009D01*
X344673Y239950D01*
X344468Y239886D01*
X344264Y239818D01*
X344062Y239744D01*
X343861Y239666D01*
X343663Y239583D01*
X343467Y239495D01*
X343273Y239402D01*
X343081Y239305D01*
X342891Y239203D01*
X342704Y239097D01*
X342520Y238986D01*
X342339Y238871D01*
X342160Y238752D01*
X341984Y238628D01*
X341811Y238500D01*
X341641Y238368D01*
X341475Y238232D01*
X342519Y247180D02*
X342521Y247275D01*
X342527Y247369D01*
X342536Y247463D01*
X342549Y247557D01*
X342566Y247650D01*
X342587Y247742D01*
X342612Y247834D01*
X342640Y247924D01*
X342672Y248013D01*
X342707Y248101D01*
X342746Y248187D01*
X342788Y248272D01*
X342834Y248355D01*
X342883Y248436D01*
X342935Y248515D01*
X342990Y248592D01*
X343049Y248666D01*
X343110Y248738D01*
X343174Y248808D01*
X343241Y248875D01*
X343311Y248939D01*
X343383Y249000D01*
X343457Y249059D01*
X343534Y249114D01*
X343613Y249166D01*
X343694Y249215D01*
X343777Y249261D01*
X343862Y249303D01*
X343948Y249342D01*
X344036Y249377D01*
X344125Y249409D01*
X344215Y249437D01*
X344307Y249462D01*
X344399Y249483D01*
X344492Y249500D01*
X344586Y249513D01*
X344680Y249522D01*
X344774Y249528D01*
X344869Y249530D01*
X342519Y247180D02*
X342521Y247072D01*
X342527Y246963D01*
X342537Y246855D01*
X342550Y246748D01*
X342568Y246641D01*
X342589Y246534D01*
X342614Y246429D01*
X342643Y246324D01*
X342675Y246221D01*
X342712Y246119D01*
X342752Y246018D01*
X342795Y245919D01*
X342842Y245821D01*
X342893Y245725D01*
X342947Y245631D01*
X343004Y245539D01*
X343065Y245449D01*
X343129Y245361D01*
X343195Y245276D01*
X343265Y245193D01*
X343338Y245113D01*
X343414Y245035D01*
X343492Y244960D01*
X343573Y244888D01*
X343657Y244819D01*
X343743Y244753D01*
X343831Y244690D01*
X343922Y244631D01*
X344014Y244574D01*
X344109Y244521D01*
X344206Y244472D01*
X344304Y244426D01*
X344403Y244383D01*
X344505Y244344D01*
X344607Y244309D01*
X346697Y248747D02*
X346628Y248816D01*
X346557Y248882D01*
X346484Y248946D01*
X346408Y249007D01*
X346329Y249065D01*
X346249Y249119D01*
X346166Y249171D01*
X346082Y249219D01*
X345996Y249265D01*
X345908Y249306D01*
X345818Y249345D01*
X345727Y249380D01*
X345635Y249411D01*
X345542Y249439D01*
X345448Y249463D01*
X345353Y249483D01*
X345257Y249500D01*
X345160Y249513D01*
X345063Y249522D01*
X344966Y249528D01*
X344869Y249530D01*
X346696Y248746D02*
X351917Y244308D01*
X351917Y249529D01*
X347218Y253452D02*
X347033Y253454D01*
X346848Y253461D01*
X346664Y253472D01*
X346480Y253487D01*
X346296Y253507D01*
X346112Y253531D01*
X345930Y253560D01*
X345748Y253593D01*
X345567Y253630D01*
X345387Y253672D01*
X345207Y253718D01*
X345029Y253768D01*
X344853Y253822D01*
X344677Y253881D01*
X344503Y253943D01*
X344331Y254010D01*
X344160Y254081D01*
X343991Y254156D01*
X343824Y254235D01*
X343744Y254265D01*
X343665Y254298D01*
X343588Y254335D01*
X343512Y254375D01*
X343438Y254418D01*
X343366Y254464D01*
X343297Y254514D01*
X343229Y254566D01*
X343164Y254622D01*
X343101Y254680D01*
X343042Y254742D01*
X342984Y254805D01*
X342930Y254872D01*
X342879Y254940D01*
X342831Y255011D01*
X342786Y255084D01*
X342744Y255158D01*
X342706Y255235D01*
X342671Y255313D01*
X342639Y255392D01*
X342611Y255473D01*
X342587Y255555D01*
X342566Y255639D01*
X342549Y255722D01*
X342536Y255807D01*
X342527Y255892D01*
X342521Y255977D01*
X342519Y256063D01*
X342521Y256149D01*
X342527Y256234D01*
X342536Y256319D01*
X342549Y256404D01*
X342566Y256487D01*
X342587Y256571D01*
X342611Y256653D01*
X342639Y256734D01*
X342671Y256813D01*
X342706Y256891D01*
X342744Y256968D01*
X342786Y257042D01*
X342831Y257115D01*
X342879Y257186D01*
X342930Y257254D01*
X342984Y257321D01*
X343042Y257384D01*
X343101Y257446D01*
X343164Y257504D01*
X343229Y257560D01*
X343297Y257612D01*
X343366Y257662D01*
X343438Y257708D01*
X343512Y257751D01*
X343588Y257791D01*
X343665Y257828D01*
X343744Y257861D01*
X343824Y257891D01*
X343824Y257890D02*
X343991Y257969D01*
X344160Y258044D01*
X344331Y258115D01*
X344503Y258182D01*
X344677Y258244D01*
X344853Y258303D01*
X345029Y258357D01*
X345207Y258407D01*
X345387Y258453D01*
X345567Y258495D01*
X345748Y258532D01*
X345930Y258565D01*
X346112Y258594D01*
X346296Y258618D01*
X346480Y258638D01*
X346664Y258653D01*
X346848Y258664D01*
X347033Y258671D01*
X347218Y258673D01*
X347218Y253452D02*
X347403Y253454D01*
X347588Y253461D01*
X347772Y253472D01*
X347956Y253487D01*
X348140Y253507D01*
X348324Y253531D01*
X348506Y253560D01*
X348688Y253593D01*
X348869Y253630D01*
X349049Y253672D01*
X349229Y253718D01*
X349407Y253768D01*
X349583Y253822D01*
X349759Y253881D01*
X349933Y253943D01*
X350105Y254010D01*
X350276Y254081D01*
X350445Y254156D01*
X350612Y254235D01*
X350692Y254265D01*
X350771Y254298D01*
X350848Y254335D01*
X350924Y254375D01*
X350998Y254418D01*
X351070Y254464D01*
X351139Y254514D01*
X351207Y254567D01*
X351272Y254622D01*
X351335Y254681D01*
X351394Y254742D01*
X351452Y254805D01*
X351506Y254872D01*
X351557Y254940D01*
X351605Y255011D01*
X351650Y255084D01*
X351692Y255158D01*
X351730Y255235D01*
X351765Y255313D01*
X351797Y255392D01*
X351825Y255473D01*
X351849Y255555D01*
X351870Y255639D01*
X351887Y255722D01*
X351900Y255807D01*
X351909Y255892D01*
X351915Y255977D01*
X351917Y256063D01*
X350612Y257890D02*
X350445Y257969D01*
X350276Y258044D01*
X350105Y258115D01*
X349933Y258182D01*
X349759Y258244D01*
X349583Y258303D01*
X349407Y258357D01*
X349229Y258407D01*
X349049Y258453D01*
X348869Y258495D01*
X348688Y258532D01*
X348506Y258565D01*
X348324Y258594D01*
X348140Y258618D01*
X347956Y258638D01*
X347772Y258653D01*
X347588Y258664D01*
X347403Y258671D01*
X347218Y258673D01*
X350612Y257891D02*
X350692Y257861D01*
X350771Y257828D01*
X350848Y257791D01*
X350924Y257751D01*
X350998Y257708D01*
X351070Y257662D01*
X351139Y257612D01*
X351207Y257560D01*
X351272Y257504D01*
X351335Y257446D01*
X351394Y257384D01*
X351452Y257321D01*
X351506Y257254D01*
X351557Y257186D01*
X351605Y257115D01*
X351650Y257042D01*
X351692Y256968D01*
X351730Y256891D01*
X351765Y256813D01*
X351797Y256734D01*
X351825Y256653D01*
X351849Y256571D01*
X351870Y256487D01*
X351887Y256404D01*
X351900Y256319D01*
X351909Y256234D01*
X351915Y256149D01*
X351917Y256063D01*
X349829Y253974D02*
X344607Y258151D01*
X342519Y265468D02*
X342521Y265563D01*
X342527Y265657D01*
X342536Y265751D01*
X342549Y265845D01*
X342566Y265938D01*
X342587Y266030D01*
X342612Y266122D01*
X342640Y266212D01*
X342672Y266301D01*
X342707Y266389D01*
X342746Y266475D01*
X342788Y266560D01*
X342834Y266643D01*
X342883Y266724D01*
X342935Y266803D01*
X342990Y266880D01*
X343049Y266954D01*
X343110Y267026D01*
X343174Y267096D01*
X343241Y267163D01*
X343311Y267227D01*
X343383Y267288D01*
X343457Y267347D01*
X343534Y267402D01*
X343613Y267454D01*
X343694Y267503D01*
X343777Y267549D01*
X343862Y267591D01*
X343948Y267630D01*
X344036Y267665D01*
X344125Y267697D01*
X344215Y267725D01*
X344307Y267750D01*
X344399Y267771D01*
X344492Y267788D01*
X344586Y267801D01*
X344680Y267810D01*
X344774Y267816D01*
X344869Y267818D01*
X342519Y265468D02*
X342521Y265360D01*
X342527Y265251D01*
X342537Y265143D01*
X342550Y265036D01*
X342568Y264929D01*
X342589Y264822D01*
X342614Y264717D01*
X342643Y264612D01*
X342675Y264509D01*
X342712Y264407D01*
X342752Y264306D01*
X342795Y264207D01*
X342842Y264109D01*
X342893Y264013D01*
X342947Y263919D01*
X343004Y263827D01*
X343065Y263737D01*
X343129Y263649D01*
X343195Y263564D01*
X343265Y263481D01*
X343338Y263401D01*
X343414Y263323D01*
X343492Y263248D01*
X343573Y263176D01*
X343657Y263107D01*
X343743Y263041D01*
X343831Y262978D01*
X343922Y262919D01*
X344014Y262862D01*
X344109Y262809D01*
X344206Y262760D01*
X344304Y262714D01*
X344403Y262671D01*
X344505Y262632D01*
X344607Y262597D01*
X346697Y267035D02*
X346628Y267104D01*
X346557Y267170D01*
X346484Y267234D01*
X346408Y267295D01*
X346329Y267353D01*
X346249Y267407D01*
X346166Y267459D01*
X346082Y267507D01*
X345996Y267553D01*
X345908Y267594D01*
X345818Y267633D01*
X345727Y267668D01*
X345635Y267699D01*
X345542Y267727D01*
X345448Y267751D01*
X345353Y267771D01*
X345257Y267788D01*
X345160Y267801D01*
X345063Y267810D01*
X344966Y267816D01*
X344869Y267818D01*
X346696Y267034D02*
X351917Y262596D01*
X351917Y267817D01*
X344607Y271740D02*
X342519Y274351D01*
X351917Y274351D01*
X351917Y276961D02*
X351917Y271740D01*
X351917Y286066D02*
X342519Y286066D01*
X342519Y288676D01*
X342521Y288776D01*
X342527Y288876D01*
X342536Y288975D01*
X342550Y289075D01*
X342567Y289173D01*
X342588Y289271D01*
X342612Y289368D01*
X342641Y289464D01*
X342673Y289559D01*
X342708Y289652D01*
X342747Y289744D01*
X342790Y289835D01*
X342836Y289923D01*
X342886Y290010D01*
X342938Y290095D01*
X342994Y290178D01*
X343053Y290259D01*
X343116Y290337D01*
X343181Y290413D01*
X343249Y290487D01*
X343319Y290557D01*
X343393Y290625D01*
X343469Y290690D01*
X343547Y290753D01*
X343628Y290812D01*
X343711Y290868D01*
X343796Y290920D01*
X343883Y290970D01*
X343971Y291016D01*
X344062Y291059D01*
X344154Y291098D01*
X344247Y291133D01*
X344342Y291165D01*
X344438Y291194D01*
X344535Y291218D01*
X344633Y291239D01*
X344731Y291256D01*
X344831Y291270D01*
X344930Y291279D01*
X345030Y291285D01*
X345130Y291287D01*
X349306Y291287D01*
X349406Y291285D01*
X349506Y291279D01*
X349605Y291270D01*
X349705Y291256D01*
X349803Y291239D01*
X349901Y291218D01*
X349998Y291194D01*
X350094Y291165D01*
X350189Y291133D01*
X350282Y291098D01*
X350374Y291059D01*
X350465Y291016D01*
X350553Y290970D01*
X350640Y290920D01*
X350725Y290868D01*
X350808Y290812D01*
X350889Y290753D01*
X350967Y290690D01*
X351043Y290625D01*
X351117Y290557D01*
X351187Y290487D01*
X351255Y290413D01*
X351320Y290337D01*
X351383Y290259D01*
X351442Y290178D01*
X351498Y290095D01*
X351550Y290010D01*
X351600Y289923D01*
X351646Y289835D01*
X351689Y289744D01*
X351728Y289652D01*
X351763Y289559D01*
X351795Y289464D01*
X351824Y289368D01*
X351848Y289271D01*
X351869Y289173D01*
X351886Y289075D01*
X351900Y288975D01*
X351909Y288876D01*
X351915Y288776D01*
X351917Y288676D01*
X351917Y286066D01*
X348262Y297209D02*
X348262Y299558D01*
X348263Y297209D02*
X348265Y297125D01*
X348271Y297040D01*
X348281Y296957D01*
X348294Y296873D01*
X348312Y296791D01*
X348333Y296709D01*
X348358Y296628D01*
X348386Y296549D01*
X348419Y296471D01*
X348455Y296395D01*
X348494Y296320D01*
X348537Y296247D01*
X348583Y296176D01*
X348632Y296108D01*
X348684Y296042D01*
X348740Y295978D01*
X348798Y295917D01*
X348859Y295859D01*
X348923Y295803D01*
X348989Y295751D01*
X349057Y295702D01*
X349128Y295656D01*
X349201Y295613D01*
X349276Y295574D01*
X349352Y295538D01*
X349430Y295505D01*
X349509Y295477D01*
X349590Y295452D01*
X349672Y295431D01*
X349754Y295413D01*
X349838Y295400D01*
X349921Y295390D01*
X350006Y295384D01*
X350090Y295382D01*
X350174Y295384D01*
X350259Y295390D01*
X350342Y295400D01*
X350426Y295413D01*
X350508Y295431D01*
X350590Y295452D01*
X350671Y295477D01*
X350750Y295505D01*
X350828Y295538D01*
X350904Y295574D01*
X350979Y295613D01*
X351052Y295656D01*
X351123Y295702D01*
X351191Y295751D01*
X351257Y295803D01*
X351321Y295859D01*
X351382Y295917D01*
X351440Y295978D01*
X351496Y296042D01*
X351548Y296108D01*
X351597Y296176D01*
X351643Y296247D01*
X351686Y296320D01*
X351725Y296395D01*
X351761Y296471D01*
X351794Y296549D01*
X351822Y296628D01*
X351847Y296709D01*
X351868Y296791D01*
X351886Y296873D01*
X351899Y296957D01*
X351909Y297040D01*
X351915Y297125D01*
X351917Y297209D01*
X351917Y299558D01*
X347218Y299558D01*
X347141Y299556D01*
X347065Y299550D01*
X346988Y299541D01*
X346912Y299528D01*
X346837Y299511D01*
X346763Y299491D01*
X346690Y299466D01*
X346619Y299439D01*
X346548Y299408D01*
X346480Y299373D01*
X346413Y299335D01*
X346348Y299294D01*
X346285Y299250D01*
X346225Y299203D01*
X346166Y299152D01*
X346111Y299099D01*
X346058Y299044D01*
X346007Y298985D01*
X345960Y298925D01*
X345916Y298862D01*
X345875Y298797D01*
X345837Y298730D01*
X345802Y298662D01*
X345771Y298591D01*
X345744Y298520D01*
X345719Y298447D01*
X345699Y298373D01*
X345682Y298298D01*
X345669Y298222D01*
X345660Y298145D01*
X345654Y298069D01*
X345652Y297992D01*
X345652Y295903D01*
X345652Y303352D02*
X351917Y305440D01*
X345652Y307528D01*
X345652Y310926D02*
X351917Y310926D01*
X343041Y310665D02*
X342519Y310665D01*
X342519Y311187D01*
X343041Y311187D01*
X343041Y310665D01*
X342519Y318760D02*
X351917Y318760D01*
X351917Y316150D01*
X351915Y316073D01*
X351909Y315997D01*
X351900Y315920D01*
X351887Y315844D01*
X351870Y315769D01*
X351850Y315695D01*
X351825Y315622D01*
X351798Y315551D01*
X351767Y315480D01*
X351732Y315412D01*
X351694Y315345D01*
X351653Y315280D01*
X351609Y315217D01*
X351562Y315157D01*
X351511Y315098D01*
X351458Y315043D01*
X351403Y314990D01*
X351344Y314939D01*
X351284Y314892D01*
X351221Y314848D01*
X351156Y314807D01*
X351089Y314769D01*
X351021Y314734D01*
X350950Y314703D01*
X350879Y314676D01*
X350806Y314651D01*
X350732Y314631D01*
X350657Y314614D01*
X350581Y314601D01*
X350504Y314592D01*
X350428Y314586D01*
X350351Y314584D01*
X350351Y314583D02*
X347218Y314583D01*
X347218Y314584D02*
X347141Y314586D01*
X347065Y314592D01*
X346988Y314601D01*
X346912Y314614D01*
X346837Y314631D01*
X346763Y314651D01*
X346690Y314676D01*
X346619Y314703D01*
X346548Y314734D01*
X346480Y314769D01*
X346413Y314807D01*
X346348Y314848D01*
X346285Y314892D01*
X346225Y314939D01*
X346166Y314990D01*
X346111Y315043D01*
X346058Y315098D01*
X346007Y315157D01*
X345960Y315217D01*
X345916Y315280D01*
X345875Y315345D01*
X345837Y315412D01*
X345802Y315480D01*
X345771Y315551D01*
X345744Y315622D01*
X345719Y315695D01*
X345699Y315769D01*
X345682Y315844D01*
X345669Y315920D01*
X345660Y315997D01*
X345654Y316073D01*
X345652Y316150D01*
X345652Y318760D01*
X351917Y330651D02*
X351915Y330740D01*
X351909Y330828D01*
X351900Y330916D01*
X351887Y331004D01*
X351870Y331091D01*
X351850Y331177D01*
X351825Y331262D01*
X351798Y331347D01*
X351766Y331430D01*
X351732Y331511D01*
X351693Y331591D01*
X351652Y331669D01*
X351607Y331746D01*
X351559Y331820D01*
X351508Y331893D01*
X351454Y331963D01*
X351396Y332030D01*
X351336Y332096D01*
X351274Y332158D01*
X351208Y332218D01*
X351141Y332276D01*
X351071Y332330D01*
X350998Y332381D01*
X350924Y332429D01*
X350847Y332474D01*
X350769Y332515D01*
X350689Y332554D01*
X350608Y332588D01*
X350525Y332620D01*
X350440Y332647D01*
X350355Y332672D01*
X350269Y332692D01*
X350182Y332709D01*
X350094Y332722D01*
X350006Y332731D01*
X349918Y332737D01*
X349829Y332739D01*
X351917Y330651D02*
X351915Y330522D01*
X351909Y330393D01*
X351900Y330264D01*
X351887Y330136D01*
X351870Y330008D01*
X351849Y329881D01*
X351825Y329754D01*
X351797Y329628D01*
X351765Y329503D01*
X351730Y329379D01*
X351691Y329256D01*
X351648Y329134D01*
X351602Y329014D01*
X351552Y328895D01*
X351499Y328777D01*
X351443Y328661D01*
X351383Y328547D01*
X351320Y328434D01*
X351253Y328324D01*
X351184Y328215D01*
X351111Y328109D01*
X351035Y328004D01*
X350956Y327902D01*
X350874Y327803D01*
X350790Y327705D01*
X350702Y327610D01*
X350612Y327518D01*
X344607Y327780D02*
X344518Y327782D01*
X344430Y327788D01*
X344342Y327797D01*
X344254Y327810D01*
X344167Y327827D01*
X344081Y327847D01*
X343996Y327872D01*
X343911Y327899D01*
X343828Y327931D01*
X343747Y327965D01*
X343667Y328004D01*
X343589Y328045D01*
X343512Y328090D01*
X343438Y328138D01*
X343365Y328189D01*
X343295Y328243D01*
X343228Y328301D01*
X343162Y328361D01*
X343100Y328423D01*
X343040Y328489D01*
X342982Y328556D01*
X342928Y328626D01*
X342877Y328699D01*
X342829Y328773D01*
X342784Y328850D01*
X342743Y328928D01*
X342704Y329008D01*
X342670Y329089D01*
X342638Y329172D01*
X342611Y329257D01*
X342586Y329342D01*
X342566Y329428D01*
X342549Y329515D01*
X342536Y329603D01*
X342527Y329691D01*
X342521Y329779D01*
X342519Y329868D01*
X342521Y329988D01*
X342526Y330108D01*
X342536Y330227D01*
X342548Y330347D01*
X342565Y330466D01*
X342585Y330584D01*
X342609Y330702D01*
X342636Y330818D01*
X342667Y330934D01*
X342701Y331049D01*
X342739Y331163D01*
X342781Y331276D01*
X342826Y331387D01*
X342874Y331497D01*
X342925Y331605D01*
X342980Y331712D01*
X343038Y331817D01*
X343100Y331920D01*
X343164Y332021D01*
X343232Y332121D01*
X343302Y332218D01*
X346434Y328823D02*
X346386Y328745D01*
X346334Y328669D01*
X346280Y328596D01*
X346222Y328525D01*
X346161Y328456D01*
X346097Y328390D01*
X346030Y328327D01*
X345961Y328267D01*
X345889Y328210D01*
X345815Y328156D01*
X345738Y328106D01*
X345659Y328058D01*
X345579Y328015D01*
X345496Y327974D01*
X345412Y327938D01*
X345327Y327905D01*
X345240Y327876D01*
X345151Y327850D01*
X345062Y327828D01*
X344972Y327811D01*
X344882Y327797D01*
X344790Y327787D01*
X344699Y327781D01*
X344607Y327779D01*
X348002Y331695D02*
X348050Y331773D01*
X348102Y331849D01*
X348156Y331922D01*
X348214Y331993D01*
X348275Y332062D01*
X348339Y332128D01*
X348406Y332191D01*
X348475Y332251D01*
X348547Y332308D01*
X348621Y332362D01*
X348698Y332412D01*
X348777Y332460D01*
X348857Y332503D01*
X348940Y332544D01*
X349024Y332580D01*
X349109Y332613D01*
X349196Y332642D01*
X349285Y332668D01*
X349374Y332690D01*
X349464Y332707D01*
X349554Y332721D01*
X349646Y332731D01*
X349737Y332737D01*
X349829Y332739D01*
X348001Y331695D02*
X346435Y328823D01*
X342519Y336574D02*
X351917Y336574D01*
X345652Y336574D02*
X345652Y339185D01*
X345654Y339262D01*
X345660Y339338D01*
X345669Y339415D01*
X345682Y339491D01*
X345699Y339566D01*
X345719Y339640D01*
X345744Y339713D01*
X345771Y339784D01*
X345802Y339855D01*
X345837Y339923D01*
X345875Y339990D01*
X345916Y340055D01*
X345960Y340118D01*
X346007Y340178D01*
X346058Y340237D01*
X346111Y340292D01*
X346166Y340345D01*
X346225Y340396D01*
X346285Y340443D01*
X346348Y340487D01*
X346413Y340528D01*
X346480Y340566D01*
X346548Y340601D01*
X346619Y340632D01*
X346690Y340659D01*
X346763Y340684D01*
X346837Y340704D01*
X346912Y340721D01*
X346988Y340734D01*
X347064Y340743D01*
X347141Y340749D01*
X347218Y340751D01*
X351917Y340751D01*
X348262Y346586D02*
X348262Y348935D01*
X348263Y346586D02*
X348265Y346502D01*
X348271Y346417D01*
X348281Y346334D01*
X348294Y346250D01*
X348312Y346168D01*
X348333Y346086D01*
X348358Y346005D01*
X348386Y345926D01*
X348419Y345848D01*
X348455Y345772D01*
X348494Y345697D01*
X348537Y345624D01*
X348583Y345553D01*
X348632Y345485D01*
X348684Y345419D01*
X348740Y345355D01*
X348798Y345294D01*
X348859Y345236D01*
X348923Y345180D01*
X348989Y345128D01*
X349057Y345079D01*
X349128Y345033D01*
X349201Y344990D01*
X349276Y344951D01*
X349352Y344915D01*
X349430Y344882D01*
X349509Y344854D01*
X349590Y344829D01*
X349672Y344808D01*
X349754Y344790D01*
X349838Y344777D01*
X349921Y344767D01*
X350006Y344761D01*
X350090Y344759D01*
X350174Y344761D01*
X350259Y344767D01*
X350342Y344777D01*
X350426Y344790D01*
X350508Y344808D01*
X350590Y344829D01*
X350671Y344854D01*
X350750Y344882D01*
X350828Y344915D01*
X350904Y344951D01*
X350979Y344990D01*
X351052Y345033D01*
X351123Y345079D01*
X351191Y345128D01*
X351257Y345180D01*
X351321Y345236D01*
X351382Y345294D01*
X351440Y345355D01*
X351496Y345419D01*
X351548Y345485D01*
X351597Y345553D01*
X351643Y345624D01*
X351686Y345697D01*
X351725Y345772D01*
X351761Y345848D01*
X351794Y345926D01*
X351822Y346005D01*
X351847Y346086D01*
X351868Y346168D01*
X351886Y346250D01*
X351899Y346334D01*
X351909Y346417D01*
X351915Y346502D01*
X351917Y346586D01*
X351917Y348935D01*
X347218Y348935D01*
X347141Y348933D01*
X347065Y348927D01*
X346988Y348918D01*
X346912Y348905D01*
X346837Y348888D01*
X346763Y348868D01*
X346690Y348843D01*
X346619Y348816D01*
X346548Y348785D01*
X346480Y348750D01*
X346413Y348712D01*
X346348Y348671D01*
X346285Y348627D01*
X346225Y348580D01*
X346166Y348529D01*
X346111Y348476D01*
X346058Y348421D01*
X346007Y348362D01*
X345960Y348302D01*
X345916Y348239D01*
X345875Y348174D01*
X345837Y348107D01*
X345802Y348039D01*
X345771Y347968D01*
X345744Y347897D01*
X345719Y347824D01*
X345699Y347750D01*
X345682Y347675D01*
X345669Y347599D01*
X345660Y347522D01*
X345654Y347446D01*
X345652Y347369D01*
X345652Y345280D01*
X342519Y357165D02*
X351917Y357165D01*
X351917Y354554D01*
X351915Y354477D01*
X351909Y354401D01*
X351900Y354324D01*
X351887Y354248D01*
X351870Y354173D01*
X351850Y354099D01*
X351825Y354026D01*
X351798Y353955D01*
X351767Y353884D01*
X351732Y353816D01*
X351694Y353749D01*
X351653Y353684D01*
X351609Y353621D01*
X351562Y353561D01*
X351511Y353502D01*
X351458Y353447D01*
X351403Y353394D01*
X351344Y353343D01*
X351284Y353296D01*
X351221Y353252D01*
X351156Y353211D01*
X351089Y353173D01*
X351021Y353138D01*
X350950Y353107D01*
X350879Y353080D01*
X350806Y353055D01*
X350732Y353035D01*
X350657Y353018D01*
X350581Y353005D01*
X350504Y352996D01*
X350428Y352990D01*
X350351Y352988D01*
X347218Y352988D01*
X347141Y352990D01*
X347065Y352996D01*
X346988Y353005D01*
X346912Y353018D01*
X346837Y353035D01*
X346763Y353055D01*
X346690Y353080D01*
X346619Y353107D01*
X346548Y353138D01*
X346480Y353173D01*
X346413Y353211D01*
X346348Y353252D01*
X346285Y353296D01*
X346225Y353343D01*
X346166Y353394D01*
X346111Y353447D01*
X346058Y353502D01*
X346007Y353561D01*
X345960Y353621D01*
X345916Y353684D01*
X345875Y353749D01*
X345837Y353816D01*
X345802Y353884D01*
X345771Y353955D01*
X345744Y354026D01*
X345719Y354099D01*
X345699Y354173D01*
X345682Y354248D01*
X345669Y354324D01*
X345660Y354401D01*
X345654Y354477D01*
X345652Y354554D01*
X345652Y357165D01*
X347740Y361263D02*
X349829Y361263D01*
X347740Y361264D02*
X347650Y361266D01*
X347561Y361272D01*
X347471Y361281D01*
X347382Y361295D01*
X347294Y361312D01*
X347207Y361333D01*
X347120Y361358D01*
X347035Y361387D01*
X346951Y361419D01*
X346869Y361454D01*
X346788Y361494D01*
X346709Y361536D01*
X346632Y361582D01*
X346557Y361632D01*
X346484Y361684D01*
X346413Y361740D01*
X346345Y361798D01*
X346280Y361860D01*
X346217Y361924D01*
X346157Y361991D01*
X346100Y362060D01*
X346046Y362132D01*
X345995Y362206D01*
X345947Y362282D01*
X345903Y362360D01*
X345862Y362440D01*
X345824Y362522D01*
X345790Y362605D01*
X345760Y362690D01*
X345733Y362776D01*
X345710Y362862D01*
X345691Y362950D01*
X345676Y363039D01*
X345664Y363128D01*
X345656Y363217D01*
X345652Y363307D01*
X345652Y363397D01*
X345656Y363487D01*
X345664Y363576D01*
X345676Y363665D01*
X345691Y363754D01*
X345710Y363842D01*
X345733Y363928D01*
X345760Y364014D01*
X345790Y364099D01*
X345824Y364182D01*
X345862Y364264D01*
X345903Y364344D01*
X345947Y364422D01*
X345995Y364498D01*
X346046Y364572D01*
X346100Y364644D01*
X346157Y364713D01*
X346217Y364780D01*
X346280Y364844D01*
X346345Y364906D01*
X346413Y364964D01*
X346484Y365020D01*
X346557Y365072D01*
X346632Y365122D01*
X346709Y365168D01*
X346788Y365210D01*
X346869Y365250D01*
X346951Y365285D01*
X347035Y365317D01*
X347120Y365346D01*
X347207Y365371D01*
X347294Y365392D01*
X347382Y365409D01*
X347471Y365423D01*
X347561Y365432D01*
X347650Y365438D01*
X347740Y365440D01*
X349829Y365440D01*
X349919Y365438D01*
X350008Y365432D01*
X350098Y365423D01*
X350187Y365409D01*
X350275Y365392D01*
X350362Y365371D01*
X350449Y365346D01*
X350534Y365317D01*
X350618Y365285D01*
X350700Y365250D01*
X350781Y365210D01*
X350860Y365168D01*
X350937Y365122D01*
X351012Y365072D01*
X351085Y365020D01*
X351156Y364964D01*
X351224Y364906D01*
X351289Y364844D01*
X351352Y364780D01*
X351412Y364713D01*
X351469Y364644D01*
X351523Y364572D01*
X351574Y364498D01*
X351622Y364422D01*
X351666Y364344D01*
X351707Y364264D01*
X351745Y364182D01*
X351779Y364099D01*
X351809Y364014D01*
X351836Y363928D01*
X351859Y363842D01*
X351878Y363754D01*
X351893Y363665D01*
X351905Y363576D01*
X351913Y363487D01*
X351917Y363397D01*
X351917Y363307D01*
X351913Y363217D01*
X351905Y363128D01*
X351893Y363039D01*
X351878Y362950D01*
X351859Y362862D01*
X351836Y362776D01*
X351809Y362690D01*
X351779Y362605D01*
X351745Y362522D01*
X351707Y362440D01*
X351666Y362360D01*
X351622Y362282D01*
X351574Y362206D01*
X351523Y362132D01*
X351469Y362060D01*
X351412Y361991D01*
X351352Y361924D01*
X351289Y361860D01*
X351224Y361798D01*
X351156Y361740D01*
X351085Y361684D01*
X351012Y361632D01*
X350937Y361582D01*
X350860Y361536D01*
X350781Y361494D01*
X350700Y361454D01*
X350618Y361419D01*
X350534Y361387D01*
X350449Y361358D01*
X350362Y361333D01*
X350275Y361312D01*
X350187Y361295D01*
X350098Y361281D01*
X350008Y361272D01*
X349919Y361266D01*
X349829Y361264D01*
X351917Y369692D02*
X344085Y369692D01*
X344085Y369693D02*
X344008Y369695D01*
X343932Y369701D01*
X343855Y369710D01*
X343779Y369723D01*
X343705Y369740D01*
X343630Y369760D01*
X343557Y369785D01*
X343486Y369812D01*
X343415Y369843D01*
X343347Y369878D01*
X343280Y369916D01*
X343215Y369957D01*
X343152Y370001D01*
X343092Y370048D01*
X343033Y370099D01*
X342978Y370152D01*
X342925Y370207D01*
X342874Y370266D01*
X342827Y370326D01*
X342783Y370389D01*
X342742Y370454D01*
X342704Y370521D01*
X342669Y370589D01*
X342638Y370660D01*
X342611Y370731D01*
X342586Y370804D01*
X342566Y370878D01*
X342549Y370953D01*
X342536Y371029D01*
X342527Y371105D01*
X342521Y371182D01*
X342519Y371259D01*
X342519Y371781D01*
X345652Y371781D02*
X345652Y368648D01*
X344085Y374874D02*
X351917Y374874D01*
X344085Y374874D02*
X344008Y374876D01*
X343932Y374882D01*
X343855Y374891D01*
X343779Y374904D01*
X343705Y374921D01*
X343630Y374941D01*
X343557Y374966D01*
X343486Y374993D01*
X343415Y375024D01*
X343347Y375059D01*
X343280Y375097D01*
X343215Y375138D01*
X343152Y375182D01*
X343092Y375229D01*
X343033Y375280D01*
X342978Y375333D01*
X342925Y375388D01*
X342874Y375447D01*
X342827Y375507D01*
X342783Y375570D01*
X342742Y375635D01*
X342704Y375702D01*
X342669Y375770D01*
X342638Y375841D01*
X342611Y375912D01*
X342586Y375985D01*
X342566Y376059D01*
X342549Y376134D01*
X342536Y376210D01*
X342527Y376286D01*
X342521Y376363D01*
X342519Y376440D01*
X342519Y376962D01*
X345652Y376962D02*
X345652Y373830D01*
X137456Y17907D02*
X137456Y12178D01*
X137454Y12100D01*
X137449Y12022D01*
X137439Y11945D01*
X137426Y11868D01*
X137410Y11792D01*
X137390Y11717D01*
X137366Y11643D01*
X137339Y11570D01*
X137308Y11498D01*
X137274Y11428D01*
X137237Y11360D01*
X137196Y11293D01*
X137152Y11228D01*
X137106Y11166D01*
X137056Y11106D01*
X137004Y11048D01*
X136949Y10993D01*
X136891Y10941D01*
X136831Y10891D01*
X136769Y10845D01*
X136704Y10801D01*
X136638Y10760D01*
X136569Y10723D01*
X136499Y10689D01*
X136427Y10658D01*
X136354Y10631D01*
X136280Y10607D01*
X136205Y10587D01*
X136129Y10571D01*
X136052Y10558D01*
X135975Y10548D01*
X135897Y10543D01*
X135819Y10541D01*
X135001Y10541D01*
X141150Y10541D02*
X141150Y17907D01*
X141150Y10541D02*
X144424Y10541D01*
X148844Y10541D02*
X150481Y10541D01*
X148844Y10541D02*
X148766Y10543D01*
X148688Y10548D01*
X148611Y10558D01*
X148534Y10571D01*
X148458Y10587D01*
X148383Y10607D01*
X148309Y10631D01*
X148236Y10658D01*
X148164Y10689D01*
X148094Y10723D01*
X148026Y10760D01*
X147959Y10801D01*
X147894Y10845D01*
X147832Y10891D01*
X147772Y10941D01*
X147714Y10993D01*
X147659Y11048D01*
X147607Y11106D01*
X147557Y11166D01*
X147511Y11228D01*
X147467Y11293D01*
X147426Y11360D01*
X147389Y11428D01*
X147355Y11498D01*
X147324Y11570D01*
X147297Y11643D01*
X147273Y11717D01*
X147253Y11792D01*
X147237Y11868D01*
X147224Y11945D01*
X147214Y12022D01*
X147209Y12100D01*
X147207Y12178D01*
X147208Y12178D02*
X147208Y16270D01*
X147207Y16270D02*
X147209Y16350D01*
X147215Y16430D01*
X147225Y16510D01*
X147238Y16589D01*
X147256Y16668D01*
X147277Y16745D01*
X147303Y16821D01*
X147332Y16896D01*
X147364Y16970D01*
X147400Y17042D01*
X147440Y17112D01*
X147483Y17179D01*
X147529Y17245D01*
X147579Y17308D01*
X147631Y17369D01*
X147686Y17428D01*
X147745Y17483D01*
X147805Y17535D01*
X147869Y17585D01*
X147935Y17631D01*
X148002Y17674D01*
X148072Y17714D01*
X148144Y17750D01*
X148218Y17782D01*
X148292Y17811D01*
X148369Y17837D01*
X148446Y17858D01*
X148525Y17876D01*
X148604Y17889D01*
X148684Y17899D01*
X148764Y17905D01*
X148844Y17907D01*
X150481Y17907D01*
X155013Y17907D02*
X155013Y12178D01*
X155011Y12100D01*
X155006Y12022D01*
X154996Y11945D01*
X154983Y11868D01*
X154967Y11792D01*
X154947Y11717D01*
X154923Y11643D01*
X154896Y11570D01*
X154865Y11498D01*
X154831Y11428D01*
X154794Y11360D01*
X154753Y11293D01*
X154709Y11228D01*
X154663Y11166D01*
X154613Y11106D01*
X154561Y11048D01*
X154506Y10993D01*
X154448Y10941D01*
X154388Y10891D01*
X154326Y10845D01*
X154261Y10801D01*
X154195Y10760D01*
X154126Y10723D01*
X154056Y10689D01*
X153984Y10658D01*
X153911Y10631D01*
X153837Y10607D01*
X153762Y10587D01*
X153686Y10571D01*
X153609Y10558D01*
X153532Y10548D01*
X153454Y10543D01*
X153376Y10541D01*
X152557Y10541D01*
X158707Y10541D02*
X158707Y17907D01*
X158707Y10541D02*
X161980Y10541D01*
X166401Y10541D02*
X168038Y10541D01*
X166401Y10541D02*
X166323Y10543D01*
X166245Y10548D01*
X166168Y10558D01*
X166091Y10571D01*
X166015Y10587D01*
X165940Y10607D01*
X165866Y10631D01*
X165793Y10658D01*
X165721Y10689D01*
X165651Y10723D01*
X165583Y10760D01*
X165516Y10801D01*
X165451Y10845D01*
X165389Y10891D01*
X165329Y10941D01*
X165271Y10993D01*
X165216Y11048D01*
X165164Y11106D01*
X165114Y11166D01*
X165068Y11228D01*
X165024Y11293D01*
X164983Y11360D01*
X164946Y11428D01*
X164912Y11498D01*
X164881Y11570D01*
X164854Y11643D01*
X164830Y11717D01*
X164810Y11792D01*
X164794Y11868D01*
X164781Y11945D01*
X164771Y12022D01*
X164766Y12100D01*
X164764Y12178D01*
X164764Y16270D01*
X164766Y16350D01*
X164772Y16430D01*
X164782Y16510D01*
X164795Y16589D01*
X164813Y16668D01*
X164834Y16745D01*
X164860Y16821D01*
X164889Y16896D01*
X164921Y16970D01*
X164957Y17042D01*
X164997Y17112D01*
X165040Y17179D01*
X165086Y17245D01*
X165136Y17308D01*
X165188Y17369D01*
X165243Y17428D01*
X165302Y17483D01*
X165362Y17535D01*
X165426Y17585D01*
X165492Y17631D01*
X165559Y17674D01*
X165629Y17714D01*
X165701Y17750D01*
X165775Y17782D01*
X165849Y17811D01*
X165926Y17837D01*
X166003Y17858D01*
X166082Y17876D01*
X166161Y17889D01*
X166241Y17899D01*
X166321Y17905D01*
X166401Y17907D01*
X168038Y17907D01*
X172569Y17907D02*
X172569Y12178D01*
X172567Y12100D01*
X172562Y12022D01*
X172552Y11945D01*
X172539Y11868D01*
X172523Y11792D01*
X172503Y11717D01*
X172479Y11643D01*
X172452Y11570D01*
X172421Y11498D01*
X172387Y11428D01*
X172350Y11360D01*
X172309Y11293D01*
X172265Y11228D01*
X172219Y11166D01*
X172169Y11106D01*
X172117Y11048D01*
X172062Y10993D01*
X172004Y10941D01*
X171944Y10891D01*
X171882Y10845D01*
X171817Y10801D01*
X171751Y10760D01*
X171682Y10723D01*
X171612Y10689D01*
X171540Y10658D01*
X171467Y10631D01*
X171393Y10607D01*
X171318Y10587D01*
X171242Y10571D01*
X171165Y10558D01*
X171088Y10548D01*
X171010Y10543D01*
X170932Y10541D01*
X170114Y10541D01*
X176263Y10541D02*
X176263Y17907D01*
X176263Y10541D02*
X179537Y10541D01*
X183957Y10541D02*
X185594Y10541D01*
X183957Y10541D02*
X183879Y10543D01*
X183801Y10548D01*
X183724Y10558D01*
X183647Y10571D01*
X183571Y10587D01*
X183496Y10607D01*
X183422Y10631D01*
X183349Y10658D01*
X183277Y10689D01*
X183207Y10723D01*
X183139Y10760D01*
X183072Y10801D01*
X183007Y10845D01*
X182945Y10891D01*
X182885Y10941D01*
X182827Y10993D01*
X182772Y11048D01*
X182720Y11106D01*
X182670Y11166D01*
X182624Y11228D01*
X182580Y11293D01*
X182539Y11360D01*
X182502Y11428D01*
X182468Y11498D01*
X182437Y11570D01*
X182410Y11643D01*
X182386Y11717D01*
X182366Y11792D01*
X182350Y11868D01*
X182337Y11945D01*
X182327Y12022D01*
X182322Y12100D01*
X182320Y12178D01*
X182320Y16270D01*
X182322Y16350D01*
X182328Y16430D01*
X182338Y16510D01*
X182351Y16589D01*
X182369Y16668D01*
X182390Y16745D01*
X182416Y16821D01*
X182445Y16896D01*
X182477Y16970D01*
X182513Y17042D01*
X182553Y17112D01*
X182596Y17179D01*
X182642Y17245D01*
X182692Y17308D01*
X182744Y17369D01*
X182799Y17428D01*
X182858Y17483D01*
X182918Y17535D01*
X182982Y17585D01*
X183048Y17631D01*
X183115Y17674D01*
X183185Y17714D01*
X183257Y17750D01*
X183331Y17782D01*
X183405Y17811D01*
X183482Y17837D01*
X183559Y17858D01*
X183638Y17876D01*
X183717Y17889D01*
X183797Y17899D01*
X183877Y17905D01*
X183957Y17907D01*
X185594Y17907D01*
X190125Y17907D02*
X190125Y12178D01*
X190126Y12178D02*
X190124Y12100D01*
X190119Y12022D01*
X190109Y11945D01*
X190096Y11868D01*
X190080Y11792D01*
X190060Y11717D01*
X190036Y11643D01*
X190009Y11570D01*
X189978Y11498D01*
X189944Y11428D01*
X189907Y11360D01*
X189866Y11293D01*
X189822Y11228D01*
X189776Y11166D01*
X189726Y11106D01*
X189674Y11048D01*
X189619Y10993D01*
X189561Y10941D01*
X189501Y10891D01*
X189439Y10845D01*
X189374Y10801D01*
X189308Y10760D01*
X189239Y10723D01*
X189169Y10689D01*
X189097Y10658D01*
X189024Y10631D01*
X188950Y10607D01*
X188875Y10587D01*
X188799Y10571D01*
X188722Y10558D01*
X188645Y10548D01*
X188567Y10543D01*
X188489Y10541D01*
X187670Y10541D01*
X193819Y10541D02*
X193819Y17907D01*
X193819Y10541D02*
X197093Y10541D01*
X201514Y10541D02*
X203150Y10541D01*
X201514Y10541D02*
X201436Y10543D01*
X201358Y10548D01*
X201281Y10558D01*
X201204Y10571D01*
X201128Y10587D01*
X201053Y10607D01*
X200979Y10631D01*
X200906Y10658D01*
X200834Y10689D01*
X200764Y10723D01*
X200696Y10760D01*
X200629Y10801D01*
X200564Y10845D01*
X200502Y10891D01*
X200442Y10941D01*
X200384Y10993D01*
X200329Y11048D01*
X200277Y11106D01*
X200227Y11166D01*
X200181Y11228D01*
X200137Y11293D01*
X200096Y11360D01*
X200059Y11428D01*
X200025Y11498D01*
X199994Y11570D01*
X199967Y11643D01*
X199943Y11717D01*
X199923Y11792D01*
X199907Y11868D01*
X199894Y11945D01*
X199884Y12022D01*
X199879Y12100D01*
X199877Y12178D01*
X199877Y16270D01*
X199879Y16350D01*
X199885Y16430D01*
X199895Y16510D01*
X199908Y16589D01*
X199926Y16668D01*
X199947Y16745D01*
X199973Y16821D01*
X200002Y16896D01*
X200034Y16970D01*
X200070Y17042D01*
X200110Y17112D01*
X200153Y17179D01*
X200199Y17245D01*
X200249Y17308D01*
X200301Y17369D01*
X200356Y17428D01*
X200415Y17483D01*
X200475Y17535D01*
X200539Y17585D01*
X200605Y17631D01*
X200672Y17674D01*
X200742Y17714D01*
X200814Y17750D01*
X200888Y17782D01*
X200962Y17811D01*
X201039Y17837D01*
X201116Y17858D01*
X201195Y17876D01*
X201274Y17889D01*
X201354Y17899D01*
X201434Y17905D01*
X201514Y17907D01*
X203150Y17907D01*
M02*
