G04 EAGLE Gerber RS-274X export*
G75*
%MOMM*%
%FSLAX34Y34*%
%LPD*%
%INTop Copper*%
%IPPOS*%
%AMOC8*
5,1,8,0,0,1.08239X$1,22.5*%
G01*
%ADD10R,0.850000X0.300000*%
%ADD11C,1.408000*%
%ADD12C,1.500000*%
%ADD13R,0.700000X0.900000*%
%ADD14R,0.900000X0.700000*%
%ADD15R,1.500000X1.300000*%
%ADD16C,1.879600*%
%ADD17C,0.304800*%
%ADD18C,0.762000*%
%ADD19C,0.152400*%


D10*
X108710Y46870D03*
X108710Y41870D03*
X108710Y36870D03*
X108710Y31870D03*
X140210Y31870D03*
X140210Y36870D03*
X140210Y41870D03*
X140210Y46870D03*
D11*
X84790Y276148D03*
X110790Y276148D03*
X63790Y276148D03*
X84790Y251148D03*
X131790Y276148D03*
X63790Y251148D03*
X106790Y251148D03*
X131790Y251148D03*
D12*
X105290Y314148D02*
X90290Y314148D01*
X30290Y313648D02*
X30290Y298648D01*
X165290Y298648D02*
X165290Y313648D01*
D10*
X108710Y100210D03*
X108710Y95210D03*
X108710Y90210D03*
X108710Y85210D03*
X140210Y85210D03*
X140210Y90210D03*
X140210Y95210D03*
X140210Y100210D03*
D13*
X102720Y66040D03*
X115720Y66040D03*
X146200Y66040D03*
X133200Y66040D03*
X102720Y118110D03*
X115720Y118110D03*
X146200Y118110D03*
X133200Y118110D03*
D14*
X55880Y172570D03*
X55880Y185570D03*
X43180Y172570D03*
X43180Y185570D03*
X68580Y172570D03*
X68580Y185570D03*
X81280Y172570D03*
X81280Y185570D03*
D10*
X108710Y157360D03*
X108710Y152360D03*
X108710Y147360D03*
X108710Y142360D03*
X140210Y142360D03*
X140210Y147360D03*
X140210Y152360D03*
X140210Y157360D03*
D13*
X102720Y175260D03*
X115720Y175260D03*
X146200Y175260D03*
X133200Y175260D03*
D15*
X53340Y18440D03*
X53340Y37440D03*
D16*
X173990Y176530D03*
X173990Y151130D03*
X173990Y125730D03*
X173990Y100330D03*
X173990Y74930D03*
X173990Y49530D03*
X173990Y24130D03*
X21590Y176530D03*
X21590Y151130D03*
X21590Y125730D03*
X21590Y100330D03*
X21590Y74930D03*
X21590Y49530D03*
X21590Y24130D03*
D15*
X53340Y80620D03*
X53340Y61620D03*
D17*
X96978Y314198D02*
X97790Y314148D01*
X96978Y314198D02*
X39370Y314198D01*
X156528Y314148D02*
X165290Y306148D01*
X156528Y314148D02*
X97790Y314148D01*
X53340Y49530D02*
X21590Y49530D01*
X53340Y49530D02*
X53340Y61620D01*
X53340Y49530D02*
X53340Y37440D01*
D18*
X124460Y166370D03*
D17*
X124460Y175260D01*
X115720Y175260D01*
X124460Y175260D02*
X133200Y175260D01*
D18*
X124460Y72390D03*
X124460Y129540D03*
D17*
X124460Y118110D02*
X115720Y118110D01*
X124460Y118110D02*
X133200Y118110D01*
X124460Y118110D02*
X124460Y129540D01*
X124460Y72390D02*
X124460Y66040D01*
X115720Y66040D01*
X124460Y66040D02*
X133200Y66040D01*
D18*
X91440Y78740D03*
D17*
X91850Y78740D01*
D18*
X154940Y76200D03*
X91440Y135890D03*
X148590Y17780D03*
X88900Y26670D03*
D17*
X31320Y306148D02*
X39370Y314198D01*
X31320Y306148D02*
X30290Y306148D01*
X97910Y142360D02*
X108710Y142360D01*
X97910Y142360D02*
X91440Y135890D01*
X98320Y85210D02*
X108710Y85210D01*
X98320Y85210D02*
X91850Y78740D01*
X140210Y85210D02*
X145930Y85210D01*
X154940Y76200D01*
X108710Y31870D02*
X94100Y31870D01*
X140210Y31870D02*
X145930Y31870D01*
X148590Y29210D02*
X148590Y17780D01*
X148590Y29210D02*
X145930Y31870D01*
X94100Y31870D02*
X88900Y26670D01*
D18*
X88900Y146050D03*
D19*
X90210Y147360D02*
X108710Y147360D01*
X90210Y147360D02*
X88900Y146050D01*
D18*
X88900Y156210D03*
D19*
X92750Y152360D02*
X108710Y152360D01*
X92750Y152360D02*
X88900Y156210D01*
D17*
X27280Y80620D02*
X21590Y74930D01*
X27280Y80620D02*
X53340Y80620D01*
X21590Y74930D02*
X7620Y60960D01*
X7620Y15240D01*
X15240Y7620D01*
X132080Y8890D02*
X132080Y44450D01*
X146200Y53490D02*
X146200Y66040D01*
X127000Y82700D02*
X127000Y99060D01*
X145230Y103730D02*
X145230Y117140D01*
X146200Y118110D01*
X130810Y133500D01*
X146500Y174960D02*
X146200Y175260D01*
X146500Y174960D02*
X146500Y162150D01*
X130810Y7620D02*
X15240Y7620D01*
X130810Y7620D02*
X132080Y8890D01*
X134060Y75640D02*
X127000Y82700D01*
X144780Y67460D02*
X146200Y66040D01*
X144780Y67460D02*
X144780Y74930D01*
X144070Y75640D01*
X134060Y75640D01*
X140210Y157360D02*
X145000Y162150D01*
X146500Y162150D01*
X135150Y157360D02*
X130810Y153021D01*
X135150Y157360D02*
X140210Y157360D01*
X130810Y153021D02*
X130810Y133500D01*
X143730Y103730D02*
X140210Y100210D01*
X143730Y103730D02*
X145230Y103730D01*
X128150Y100210D02*
X127000Y99060D01*
X128150Y100210D02*
X140210Y100210D01*
X140210Y47500D02*
X140210Y46870D01*
X140210Y47500D02*
X146200Y53490D01*
X134500Y46870D02*
X132080Y44450D01*
X134500Y46870D02*
X140210Y46870D01*
X27280Y18440D02*
X21590Y24130D01*
X27280Y18440D02*
X53340Y18440D01*
X116230Y18440D01*
X119380Y21590D01*
X119380Y43180D01*
X102720Y51360D02*
X102720Y66040D01*
X121920Y81430D02*
X121920Y99060D01*
X102870Y117960D02*
X102720Y118110D01*
X102870Y117960D02*
X102870Y104550D01*
X102720Y118110D02*
X119380Y134770D01*
X119380Y158600D02*
X102720Y175260D01*
X119380Y158600D02*
X119380Y134770D01*
X102720Y73510D02*
X102720Y66040D01*
X105602Y76392D02*
X116882Y76392D01*
X105602Y76392D02*
X102720Y73510D01*
X116882Y76392D02*
X121920Y81430D01*
X102720Y175260D02*
X102720Y184000D01*
X105410Y186690D02*
X123190Y186690D01*
D18*
X123190Y186690D03*
X156210Y132080D03*
D17*
X156210Y136750D01*
X105410Y186690D02*
X102720Y184000D01*
X140210Y142360D02*
X150600Y142360D01*
X156210Y136750D01*
X108710Y157360D02*
X102720Y163350D01*
X102720Y175260D01*
X120770Y100210D02*
X121920Y99060D01*
X120770Y100210D02*
X108710Y100210D01*
X107210Y100210D01*
X102870Y104550D01*
X115690Y46870D02*
X119380Y43180D01*
X115690Y46870D02*
X108710Y46870D01*
X107210Y46870D01*
X102720Y51360D01*
D19*
X43180Y288290D02*
X49530Y294640D01*
X43180Y288290D02*
X43180Y185570D01*
X131790Y276148D02*
X113298Y294640D01*
X49530Y294640D01*
X84790Y251148D02*
X55880Y222238D01*
X55880Y185570D01*
X68580Y185570D02*
X68580Y215900D01*
X96520Y243840D02*
X96520Y259080D01*
X91440Y264160D01*
X75778Y264160D02*
X63790Y276148D01*
X96520Y243840D02*
X68580Y215900D01*
X75778Y264160D02*
X91440Y264160D01*
X81280Y191770D02*
X81280Y185570D01*
X81280Y191770D02*
X116840Y227330D01*
X116840Y270098D02*
X110790Y276148D01*
X116840Y270098D02*
X116840Y227330D01*
X166370Y24130D02*
X173990Y24130D01*
X153630Y36870D02*
X140210Y36870D01*
X153630Y36870D02*
X166370Y24130D01*
X166370Y49530D02*
X173990Y49530D01*
X158710Y41870D02*
X140210Y41870D01*
X158710Y41870D02*
X166370Y49530D01*
X168910Y74930D02*
X173990Y74930D01*
X153630Y90210D02*
X140210Y90210D01*
X153630Y90210D02*
X168910Y74930D01*
X156920Y95960D02*
X158115Y97155D01*
X161290Y100330D01*
X173990Y100330D01*
X156170Y95210D02*
X140210Y95210D01*
X156170Y95210D02*
X156920Y95960D01*
X172760Y152360D02*
X140210Y152360D01*
X172760Y152360D02*
X173990Y151130D01*
X153670Y146050D02*
X153110Y146610D01*
X153670Y146050D02*
X173990Y125730D01*
X152360Y147360D02*
X140210Y147360D01*
X152360Y147360D02*
X153110Y146610D01*
X43180Y121920D02*
X43180Y172570D01*
X67310Y50800D02*
X80645Y37465D01*
X67310Y50800D02*
X67310Y97790D01*
X43180Y121920D01*
X81240Y36870D02*
X108710Y36870D01*
X81240Y36870D02*
X80645Y37465D01*
X71120Y100330D02*
X55880Y115570D01*
X55880Y172570D01*
X71120Y100330D02*
X71120Y59690D01*
X88940Y41870D02*
X108710Y41870D01*
X88940Y41870D02*
X71120Y59690D01*
X88900Y90170D02*
X68580Y110490D01*
X68580Y172570D01*
X88940Y90210D02*
X108710Y90210D01*
X88940Y90210D02*
X88900Y90170D01*
X81280Y109220D02*
X81280Y172570D01*
X95290Y95210D02*
X108710Y95210D01*
X95290Y95210D02*
X81280Y109220D01*
M02*
