G04 EAGLE Gerber RS-274X export*
G75*
%MOMM*%
%FSLAX34Y34*%
%LPD*%
%INSilkscreen Top*%
%IPPOS*%
%AMOC8*
5,1,8,0,0,1.08239X$1,22.5*%
G01*
%ADD10C,0.076200*%
%ADD11C,0.200000*%
%ADD12C,0.100000*%


D10*
X63796Y340487D02*
X63796Y334758D01*
X63794Y334680D01*
X63789Y334602D01*
X63779Y334525D01*
X63766Y334448D01*
X63750Y334372D01*
X63730Y334297D01*
X63706Y334223D01*
X63679Y334150D01*
X63648Y334078D01*
X63614Y334008D01*
X63577Y333940D01*
X63536Y333873D01*
X63492Y333808D01*
X63446Y333746D01*
X63396Y333686D01*
X63344Y333628D01*
X63289Y333573D01*
X63231Y333521D01*
X63171Y333471D01*
X63109Y333425D01*
X63044Y333381D01*
X62978Y333340D01*
X62909Y333303D01*
X62839Y333269D01*
X62767Y333238D01*
X62694Y333211D01*
X62620Y333187D01*
X62545Y333167D01*
X62469Y333151D01*
X62392Y333138D01*
X62315Y333128D01*
X62237Y333123D01*
X62159Y333121D01*
X61341Y333121D01*
X67490Y333121D02*
X67490Y340487D01*
X67490Y333121D02*
X70764Y333121D01*
X75184Y333121D02*
X76821Y333121D01*
X75184Y333121D02*
X75106Y333123D01*
X75028Y333128D01*
X74951Y333138D01*
X74874Y333151D01*
X74798Y333167D01*
X74723Y333187D01*
X74649Y333211D01*
X74576Y333238D01*
X74504Y333269D01*
X74434Y333303D01*
X74366Y333340D01*
X74299Y333381D01*
X74234Y333425D01*
X74172Y333471D01*
X74112Y333521D01*
X74054Y333573D01*
X73999Y333628D01*
X73947Y333686D01*
X73897Y333746D01*
X73851Y333808D01*
X73807Y333873D01*
X73766Y333940D01*
X73729Y334008D01*
X73695Y334078D01*
X73664Y334150D01*
X73637Y334223D01*
X73613Y334297D01*
X73593Y334372D01*
X73577Y334448D01*
X73564Y334525D01*
X73554Y334602D01*
X73549Y334680D01*
X73547Y334758D01*
X73548Y334758D02*
X73548Y338850D01*
X73547Y338850D02*
X73549Y338930D01*
X73555Y339010D01*
X73565Y339090D01*
X73578Y339169D01*
X73596Y339248D01*
X73617Y339325D01*
X73643Y339401D01*
X73672Y339476D01*
X73704Y339550D01*
X73740Y339622D01*
X73780Y339692D01*
X73823Y339759D01*
X73869Y339825D01*
X73919Y339888D01*
X73971Y339949D01*
X74026Y340008D01*
X74085Y340063D01*
X74145Y340115D01*
X74209Y340165D01*
X74275Y340211D01*
X74342Y340254D01*
X74412Y340294D01*
X74484Y340330D01*
X74558Y340362D01*
X74632Y340391D01*
X74709Y340417D01*
X74786Y340438D01*
X74865Y340456D01*
X74944Y340469D01*
X75024Y340479D01*
X75104Y340485D01*
X75184Y340487D01*
X76821Y340487D01*
X81353Y340487D02*
X81353Y334758D01*
X81351Y334680D01*
X81346Y334602D01*
X81336Y334525D01*
X81323Y334448D01*
X81307Y334372D01*
X81287Y334297D01*
X81263Y334223D01*
X81236Y334150D01*
X81205Y334078D01*
X81171Y334008D01*
X81134Y333940D01*
X81093Y333873D01*
X81049Y333808D01*
X81003Y333746D01*
X80953Y333686D01*
X80901Y333628D01*
X80846Y333573D01*
X80788Y333521D01*
X80728Y333471D01*
X80666Y333425D01*
X80601Y333381D01*
X80535Y333340D01*
X80466Y333303D01*
X80396Y333269D01*
X80324Y333238D01*
X80251Y333211D01*
X80177Y333187D01*
X80102Y333167D01*
X80026Y333151D01*
X79949Y333138D01*
X79872Y333128D01*
X79794Y333123D01*
X79716Y333121D01*
X78897Y333121D01*
X85047Y333121D02*
X85047Y340487D01*
X85047Y333121D02*
X88320Y333121D01*
X92741Y333121D02*
X94378Y333121D01*
X92741Y333121D02*
X92663Y333123D01*
X92585Y333128D01*
X92508Y333138D01*
X92431Y333151D01*
X92355Y333167D01*
X92280Y333187D01*
X92206Y333211D01*
X92133Y333238D01*
X92061Y333269D01*
X91991Y333303D01*
X91923Y333340D01*
X91856Y333381D01*
X91791Y333425D01*
X91729Y333471D01*
X91669Y333521D01*
X91611Y333573D01*
X91556Y333628D01*
X91504Y333686D01*
X91454Y333746D01*
X91408Y333808D01*
X91364Y333873D01*
X91323Y333940D01*
X91286Y334008D01*
X91252Y334078D01*
X91221Y334150D01*
X91194Y334223D01*
X91170Y334297D01*
X91150Y334372D01*
X91134Y334448D01*
X91121Y334525D01*
X91111Y334602D01*
X91106Y334680D01*
X91104Y334758D01*
X91104Y338850D01*
X91106Y338930D01*
X91112Y339010D01*
X91122Y339090D01*
X91135Y339169D01*
X91153Y339248D01*
X91174Y339325D01*
X91200Y339401D01*
X91229Y339476D01*
X91261Y339550D01*
X91297Y339622D01*
X91337Y339692D01*
X91380Y339759D01*
X91426Y339825D01*
X91476Y339888D01*
X91528Y339949D01*
X91583Y340008D01*
X91642Y340063D01*
X91702Y340115D01*
X91766Y340165D01*
X91832Y340211D01*
X91899Y340254D01*
X91969Y340294D01*
X92041Y340330D01*
X92115Y340362D01*
X92189Y340391D01*
X92266Y340417D01*
X92343Y340438D01*
X92422Y340456D01*
X92501Y340469D01*
X92581Y340479D01*
X92661Y340485D01*
X92741Y340487D01*
X94378Y340487D01*
X98909Y340487D02*
X98909Y334758D01*
X98907Y334680D01*
X98902Y334602D01*
X98892Y334525D01*
X98879Y334448D01*
X98863Y334372D01*
X98843Y334297D01*
X98819Y334223D01*
X98792Y334150D01*
X98761Y334078D01*
X98727Y334008D01*
X98690Y333940D01*
X98649Y333873D01*
X98605Y333808D01*
X98559Y333746D01*
X98509Y333686D01*
X98457Y333628D01*
X98402Y333573D01*
X98344Y333521D01*
X98284Y333471D01*
X98222Y333425D01*
X98157Y333381D01*
X98091Y333340D01*
X98022Y333303D01*
X97952Y333269D01*
X97880Y333238D01*
X97807Y333211D01*
X97733Y333187D01*
X97658Y333167D01*
X97582Y333151D01*
X97505Y333138D01*
X97428Y333128D01*
X97350Y333123D01*
X97272Y333121D01*
X96454Y333121D01*
X102603Y333121D02*
X102603Y340487D01*
X102603Y333121D02*
X105877Y333121D01*
X110297Y333121D02*
X111934Y333121D01*
X110297Y333121D02*
X110219Y333123D01*
X110141Y333128D01*
X110064Y333138D01*
X109987Y333151D01*
X109911Y333167D01*
X109836Y333187D01*
X109762Y333211D01*
X109689Y333238D01*
X109617Y333269D01*
X109547Y333303D01*
X109479Y333340D01*
X109412Y333381D01*
X109347Y333425D01*
X109285Y333471D01*
X109225Y333521D01*
X109167Y333573D01*
X109112Y333628D01*
X109060Y333686D01*
X109010Y333746D01*
X108964Y333808D01*
X108920Y333873D01*
X108879Y333940D01*
X108842Y334008D01*
X108808Y334078D01*
X108777Y334150D01*
X108750Y334223D01*
X108726Y334297D01*
X108706Y334372D01*
X108690Y334448D01*
X108677Y334525D01*
X108667Y334602D01*
X108662Y334680D01*
X108660Y334758D01*
X108660Y338850D01*
X108662Y338930D01*
X108668Y339010D01*
X108678Y339090D01*
X108691Y339169D01*
X108709Y339248D01*
X108730Y339325D01*
X108756Y339401D01*
X108785Y339476D01*
X108817Y339550D01*
X108853Y339622D01*
X108893Y339692D01*
X108936Y339759D01*
X108982Y339825D01*
X109032Y339888D01*
X109084Y339949D01*
X109139Y340008D01*
X109198Y340063D01*
X109258Y340115D01*
X109322Y340165D01*
X109388Y340211D01*
X109455Y340254D01*
X109525Y340294D01*
X109597Y340330D01*
X109671Y340362D01*
X109745Y340391D01*
X109822Y340417D01*
X109899Y340438D01*
X109978Y340456D01*
X110057Y340469D01*
X110137Y340479D01*
X110217Y340485D01*
X110297Y340487D01*
X111934Y340487D01*
X116465Y340487D02*
X116465Y334758D01*
X116466Y334758D02*
X116464Y334680D01*
X116459Y334602D01*
X116449Y334525D01*
X116436Y334448D01*
X116420Y334372D01*
X116400Y334297D01*
X116376Y334223D01*
X116349Y334150D01*
X116318Y334078D01*
X116284Y334008D01*
X116247Y333940D01*
X116206Y333873D01*
X116162Y333808D01*
X116116Y333746D01*
X116066Y333686D01*
X116014Y333628D01*
X115959Y333573D01*
X115901Y333521D01*
X115841Y333471D01*
X115779Y333425D01*
X115714Y333381D01*
X115648Y333340D01*
X115579Y333303D01*
X115509Y333269D01*
X115437Y333238D01*
X115364Y333211D01*
X115290Y333187D01*
X115215Y333167D01*
X115139Y333151D01*
X115062Y333138D01*
X114985Y333128D01*
X114907Y333123D01*
X114829Y333121D01*
X114010Y333121D01*
X120159Y333121D02*
X120159Y340487D01*
X120159Y333121D02*
X123433Y333121D01*
X127854Y333121D02*
X129490Y333121D01*
X127854Y333121D02*
X127776Y333123D01*
X127698Y333128D01*
X127621Y333138D01*
X127544Y333151D01*
X127468Y333167D01*
X127393Y333187D01*
X127319Y333211D01*
X127246Y333238D01*
X127174Y333269D01*
X127104Y333303D01*
X127036Y333340D01*
X126969Y333381D01*
X126904Y333425D01*
X126842Y333471D01*
X126782Y333521D01*
X126724Y333573D01*
X126669Y333628D01*
X126617Y333686D01*
X126567Y333746D01*
X126521Y333808D01*
X126477Y333873D01*
X126436Y333940D01*
X126399Y334008D01*
X126365Y334078D01*
X126334Y334150D01*
X126307Y334223D01*
X126283Y334297D01*
X126263Y334372D01*
X126247Y334448D01*
X126234Y334525D01*
X126224Y334602D01*
X126219Y334680D01*
X126217Y334758D01*
X126217Y338850D01*
X126219Y338930D01*
X126225Y339010D01*
X126235Y339090D01*
X126248Y339169D01*
X126266Y339248D01*
X126287Y339325D01*
X126313Y339401D01*
X126342Y339476D01*
X126374Y339550D01*
X126410Y339622D01*
X126450Y339692D01*
X126493Y339759D01*
X126539Y339825D01*
X126589Y339888D01*
X126641Y339949D01*
X126696Y340008D01*
X126755Y340063D01*
X126815Y340115D01*
X126879Y340165D01*
X126945Y340211D01*
X127012Y340254D01*
X127082Y340294D01*
X127154Y340330D01*
X127228Y340362D01*
X127302Y340391D01*
X127379Y340417D01*
X127456Y340438D01*
X127535Y340456D01*
X127614Y340469D01*
X127694Y340479D01*
X127774Y340485D01*
X127854Y340487D01*
X129490Y340487D01*
D11*
X132460Y49370D02*
X116460Y49370D01*
X132460Y49370D02*
X132460Y29370D01*
X116460Y29370D01*
X116460Y49370D01*
X112960Y51870D02*
X104460Y51870D01*
D10*
X119142Y50673D02*
X119142Y43307D01*
X118324Y43307D02*
X119961Y43307D01*
X119961Y50673D02*
X118324Y50673D01*
X124562Y43307D02*
X126199Y43307D01*
X124562Y43307D02*
X124484Y43309D01*
X124406Y43314D01*
X124329Y43324D01*
X124252Y43337D01*
X124176Y43353D01*
X124101Y43373D01*
X124027Y43397D01*
X123954Y43424D01*
X123882Y43455D01*
X123812Y43489D01*
X123744Y43526D01*
X123677Y43567D01*
X123612Y43611D01*
X123550Y43657D01*
X123490Y43707D01*
X123432Y43759D01*
X123377Y43814D01*
X123325Y43872D01*
X123275Y43932D01*
X123229Y43994D01*
X123185Y44059D01*
X123144Y44126D01*
X123107Y44194D01*
X123073Y44264D01*
X123042Y44336D01*
X123015Y44409D01*
X122991Y44483D01*
X122971Y44558D01*
X122955Y44634D01*
X122942Y44711D01*
X122932Y44788D01*
X122927Y44866D01*
X122925Y44944D01*
X122925Y49036D01*
X122927Y49116D01*
X122933Y49196D01*
X122943Y49276D01*
X122956Y49355D01*
X122974Y49434D01*
X122995Y49511D01*
X123021Y49587D01*
X123050Y49662D01*
X123082Y49736D01*
X123118Y49808D01*
X123158Y49878D01*
X123201Y49945D01*
X123247Y50011D01*
X123297Y50074D01*
X123349Y50135D01*
X123404Y50194D01*
X123463Y50249D01*
X123523Y50301D01*
X123587Y50351D01*
X123653Y50397D01*
X123720Y50440D01*
X123790Y50480D01*
X123862Y50516D01*
X123936Y50548D01*
X124010Y50577D01*
X124087Y50603D01*
X124164Y50624D01*
X124243Y50642D01*
X124322Y50655D01*
X124402Y50665D01*
X124482Y50671D01*
X124562Y50673D01*
X126199Y50673D01*
X129044Y43307D02*
X131090Y43307D01*
X131179Y43309D01*
X131268Y43315D01*
X131357Y43325D01*
X131445Y43338D01*
X131533Y43355D01*
X131620Y43377D01*
X131705Y43402D01*
X131790Y43430D01*
X131873Y43463D01*
X131955Y43499D01*
X132035Y43538D01*
X132113Y43581D01*
X132189Y43627D01*
X132264Y43677D01*
X132336Y43730D01*
X132405Y43786D01*
X132472Y43845D01*
X132537Y43906D01*
X132598Y43971D01*
X132657Y44038D01*
X132713Y44107D01*
X132766Y44179D01*
X132816Y44254D01*
X132862Y44330D01*
X132905Y44408D01*
X132944Y44488D01*
X132980Y44570D01*
X133013Y44653D01*
X133041Y44738D01*
X133066Y44823D01*
X133088Y44910D01*
X133105Y44998D01*
X133118Y45086D01*
X133128Y45175D01*
X133134Y45264D01*
X133136Y45353D01*
X133134Y45442D01*
X133128Y45531D01*
X133118Y45620D01*
X133105Y45708D01*
X133088Y45796D01*
X133066Y45883D01*
X133041Y45968D01*
X133013Y46053D01*
X132980Y46136D01*
X132944Y46218D01*
X132905Y46298D01*
X132862Y46376D01*
X132816Y46452D01*
X132766Y46527D01*
X132713Y46599D01*
X132657Y46668D01*
X132598Y46735D01*
X132537Y46800D01*
X132472Y46861D01*
X132405Y46920D01*
X132336Y46976D01*
X132264Y47029D01*
X132189Y47079D01*
X132113Y47125D01*
X132035Y47168D01*
X131955Y47207D01*
X131873Y47243D01*
X131790Y47276D01*
X131705Y47304D01*
X131620Y47329D01*
X131533Y47351D01*
X131445Y47368D01*
X131357Y47381D01*
X131268Y47391D01*
X131179Y47397D01*
X131090Y47399D01*
X131499Y50673D02*
X129044Y50673D01*
X131499Y50673D02*
X131578Y50671D01*
X131657Y50665D01*
X131736Y50656D01*
X131814Y50643D01*
X131891Y50625D01*
X131967Y50605D01*
X132042Y50580D01*
X132116Y50552D01*
X132189Y50521D01*
X132260Y50485D01*
X132329Y50447D01*
X132396Y50405D01*
X132461Y50360D01*
X132524Y50312D01*
X132585Y50261D01*
X132642Y50207D01*
X132698Y50151D01*
X132750Y50092D01*
X132800Y50030D01*
X132846Y49966D01*
X132890Y49900D01*
X132930Y49832D01*
X132966Y49762D01*
X133000Y49690D01*
X133030Y49616D01*
X133056Y49542D01*
X133079Y49466D01*
X133097Y49389D01*
X133113Y49312D01*
X133124Y49233D01*
X133132Y49155D01*
X133136Y49076D01*
X133136Y48996D01*
X133132Y48917D01*
X133124Y48839D01*
X133113Y48760D01*
X133097Y48683D01*
X133079Y48606D01*
X133056Y48530D01*
X133030Y48456D01*
X133000Y48382D01*
X132966Y48310D01*
X132930Y48240D01*
X132890Y48172D01*
X132846Y48106D01*
X132800Y48042D01*
X132750Y47980D01*
X132698Y47921D01*
X132642Y47865D01*
X132585Y47811D01*
X132524Y47760D01*
X132461Y47712D01*
X132396Y47667D01*
X132329Y47625D01*
X132260Y47587D01*
X132189Y47551D01*
X132116Y47520D01*
X132042Y47492D01*
X131967Y47467D01*
X131891Y47447D01*
X131814Y47429D01*
X131736Y47416D01*
X131657Y47407D01*
X131578Y47401D01*
X131499Y47399D01*
X129863Y47399D01*
D12*
X27290Y229148D02*
X27290Y281148D01*
X27290Y229148D02*
X168290Y229148D01*
X168290Y281148D01*
X27290Y331148D02*
X27290Y361148D01*
X168290Y361148D01*
X168290Y331148D01*
D10*
X111764Y303911D02*
X111764Y298182D01*
X111762Y298104D01*
X111757Y298026D01*
X111747Y297949D01*
X111734Y297872D01*
X111718Y297796D01*
X111698Y297721D01*
X111674Y297647D01*
X111647Y297574D01*
X111616Y297502D01*
X111582Y297432D01*
X111545Y297364D01*
X111504Y297297D01*
X111460Y297232D01*
X111414Y297170D01*
X111364Y297110D01*
X111312Y297052D01*
X111257Y296997D01*
X111199Y296945D01*
X111139Y296895D01*
X111077Y296849D01*
X111012Y296805D01*
X110946Y296764D01*
X110877Y296727D01*
X110807Y296693D01*
X110735Y296662D01*
X110662Y296635D01*
X110588Y296611D01*
X110513Y296591D01*
X110437Y296575D01*
X110360Y296562D01*
X110283Y296552D01*
X110205Y296547D01*
X110127Y296545D01*
X109309Y296545D01*
X115199Y302274D02*
X117245Y303911D01*
X117245Y296545D01*
X115199Y296545D02*
X119291Y296545D01*
D11*
X116460Y102710D02*
X132460Y102710D01*
X132460Y82710D01*
X116460Y82710D01*
X116460Y102710D01*
X112960Y105210D02*
X104460Y105210D01*
D10*
X117872Y104013D02*
X117872Y96647D01*
X117054Y96647D02*
X118691Y96647D01*
X118691Y104013D02*
X117054Y104013D01*
X123292Y96647D02*
X124929Y96647D01*
X123292Y96647D02*
X123214Y96649D01*
X123136Y96654D01*
X123059Y96664D01*
X122982Y96677D01*
X122906Y96693D01*
X122831Y96713D01*
X122757Y96737D01*
X122684Y96764D01*
X122612Y96795D01*
X122542Y96829D01*
X122474Y96866D01*
X122407Y96907D01*
X122342Y96951D01*
X122280Y96997D01*
X122220Y97047D01*
X122162Y97099D01*
X122107Y97154D01*
X122055Y97212D01*
X122005Y97272D01*
X121959Y97334D01*
X121915Y97399D01*
X121874Y97466D01*
X121837Y97534D01*
X121803Y97604D01*
X121772Y97676D01*
X121745Y97749D01*
X121721Y97823D01*
X121701Y97898D01*
X121685Y97974D01*
X121672Y98051D01*
X121662Y98128D01*
X121657Y98206D01*
X121655Y98284D01*
X121655Y102376D01*
X121657Y102456D01*
X121663Y102536D01*
X121673Y102616D01*
X121686Y102695D01*
X121704Y102774D01*
X121725Y102851D01*
X121751Y102927D01*
X121780Y103002D01*
X121812Y103076D01*
X121848Y103148D01*
X121888Y103218D01*
X121931Y103285D01*
X121977Y103351D01*
X122027Y103414D01*
X122079Y103475D01*
X122134Y103534D01*
X122193Y103589D01*
X122253Y103641D01*
X122317Y103691D01*
X122383Y103737D01*
X122450Y103780D01*
X122520Y103820D01*
X122592Y103856D01*
X122666Y103888D01*
X122740Y103917D01*
X122817Y103943D01*
X122894Y103964D01*
X122973Y103982D01*
X123052Y103995D01*
X123132Y104005D01*
X123212Y104011D01*
X123292Y104013D01*
X124929Y104013D01*
X130025Y104014D02*
X130110Y104012D01*
X130195Y104006D01*
X130279Y103996D01*
X130363Y103983D01*
X130447Y103965D01*
X130529Y103944D01*
X130610Y103919D01*
X130690Y103890D01*
X130769Y103857D01*
X130846Y103821D01*
X130921Y103781D01*
X130995Y103738D01*
X131066Y103692D01*
X131135Y103642D01*
X131202Y103589D01*
X131266Y103533D01*
X131327Y103474D01*
X131386Y103413D01*
X131442Y103349D01*
X131495Y103282D01*
X131545Y103213D01*
X131591Y103142D01*
X131634Y103068D01*
X131674Y102993D01*
X131710Y102916D01*
X131743Y102837D01*
X131772Y102757D01*
X131797Y102676D01*
X131818Y102594D01*
X131836Y102510D01*
X131849Y102426D01*
X131859Y102342D01*
X131865Y102257D01*
X131867Y102172D01*
X130025Y104013D02*
X129929Y104011D01*
X129833Y104005D01*
X129738Y103995D01*
X129643Y103982D01*
X129548Y103964D01*
X129455Y103943D01*
X129362Y103918D01*
X129271Y103889D01*
X129180Y103857D01*
X129091Y103821D01*
X129004Y103781D01*
X128918Y103738D01*
X128834Y103692D01*
X128752Y103642D01*
X128672Y103588D01*
X128595Y103532D01*
X128520Y103472D01*
X128447Y103410D01*
X128377Y103344D01*
X128309Y103276D01*
X128244Y103205D01*
X128183Y103132D01*
X128124Y103056D01*
X128068Y102977D01*
X128016Y102897D01*
X127967Y102814D01*
X127921Y102730D01*
X127879Y102644D01*
X127841Y102556D01*
X127806Y102467D01*
X127774Y102376D01*
X131252Y100740D02*
X131312Y100799D01*
X131369Y100861D01*
X131424Y100925D01*
X131475Y100992D01*
X131524Y101061D01*
X131570Y101131D01*
X131613Y101204D01*
X131653Y101278D01*
X131689Y101354D01*
X131722Y101432D01*
X131752Y101511D01*
X131779Y101591D01*
X131802Y101672D01*
X131821Y101754D01*
X131837Y101836D01*
X131850Y101920D01*
X131859Y102004D01*
X131864Y102088D01*
X131866Y102172D01*
X131253Y100739D02*
X127774Y96647D01*
X131866Y96647D01*
X86205Y60071D02*
X84568Y60071D01*
X84490Y60073D01*
X84412Y60078D01*
X84335Y60088D01*
X84258Y60101D01*
X84182Y60117D01*
X84107Y60137D01*
X84033Y60161D01*
X83960Y60188D01*
X83888Y60219D01*
X83818Y60253D01*
X83750Y60290D01*
X83683Y60331D01*
X83618Y60375D01*
X83556Y60421D01*
X83496Y60471D01*
X83438Y60523D01*
X83383Y60578D01*
X83331Y60636D01*
X83281Y60696D01*
X83235Y60758D01*
X83191Y60823D01*
X83150Y60890D01*
X83113Y60958D01*
X83079Y61028D01*
X83048Y61100D01*
X83021Y61173D01*
X82997Y61247D01*
X82977Y61322D01*
X82961Y61398D01*
X82948Y61475D01*
X82938Y61552D01*
X82933Y61630D01*
X82931Y61708D01*
X82931Y65800D01*
X82933Y65880D01*
X82939Y65960D01*
X82949Y66040D01*
X82962Y66119D01*
X82980Y66198D01*
X83001Y66275D01*
X83027Y66351D01*
X83056Y66426D01*
X83088Y66500D01*
X83124Y66572D01*
X83164Y66642D01*
X83207Y66709D01*
X83253Y66775D01*
X83303Y66838D01*
X83355Y66899D01*
X83410Y66958D01*
X83469Y67013D01*
X83529Y67065D01*
X83593Y67115D01*
X83659Y67161D01*
X83726Y67204D01*
X83796Y67244D01*
X83868Y67280D01*
X83942Y67312D01*
X84016Y67341D01*
X84093Y67367D01*
X84170Y67388D01*
X84249Y67406D01*
X84328Y67419D01*
X84408Y67429D01*
X84488Y67435D01*
X84568Y67437D01*
X86205Y67437D01*
X89050Y60071D02*
X91505Y60071D01*
X91583Y60073D01*
X91661Y60078D01*
X91738Y60088D01*
X91815Y60101D01*
X91891Y60117D01*
X91966Y60137D01*
X92040Y60161D01*
X92113Y60188D01*
X92185Y60219D01*
X92255Y60253D01*
X92324Y60290D01*
X92390Y60331D01*
X92455Y60375D01*
X92517Y60421D01*
X92577Y60471D01*
X92635Y60523D01*
X92690Y60578D01*
X92742Y60636D01*
X92792Y60696D01*
X92838Y60758D01*
X92882Y60823D01*
X92923Y60890D01*
X92960Y60958D01*
X92994Y61028D01*
X93025Y61100D01*
X93052Y61173D01*
X93076Y61247D01*
X93096Y61322D01*
X93112Y61398D01*
X93125Y61475D01*
X93135Y61552D01*
X93140Y61630D01*
X93142Y61708D01*
X93142Y62526D01*
X93140Y62604D01*
X93135Y62682D01*
X93125Y62759D01*
X93112Y62836D01*
X93096Y62912D01*
X93076Y62987D01*
X93052Y63061D01*
X93025Y63134D01*
X92994Y63206D01*
X92960Y63276D01*
X92923Y63345D01*
X92882Y63411D01*
X92838Y63476D01*
X92792Y63538D01*
X92742Y63598D01*
X92690Y63656D01*
X92635Y63711D01*
X92577Y63763D01*
X92517Y63813D01*
X92455Y63859D01*
X92390Y63903D01*
X92324Y63944D01*
X92255Y63981D01*
X92185Y64015D01*
X92113Y64046D01*
X92040Y64073D01*
X91966Y64097D01*
X91891Y64117D01*
X91815Y64133D01*
X91738Y64146D01*
X91661Y64156D01*
X91583Y64161D01*
X91505Y64163D01*
X89050Y64163D01*
X89050Y67437D01*
X93142Y67437D01*
X156145Y57023D02*
X157781Y57023D01*
X156145Y57023D02*
X156067Y57025D01*
X155989Y57030D01*
X155912Y57040D01*
X155835Y57053D01*
X155759Y57069D01*
X155684Y57089D01*
X155610Y57113D01*
X155537Y57140D01*
X155465Y57171D01*
X155395Y57205D01*
X155327Y57242D01*
X155260Y57283D01*
X155195Y57327D01*
X155133Y57373D01*
X155073Y57423D01*
X155015Y57475D01*
X154960Y57530D01*
X154908Y57588D01*
X154858Y57648D01*
X154812Y57710D01*
X154768Y57775D01*
X154727Y57842D01*
X154690Y57910D01*
X154656Y57980D01*
X154625Y58052D01*
X154598Y58125D01*
X154574Y58199D01*
X154554Y58274D01*
X154538Y58350D01*
X154525Y58427D01*
X154515Y58504D01*
X154510Y58582D01*
X154508Y58660D01*
X154508Y62752D01*
X154510Y62832D01*
X154516Y62912D01*
X154526Y62992D01*
X154539Y63071D01*
X154557Y63150D01*
X154578Y63227D01*
X154604Y63303D01*
X154633Y63378D01*
X154665Y63452D01*
X154701Y63524D01*
X154741Y63594D01*
X154784Y63661D01*
X154830Y63727D01*
X154880Y63790D01*
X154932Y63851D01*
X154987Y63910D01*
X155046Y63965D01*
X155106Y64017D01*
X155170Y64067D01*
X155236Y64113D01*
X155303Y64156D01*
X155373Y64196D01*
X155445Y64232D01*
X155519Y64264D01*
X155593Y64293D01*
X155670Y64319D01*
X155747Y64340D01*
X155826Y64358D01*
X155905Y64371D01*
X155985Y64381D01*
X156065Y64387D01*
X156145Y64389D01*
X157781Y64389D01*
X160627Y61115D02*
X163082Y61115D01*
X163160Y61113D01*
X163238Y61108D01*
X163315Y61098D01*
X163392Y61085D01*
X163468Y61069D01*
X163543Y61049D01*
X163617Y61025D01*
X163690Y60998D01*
X163762Y60967D01*
X163832Y60933D01*
X163901Y60896D01*
X163967Y60855D01*
X164032Y60811D01*
X164094Y60765D01*
X164154Y60715D01*
X164212Y60663D01*
X164267Y60608D01*
X164319Y60550D01*
X164369Y60490D01*
X164415Y60428D01*
X164459Y60363D01*
X164500Y60297D01*
X164537Y60228D01*
X164571Y60158D01*
X164602Y60086D01*
X164629Y60013D01*
X164653Y59939D01*
X164673Y59864D01*
X164689Y59788D01*
X164702Y59711D01*
X164712Y59634D01*
X164717Y59556D01*
X164719Y59478D01*
X164719Y59069D01*
X164717Y58980D01*
X164711Y58891D01*
X164701Y58802D01*
X164688Y58714D01*
X164671Y58626D01*
X164649Y58539D01*
X164624Y58454D01*
X164596Y58369D01*
X164563Y58286D01*
X164527Y58204D01*
X164488Y58124D01*
X164445Y58046D01*
X164399Y57970D01*
X164349Y57895D01*
X164296Y57823D01*
X164240Y57754D01*
X164181Y57687D01*
X164120Y57622D01*
X164055Y57561D01*
X163988Y57502D01*
X163919Y57446D01*
X163847Y57393D01*
X163772Y57343D01*
X163696Y57297D01*
X163618Y57254D01*
X163538Y57215D01*
X163456Y57179D01*
X163373Y57146D01*
X163288Y57118D01*
X163203Y57093D01*
X163116Y57071D01*
X163028Y57054D01*
X162940Y57041D01*
X162851Y57031D01*
X162762Y57025D01*
X162673Y57023D01*
X162584Y57025D01*
X162495Y57031D01*
X162406Y57041D01*
X162318Y57054D01*
X162230Y57071D01*
X162143Y57093D01*
X162058Y57118D01*
X161973Y57146D01*
X161890Y57179D01*
X161808Y57215D01*
X161728Y57254D01*
X161650Y57297D01*
X161574Y57343D01*
X161499Y57393D01*
X161427Y57446D01*
X161358Y57502D01*
X161291Y57561D01*
X161226Y57622D01*
X161165Y57687D01*
X161106Y57754D01*
X161050Y57823D01*
X160997Y57895D01*
X160947Y57970D01*
X160901Y58046D01*
X160858Y58124D01*
X160819Y58204D01*
X160783Y58286D01*
X160750Y58369D01*
X160722Y58454D01*
X160697Y58539D01*
X160675Y58626D01*
X160658Y58714D01*
X160645Y58802D01*
X160635Y58891D01*
X160629Y58980D01*
X160627Y59069D01*
X160627Y61115D01*
X160629Y61229D01*
X160635Y61343D01*
X160645Y61457D01*
X160659Y61571D01*
X160677Y61684D01*
X160699Y61796D01*
X160724Y61907D01*
X160754Y62017D01*
X160787Y62127D01*
X160824Y62235D01*
X160865Y62341D01*
X160910Y62447D01*
X160958Y62550D01*
X161010Y62652D01*
X161066Y62752D01*
X161124Y62850D01*
X161187Y62946D01*
X161252Y63039D01*
X161321Y63131D01*
X161393Y63219D01*
X161468Y63306D01*
X161546Y63389D01*
X161627Y63470D01*
X161710Y63548D01*
X161797Y63623D01*
X161885Y63695D01*
X161977Y63764D01*
X162070Y63829D01*
X162166Y63891D01*
X162264Y63950D01*
X162364Y64006D01*
X162466Y64058D01*
X162569Y64106D01*
X162675Y64151D01*
X162781Y64192D01*
X162889Y64229D01*
X162999Y64262D01*
X163109Y64292D01*
X163220Y64317D01*
X163332Y64339D01*
X163445Y64357D01*
X163559Y64371D01*
X163673Y64381D01*
X163787Y64387D01*
X163901Y64389D01*
X84935Y108331D02*
X83298Y108331D01*
X83220Y108333D01*
X83142Y108338D01*
X83065Y108348D01*
X82988Y108361D01*
X82912Y108377D01*
X82837Y108397D01*
X82763Y108421D01*
X82690Y108448D01*
X82618Y108479D01*
X82548Y108513D01*
X82480Y108550D01*
X82413Y108591D01*
X82348Y108635D01*
X82286Y108681D01*
X82226Y108731D01*
X82168Y108783D01*
X82113Y108838D01*
X82061Y108896D01*
X82011Y108956D01*
X81965Y109018D01*
X81921Y109083D01*
X81880Y109150D01*
X81843Y109218D01*
X81809Y109288D01*
X81778Y109360D01*
X81751Y109433D01*
X81727Y109507D01*
X81707Y109582D01*
X81691Y109658D01*
X81678Y109735D01*
X81668Y109812D01*
X81663Y109890D01*
X81661Y109968D01*
X81661Y114060D01*
X81663Y114140D01*
X81669Y114220D01*
X81679Y114300D01*
X81692Y114379D01*
X81710Y114458D01*
X81731Y114535D01*
X81757Y114611D01*
X81786Y114686D01*
X81818Y114760D01*
X81854Y114832D01*
X81894Y114902D01*
X81937Y114969D01*
X81983Y115035D01*
X82033Y115098D01*
X82085Y115159D01*
X82140Y115218D01*
X82199Y115273D01*
X82259Y115325D01*
X82323Y115375D01*
X82389Y115421D01*
X82456Y115464D01*
X82526Y115504D01*
X82598Y115540D01*
X82672Y115572D01*
X82746Y115601D01*
X82823Y115627D01*
X82900Y115648D01*
X82979Y115666D01*
X83058Y115679D01*
X83138Y115689D01*
X83218Y115695D01*
X83298Y115697D01*
X84935Y115697D01*
X87780Y108331D02*
X89826Y108331D01*
X89915Y108333D01*
X90004Y108339D01*
X90093Y108349D01*
X90181Y108362D01*
X90269Y108379D01*
X90356Y108401D01*
X90441Y108426D01*
X90526Y108454D01*
X90609Y108487D01*
X90691Y108523D01*
X90771Y108562D01*
X90849Y108605D01*
X90925Y108651D01*
X91000Y108701D01*
X91072Y108754D01*
X91141Y108810D01*
X91208Y108869D01*
X91273Y108930D01*
X91334Y108995D01*
X91393Y109062D01*
X91449Y109131D01*
X91502Y109203D01*
X91552Y109278D01*
X91598Y109354D01*
X91641Y109432D01*
X91680Y109512D01*
X91716Y109594D01*
X91749Y109677D01*
X91777Y109762D01*
X91802Y109847D01*
X91824Y109934D01*
X91841Y110022D01*
X91854Y110110D01*
X91864Y110199D01*
X91870Y110288D01*
X91872Y110377D01*
X91870Y110466D01*
X91864Y110555D01*
X91854Y110644D01*
X91841Y110732D01*
X91824Y110820D01*
X91802Y110907D01*
X91777Y110992D01*
X91749Y111077D01*
X91716Y111160D01*
X91680Y111242D01*
X91641Y111322D01*
X91598Y111400D01*
X91552Y111476D01*
X91502Y111551D01*
X91449Y111623D01*
X91393Y111692D01*
X91334Y111759D01*
X91273Y111824D01*
X91208Y111885D01*
X91141Y111944D01*
X91072Y112000D01*
X91000Y112053D01*
X90925Y112103D01*
X90849Y112149D01*
X90771Y112192D01*
X90691Y112231D01*
X90609Y112267D01*
X90526Y112300D01*
X90441Y112328D01*
X90356Y112353D01*
X90269Y112375D01*
X90181Y112392D01*
X90093Y112405D01*
X90004Y112415D01*
X89915Y112421D01*
X89826Y112423D01*
X90235Y115697D02*
X87780Y115697D01*
X90235Y115697D02*
X90314Y115695D01*
X90393Y115689D01*
X90472Y115680D01*
X90550Y115667D01*
X90627Y115649D01*
X90703Y115629D01*
X90778Y115604D01*
X90852Y115576D01*
X90925Y115545D01*
X90996Y115509D01*
X91065Y115471D01*
X91132Y115429D01*
X91197Y115384D01*
X91260Y115336D01*
X91321Y115285D01*
X91378Y115231D01*
X91434Y115175D01*
X91486Y115116D01*
X91536Y115054D01*
X91582Y114990D01*
X91626Y114924D01*
X91666Y114856D01*
X91702Y114786D01*
X91736Y114714D01*
X91766Y114640D01*
X91792Y114566D01*
X91815Y114490D01*
X91833Y114413D01*
X91849Y114336D01*
X91860Y114257D01*
X91868Y114179D01*
X91872Y114100D01*
X91872Y114020D01*
X91868Y113941D01*
X91860Y113863D01*
X91849Y113784D01*
X91833Y113707D01*
X91815Y113630D01*
X91792Y113554D01*
X91766Y113480D01*
X91736Y113406D01*
X91702Y113334D01*
X91666Y113264D01*
X91626Y113196D01*
X91582Y113130D01*
X91536Y113066D01*
X91486Y113004D01*
X91434Y112945D01*
X91378Y112889D01*
X91321Y112835D01*
X91260Y112784D01*
X91197Y112736D01*
X91132Y112691D01*
X91065Y112649D01*
X90996Y112611D01*
X90925Y112575D01*
X90852Y112544D01*
X90778Y112516D01*
X90703Y112491D01*
X90627Y112471D01*
X90550Y112453D01*
X90472Y112440D01*
X90393Y112431D01*
X90314Y112425D01*
X90235Y112423D01*
X88599Y112423D01*
X157415Y109093D02*
X159051Y109093D01*
X157415Y109093D02*
X157337Y109095D01*
X157259Y109100D01*
X157182Y109110D01*
X157105Y109123D01*
X157029Y109139D01*
X156954Y109159D01*
X156880Y109183D01*
X156807Y109210D01*
X156735Y109241D01*
X156665Y109275D01*
X156597Y109312D01*
X156530Y109353D01*
X156465Y109397D01*
X156403Y109443D01*
X156343Y109493D01*
X156285Y109545D01*
X156230Y109600D01*
X156178Y109658D01*
X156128Y109718D01*
X156082Y109780D01*
X156038Y109845D01*
X155997Y109912D01*
X155960Y109980D01*
X155926Y110050D01*
X155895Y110122D01*
X155868Y110195D01*
X155844Y110269D01*
X155824Y110344D01*
X155808Y110420D01*
X155795Y110497D01*
X155785Y110574D01*
X155780Y110652D01*
X155778Y110730D01*
X155778Y114822D01*
X155780Y114902D01*
X155786Y114982D01*
X155796Y115062D01*
X155809Y115141D01*
X155827Y115220D01*
X155848Y115297D01*
X155874Y115373D01*
X155903Y115448D01*
X155935Y115522D01*
X155971Y115594D01*
X156011Y115664D01*
X156054Y115731D01*
X156100Y115797D01*
X156150Y115860D01*
X156202Y115921D01*
X156257Y115980D01*
X156316Y116035D01*
X156376Y116087D01*
X156440Y116137D01*
X156506Y116183D01*
X156573Y116226D01*
X156643Y116266D01*
X156715Y116302D01*
X156789Y116334D01*
X156863Y116363D01*
X156940Y116389D01*
X157017Y116410D01*
X157096Y116428D01*
X157175Y116441D01*
X157255Y116451D01*
X157335Y116457D01*
X157415Y116459D01*
X159051Y116459D01*
X163534Y116459D02*
X161897Y110730D01*
X165989Y110730D01*
X164761Y112367D02*
X164761Y109093D01*
X59309Y148971D02*
X51943Y148971D01*
X51943Y151017D01*
X51945Y151106D01*
X51951Y151195D01*
X51961Y151284D01*
X51974Y151372D01*
X51991Y151460D01*
X52013Y151547D01*
X52038Y151632D01*
X52066Y151717D01*
X52099Y151800D01*
X52135Y151882D01*
X52174Y151962D01*
X52217Y152040D01*
X52263Y152116D01*
X52313Y152191D01*
X52366Y152263D01*
X52422Y152332D01*
X52481Y152399D01*
X52542Y152464D01*
X52607Y152525D01*
X52674Y152584D01*
X52743Y152640D01*
X52815Y152693D01*
X52890Y152743D01*
X52966Y152789D01*
X53044Y152832D01*
X53124Y152871D01*
X53206Y152907D01*
X53289Y152940D01*
X53374Y152968D01*
X53459Y152993D01*
X53546Y153015D01*
X53634Y153032D01*
X53722Y153045D01*
X53811Y153055D01*
X53900Y153061D01*
X53989Y153063D01*
X54078Y153061D01*
X54167Y153055D01*
X54256Y153045D01*
X54344Y153032D01*
X54432Y153015D01*
X54519Y152993D01*
X54604Y152968D01*
X54689Y152940D01*
X54772Y152907D01*
X54854Y152871D01*
X54934Y152832D01*
X55012Y152789D01*
X55088Y152743D01*
X55163Y152693D01*
X55235Y152640D01*
X55304Y152584D01*
X55371Y152525D01*
X55436Y152464D01*
X55497Y152399D01*
X55556Y152332D01*
X55612Y152263D01*
X55665Y152191D01*
X55715Y152116D01*
X55761Y152040D01*
X55804Y151962D01*
X55843Y151882D01*
X55879Y151800D01*
X55912Y151717D01*
X55940Y151632D01*
X55965Y151547D01*
X55987Y151460D01*
X56004Y151372D01*
X56017Y151284D01*
X56027Y151195D01*
X56033Y151106D01*
X56035Y151017D01*
X56035Y148971D01*
X56035Y151426D02*
X59309Y153063D01*
X53785Y160328D02*
X53700Y160326D01*
X53615Y160320D01*
X53531Y160310D01*
X53447Y160297D01*
X53363Y160279D01*
X53281Y160258D01*
X53200Y160233D01*
X53120Y160204D01*
X53041Y160171D01*
X52964Y160135D01*
X52889Y160095D01*
X52815Y160052D01*
X52744Y160006D01*
X52675Y159956D01*
X52608Y159903D01*
X52544Y159847D01*
X52483Y159788D01*
X52424Y159727D01*
X52368Y159663D01*
X52315Y159596D01*
X52265Y159527D01*
X52219Y159456D01*
X52176Y159382D01*
X52136Y159307D01*
X52100Y159230D01*
X52067Y159151D01*
X52038Y159071D01*
X52013Y158990D01*
X51992Y158908D01*
X51974Y158824D01*
X51961Y158740D01*
X51951Y158656D01*
X51945Y158571D01*
X51943Y158486D01*
X51945Y158390D01*
X51951Y158294D01*
X51961Y158199D01*
X51974Y158104D01*
X51992Y158009D01*
X52013Y157916D01*
X52038Y157823D01*
X52067Y157732D01*
X52099Y157641D01*
X52135Y157552D01*
X52175Y157465D01*
X52218Y157379D01*
X52264Y157295D01*
X52314Y157213D01*
X52368Y157133D01*
X52424Y157056D01*
X52484Y156981D01*
X52546Y156908D01*
X52612Y156838D01*
X52680Y156770D01*
X52751Y156705D01*
X52824Y156644D01*
X52900Y156585D01*
X52979Y156529D01*
X53059Y156477D01*
X53142Y156428D01*
X53226Y156382D01*
X53312Y156340D01*
X53400Y156302D01*
X53489Y156267D01*
X53580Y156235D01*
X55217Y159713D02*
X55158Y159773D01*
X55096Y159830D01*
X55032Y159885D01*
X54965Y159936D01*
X54896Y159985D01*
X54826Y160031D01*
X54753Y160074D01*
X54679Y160114D01*
X54603Y160150D01*
X54525Y160183D01*
X54446Y160213D01*
X54366Y160240D01*
X54285Y160263D01*
X54203Y160282D01*
X54121Y160298D01*
X54037Y160311D01*
X53953Y160320D01*
X53869Y160325D01*
X53785Y160327D01*
X55217Y159713D02*
X59309Y156235D01*
X59309Y160327D01*
X46609Y150241D02*
X39243Y150241D01*
X39243Y152287D01*
X39245Y152376D01*
X39251Y152465D01*
X39261Y152554D01*
X39274Y152642D01*
X39291Y152730D01*
X39313Y152817D01*
X39338Y152902D01*
X39366Y152987D01*
X39399Y153070D01*
X39435Y153152D01*
X39474Y153232D01*
X39517Y153310D01*
X39563Y153386D01*
X39613Y153461D01*
X39666Y153533D01*
X39722Y153602D01*
X39781Y153669D01*
X39842Y153734D01*
X39907Y153795D01*
X39974Y153854D01*
X40043Y153910D01*
X40115Y153963D01*
X40190Y154013D01*
X40266Y154059D01*
X40344Y154102D01*
X40424Y154141D01*
X40506Y154177D01*
X40589Y154210D01*
X40674Y154238D01*
X40759Y154263D01*
X40846Y154285D01*
X40934Y154302D01*
X41022Y154315D01*
X41111Y154325D01*
X41200Y154331D01*
X41289Y154333D01*
X41378Y154331D01*
X41467Y154325D01*
X41556Y154315D01*
X41644Y154302D01*
X41732Y154285D01*
X41819Y154263D01*
X41904Y154238D01*
X41989Y154210D01*
X42072Y154177D01*
X42154Y154141D01*
X42234Y154102D01*
X42312Y154059D01*
X42388Y154013D01*
X42463Y153963D01*
X42535Y153910D01*
X42604Y153854D01*
X42671Y153795D01*
X42736Y153734D01*
X42797Y153669D01*
X42856Y153602D01*
X42912Y153533D01*
X42965Y153461D01*
X43015Y153386D01*
X43061Y153310D01*
X43104Y153232D01*
X43143Y153152D01*
X43179Y153070D01*
X43212Y152987D01*
X43240Y152902D01*
X43265Y152817D01*
X43287Y152730D01*
X43304Y152642D01*
X43317Y152554D01*
X43327Y152465D01*
X43333Y152376D01*
X43335Y152287D01*
X43335Y150241D01*
X43335Y152696D02*
X46609Y154333D01*
X40880Y157505D02*
X39243Y159551D01*
X46609Y159551D01*
X46609Y157505D02*
X46609Y161597D01*
X64643Y148971D02*
X72009Y148971D01*
X64643Y148971D02*
X64643Y151017D01*
X64645Y151106D01*
X64651Y151195D01*
X64661Y151284D01*
X64674Y151372D01*
X64691Y151460D01*
X64713Y151547D01*
X64738Y151632D01*
X64766Y151717D01*
X64799Y151800D01*
X64835Y151882D01*
X64874Y151962D01*
X64917Y152040D01*
X64963Y152116D01*
X65013Y152191D01*
X65066Y152263D01*
X65122Y152332D01*
X65181Y152399D01*
X65242Y152464D01*
X65307Y152525D01*
X65374Y152584D01*
X65443Y152640D01*
X65515Y152693D01*
X65590Y152743D01*
X65666Y152789D01*
X65744Y152832D01*
X65824Y152871D01*
X65906Y152907D01*
X65989Y152940D01*
X66074Y152968D01*
X66159Y152993D01*
X66246Y153015D01*
X66334Y153032D01*
X66422Y153045D01*
X66511Y153055D01*
X66600Y153061D01*
X66689Y153063D01*
X66778Y153061D01*
X66867Y153055D01*
X66956Y153045D01*
X67044Y153032D01*
X67132Y153015D01*
X67219Y152993D01*
X67304Y152968D01*
X67389Y152940D01*
X67472Y152907D01*
X67554Y152871D01*
X67634Y152832D01*
X67712Y152789D01*
X67788Y152743D01*
X67863Y152693D01*
X67935Y152640D01*
X68004Y152584D01*
X68071Y152525D01*
X68136Y152464D01*
X68197Y152399D01*
X68256Y152332D01*
X68312Y152263D01*
X68365Y152191D01*
X68415Y152116D01*
X68461Y152040D01*
X68504Y151962D01*
X68543Y151882D01*
X68579Y151800D01*
X68612Y151717D01*
X68640Y151632D01*
X68665Y151547D01*
X68687Y151460D01*
X68704Y151372D01*
X68717Y151284D01*
X68727Y151195D01*
X68733Y151106D01*
X68735Y151017D01*
X68735Y148971D01*
X68735Y151426D02*
X72009Y153063D01*
X72009Y156235D02*
X72009Y158281D01*
X72007Y158370D01*
X72001Y158459D01*
X71991Y158548D01*
X71978Y158636D01*
X71961Y158724D01*
X71939Y158811D01*
X71914Y158896D01*
X71886Y158981D01*
X71853Y159064D01*
X71817Y159146D01*
X71778Y159226D01*
X71735Y159304D01*
X71689Y159380D01*
X71639Y159455D01*
X71586Y159527D01*
X71530Y159596D01*
X71471Y159663D01*
X71410Y159728D01*
X71345Y159789D01*
X71278Y159848D01*
X71209Y159904D01*
X71137Y159957D01*
X71062Y160007D01*
X70986Y160053D01*
X70908Y160096D01*
X70828Y160135D01*
X70746Y160171D01*
X70663Y160204D01*
X70578Y160232D01*
X70493Y160257D01*
X70406Y160279D01*
X70318Y160296D01*
X70230Y160309D01*
X70141Y160319D01*
X70052Y160325D01*
X69963Y160327D01*
X69874Y160325D01*
X69785Y160319D01*
X69696Y160309D01*
X69608Y160296D01*
X69520Y160279D01*
X69433Y160257D01*
X69348Y160232D01*
X69263Y160204D01*
X69180Y160171D01*
X69098Y160135D01*
X69018Y160096D01*
X68940Y160053D01*
X68864Y160007D01*
X68789Y159957D01*
X68717Y159904D01*
X68648Y159848D01*
X68581Y159789D01*
X68516Y159728D01*
X68455Y159663D01*
X68396Y159596D01*
X68340Y159527D01*
X68287Y159455D01*
X68237Y159380D01*
X68191Y159304D01*
X68148Y159226D01*
X68109Y159146D01*
X68073Y159064D01*
X68040Y158981D01*
X68012Y158896D01*
X67987Y158811D01*
X67965Y158724D01*
X67948Y158636D01*
X67935Y158548D01*
X67925Y158459D01*
X67919Y158370D01*
X67917Y158281D01*
X64643Y158690D02*
X64643Y156235D01*
X64643Y158690D02*
X64645Y158769D01*
X64651Y158848D01*
X64660Y158927D01*
X64673Y159005D01*
X64691Y159082D01*
X64711Y159158D01*
X64736Y159233D01*
X64764Y159307D01*
X64795Y159380D01*
X64831Y159451D01*
X64869Y159520D01*
X64911Y159587D01*
X64956Y159652D01*
X65004Y159715D01*
X65055Y159776D01*
X65109Y159833D01*
X65165Y159889D01*
X65224Y159941D01*
X65286Y159991D01*
X65350Y160037D01*
X65416Y160081D01*
X65484Y160121D01*
X65554Y160157D01*
X65626Y160191D01*
X65700Y160221D01*
X65774Y160247D01*
X65850Y160270D01*
X65927Y160288D01*
X66004Y160304D01*
X66083Y160315D01*
X66161Y160323D01*
X66240Y160327D01*
X66320Y160327D01*
X66399Y160323D01*
X66477Y160315D01*
X66556Y160304D01*
X66633Y160288D01*
X66710Y160270D01*
X66786Y160247D01*
X66860Y160221D01*
X66934Y160191D01*
X67006Y160157D01*
X67076Y160121D01*
X67144Y160081D01*
X67210Y160037D01*
X67274Y159991D01*
X67336Y159941D01*
X67395Y159889D01*
X67451Y159833D01*
X67505Y159776D01*
X67556Y159715D01*
X67604Y159652D01*
X67649Y159587D01*
X67691Y159520D01*
X67729Y159451D01*
X67765Y159380D01*
X67796Y159307D01*
X67824Y159233D01*
X67849Y159158D01*
X67869Y159082D01*
X67887Y159005D01*
X67900Y158927D01*
X67909Y158848D01*
X67915Y158769D01*
X67917Y158690D01*
X67917Y157053D01*
X76073Y148971D02*
X83439Y148971D01*
X76073Y148971D02*
X76073Y151017D01*
X76075Y151106D01*
X76081Y151195D01*
X76091Y151284D01*
X76104Y151372D01*
X76121Y151460D01*
X76143Y151547D01*
X76168Y151632D01*
X76196Y151717D01*
X76229Y151800D01*
X76265Y151882D01*
X76304Y151962D01*
X76347Y152040D01*
X76393Y152116D01*
X76443Y152191D01*
X76496Y152263D01*
X76552Y152332D01*
X76611Y152399D01*
X76672Y152464D01*
X76737Y152525D01*
X76804Y152584D01*
X76873Y152640D01*
X76945Y152693D01*
X77020Y152743D01*
X77096Y152789D01*
X77174Y152832D01*
X77254Y152871D01*
X77336Y152907D01*
X77419Y152940D01*
X77504Y152968D01*
X77589Y152993D01*
X77676Y153015D01*
X77764Y153032D01*
X77852Y153045D01*
X77941Y153055D01*
X78030Y153061D01*
X78119Y153063D01*
X78208Y153061D01*
X78297Y153055D01*
X78386Y153045D01*
X78474Y153032D01*
X78562Y153015D01*
X78649Y152993D01*
X78734Y152968D01*
X78819Y152940D01*
X78902Y152907D01*
X78984Y152871D01*
X79064Y152832D01*
X79142Y152789D01*
X79218Y152743D01*
X79293Y152693D01*
X79365Y152640D01*
X79434Y152584D01*
X79501Y152525D01*
X79566Y152464D01*
X79627Y152399D01*
X79686Y152332D01*
X79742Y152263D01*
X79795Y152191D01*
X79845Y152116D01*
X79891Y152040D01*
X79934Y151962D01*
X79973Y151882D01*
X80009Y151800D01*
X80042Y151717D01*
X80070Y151632D01*
X80095Y151547D01*
X80117Y151460D01*
X80134Y151372D01*
X80147Y151284D01*
X80157Y151195D01*
X80163Y151106D01*
X80165Y151017D01*
X80165Y148971D01*
X80165Y151426D02*
X83439Y153063D01*
X81802Y156235D02*
X76073Y157872D01*
X81802Y156235D02*
X81802Y160327D01*
X80165Y159100D02*
X83439Y159100D01*
D11*
X116460Y159860D02*
X132460Y159860D01*
X132460Y139860D01*
X116460Y139860D01*
X116460Y159860D01*
X112960Y162360D02*
X104460Y162360D01*
D10*
X117872Y161163D02*
X117872Y153797D01*
X117054Y153797D02*
X118691Y153797D01*
X118691Y161163D02*
X117054Y161163D01*
X123292Y153797D02*
X124929Y153797D01*
X123292Y153797D02*
X123214Y153799D01*
X123136Y153804D01*
X123059Y153814D01*
X122982Y153827D01*
X122906Y153843D01*
X122831Y153863D01*
X122757Y153887D01*
X122684Y153914D01*
X122612Y153945D01*
X122542Y153979D01*
X122474Y154016D01*
X122407Y154057D01*
X122342Y154101D01*
X122280Y154147D01*
X122220Y154197D01*
X122162Y154249D01*
X122107Y154304D01*
X122055Y154362D01*
X122005Y154422D01*
X121959Y154484D01*
X121915Y154549D01*
X121874Y154616D01*
X121837Y154684D01*
X121803Y154754D01*
X121772Y154826D01*
X121745Y154899D01*
X121721Y154973D01*
X121701Y155048D01*
X121685Y155124D01*
X121672Y155201D01*
X121662Y155278D01*
X121657Y155356D01*
X121655Y155434D01*
X121655Y159526D01*
X121657Y159606D01*
X121663Y159686D01*
X121673Y159766D01*
X121686Y159845D01*
X121704Y159924D01*
X121725Y160001D01*
X121751Y160077D01*
X121780Y160152D01*
X121812Y160226D01*
X121848Y160298D01*
X121888Y160368D01*
X121931Y160435D01*
X121977Y160501D01*
X122027Y160564D01*
X122079Y160625D01*
X122134Y160684D01*
X122193Y160739D01*
X122253Y160791D01*
X122317Y160841D01*
X122383Y160887D01*
X122450Y160930D01*
X122520Y160970D01*
X122592Y161006D01*
X122666Y161038D01*
X122740Y161067D01*
X122817Y161093D01*
X122894Y161114D01*
X122973Y161132D01*
X123052Y161145D01*
X123132Y161155D01*
X123212Y161161D01*
X123292Y161163D01*
X124929Y161163D01*
X127774Y159526D02*
X129820Y161163D01*
X129820Y153797D01*
X127774Y153797D02*
X131866Y153797D01*
X97635Y183261D02*
X95998Y183261D01*
X95920Y183263D01*
X95842Y183268D01*
X95765Y183278D01*
X95688Y183291D01*
X95612Y183307D01*
X95537Y183327D01*
X95463Y183351D01*
X95390Y183378D01*
X95318Y183409D01*
X95248Y183443D01*
X95180Y183480D01*
X95113Y183521D01*
X95048Y183565D01*
X94986Y183611D01*
X94926Y183661D01*
X94868Y183713D01*
X94813Y183768D01*
X94761Y183826D01*
X94711Y183886D01*
X94665Y183948D01*
X94621Y184013D01*
X94580Y184080D01*
X94543Y184148D01*
X94509Y184218D01*
X94478Y184290D01*
X94451Y184363D01*
X94427Y184437D01*
X94407Y184512D01*
X94391Y184588D01*
X94378Y184665D01*
X94368Y184742D01*
X94363Y184820D01*
X94361Y184898D01*
X94361Y188990D01*
X94363Y189070D01*
X94369Y189150D01*
X94379Y189230D01*
X94392Y189309D01*
X94410Y189388D01*
X94431Y189465D01*
X94457Y189541D01*
X94486Y189616D01*
X94518Y189690D01*
X94554Y189762D01*
X94594Y189832D01*
X94637Y189899D01*
X94683Y189965D01*
X94733Y190028D01*
X94785Y190089D01*
X94840Y190148D01*
X94899Y190203D01*
X94959Y190255D01*
X95023Y190305D01*
X95089Y190351D01*
X95156Y190394D01*
X95226Y190434D01*
X95298Y190470D01*
X95372Y190502D01*
X95446Y190531D01*
X95523Y190557D01*
X95600Y190578D01*
X95679Y190596D01*
X95758Y190609D01*
X95838Y190619D01*
X95918Y190625D01*
X95998Y190627D01*
X97635Y190627D01*
X100480Y188990D02*
X102526Y190627D01*
X102526Y183261D01*
X100480Y183261D02*
X104572Y183261D01*
X139635Y182753D02*
X141271Y182753D01*
X139635Y182753D02*
X139557Y182755D01*
X139479Y182760D01*
X139402Y182770D01*
X139325Y182783D01*
X139249Y182799D01*
X139174Y182819D01*
X139100Y182843D01*
X139027Y182870D01*
X138955Y182901D01*
X138885Y182935D01*
X138817Y182972D01*
X138750Y183013D01*
X138685Y183057D01*
X138623Y183103D01*
X138563Y183153D01*
X138505Y183205D01*
X138450Y183260D01*
X138398Y183318D01*
X138348Y183378D01*
X138302Y183440D01*
X138258Y183505D01*
X138217Y183572D01*
X138180Y183640D01*
X138146Y183710D01*
X138115Y183782D01*
X138088Y183855D01*
X138064Y183929D01*
X138044Y184004D01*
X138028Y184080D01*
X138015Y184157D01*
X138005Y184234D01*
X138000Y184312D01*
X137998Y184390D01*
X137998Y188482D01*
X138000Y188562D01*
X138006Y188642D01*
X138016Y188722D01*
X138029Y188801D01*
X138047Y188880D01*
X138068Y188957D01*
X138094Y189033D01*
X138123Y189108D01*
X138155Y189182D01*
X138191Y189254D01*
X138231Y189324D01*
X138274Y189391D01*
X138320Y189457D01*
X138370Y189520D01*
X138422Y189581D01*
X138477Y189640D01*
X138536Y189695D01*
X138596Y189747D01*
X138660Y189797D01*
X138726Y189843D01*
X138793Y189886D01*
X138863Y189926D01*
X138935Y189962D01*
X139009Y189994D01*
X139083Y190023D01*
X139160Y190049D01*
X139237Y190070D01*
X139316Y190088D01*
X139395Y190101D01*
X139475Y190111D01*
X139555Y190117D01*
X139635Y190119D01*
X141271Y190119D01*
X146368Y190120D02*
X146453Y190118D01*
X146538Y190112D01*
X146622Y190102D01*
X146706Y190089D01*
X146790Y190071D01*
X146872Y190050D01*
X146953Y190025D01*
X147033Y189996D01*
X147112Y189963D01*
X147189Y189927D01*
X147264Y189887D01*
X147338Y189844D01*
X147409Y189798D01*
X147478Y189748D01*
X147545Y189695D01*
X147609Y189639D01*
X147670Y189580D01*
X147729Y189519D01*
X147785Y189455D01*
X147838Y189388D01*
X147888Y189319D01*
X147934Y189248D01*
X147977Y189174D01*
X148017Y189099D01*
X148053Y189022D01*
X148086Y188943D01*
X148115Y188863D01*
X148140Y188782D01*
X148161Y188700D01*
X148179Y188616D01*
X148192Y188532D01*
X148202Y188448D01*
X148208Y188363D01*
X148210Y188278D01*
X146368Y190119D02*
X146272Y190117D01*
X146176Y190111D01*
X146081Y190101D01*
X145986Y190088D01*
X145891Y190070D01*
X145798Y190049D01*
X145705Y190024D01*
X145614Y189995D01*
X145523Y189963D01*
X145434Y189927D01*
X145347Y189887D01*
X145261Y189844D01*
X145177Y189798D01*
X145095Y189748D01*
X145015Y189694D01*
X144938Y189638D01*
X144863Y189578D01*
X144790Y189516D01*
X144720Y189450D01*
X144652Y189382D01*
X144587Y189311D01*
X144526Y189238D01*
X144467Y189162D01*
X144411Y189083D01*
X144359Y189003D01*
X144310Y188920D01*
X144264Y188836D01*
X144222Y188750D01*
X144184Y188662D01*
X144149Y188573D01*
X144117Y188482D01*
X147595Y186846D02*
X147655Y186905D01*
X147712Y186967D01*
X147767Y187031D01*
X147818Y187098D01*
X147867Y187167D01*
X147913Y187237D01*
X147956Y187310D01*
X147996Y187384D01*
X148032Y187460D01*
X148065Y187538D01*
X148095Y187617D01*
X148122Y187697D01*
X148145Y187778D01*
X148164Y187860D01*
X148180Y187942D01*
X148193Y188026D01*
X148202Y188110D01*
X148207Y188194D01*
X148209Y188278D01*
X147595Y186845D02*
X144117Y182753D01*
X148209Y182753D01*
X70739Y16355D02*
X70739Y14718D01*
X70737Y14640D01*
X70732Y14562D01*
X70722Y14485D01*
X70709Y14408D01*
X70693Y14332D01*
X70673Y14257D01*
X70649Y14183D01*
X70622Y14110D01*
X70591Y14038D01*
X70557Y13968D01*
X70520Y13900D01*
X70479Y13833D01*
X70435Y13768D01*
X70389Y13706D01*
X70339Y13646D01*
X70287Y13588D01*
X70232Y13533D01*
X70174Y13481D01*
X70114Y13431D01*
X70052Y13385D01*
X69987Y13341D01*
X69921Y13300D01*
X69852Y13263D01*
X69782Y13229D01*
X69710Y13198D01*
X69637Y13171D01*
X69563Y13147D01*
X69488Y13127D01*
X69412Y13111D01*
X69335Y13098D01*
X69258Y13088D01*
X69180Y13083D01*
X69102Y13081D01*
X65010Y13081D01*
X64930Y13083D01*
X64850Y13089D01*
X64770Y13099D01*
X64691Y13112D01*
X64612Y13130D01*
X64535Y13151D01*
X64459Y13177D01*
X64384Y13206D01*
X64310Y13238D01*
X64238Y13274D01*
X64168Y13314D01*
X64101Y13357D01*
X64035Y13403D01*
X63972Y13453D01*
X63911Y13505D01*
X63852Y13560D01*
X63797Y13619D01*
X63745Y13679D01*
X63695Y13743D01*
X63649Y13808D01*
X63606Y13876D01*
X63566Y13946D01*
X63530Y14018D01*
X63498Y14092D01*
X63469Y14166D01*
X63444Y14243D01*
X63422Y14320D01*
X63404Y14399D01*
X63391Y14478D01*
X63381Y14557D01*
X63375Y14638D01*
X63373Y14718D01*
X63373Y16355D01*
X68693Y19200D02*
X68604Y19202D01*
X68515Y19208D01*
X68426Y19218D01*
X68338Y19231D01*
X68250Y19248D01*
X68163Y19270D01*
X68078Y19295D01*
X67993Y19323D01*
X67910Y19356D01*
X67828Y19392D01*
X67748Y19431D01*
X67670Y19474D01*
X67594Y19520D01*
X67519Y19570D01*
X67447Y19623D01*
X67378Y19679D01*
X67311Y19738D01*
X67246Y19799D01*
X67185Y19864D01*
X67126Y19931D01*
X67070Y20000D01*
X67017Y20072D01*
X66967Y20147D01*
X66921Y20223D01*
X66878Y20301D01*
X66839Y20381D01*
X66803Y20463D01*
X66770Y20546D01*
X66742Y20631D01*
X66717Y20716D01*
X66695Y20803D01*
X66678Y20891D01*
X66665Y20979D01*
X66655Y21068D01*
X66649Y21157D01*
X66647Y21246D01*
X66649Y21335D01*
X66655Y21424D01*
X66665Y21513D01*
X66678Y21601D01*
X66695Y21689D01*
X66717Y21776D01*
X66742Y21861D01*
X66770Y21946D01*
X66803Y22029D01*
X66839Y22111D01*
X66878Y22191D01*
X66921Y22269D01*
X66967Y22345D01*
X67017Y22420D01*
X67070Y22492D01*
X67126Y22561D01*
X67185Y22628D01*
X67246Y22693D01*
X67311Y22754D01*
X67378Y22813D01*
X67447Y22869D01*
X67519Y22922D01*
X67594Y22972D01*
X67670Y23018D01*
X67748Y23061D01*
X67828Y23100D01*
X67910Y23136D01*
X67993Y23169D01*
X68078Y23197D01*
X68163Y23222D01*
X68250Y23244D01*
X68338Y23261D01*
X68426Y23274D01*
X68515Y23284D01*
X68604Y23290D01*
X68693Y23292D01*
X68782Y23290D01*
X68871Y23284D01*
X68960Y23274D01*
X69048Y23261D01*
X69136Y23244D01*
X69223Y23222D01*
X69308Y23197D01*
X69393Y23169D01*
X69476Y23136D01*
X69558Y23100D01*
X69638Y23061D01*
X69716Y23018D01*
X69792Y22972D01*
X69867Y22922D01*
X69939Y22869D01*
X70008Y22813D01*
X70075Y22754D01*
X70140Y22693D01*
X70201Y22628D01*
X70260Y22561D01*
X70316Y22492D01*
X70369Y22420D01*
X70419Y22345D01*
X70465Y22269D01*
X70508Y22191D01*
X70547Y22111D01*
X70583Y22029D01*
X70616Y21946D01*
X70644Y21861D01*
X70669Y21776D01*
X70691Y21689D01*
X70708Y21601D01*
X70721Y21513D01*
X70731Y21424D01*
X70737Y21335D01*
X70739Y21246D01*
X70737Y21157D01*
X70731Y21068D01*
X70721Y20979D01*
X70708Y20891D01*
X70691Y20803D01*
X70669Y20716D01*
X70644Y20631D01*
X70616Y20546D01*
X70583Y20463D01*
X70547Y20381D01*
X70508Y20301D01*
X70465Y20223D01*
X70419Y20147D01*
X70369Y20072D01*
X70316Y20000D01*
X70260Y19931D01*
X70201Y19864D01*
X70140Y19799D01*
X70075Y19738D01*
X70008Y19679D01*
X69939Y19623D01*
X69867Y19570D01*
X69792Y19520D01*
X69716Y19474D01*
X69638Y19431D01*
X69558Y19392D01*
X69476Y19356D01*
X69393Y19323D01*
X69308Y19295D01*
X69223Y19270D01*
X69136Y19248D01*
X69048Y19231D01*
X68960Y19218D01*
X68871Y19208D01*
X68782Y19202D01*
X68693Y19200D01*
X65010Y19609D02*
X64931Y19611D01*
X64852Y19617D01*
X64773Y19626D01*
X64695Y19639D01*
X64618Y19657D01*
X64542Y19677D01*
X64467Y19702D01*
X64393Y19730D01*
X64320Y19761D01*
X64249Y19797D01*
X64180Y19835D01*
X64113Y19877D01*
X64048Y19922D01*
X63985Y19970D01*
X63924Y20021D01*
X63867Y20075D01*
X63811Y20131D01*
X63759Y20190D01*
X63709Y20252D01*
X63663Y20316D01*
X63619Y20382D01*
X63579Y20450D01*
X63543Y20520D01*
X63509Y20592D01*
X63479Y20666D01*
X63453Y20740D01*
X63430Y20816D01*
X63412Y20893D01*
X63396Y20970D01*
X63385Y21049D01*
X63377Y21127D01*
X63373Y21206D01*
X63373Y21286D01*
X63377Y21365D01*
X63385Y21443D01*
X63396Y21522D01*
X63412Y21599D01*
X63430Y21676D01*
X63453Y21752D01*
X63479Y21826D01*
X63509Y21900D01*
X63543Y21972D01*
X63579Y22042D01*
X63619Y22110D01*
X63663Y22176D01*
X63709Y22240D01*
X63759Y22302D01*
X63811Y22361D01*
X63867Y22417D01*
X63924Y22471D01*
X63985Y22522D01*
X64048Y22570D01*
X64113Y22615D01*
X64180Y22657D01*
X64249Y22695D01*
X64320Y22731D01*
X64393Y22762D01*
X64467Y22790D01*
X64542Y22815D01*
X64618Y22835D01*
X64695Y22853D01*
X64773Y22866D01*
X64852Y22875D01*
X64931Y22881D01*
X65010Y22883D01*
X65089Y22881D01*
X65168Y22875D01*
X65247Y22866D01*
X65325Y22853D01*
X65402Y22835D01*
X65478Y22815D01*
X65553Y22790D01*
X65627Y22762D01*
X65700Y22731D01*
X65771Y22695D01*
X65840Y22657D01*
X65907Y22615D01*
X65972Y22570D01*
X66035Y22522D01*
X66096Y22471D01*
X66153Y22417D01*
X66209Y22361D01*
X66261Y22302D01*
X66311Y22240D01*
X66357Y22176D01*
X66401Y22110D01*
X66441Y22042D01*
X66477Y21972D01*
X66511Y21900D01*
X66541Y21826D01*
X66567Y21752D01*
X66590Y21676D01*
X66608Y21599D01*
X66624Y21522D01*
X66635Y21443D01*
X66643Y21365D01*
X66647Y21286D01*
X66647Y21206D01*
X66643Y21127D01*
X66635Y21049D01*
X66624Y20970D01*
X66608Y20893D01*
X66590Y20816D01*
X66567Y20740D01*
X66541Y20666D01*
X66511Y20592D01*
X66477Y20520D01*
X66441Y20450D01*
X66401Y20382D01*
X66357Y20316D01*
X66311Y20252D01*
X66261Y20190D01*
X66209Y20131D01*
X66153Y20075D01*
X66096Y20021D01*
X66035Y19970D01*
X65972Y19922D01*
X65907Y19877D01*
X65840Y19835D01*
X65771Y19797D01*
X65700Y19761D01*
X65627Y19730D01*
X65553Y19702D01*
X65478Y19677D01*
X65402Y19657D01*
X65325Y19639D01*
X65247Y19626D01*
X65168Y19617D01*
X65089Y19611D01*
X65010Y19609D01*
X58547Y95185D02*
X58547Y96821D01*
X58547Y95185D02*
X58545Y95107D01*
X58540Y95029D01*
X58530Y94952D01*
X58517Y94875D01*
X58501Y94799D01*
X58481Y94724D01*
X58457Y94650D01*
X58430Y94577D01*
X58399Y94505D01*
X58365Y94435D01*
X58328Y94367D01*
X58287Y94300D01*
X58243Y94235D01*
X58197Y94173D01*
X58147Y94113D01*
X58095Y94055D01*
X58040Y94000D01*
X57982Y93948D01*
X57922Y93898D01*
X57860Y93852D01*
X57795Y93808D01*
X57729Y93767D01*
X57660Y93730D01*
X57590Y93696D01*
X57518Y93665D01*
X57445Y93638D01*
X57371Y93614D01*
X57296Y93594D01*
X57220Y93578D01*
X57143Y93565D01*
X57066Y93555D01*
X56988Y93550D01*
X56910Y93548D01*
X52818Y93548D01*
X52738Y93550D01*
X52658Y93556D01*
X52578Y93566D01*
X52499Y93579D01*
X52420Y93597D01*
X52343Y93618D01*
X52267Y93644D01*
X52192Y93673D01*
X52118Y93705D01*
X52046Y93741D01*
X51976Y93781D01*
X51909Y93824D01*
X51843Y93870D01*
X51780Y93920D01*
X51719Y93972D01*
X51660Y94027D01*
X51605Y94086D01*
X51553Y94146D01*
X51503Y94210D01*
X51457Y94275D01*
X51414Y94343D01*
X51374Y94413D01*
X51338Y94485D01*
X51306Y94559D01*
X51277Y94633D01*
X51252Y94710D01*
X51230Y94787D01*
X51212Y94866D01*
X51199Y94945D01*
X51189Y95024D01*
X51183Y95105D01*
X51181Y95185D01*
X51181Y96821D01*
X51181Y99667D02*
X51999Y99667D01*
X51181Y99667D02*
X51181Y103759D01*
X58547Y101713D01*
M02*
