M48
;GenerationSoftware,Autodesk,EAGLE,9.6.2*%
;CreationDate,2021-07-26T03:22:14Z*%
FMAT,2
ICI,OFF
METRIC,TZ,000.000
T4C0.356
T3C0.700
T2C0.900
T1C1.016
%
G90
M71
T1
X2159Y2413
X2159Y4953
X2159Y7493
X2159Y10033
X2159Y12573
X2159Y15113
X2159Y17653
X17399Y2413
X17399Y4953
X17399Y7493
X17399Y10033
X17399Y12573
X17399Y15113
X17399Y17653
T2
X6379Y27615
X8479Y25115
X13179Y27615
X6379Y25115
X10679Y25115
X13179Y25115
X11079Y27615
X8479Y27615
T3
X9779Y31415
X3029Y30615
X16529Y30615
T4
X15621Y13208
X12319Y18669
X8890Y15621
X8890Y14605
X8890Y2667
X14859Y1778
X9144Y13589
X15494Y7620
X9144Y7874
X12446Y12954
X12446Y7239
X12446Y16637
M30