G04 EAGLE Gerber RS-274X export*
G75*
%MOMM*%
%FSLAX34Y34*%
%LPD*%
%INBottom Copper*%
%IPPOS*%
%AMOC8*
5,1,8,0,0,1.08239X$1,22.5*%
G01*

G36*
X352624Y5086D02*
X352624Y5086D01*
X352655Y5083D01*
X352745Y5106D01*
X352836Y5120D01*
X352864Y5135D01*
X352894Y5142D01*
X352972Y5192D01*
X353054Y5236D01*
X353075Y5258D01*
X353101Y5275D01*
X353213Y5400D01*
X356727Y10320D01*
X356740Y10345D01*
X356759Y10367D01*
X356794Y10455D01*
X356836Y10540D01*
X356840Y10569D01*
X356851Y10595D01*
X356869Y10762D01*
X356869Y565270D01*
X356855Y565360D01*
X356847Y565451D01*
X356835Y565481D01*
X356830Y565513D01*
X356787Y565594D01*
X356751Y565677D01*
X356725Y565710D01*
X356714Y565730D01*
X356691Y565752D01*
X356646Y565808D01*
X353718Y568736D01*
X353645Y568789D01*
X353575Y568849D01*
X353545Y568861D01*
X353519Y568880D01*
X353432Y568907D01*
X353347Y568941D01*
X353306Y568945D01*
X353284Y568952D01*
X353251Y568951D01*
X353180Y568959D01*
X8770Y568959D01*
X8680Y568945D01*
X8589Y568937D01*
X8559Y568925D01*
X8527Y568920D01*
X8446Y568877D01*
X8363Y568841D01*
X8330Y568815D01*
X8310Y568804D01*
X8288Y568781D01*
X8232Y568736D01*
X5304Y565808D01*
X5251Y565735D01*
X5191Y565665D01*
X5179Y565635D01*
X5160Y565609D01*
X5133Y565522D01*
X5099Y565437D01*
X5095Y565396D01*
X5088Y565374D01*
X5089Y565341D01*
X5081Y565270D01*
X5081Y10762D01*
X5085Y10734D01*
X5083Y10705D01*
X5105Y10613D01*
X5120Y10519D01*
X5134Y10494D01*
X5141Y10466D01*
X5223Y10320D01*
X8737Y5400D01*
X8759Y5378D01*
X8775Y5351D01*
X8845Y5291D01*
X8910Y5225D01*
X8938Y5211D01*
X8962Y5191D01*
X9048Y5156D01*
X9130Y5115D01*
X9161Y5111D01*
X9190Y5099D01*
X9356Y5081D01*
X352594Y5081D01*
X352624Y5086D01*
G37*
G36*
X368320Y-7108D02*
X368320Y-7108D01*
X368339Y-7110D01*
X368441Y-7088D01*
X368543Y-7072D01*
X368560Y-7062D01*
X368580Y-7058D01*
X368669Y-7005D01*
X368760Y-6956D01*
X368774Y-6942D01*
X368791Y-6932D01*
X368858Y-6853D01*
X368930Y-6778D01*
X368938Y-6760D01*
X368951Y-6745D01*
X368990Y-6649D01*
X369033Y-6555D01*
X369035Y-6535D01*
X369043Y-6517D01*
X369061Y-6350D01*
X369061Y577850D01*
X369058Y577870D01*
X369060Y577889D01*
X369038Y577991D01*
X369022Y578093D01*
X369012Y578110D01*
X369008Y578130D01*
X368955Y578219D01*
X368906Y578310D01*
X368892Y578324D01*
X368882Y578341D01*
X368803Y578408D01*
X368728Y578480D01*
X368710Y578488D01*
X368695Y578501D01*
X368599Y578540D01*
X368505Y578583D01*
X368485Y578585D01*
X368467Y578593D01*
X368300Y578611D01*
X360052Y578611D01*
X359981Y578600D01*
X359909Y578598D01*
X359860Y578580D01*
X359809Y578572D01*
X359746Y578538D01*
X359678Y578513D01*
X359638Y578481D01*
X359592Y578456D01*
X359542Y578405D01*
X359486Y578360D01*
X359458Y578316D01*
X359422Y578278D01*
X359392Y578213D01*
X359353Y578153D01*
X359341Y578102D01*
X359319Y578055D01*
X359311Y577984D01*
X359293Y577914D01*
X359297Y577862D01*
X359292Y577811D01*
X359307Y577740D01*
X359312Y577669D01*
X359333Y577621D01*
X359344Y577570D01*
X359381Y577509D01*
X359409Y577443D01*
X359453Y577387D01*
X359470Y577359D01*
X359488Y577344D01*
X359514Y577312D01*
X367031Y569795D01*
X367031Y9374D01*
X367036Y9341D01*
X367041Y9248D01*
X367308Y7649D01*
X367173Y7460D01*
X367160Y7435D01*
X367141Y7413D01*
X367106Y7324D01*
X367064Y7240D01*
X367060Y7211D01*
X367049Y7185D01*
X367031Y7018D01*
X367031Y6785D01*
X365885Y5639D01*
X365866Y5613D01*
X365803Y5544D01*
X360823Y-1430D01*
X360810Y-1455D01*
X360791Y-1477D01*
X360756Y-1565D01*
X360714Y-1650D01*
X360710Y-1679D01*
X360699Y-1705D01*
X360681Y-1872D01*
X360681Y-2105D01*
X359535Y-3251D01*
X359516Y-3277D01*
X359453Y-3347D01*
X358511Y-4666D01*
X358282Y-4704D01*
X358255Y-4713D01*
X358226Y-4715D01*
X358139Y-4752D01*
X358049Y-4783D01*
X358026Y-4800D01*
X358000Y-4812D01*
X357869Y-4916D01*
X357704Y-5081D01*
X356084Y-5081D01*
X356051Y-5086D01*
X355958Y-5091D01*
X354359Y-5358D01*
X354170Y-5223D01*
X354145Y-5210D01*
X354123Y-5191D01*
X354034Y-5156D01*
X353950Y-5114D01*
X353921Y-5110D01*
X353895Y-5099D01*
X353728Y-5081D01*
X8222Y-5081D01*
X8194Y-5085D01*
X8165Y-5083D01*
X8073Y-5105D01*
X7979Y-5120D01*
X7954Y-5134D01*
X7926Y-5141D01*
X7780Y-5223D01*
X7591Y-5358D01*
X5992Y-5091D01*
X5959Y-5091D01*
X5866Y-5081D01*
X4246Y-5081D01*
X4081Y-4916D01*
X4058Y-4900D01*
X4039Y-4878D01*
X3958Y-4828D01*
X3881Y-4773D01*
X3854Y-4764D01*
X3829Y-4749D01*
X3668Y-4704D01*
X3439Y-4666D01*
X2497Y-3347D01*
X2474Y-3323D01*
X2415Y-3251D01*
X1269Y-2105D01*
X1269Y-1872D01*
X1265Y-1844D01*
X1267Y-1815D01*
X1245Y-1723D01*
X1230Y-1629D01*
X1216Y-1604D01*
X1209Y-1576D01*
X1127Y-1430D01*
X-3853Y5544D01*
X-3866Y5556D01*
X-3868Y5560D01*
X-3877Y5567D01*
X-3935Y5639D01*
X-5081Y6785D01*
X-5081Y7018D01*
X-5085Y7046D01*
X-5083Y7075D01*
X-5105Y7167D01*
X-5120Y7261D01*
X-5134Y7286D01*
X-5141Y7314D01*
X-5223Y7460D01*
X-5358Y7649D01*
X-5091Y9248D01*
X-5091Y9281D01*
X-5081Y9374D01*
X-5081Y569795D01*
X2436Y577312D01*
X2478Y577370D01*
X2528Y577422D01*
X2550Y577469D01*
X2580Y577511D01*
X2601Y577580D01*
X2631Y577645D01*
X2637Y577697D01*
X2652Y577747D01*
X2651Y577818D01*
X2658Y577889D01*
X2647Y577940D01*
X2646Y577992D01*
X2621Y578060D01*
X2606Y578130D01*
X2579Y578175D01*
X2562Y578223D01*
X2517Y578279D01*
X2480Y578341D01*
X2440Y578375D01*
X2408Y578415D01*
X2348Y578454D01*
X2293Y578501D01*
X2245Y578520D01*
X2201Y578548D01*
X2131Y578566D01*
X2065Y578593D01*
X1994Y578601D01*
X1962Y578609D01*
X1939Y578607D01*
X1898Y578611D01*
X-6350Y578611D01*
X-6370Y578608D01*
X-6389Y578610D01*
X-6491Y578588D01*
X-6593Y578572D01*
X-6610Y578562D01*
X-6630Y578558D01*
X-6719Y578505D01*
X-6810Y578456D01*
X-6824Y578442D01*
X-6841Y578432D01*
X-6908Y578353D01*
X-6980Y578278D01*
X-6988Y578260D01*
X-7001Y578245D01*
X-7040Y578149D01*
X-7083Y578055D01*
X-7085Y578035D01*
X-7093Y578017D01*
X-7111Y577850D01*
X-7111Y-6350D01*
X-7108Y-6370D01*
X-7110Y-6389D01*
X-7088Y-6491D01*
X-7072Y-6593D01*
X-7062Y-6610D01*
X-7058Y-6630D01*
X-7005Y-6719D01*
X-6956Y-6810D01*
X-6942Y-6824D01*
X-6932Y-6841D01*
X-6853Y-6908D01*
X-6778Y-6980D01*
X-6760Y-6988D01*
X-6745Y-7001D01*
X-6649Y-7040D01*
X-6555Y-7083D01*
X-6535Y-7085D01*
X-6517Y-7093D01*
X-6350Y-7111D01*
X368300Y-7111D01*
X368320Y-7108D01*
G37*
%LPC*%
G36*
X303346Y487919D02*
X303346Y487919D01*
X295965Y490976D01*
X290316Y496625D01*
X287259Y504006D01*
X287259Y511994D01*
X290316Y519375D01*
X295965Y525024D01*
X303346Y528081D01*
X311334Y528081D01*
X318715Y525024D01*
X324364Y519375D01*
X327421Y511994D01*
X327421Y504006D01*
X324364Y496625D01*
X318715Y490976D01*
X311334Y487919D01*
X303346Y487919D01*
G37*
%LPD*%
%LPC*%
G36*
X50616Y487919D02*
X50616Y487919D01*
X43235Y490976D01*
X37586Y496625D01*
X34529Y504006D01*
X34529Y511994D01*
X37586Y519375D01*
X43235Y525024D01*
X50616Y528081D01*
X58604Y528081D01*
X65985Y525024D01*
X71634Y519375D01*
X74691Y511994D01*
X74691Y504006D01*
X71634Y496625D01*
X65985Y490976D01*
X58604Y487919D01*
X50616Y487919D01*
G37*
%LPD*%
%LPC*%
G36*
X303346Y71359D02*
X303346Y71359D01*
X295965Y74416D01*
X290316Y80065D01*
X287259Y87446D01*
X287259Y95434D01*
X290316Y102815D01*
X295965Y108464D01*
X303346Y111521D01*
X311334Y111521D01*
X318715Y108464D01*
X324364Y102815D01*
X327421Y95434D01*
X327421Y87446D01*
X324364Y80065D01*
X318715Y74416D01*
X311334Y71359D01*
X303346Y71359D01*
G37*
%LPD*%
%LPC*%
G36*
X50616Y71359D02*
X50616Y71359D01*
X43235Y74416D01*
X37586Y80065D01*
X34529Y87446D01*
X34529Y95434D01*
X37586Y102815D01*
X43235Y108464D01*
X50616Y111521D01*
X58604Y111521D01*
X65985Y108464D01*
X71634Y102815D01*
X74691Y95434D01*
X74691Y87446D01*
X71634Y80065D01*
X65985Y74416D01*
X58604Y71359D01*
X50616Y71359D01*
G37*
%LPD*%
M02*
