<?xml version="1.0" encoding="UTF-8" standalone="no"?>
<svg
   version="1.1"
   id="Layer_1"
   x="0px"
   y="0px"
   width="397.996"
   viewBox="0 0 397.996 338.08401"
   enable-background="new 0 0 608 608"
   xml:space="preserve"
   sodipodi:docname="logo_solid.svg"
   height="338.08401"
   inkscape:version="1.2.2 (b0a84865, 2022-12-01)"
   xmlns:inkscape="http://www.inkscape.org/namespaces/inkscape"
   xmlns:sodipodi="http://sodipodi.sourceforge.net/DTD/sodipodi-0.dtd"
   xmlns="http://www.w3.org/2000/svg"
   xmlns:svg="http://www.w3.org/2000/svg"><defs
   id="defs139" /><sodipodi:namedview
   id="namedview137"
   pagecolor="#ffffff"
   bordercolor="#000000"
   borderopacity="0.25"
   inkscape:showpageshadow="2"
   inkscape:pageopacity="0.0"
   inkscape:pagecheckerboard="0"
   inkscape:deskcolor="#d1d1d1"
   showgrid="false"
   inkscape:zoom="0.38815789"
   inkscape:cx="161.01695"
   inkscape:cy="304"
   inkscape:window-width="1309"
   inkscape:window-height="456"
   inkscape:window-x="0"
   inkscape:window-y="38"
   inkscape:window-maximized="0"
   inkscape:current-layer="Layer_1" />
<path
   fill="#ffffff"
   opacity="1"
   stroke="none"
   d="m 357.42694,336.26777 c -33.29773,7.65631 -58.60821,-12.8291 -64.8002,-41.89658 -4.48505,-21.05435 -20.13989,-34.43521 -41.64267,-34.63198 -35.81799,-0.32776 -71.64902,-0.46286 -107.45952,0.17117 -16.81291,0.2977 -28.84124,9.37384 -35.26535,25.06463 -2.06651,5.04749 -3.14345,10.49817 -4.70241,15.75571 C 92.47487,338.10447 48.214921,350.35316 19.49904,324.00224 2.3782892,308.29151 -3.3464188,289.08967 1.8456132,266.52741 13.130883,217.48661 24.260575,168.40934 35.758531,119.41845 41.699815,94.103585 65.213212,76.120155 91.349534,76.120575 c 70.810436,0.001 141.620866,-0.002 212.431286,-0.005 29.53644,-0.001 52.57718,17.43982 59.25794,46.037985 11.45129,49.01944 22.09143,98.22827 33.52347,147.25235 6.99435,29.99414 -12.48102,58.94345 -39.13529,66.86151 M 153.75275,149.73896 c -6.47266,-0.77316 -12.96955,-0.46731 -19.45481,-0.33981 -3.36865,0.0662 -4.86082,-1.19422 -4.72943,-4.68344 0.17527,-4.65428 0.0739,-9.32071 0.027,-13.98127 -0.0957,-9.51214 -6.65008,-16.22579 -15.85301,-16.29043 -9.43478,-0.0663 -15.460557,5.79492 -15.753373,15.50749 -0.150436,4.98958 -0.175247,9.9915 -0.0054,14.9793 0.120132,3.52676 -1.409073,4.69064 -4.772553,4.61303 -5.818893,-0.13421 -11.644653,-0.0309 -17.466537,0.0471 -3.683167,0.0494 -6.735764,1.59052 -9.27301,4.23148 -4.798401,4.99463 -5.626892,11.02649 -3.325043,17.11899 2.554291,6.76077 8.402298,9.66821 15.352402,10.08001 4.976852,0.29486 9.988968,0.20282 14.976806,0.0331 3.494309,-0.11898 4.755905,1.36326 4.661988,4.73822 -0.134247,4.82273 -0.128479,9.6569 0.0363,14.4787 0.285034,8.34024 6.90223,14.71125 15.08773,14.71564 8.74415,0.005 16.07367,-6.65323 16.31498,-14.95099 0.12578,-4.32449 0.26415,-8.67181 -0.0339,-12.97903 -0.3071,-4.43854 1.07463,-6.3848 5.8245,-6.05216 4.96763,0.3479 9.99564,0.26584 14.97196,-0.0401 8.31787,-0.51132 15.25345,-6.24441 16.22265,-13.01742 1.24622,-8.70853 -2.80777,-14.84137 -12.80935,-18.20847 m 28.2222,70.17832 c 15.358,9.13894 32.99548,5.45126 41.95092,-8.77118 3.77106,-5.98896 4.19269,-10.54364 1.21595,-13.13559 -3.19434,-2.78144 -6.75226,-1.79251 -12.41864,3.45175 -8.28373,7.66662 -17.43286,8.17944 -26.62705,1.46945 -1.33987,-0.97787 -2.55823,-2.129 -3.93219,-3.05197 -2.59918,-1.74606 -5.25973,-2.8364 -8.22378,-0.58182 -2.99842,2.28067 -3.32166,5.1991 -2.18378,8.45502 1.77234,5.07129 5.35449,8.70398 10.21857,12.16434 M 313.73923,180.2425 c 8.46167,2.1272 16.84469,-1.26254 20.44534,-8.26733 3.26596,-6.35367 1.62393,-14.59317 -3.79037,-19.01956 -5.57144,-4.5549 -16.42383,-4.93912 -21.90763,-0.63227 -11.26416,8.84653 -6.0187,24.54767 5.25266,27.91916 m -39.43555,-62.06541 c -1.01434,1.0946 -2.19107,2.07957 -3.01629,3.30186 -4.81101,7.12615 -3.69187,16.7283 2.51577,22.31 5.79819,5.21353 15.05744,5.11368 21.57416,-0.23267 4.99408,-4.0972 6.3049,-15.55795 2.48221,-21.70279 -4.49716,-7.22909 -14.27606,-8.97506 -23.55585,-3.6764 m -40.17813,52.27363 c 0.69843,1.3165 1.26712,2.72431 2.11789,3.93363 3.56171,5.06274 10.74133,7.83771 16.74127,6.35614 6.47077,-1.59787 11.10974,-5.49201 12.53684,-12.10977 1.44037,-6.67917 -0.40808,-12.51383 -6.23276,-16.6623 -4.68259,-3.33508 -14.66824,-3.57449 -19.46439,-0.28116 -6.48922,4.45591 -7.73813,10.77408 -5.69885,18.76346 m 51.035,11.48157 c -9.00347,0.6756 -14.87844,5.52841 -16.58459,13.69916 -1.56174,7.47912 3.39087,15.92853 10.63126,18.13739 8.26126,2.52029 17.8012,-1.29242 19.65615,-8.98352 2.55808,-10.60669 1.81437,-19.13825 -13.70282,-22.85303 z"
   id="path132" />
<path
   fill="#ffffff"
   opacity="1"
   stroke="none"
   d="m 210.48465,2.5678654 c 13.41632,7.6261496 18.76877,21.5245196 13.3393,33.9345496 -5.45383,12.46577 -19.63974,19.00038 -32.70649,15.0659 -13.78192,-4.14982 -21.9725,-18.98614 -18.04123,-32.67973 3.84998,-13.4101896 19.15308,-21.7896196 32.8375,-17.95630961 1.43341,0.40153001 2.82132,0.96552001 4.57092,1.63559001 z"
   id="path134" />
</svg>
