G04 EAGLE Gerber RS-274X export*
G75*
%MOMM*%
%FSLAX34Y34*%
%LPD*%
%INBottom Copper*%
%IPPOS*%
%AMOC8*
5,1,8,0,0,1.08239X$1,22.5*%
G01*
%ADD10C,1.879600*%
%ADD11C,0.304800*%

G36*
X123189Y7623D02*
X123189Y7623D01*
X123215Y7621D01*
X123389Y7643D01*
X123563Y7661D01*
X123588Y7668D01*
X123615Y7672D01*
X123780Y7727D01*
X123948Y7779D01*
X123971Y7792D01*
X123996Y7800D01*
X124148Y7887D01*
X124302Y7971D01*
X124322Y7988D01*
X124345Y8001D01*
X124598Y8216D01*
X128944Y12562D01*
X128961Y12582D01*
X128982Y12600D01*
X129089Y12738D01*
X129199Y12873D01*
X129212Y12897D01*
X129228Y12918D01*
X129306Y13075D01*
X129388Y13229D01*
X129396Y13254D01*
X129408Y13278D01*
X129453Y13448D01*
X129503Y13615D01*
X129505Y13641D01*
X129512Y13667D01*
X129539Y13998D01*
X129539Y201902D01*
X129537Y201929D01*
X129539Y201955D01*
X129517Y202129D01*
X129499Y202303D01*
X129492Y202328D01*
X129488Y202355D01*
X129433Y202520D01*
X129381Y202688D01*
X129368Y202711D01*
X129360Y202736D01*
X129273Y202888D01*
X129189Y203042D01*
X129172Y203062D01*
X129159Y203085D01*
X128944Y203338D01*
X124598Y207684D01*
X124578Y207701D01*
X124560Y207722D01*
X124422Y207829D01*
X124287Y207939D01*
X124263Y207952D01*
X124242Y207968D01*
X124085Y208046D01*
X123931Y208128D01*
X123906Y208136D01*
X123882Y208148D01*
X123712Y208193D01*
X123545Y208243D01*
X123519Y208245D01*
X123493Y208252D01*
X123162Y208279D01*
X13998Y208279D01*
X13971Y208277D01*
X13945Y208279D01*
X13771Y208257D01*
X13597Y208239D01*
X13572Y208232D01*
X13545Y208228D01*
X13380Y208173D01*
X13212Y208121D01*
X13189Y208108D01*
X13164Y208100D01*
X13012Y208013D01*
X12858Y207929D01*
X12838Y207912D01*
X12815Y207899D01*
X12562Y207684D01*
X8216Y203338D01*
X8199Y203318D01*
X8178Y203300D01*
X8071Y203162D01*
X7961Y203027D01*
X7948Y203003D01*
X7932Y202982D01*
X7854Y202825D01*
X7772Y202671D01*
X7764Y202646D01*
X7752Y202622D01*
X7707Y202452D01*
X7657Y202285D01*
X7655Y202259D01*
X7648Y202233D01*
X7621Y201902D01*
X7621Y13998D01*
X7623Y13971D01*
X7621Y13945D01*
X7643Y13771D01*
X7661Y13597D01*
X7668Y13572D01*
X7672Y13545D01*
X7727Y13380D01*
X7779Y13212D01*
X7792Y13189D01*
X7800Y13164D01*
X7887Y13012D01*
X7971Y12858D01*
X7988Y12838D01*
X8001Y12815D01*
X8216Y12562D01*
X12562Y8216D01*
X12582Y8199D01*
X12600Y8178D01*
X12738Y8071D01*
X12873Y7961D01*
X12897Y7948D01*
X12918Y7932D01*
X13075Y7854D01*
X13229Y7772D01*
X13254Y7764D01*
X13278Y7752D01*
X13448Y7707D01*
X13615Y7657D01*
X13641Y7655D01*
X13667Y7648D01*
X13998Y7621D01*
X123162Y7621D01*
X123189Y7623D01*
G37*
%LPC*%
G36*
X111618Y72356D02*
X111618Y72356D01*
X111600Y72358D01*
X111583Y72362D01*
X111252Y72389D01*
X100075Y72389D01*
X100115Y72646D01*
X100696Y74433D01*
X101549Y76107D01*
X102654Y77628D01*
X103982Y78956D01*
X105503Y80061D01*
X107177Y80914D01*
X107909Y81152D01*
X107991Y81188D01*
X108075Y81214D01*
X108174Y81268D01*
X108278Y81314D01*
X108351Y81365D01*
X108428Y81407D01*
X108515Y81480D01*
X108607Y81545D01*
X108669Y81609D01*
X108737Y81666D01*
X108807Y81755D01*
X108885Y81837D01*
X108932Y81912D01*
X108988Y81981D01*
X109039Y82082D01*
X109099Y82177D01*
X109131Y82260D01*
X109171Y82339D01*
X109202Y82448D01*
X109242Y82554D01*
X109257Y82642D01*
X109281Y82727D01*
X109290Y82839D01*
X109308Y82951D01*
X109305Y83040D01*
X109312Y83128D01*
X109299Y83240D01*
X109295Y83353D01*
X109274Y83440D01*
X109264Y83528D01*
X109228Y83635D01*
X109202Y83745D01*
X109165Y83826D01*
X109137Y83910D01*
X109081Y84008D01*
X109034Y84111D01*
X108982Y84183D01*
X108938Y84260D01*
X108863Y84345D01*
X108797Y84436D01*
X108732Y84496D01*
X108673Y84563D01*
X108584Y84632D01*
X108500Y84709D01*
X108424Y84755D01*
X108354Y84809D01*
X108228Y84873D01*
X108156Y84917D01*
X108113Y84933D01*
X108059Y84960D01*
X105573Y85990D01*
X102500Y89063D01*
X100837Y93077D01*
X100837Y97423D01*
X102500Y101437D01*
X105573Y104510D01*
X109347Y106073D01*
X109355Y106078D01*
X109364Y106080D01*
X109533Y106173D01*
X109702Y106264D01*
X109709Y106269D01*
X109717Y106274D01*
X109865Y106398D01*
X110013Y106520D01*
X110018Y106527D01*
X110025Y106533D01*
X110145Y106684D01*
X110266Y106833D01*
X110271Y106840D01*
X110276Y106848D01*
X110363Y107018D01*
X110453Y107189D01*
X110456Y107198D01*
X110460Y107206D01*
X110512Y107388D01*
X110567Y107576D01*
X110567Y107585D01*
X110570Y107593D01*
X110585Y107784D01*
X110601Y107977D01*
X110600Y107986D01*
X110601Y107994D01*
X110578Y108185D01*
X110556Y108377D01*
X110553Y108385D01*
X110552Y108394D01*
X110492Y108575D01*
X110433Y108760D01*
X110428Y108768D01*
X110426Y108776D01*
X110331Y108942D01*
X110236Y109112D01*
X110231Y109118D01*
X110226Y109126D01*
X110099Y109272D01*
X109975Y109417D01*
X109968Y109423D01*
X109962Y109430D01*
X109809Y109547D01*
X109658Y109666D01*
X109650Y109670D01*
X109643Y109675D01*
X109347Y109827D01*
X105573Y111390D01*
X102500Y114463D01*
X100837Y118477D01*
X100837Y122823D01*
X102500Y126837D01*
X105573Y129910D01*
X109347Y131473D01*
X109355Y131478D01*
X109364Y131480D01*
X109533Y131573D01*
X109702Y131664D01*
X109709Y131669D01*
X109717Y131674D01*
X109864Y131797D01*
X110013Y131920D01*
X110018Y131927D01*
X110025Y131933D01*
X110145Y132083D01*
X110266Y132233D01*
X110271Y132241D01*
X110276Y132248D01*
X110363Y132417D01*
X110454Y132589D01*
X110456Y132598D01*
X110460Y132606D01*
X110512Y132788D01*
X110567Y132976D01*
X110567Y132985D01*
X110570Y132993D01*
X110585Y133184D01*
X110601Y133377D01*
X110600Y133386D01*
X110601Y133394D01*
X110578Y133585D01*
X110556Y133777D01*
X110553Y133785D01*
X110552Y133794D01*
X110492Y133976D01*
X110433Y134160D01*
X110428Y134168D01*
X110426Y134176D01*
X110330Y134344D01*
X110237Y134512D01*
X110231Y134518D01*
X110226Y134526D01*
X110099Y134672D01*
X109975Y134817D01*
X109968Y134823D01*
X109962Y134830D01*
X109810Y134947D01*
X109658Y135066D01*
X109650Y135070D01*
X109643Y135075D01*
X109347Y135227D01*
X105573Y136790D01*
X102500Y139863D01*
X100837Y143877D01*
X100837Y148223D01*
X102500Y152237D01*
X105573Y155310D01*
X107384Y156060D01*
X109347Y156873D01*
X109355Y156878D01*
X109364Y156880D01*
X109533Y156973D01*
X109702Y157064D01*
X109709Y157069D01*
X109717Y157074D01*
X109865Y157198D01*
X110013Y157320D01*
X110018Y157327D01*
X110025Y157333D01*
X110145Y157483D01*
X110266Y157633D01*
X110271Y157641D01*
X110276Y157648D01*
X110363Y157817D01*
X110454Y157989D01*
X110456Y157998D01*
X110460Y158006D01*
X110512Y158188D01*
X110567Y158376D01*
X110567Y158385D01*
X110570Y158393D01*
X110585Y158584D01*
X110601Y158777D01*
X110600Y158786D01*
X110601Y158794D01*
X110578Y158985D01*
X110556Y159177D01*
X110553Y159185D01*
X110552Y159194D01*
X110492Y159376D01*
X110433Y159560D01*
X110428Y159568D01*
X110426Y159576D01*
X110331Y159742D01*
X110237Y159912D01*
X110231Y159918D01*
X110226Y159926D01*
X110099Y160072D01*
X109975Y160217D01*
X109968Y160223D01*
X109962Y160230D01*
X109810Y160347D01*
X109658Y160466D01*
X109650Y160470D01*
X109643Y160475D01*
X109347Y160627D01*
X105573Y162190D01*
X102500Y165263D01*
X100837Y169277D01*
X100837Y173623D01*
X102500Y177637D01*
X105573Y180710D01*
X109587Y182373D01*
X113933Y182373D01*
X117947Y180710D01*
X121020Y177637D01*
X122683Y173623D01*
X122683Y169277D01*
X121020Y165263D01*
X117947Y162190D01*
X117096Y161838D01*
X114173Y160627D01*
X114165Y160622D01*
X114156Y160620D01*
X113988Y160528D01*
X113818Y160436D01*
X113811Y160431D01*
X113803Y160426D01*
X113656Y160303D01*
X113507Y160180D01*
X113502Y160173D01*
X113495Y160167D01*
X113375Y160017D01*
X113254Y159867D01*
X113249Y159859D01*
X113244Y159853D01*
X113156Y159681D01*
X113067Y159511D01*
X113064Y159502D01*
X113060Y159494D01*
X113008Y159310D01*
X112953Y159124D01*
X112953Y159116D01*
X112950Y159107D01*
X112935Y158916D01*
X112919Y158723D01*
X112920Y158714D01*
X112919Y158706D01*
X112942Y158515D01*
X112964Y158323D01*
X112967Y158315D01*
X112968Y158306D01*
X113028Y158123D01*
X113087Y157940D01*
X113091Y157932D01*
X113094Y157924D01*
X113190Y157756D01*
X113283Y157588D01*
X113289Y157582D01*
X113294Y157574D01*
X113420Y157429D01*
X113545Y157283D01*
X113552Y157277D01*
X113558Y157270D01*
X113710Y157153D01*
X113862Y157034D01*
X113870Y157030D01*
X113877Y157025D01*
X114173Y156873D01*
X117947Y155310D01*
X121020Y152237D01*
X122683Y148223D01*
X122683Y143877D01*
X121020Y139863D01*
X117947Y136790D01*
X114667Y135431D01*
X114173Y135227D01*
X114165Y135222D01*
X114156Y135220D01*
X113988Y135128D01*
X113818Y135036D01*
X113811Y135031D01*
X113803Y135026D01*
X113657Y134903D01*
X113507Y134780D01*
X113502Y134773D01*
X113495Y134767D01*
X113375Y134617D01*
X113254Y134467D01*
X113249Y134459D01*
X113244Y134453D01*
X113155Y134280D01*
X113067Y134111D01*
X113064Y134102D01*
X113060Y134094D01*
X113007Y133908D01*
X112953Y133724D01*
X112953Y133716D01*
X112950Y133707D01*
X112935Y133516D01*
X112919Y133323D01*
X112920Y133314D01*
X112919Y133306D01*
X112942Y133115D01*
X112964Y132923D01*
X112967Y132915D01*
X112968Y132906D01*
X113028Y132723D01*
X113087Y132540D01*
X113091Y132532D01*
X113094Y132524D01*
X113190Y132356D01*
X113283Y132188D01*
X113289Y132182D01*
X113294Y132174D01*
X113420Y132029D01*
X113545Y131883D01*
X113552Y131877D01*
X113558Y131870D01*
X113710Y131753D01*
X113862Y131634D01*
X113870Y131630D01*
X113877Y131625D01*
X114173Y131473D01*
X117947Y129910D01*
X121020Y126837D01*
X122683Y122823D01*
X122683Y118477D01*
X121020Y114463D01*
X117947Y111390D01*
X117142Y111056D01*
X117141Y111056D01*
X114173Y109827D01*
X114165Y109822D01*
X114156Y109820D01*
X113988Y109728D01*
X113818Y109636D01*
X113811Y109631D01*
X113803Y109626D01*
X113657Y109503D01*
X113507Y109380D01*
X113502Y109373D01*
X113495Y109367D01*
X113375Y109217D01*
X113254Y109067D01*
X113249Y109059D01*
X113244Y109053D01*
X113156Y108881D01*
X113067Y108711D01*
X113064Y108702D01*
X113060Y108694D01*
X113007Y108509D01*
X112953Y108324D01*
X112953Y108316D01*
X112950Y108307D01*
X112935Y108116D01*
X112919Y107923D01*
X112920Y107914D01*
X112919Y107906D01*
X112943Y107713D01*
X112964Y107523D01*
X112967Y107515D01*
X112968Y107506D01*
X113029Y107321D01*
X113087Y107140D01*
X113091Y107132D01*
X113094Y107124D01*
X113190Y106956D01*
X113284Y106788D01*
X113289Y106782D01*
X113294Y106774D01*
X113420Y106629D01*
X113545Y106483D01*
X113552Y106477D01*
X113558Y106470D01*
X113711Y106353D01*
X113862Y106234D01*
X113870Y106230D01*
X113877Y106225D01*
X114173Y106073D01*
X117947Y104510D01*
X121020Y101437D01*
X122683Y97423D01*
X122683Y93077D01*
X121020Y89063D01*
X117947Y85990D01*
X115461Y84960D01*
X115383Y84918D01*
X115300Y84885D01*
X115206Y84824D01*
X115106Y84770D01*
X115038Y84714D01*
X114964Y84665D01*
X114883Y84586D01*
X114796Y84514D01*
X114740Y84445D01*
X114677Y84383D01*
X114613Y84289D01*
X114542Y84201D01*
X114501Y84123D01*
X114451Y84049D01*
X114408Y83945D01*
X114355Y83845D01*
X114330Y83760D01*
X114296Y83678D01*
X114274Y83567D01*
X114242Y83458D01*
X114234Y83370D01*
X114217Y83283D01*
X114217Y83170D01*
X114207Y83057D01*
X114217Y82969D01*
X114217Y82880D01*
X114240Y82769D01*
X114253Y82657D01*
X114280Y82572D01*
X114297Y82486D01*
X114341Y82381D01*
X114376Y82274D01*
X114419Y82196D01*
X114453Y82114D01*
X114517Y82021D01*
X114572Y81922D01*
X114630Y81855D01*
X114680Y81781D01*
X114760Y81702D01*
X114834Y81616D01*
X114904Y81562D01*
X114967Y81500D01*
X115062Y81438D01*
X115151Y81368D01*
X115230Y81328D01*
X115305Y81280D01*
X115435Y81225D01*
X115511Y81187D01*
X115555Y81175D01*
X115611Y81152D01*
X116343Y80914D01*
X118017Y80061D01*
X119538Y78956D01*
X120866Y77628D01*
X121971Y76107D01*
X122824Y74433D01*
X123405Y72646D01*
X123445Y72389D01*
X112268Y72389D01*
X112250Y72387D01*
X112233Y72389D01*
X112050Y72368D01*
X111868Y72349D01*
X111851Y72344D01*
X111833Y72342D01*
X111755Y72317D01*
X111618Y72356D01*
G37*
%LPD*%
%LPC*%
G36*
X109587Y33527D02*
X109587Y33527D01*
X105573Y35190D01*
X102500Y38263D01*
X100837Y42277D01*
X100837Y46623D01*
X102500Y50637D01*
X105573Y53710D01*
X107474Y54497D01*
X107474Y54498D01*
X108059Y54740D01*
X108137Y54782D01*
X108220Y54815D01*
X108314Y54877D01*
X108414Y54930D01*
X108482Y54986D01*
X108557Y55035D01*
X108637Y55114D01*
X108724Y55186D01*
X108780Y55255D01*
X108843Y55318D01*
X108907Y55411D01*
X108978Y55499D01*
X109019Y55577D01*
X109069Y55651D01*
X109112Y55755D01*
X109165Y55855D01*
X109190Y55941D01*
X109224Y56023D01*
X109246Y56133D01*
X109278Y56242D01*
X109286Y56330D01*
X109303Y56417D01*
X109303Y56531D01*
X109313Y56643D01*
X109303Y56731D01*
X109303Y56820D01*
X109280Y56931D01*
X109267Y57043D01*
X109240Y57128D01*
X109223Y57215D01*
X109179Y57319D01*
X109144Y57426D01*
X109101Y57504D01*
X109067Y57586D01*
X109003Y57679D01*
X108948Y57778D01*
X108890Y57845D01*
X108840Y57919D01*
X108760Y57998D01*
X108686Y58084D01*
X108616Y58138D01*
X108553Y58201D01*
X108458Y58262D01*
X108369Y58332D01*
X108290Y58372D01*
X108215Y58420D01*
X108085Y58475D01*
X108009Y58513D01*
X107965Y58525D01*
X107909Y58548D01*
X107177Y58786D01*
X105503Y59639D01*
X103982Y60744D01*
X102654Y62072D01*
X101549Y63593D01*
X100696Y65267D01*
X100115Y67054D01*
X100075Y67311D01*
X111252Y67311D01*
X111270Y67312D01*
X111287Y67311D01*
X111470Y67332D01*
X111652Y67351D01*
X111669Y67356D01*
X111687Y67358D01*
X111765Y67383D01*
X111902Y67344D01*
X111920Y67342D01*
X111937Y67338D01*
X112268Y67311D01*
X123445Y67311D01*
X123405Y67054D01*
X122824Y65267D01*
X121971Y63593D01*
X120866Y62072D01*
X119538Y60744D01*
X118017Y59639D01*
X116343Y58786D01*
X115611Y58548D01*
X115529Y58512D01*
X115445Y58486D01*
X115346Y58432D01*
X115242Y58386D01*
X115169Y58335D01*
X115092Y58293D01*
X115005Y58220D01*
X114913Y58155D01*
X114851Y58091D01*
X114783Y58034D01*
X114713Y57945D01*
X114635Y57863D01*
X114588Y57788D01*
X114532Y57719D01*
X114481Y57618D01*
X114421Y57523D01*
X114389Y57440D01*
X114349Y57361D01*
X114318Y57252D01*
X114278Y57146D01*
X114263Y57058D01*
X114239Y56973D01*
X114230Y56861D01*
X114212Y56749D01*
X114215Y56660D01*
X114208Y56572D01*
X114221Y56460D01*
X114225Y56347D01*
X114246Y56260D01*
X114256Y56172D01*
X114292Y56065D01*
X114318Y55955D01*
X114355Y55874D01*
X114383Y55790D01*
X114439Y55692D01*
X114486Y55589D01*
X114538Y55517D01*
X114582Y55440D01*
X114657Y55355D01*
X114723Y55264D01*
X114788Y55204D01*
X114847Y55137D01*
X114936Y55068D01*
X115020Y54991D01*
X115096Y54945D01*
X115166Y54891D01*
X115292Y54827D01*
X115364Y54783D01*
X115407Y54767D01*
X115461Y54740D01*
X117947Y53710D01*
X121020Y50637D01*
X122683Y46623D01*
X122683Y42277D01*
X121020Y38263D01*
X117947Y35190D01*
X113933Y33527D01*
X109587Y33527D01*
G37*
%LPD*%
%LPC*%
G36*
X40499Y97027D02*
X40499Y97027D01*
X36485Y98690D01*
X33412Y101763D01*
X31749Y105777D01*
X31749Y110123D01*
X33412Y114137D01*
X36485Y117210D01*
X40499Y118873D01*
X44845Y118873D01*
X48859Y117210D01*
X51932Y114137D01*
X53595Y110123D01*
X53595Y105777D01*
X51932Y101763D01*
X48859Y98690D01*
X44845Y97027D01*
X40499Y97027D01*
G37*
%LPD*%
%LPC*%
G36*
X78599Y154177D02*
X78599Y154177D01*
X74585Y155840D01*
X71512Y158913D01*
X69849Y162927D01*
X69849Y167273D01*
X71512Y171287D01*
X74585Y174360D01*
X78599Y176023D01*
X82945Y176023D01*
X86959Y174360D01*
X90032Y171287D01*
X91695Y167273D01*
X91695Y162927D01*
X90032Y158913D01*
X86959Y155840D01*
X82945Y154177D01*
X78599Y154177D01*
G37*
%LPD*%
%LPC*%
G36*
X78599Y77977D02*
X78599Y77977D01*
X74585Y79640D01*
X71512Y82713D01*
X69849Y86727D01*
X69849Y91073D01*
X71512Y95087D01*
X74585Y98160D01*
X77060Y99185D01*
X78599Y99823D01*
X82945Y99823D01*
X86959Y98160D01*
X90032Y95087D01*
X91695Y91073D01*
X91695Y86727D01*
X90032Y82713D01*
X86959Y79640D01*
X82945Y77977D01*
X78599Y77977D01*
G37*
%LPD*%
%LPC*%
G36*
X78599Y116077D02*
X78599Y116077D01*
X74585Y117740D01*
X71512Y120813D01*
X69849Y124827D01*
X69849Y129173D01*
X71512Y133187D01*
X74585Y136260D01*
X78599Y137923D01*
X82945Y137923D01*
X86959Y136260D01*
X90032Y133187D01*
X91695Y129173D01*
X91695Y124827D01*
X90032Y120813D01*
X86959Y117740D01*
X85535Y117150D01*
X82945Y116077D01*
X78599Y116077D01*
G37*
%LPD*%
%LPC*%
G36*
X78599Y39877D02*
X78599Y39877D01*
X74585Y41540D01*
X71512Y44613D01*
X69849Y48627D01*
X69849Y52973D01*
X71512Y56987D01*
X74585Y60060D01*
X78599Y61723D01*
X82945Y61723D01*
X86959Y60060D01*
X90032Y56987D01*
X91695Y52973D01*
X91695Y48627D01*
X90032Y44613D01*
X86959Y41540D01*
X83151Y39963D01*
X82945Y39877D01*
X78599Y39877D01*
G37*
%LPD*%
%LPC*%
G36*
X45211Y72389D02*
X45211Y72389D01*
X45211Y81535D01*
X45468Y81495D01*
X47255Y80914D01*
X48929Y80061D01*
X50450Y78956D01*
X51778Y77628D01*
X52883Y76107D01*
X53736Y74433D01*
X54317Y72646D01*
X54357Y72389D01*
X45211Y72389D01*
G37*
%LPD*%
%LPC*%
G36*
X45211Y148589D02*
X45211Y148589D01*
X45211Y157735D01*
X45468Y157695D01*
X47255Y157114D01*
X48929Y156261D01*
X50450Y155156D01*
X51778Y153828D01*
X52883Y152307D01*
X53736Y150633D01*
X54317Y148846D01*
X54357Y148589D01*
X45211Y148589D01*
G37*
%LPD*%
%LPC*%
G36*
X30987Y148589D02*
X30987Y148589D01*
X31027Y148846D01*
X31608Y150633D01*
X32461Y152307D01*
X33566Y153828D01*
X34894Y155156D01*
X36415Y156261D01*
X38089Y157114D01*
X39876Y157695D01*
X40133Y157735D01*
X40133Y148589D01*
X30987Y148589D01*
G37*
%LPD*%
%LPC*%
G36*
X45211Y143511D02*
X45211Y143511D01*
X54357Y143511D01*
X54317Y143254D01*
X53736Y141467D01*
X52883Y139793D01*
X51778Y138272D01*
X50450Y136944D01*
X48929Y135839D01*
X47255Y134986D01*
X45468Y134405D01*
X45211Y134365D01*
X45211Y143511D01*
G37*
%LPD*%
%LPC*%
G36*
X45211Y67311D02*
X45211Y67311D01*
X54357Y67311D01*
X54317Y67054D01*
X53736Y65267D01*
X52883Y63593D01*
X51778Y62072D01*
X50450Y60744D01*
X48929Y59639D01*
X47255Y58786D01*
X45468Y58205D01*
X45211Y58165D01*
X45211Y67311D01*
G37*
%LPD*%
%LPC*%
G36*
X30987Y72389D02*
X30987Y72389D01*
X31027Y72646D01*
X31608Y74433D01*
X32461Y76107D01*
X33566Y77628D01*
X34894Y78956D01*
X36415Y80061D01*
X38089Y80914D01*
X39876Y81495D01*
X40133Y81535D01*
X40133Y72389D01*
X30987Y72389D01*
G37*
%LPD*%
%LPC*%
G36*
X39876Y134405D02*
X39876Y134405D01*
X38089Y134986D01*
X36415Y135839D01*
X34894Y136944D01*
X33566Y138272D01*
X32461Y139793D01*
X31608Y141467D01*
X31027Y143254D01*
X30987Y143511D01*
X40133Y143511D01*
X40133Y134365D01*
X39876Y134405D01*
G37*
%LPD*%
%LPC*%
G36*
X39876Y58205D02*
X39876Y58205D01*
X38089Y58786D01*
X36415Y59639D01*
X34894Y60744D01*
X33566Y62072D01*
X32461Y63593D01*
X31608Y65267D01*
X31027Y67054D01*
X30987Y67311D01*
X40133Y67311D01*
X40133Y58165D01*
X39876Y58205D01*
G37*
%LPD*%
D10*
X80772Y50800D03*
X80772Y88900D03*
X80772Y127000D03*
X80772Y165100D03*
X42672Y69850D03*
X42672Y107950D03*
X42672Y146050D03*
X111760Y171450D03*
X111760Y146050D03*
X111760Y120650D03*
X111760Y95250D03*
X111760Y69850D03*
X111760Y44450D03*
D11*
X55372Y146050D02*
X42672Y146050D01*
X55372Y146050D02*
X60960Y140462D01*
X60960Y75438D02*
X55372Y69850D01*
X42672Y69850D01*
X60960Y75438D02*
X60960Y140462D01*
X42672Y69850D02*
X111760Y69850D01*
M02*
