G04 EAGLE Gerber RS-274X export*
G75*
%MOMM*%
%FSLAX34Y34*%
%LPD*%
%INSilkscreen Top*%
%IPPOS*%
%AMOC8*
5,1,8,0,0,1.08239X$1,22.5*%
G01*
%ADD10C,0.050800*%
%ADD11C,0.076200*%


D10*
X131826Y38354D02*
X131826Y40217D01*
X131824Y40287D01*
X131818Y40356D01*
X131808Y40425D01*
X131795Y40493D01*
X131777Y40561D01*
X131756Y40627D01*
X131731Y40692D01*
X131703Y40756D01*
X131671Y40818D01*
X131636Y40878D01*
X131597Y40936D01*
X131555Y40991D01*
X131510Y41045D01*
X131462Y41095D01*
X131412Y41143D01*
X131358Y41188D01*
X131303Y41230D01*
X131245Y41269D01*
X131185Y41304D01*
X131123Y41336D01*
X131059Y41364D01*
X130994Y41389D01*
X130928Y41410D01*
X130860Y41428D01*
X130792Y41441D01*
X130723Y41451D01*
X130654Y41457D01*
X130584Y41459D01*
X130584Y41458D02*
X129963Y41458D01*
X129963Y41459D02*
X129893Y41457D01*
X129824Y41451D01*
X129755Y41441D01*
X129687Y41428D01*
X129619Y41410D01*
X129553Y41389D01*
X129488Y41364D01*
X129424Y41336D01*
X129362Y41304D01*
X129302Y41269D01*
X129244Y41230D01*
X129189Y41188D01*
X129135Y41143D01*
X129085Y41095D01*
X129037Y41045D01*
X128992Y40991D01*
X128950Y40936D01*
X128911Y40878D01*
X128876Y40818D01*
X128844Y40756D01*
X128816Y40692D01*
X128791Y40627D01*
X128770Y40561D01*
X128752Y40493D01*
X128739Y40425D01*
X128729Y40356D01*
X128723Y40287D01*
X128721Y40217D01*
X128722Y40217D02*
X128722Y38354D01*
X126238Y38354D01*
X126238Y41458D01*
X126238Y43530D02*
X131826Y45393D01*
X126238Y47255D01*
X128722Y63387D02*
X128722Y64318D01*
X131826Y64318D01*
X131826Y62456D01*
X131824Y62386D01*
X131818Y62317D01*
X131808Y62248D01*
X131795Y62180D01*
X131777Y62112D01*
X131756Y62046D01*
X131731Y61981D01*
X131703Y61917D01*
X131671Y61855D01*
X131636Y61795D01*
X131597Y61737D01*
X131555Y61682D01*
X131510Y61628D01*
X131462Y61578D01*
X131412Y61530D01*
X131358Y61485D01*
X131303Y61443D01*
X131245Y61404D01*
X131185Y61369D01*
X131123Y61337D01*
X131059Y61309D01*
X130994Y61284D01*
X130928Y61263D01*
X130860Y61245D01*
X130792Y61232D01*
X130723Y61222D01*
X130654Y61216D01*
X130584Y61214D01*
X127480Y61214D01*
X127410Y61216D01*
X127341Y61222D01*
X127272Y61232D01*
X127204Y61245D01*
X127136Y61263D01*
X127070Y61284D01*
X127005Y61309D01*
X126941Y61337D01*
X126879Y61369D01*
X126819Y61404D01*
X126761Y61443D01*
X126706Y61485D01*
X126652Y61530D01*
X126602Y61578D01*
X126554Y61628D01*
X126509Y61682D01*
X126467Y61737D01*
X126428Y61795D01*
X126393Y61855D01*
X126361Y61917D01*
X126333Y61981D01*
X126308Y62046D01*
X126287Y62112D01*
X126269Y62180D01*
X126256Y62248D01*
X126246Y62317D01*
X126240Y62386D01*
X126238Y62456D01*
X126238Y64318D01*
X126238Y67066D02*
X131826Y67066D01*
X131826Y70171D02*
X126238Y67066D01*
X126238Y70171D02*
X131826Y70171D01*
X131826Y72918D02*
X126238Y72918D01*
X126238Y74470D01*
X126240Y74546D01*
X126245Y74622D01*
X126255Y74698D01*
X126268Y74773D01*
X126285Y74847D01*
X126305Y74921D01*
X126329Y74993D01*
X126356Y75064D01*
X126387Y75134D01*
X126421Y75202D01*
X126459Y75268D01*
X126500Y75332D01*
X126543Y75395D01*
X126590Y75455D01*
X126640Y75512D01*
X126693Y75567D01*
X126748Y75620D01*
X126805Y75670D01*
X126865Y75717D01*
X126928Y75760D01*
X126992Y75801D01*
X127058Y75839D01*
X127126Y75873D01*
X127196Y75904D01*
X127267Y75931D01*
X127340Y75955D01*
X127413Y75975D01*
X127487Y75992D01*
X127562Y76005D01*
X127638Y76015D01*
X127714Y76020D01*
X127790Y76022D01*
X127790Y76023D02*
X130274Y76023D01*
X130274Y76022D02*
X130350Y76020D01*
X130426Y76015D01*
X130502Y76005D01*
X130577Y75992D01*
X130651Y75975D01*
X130725Y75955D01*
X130797Y75931D01*
X130868Y75904D01*
X130938Y75873D01*
X131006Y75839D01*
X131072Y75801D01*
X131136Y75760D01*
X131199Y75717D01*
X131259Y75670D01*
X131316Y75620D01*
X131371Y75567D01*
X131424Y75512D01*
X131474Y75455D01*
X131521Y75395D01*
X131564Y75332D01*
X131605Y75268D01*
X131643Y75202D01*
X131677Y75134D01*
X131708Y75064D01*
X131735Y74993D01*
X131759Y74921D01*
X131779Y74847D01*
X131796Y74773D01*
X131809Y74698D01*
X131819Y74622D01*
X131824Y74546D01*
X131826Y74470D01*
X131826Y72918D01*
X131826Y85344D02*
X126238Y85344D01*
X126238Y86896D01*
X126240Y86972D01*
X126245Y87048D01*
X126255Y87124D01*
X126268Y87199D01*
X126285Y87273D01*
X126305Y87347D01*
X126329Y87419D01*
X126356Y87490D01*
X126387Y87560D01*
X126421Y87628D01*
X126459Y87694D01*
X126500Y87758D01*
X126543Y87821D01*
X126590Y87881D01*
X126640Y87938D01*
X126693Y87993D01*
X126748Y88046D01*
X126805Y88096D01*
X126865Y88143D01*
X126928Y88186D01*
X126992Y88227D01*
X127058Y88265D01*
X127126Y88299D01*
X127196Y88330D01*
X127267Y88357D01*
X127340Y88381D01*
X127413Y88401D01*
X127487Y88418D01*
X127562Y88431D01*
X127638Y88441D01*
X127714Y88446D01*
X127790Y88448D01*
X130274Y88448D01*
X130350Y88446D01*
X130426Y88441D01*
X130502Y88431D01*
X130577Y88418D01*
X130651Y88401D01*
X130725Y88381D01*
X130797Y88357D01*
X130868Y88330D01*
X130938Y88299D01*
X131006Y88265D01*
X131072Y88227D01*
X131136Y88186D01*
X131199Y88143D01*
X131259Y88096D01*
X131316Y88046D01*
X131371Y87993D01*
X131424Y87938D01*
X131474Y87881D01*
X131521Y87821D01*
X131564Y87758D01*
X131605Y87694D01*
X131643Y87628D01*
X131677Y87560D01*
X131708Y87490D01*
X131735Y87419D01*
X131759Y87347D01*
X131779Y87273D01*
X131796Y87199D01*
X131809Y87124D01*
X131819Y87048D01*
X131824Y86972D01*
X131826Y86896D01*
X131826Y85344D01*
X131826Y90703D02*
X126238Y92565D01*
X131826Y94428D01*
X130429Y93962D02*
X130429Y91168D01*
X131826Y97686D02*
X126238Y97686D01*
X126238Y96134D02*
X126238Y99238D01*
X126238Y102807D02*
X131826Y100944D01*
X131826Y104669D02*
X126238Y102807D01*
X130429Y104204D02*
X130429Y101410D01*
X131826Y115796D02*
X131826Y117038D01*
X131826Y115796D02*
X131824Y115726D01*
X131818Y115657D01*
X131808Y115588D01*
X131795Y115520D01*
X131777Y115452D01*
X131756Y115386D01*
X131731Y115321D01*
X131703Y115257D01*
X131671Y115195D01*
X131636Y115135D01*
X131597Y115077D01*
X131555Y115022D01*
X131510Y114968D01*
X131462Y114918D01*
X131412Y114870D01*
X131358Y114825D01*
X131303Y114783D01*
X131245Y114744D01*
X131185Y114709D01*
X131123Y114677D01*
X131059Y114649D01*
X130994Y114624D01*
X130928Y114603D01*
X130860Y114585D01*
X130792Y114572D01*
X130723Y114562D01*
X130654Y114556D01*
X130584Y114554D01*
X127480Y114554D01*
X127410Y114556D01*
X127341Y114562D01*
X127272Y114572D01*
X127204Y114585D01*
X127136Y114603D01*
X127070Y114624D01*
X127005Y114649D01*
X126941Y114677D01*
X126879Y114709D01*
X126819Y114744D01*
X126761Y114783D01*
X126706Y114825D01*
X126652Y114870D01*
X126602Y114918D01*
X126554Y114968D01*
X126509Y115022D01*
X126467Y115077D01*
X126428Y115135D01*
X126393Y115195D01*
X126361Y115257D01*
X126333Y115321D01*
X126308Y115386D01*
X126287Y115452D01*
X126269Y115520D01*
X126256Y115588D01*
X126246Y115657D01*
X126240Y115726D01*
X126238Y115796D01*
X126238Y117038D01*
X126238Y119336D02*
X131826Y119336D01*
X131826Y121820D01*
X131826Y124163D02*
X126238Y124163D01*
X126238Y127267D02*
X129653Y124163D01*
X128411Y125405D02*
X131826Y127267D01*
X132447Y138684D02*
X125617Y141168D01*
X127790Y143311D02*
X130274Y143311D01*
X127790Y143312D02*
X127713Y143314D01*
X127635Y143320D01*
X127559Y143329D01*
X127482Y143343D01*
X127407Y143360D01*
X127333Y143381D01*
X127259Y143406D01*
X127187Y143434D01*
X127117Y143466D01*
X127048Y143501D01*
X126981Y143540D01*
X126916Y143582D01*
X126853Y143627D01*
X126792Y143675D01*
X126734Y143726D01*
X126679Y143780D01*
X126626Y143837D01*
X126577Y143896D01*
X126530Y143958D01*
X126486Y144022D01*
X126446Y144088D01*
X126409Y144156D01*
X126375Y144226D01*
X126345Y144297D01*
X126319Y144370D01*
X126296Y144444D01*
X126277Y144519D01*
X126262Y144594D01*
X126250Y144671D01*
X126242Y144748D01*
X126238Y144825D01*
X126238Y144903D01*
X126242Y144980D01*
X126250Y145057D01*
X126262Y145134D01*
X126277Y145209D01*
X126296Y145284D01*
X126319Y145358D01*
X126345Y145431D01*
X126375Y145502D01*
X126409Y145572D01*
X126446Y145640D01*
X126486Y145706D01*
X126530Y145770D01*
X126577Y145832D01*
X126626Y145891D01*
X126679Y145948D01*
X126734Y146002D01*
X126792Y146053D01*
X126853Y146101D01*
X126916Y146146D01*
X126981Y146188D01*
X127048Y146227D01*
X127117Y146262D01*
X127187Y146294D01*
X127259Y146322D01*
X127333Y146347D01*
X127407Y146368D01*
X127482Y146385D01*
X127559Y146399D01*
X127635Y146408D01*
X127713Y146414D01*
X127790Y146416D01*
X130274Y146416D01*
X130351Y146414D01*
X130429Y146408D01*
X130505Y146399D01*
X130582Y146385D01*
X130657Y146368D01*
X130731Y146347D01*
X130805Y146322D01*
X130877Y146294D01*
X130947Y146262D01*
X131016Y146227D01*
X131083Y146188D01*
X131148Y146146D01*
X131211Y146101D01*
X131272Y146053D01*
X131330Y146002D01*
X131385Y145948D01*
X131438Y145891D01*
X131487Y145832D01*
X131534Y145770D01*
X131578Y145706D01*
X131618Y145640D01*
X131655Y145572D01*
X131689Y145502D01*
X131719Y145431D01*
X131745Y145358D01*
X131768Y145284D01*
X131787Y145209D01*
X131802Y145134D01*
X131814Y145057D01*
X131822Y144980D01*
X131826Y144903D01*
X131826Y144825D01*
X131822Y144748D01*
X131814Y144671D01*
X131802Y144594D01*
X131787Y144519D01*
X131768Y144444D01*
X131745Y144370D01*
X131719Y144297D01*
X131689Y144226D01*
X131655Y144156D01*
X131618Y144088D01*
X131578Y144022D01*
X131534Y143958D01*
X131487Y143896D01*
X131438Y143837D01*
X131385Y143780D01*
X131330Y143726D01*
X131272Y143675D01*
X131211Y143627D01*
X131148Y143582D01*
X131083Y143540D01*
X131016Y143501D01*
X130947Y143466D01*
X130877Y143434D01*
X130805Y143406D01*
X130731Y143381D01*
X130657Y143360D01*
X130582Y143343D01*
X130505Y143329D01*
X130429Y143320D01*
X130351Y143314D01*
X130274Y143312D01*
X131826Y148992D02*
X131826Y151475D01*
X131826Y148992D02*
X126238Y148992D01*
X126238Y151475D01*
X128722Y150854D02*
X128722Y148992D01*
X132447Y160274D02*
X125617Y162758D01*
X126238Y165095D02*
X131826Y165095D01*
X131826Y167579D01*
X131826Y169346D02*
X126238Y171208D01*
X131826Y173071D01*
X130429Y172605D02*
X130429Y169811D01*
X131826Y176329D02*
X126238Y176329D01*
X126238Y174777D02*
X126238Y177881D01*
X131826Y181123D02*
X131826Y182365D01*
X131826Y181123D02*
X131824Y181053D01*
X131818Y180984D01*
X131808Y180915D01*
X131795Y180847D01*
X131777Y180779D01*
X131756Y180713D01*
X131731Y180648D01*
X131703Y180584D01*
X131671Y180522D01*
X131636Y180462D01*
X131597Y180404D01*
X131555Y180349D01*
X131510Y180295D01*
X131462Y180245D01*
X131412Y180197D01*
X131358Y180152D01*
X131303Y180110D01*
X131245Y180071D01*
X131185Y180036D01*
X131123Y180004D01*
X131059Y179976D01*
X130994Y179951D01*
X130928Y179930D01*
X130860Y179912D01*
X130792Y179899D01*
X130723Y179889D01*
X130654Y179883D01*
X130584Y179881D01*
X127480Y179881D01*
X127410Y179883D01*
X127341Y179889D01*
X127272Y179899D01*
X127204Y179912D01*
X127136Y179930D01*
X127070Y179951D01*
X127005Y179976D01*
X126941Y180004D01*
X126879Y180036D01*
X126819Y180071D01*
X126761Y180110D01*
X126706Y180152D01*
X126652Y180197D01*
X126602Y180245D01*
X126554Y180295D01*
X126509Y180349D01*
X126467Y180404D01*
X126428Y180462D01*
X126393Y180522D01*
X126361Y180584D01*
X126333Y180648D01*
X126308Y180713D01*
X126287Y180779D01*
X126269Y180847D01*
X126256Y180915D01*
X126246Y180984D01*
X126240Y181053D01*
X126238Y181123D01*
X126238Y182365D01*
X126238Y184652D02*
X131826Y184652D01*
X128722Y184652D02*
X128722Y187757D01*
X126238Y187757D02*
X131826Y187757D01*
D11*
X15367Y40760D02*
X8001Y40760D01*
X8001Y42806D01*
X8003Y42895D01*
X8009Y42984D01*
X8019Y43073D01*
X8032Y43161D01*
X8049Y43249D01*
X8071Y43336D01*
X8096Y43421D01*
X8124Y43506D01*
X8157Y43589D01*
X8193Y43671D01*
X8232Y43751D01*
X8275Y43829D01*
X8321Y43905D01*
X8371Y43980D01*
X8424Y44052D01*
X8480Y44121D01*
X8539Y44188D01*
X8600Y44253D01*
X8665Y44314D01*
X8732Y44373D01*
X8801Y44429D01*
X8873Y44482D01*
X8948Y44532D01*
X9024Y44578D01*
X9102Y44621D01*
X9182Y44660D01*
X9264Y44696D01*
X9347Y44729D01*
X9432Y44757D01*
X9517Y44782D01*
X9604Y44804D01*
X9692Y44821D01*
X9780Y44834D01*
X9869Y44844D01*
X9958Y44850D01*
X10047Y44852D01*
X10136Y44850D01*
X10225Y44844D01*
X10314Y44834D01*
X10402Y44821D01*
X10490Y44804D01*
X10577Y44782D01*
X10662Y44757D01*
X10747Y44729D01*
X10830Y44696D01*
X10912Y44660D01*
X10992Y44621D01*
X11070Y44578D01*
X11146Y44532D01*
X11221Y44482D01*
X11293Y44429D01*
X11362Y44373D01*
X11429Y44314D01*
X11494Y44253D01*
X11555Y44188D01*
X11614Y44121D01*
X11670Y44052D01*
X11723Y43980D01*
X11773Y43905D01*
X11819Y43829D01*
X11862Y43751D01*
X11901Y43671D01*
X11937Y43589D01*
X11970Y43506D01*
X11998Y43421D01*
X12023Y43336D01*
X12045Y43249D01*
X12062Y43161D01*
X12075Y43073D01*
X12085Y42984D01*
X12091Y42895D01*
X12093Y42806D01*
X12093Y40760D01*
X15367Y49327D02*
X15367Y50964D01*
X15367Y49327D02*
X15365Y49249D01*
X15360Y49171D01*
X15350Y49094D01*
X15337Y49017D01*
X15321Y48941D01*
X15301Y48866D01*
X15277Y48792D01*
X15250Y48719D01*
X15219Y48647D01*
X15185Y48577D01*
X15148Y48509D01*
X15107Y48442D01*
X15063Y48377D01*
X15017Y48315D01*
X14967Y48255D01*
X14915Y48197D01*
X14860Y48142D01*
X14802Y48090D01*
X14742Y48040D01*
X14680Y47994D01*
X14615Y47950D01*
X14549Y47909D01*
X14480Y47872D01*
X14410Y47838D01*
X14338Y47807D01*
X14265Y47780D01*
X14191Y47756D01*
X14116Y47736D01*
X14040Y47720D01*
X13963Y47707D01*
X13886Y47697D01*
X13808Y47692D01*
X13730Y47690D01*
X9638Y47690D01*
X9558Y47692D01*
X9478Y47698D01*
X9398Y47708D01*
X9319Y47721D01*
X9240Y47739D01*
X9163Y47760D01*
X9087Y47786D01*
X9012Y47815D01*
X8938Y47847D01*
X8866Y47883D01*
X8796Y47923D01*
X8729Y47966D01*
X8663Y48012D01*
X8600Y48062D01*
X8539Y48114D01*
X8480Y48169D01*
X8425Y48228D01*
X8373Y48288D01*
X8323Y48352D01*
X8277Y48417D01*
X8234Y48485D01*
X8194Y48555D01*
X8158Y48627D01*
X8126Y48701D01*
X8097Y48775D01*
X8072Y48852D01*
X8050Y48929D01*
X8032Y49008D01*
X8019Y49087D01*
X8009Y49166D01*
X8003Y49247D01*
X8001Y49327D01*
X8001Y50964D01*
X12502Y53888D02*
X12502Y58799D01*
X15367Y62360D02*
X8001Y62360D01*
X8001Y65633D01*
X11275Y65633D02*
X11275Y62360D01*
X15367Y68031D02*
X8001Y72941D01*
X8001Y68031D02*
X15367Y72941D01*
X15367Y81270D02*
X15367Y82907D01*
X15367Y81270D02*
X15365Y81192D01*
X15360Y81114D01*
X15350Y81037D01*
X15337Y80960D01*
X15321Y80884D01*
X15301Y80809D01*
X15277Y80735D01*
X15250Y80662D01*
X15219Y80590D01*
X15185Y80520D01*
X15148Y80452D01*
X15107Y80385D01*
X15063Y80320D01*
X15017Y80258D01*
X14967Y80198D01*
X14915Y80140D01*
X14860Y80085D01*
X14802Y80033D01*
X14742Y79983D01*
X14680Y79937D01*
X14615Y79893D01*
X14549Y79852D01*
X14480Y79815D01*
X14410Y79781D01*
X14338Y79750D01*
X14265Y79723D01*
X14191Y79699D01*
X14116Y79679D01*
X14040Y79663D01*
X13963Y79650D01*
X13886Y79640D01*
X13808Y79635D01*
X13730Y79633D01*
X9638Y79633D01*
X9558Y79635D01*
X9478Y79641D01*
X9398Y79651D01*
X9319Y79664D01*
X9240Y79682D01*
X9163Y79703D01*
X9087Y79729D01*
X9012Y79758D01*
X8938Y79790D01*
X8866Y79826D01*
X8796Y79866D01*
X8729Y79909D01*
X8663Y79955D01*
X8600Y80005D01*
X8539Y80057D01*
X8480Y80112D01*
X8425Y80171D01*
X8373Y80231D01*
X8323Y80295D01*
X8277Y80360D01*
X8234Y80428D01*
X8194Y80498D01*
X8158Y80570D01*
X8126Y80644D01*
X8097Y80718D01*
X8072Y80795D01*
X8050Y80872D01*
X8032Y80951D01*
X8019Y81030D01*
X8009Y81109D01*
X8003Y81190D01*
X8001Y81270D01*
X8001Y82907D01*
X10456Y85044D02*
X10456Y87499D01*
X8001Y85862D02*
X14139Y85862D01*
X14208Y85864D01*
X14276Y85870D01*
X14345Y85879D01*
X14412Y85893D01*
X14479Y85910D01*
X14545Y85931D01*
X14609Y85955D01*
X14672Y85984D01*
X14733Y86015D01*
X14792Y86050D01*
X14850Y86088D01*
X14905Y86130D01*
X14957Y86174D01*
X15007Y86222D01*
X15055Y86272D01*
X15099Y86324D01*
X15141Y86379D01*
X15179Y86437D01*
X15214Y86496D01*
X15245Y86557D01*
X15274Y86620D01*
X15298Y86684D01*
X15319Y86750D01*
X15336Y86817D01*
X15350Y86884D01*
X15359Y86953D01*
X15365Y87021D01*
X15367Y87090D01*
X15367Y87499D01*
X15367Y90597D02*
X10456Y90597D01*
X10456Y93052D01*
X11275Y93052D01*
X14139Y95510D02*
X8001Y95510D01*
X14139Y95510D02*
X14208Y95512D01*
X14276Y95518D01*
X14345Y95527D01*
X14412Y95541D01*
X14479Y95558D01*
X14545Y95579D01*
X14609Y95603D01*
X14672Y95632D01*
X14733Y95663D01*
X14792Y95698D01*
X14850Y95736D01*
X14905Y95778D01*
X14957Y95822D01*
X15007Y95870D01*
X15055Y95920D01*
X15099Y95972D01*
X15141Y96027D01*
X15179Y96085D01*
X15214Y96144D01*
X15245Y96205D01*
X15274Y96268D01*
X15298Y96332D01*
X15319Y96398D01*
X15336Y96465D01*
X15350Y96532D01*
X15359Y96601D01*
X15365Y96669D01*
X15367Y96738D01*
X15367Y99619D02*
X10456Y99619D01*
X10456Y102074D01*
X11275Y102074D01*
X8001Y108791D02*
X15367Y108791D01*
X8001Y108791D02*
X8001Y110837D01*
X8003Y110926D01*
X8009Y111015D01*
X8019Y111104D01*
X8032Y111192D01*
X8049Y111280D01*
X8071Y111367D01*
X8096Y111452D01*
X8124Y111537D01*
X8157Y111620D01*
X8193Y111702D01*
X8232Y111782D01*
X8275Y111860D01*
X8321Y111936D01*
X8371Y112011D01*
X8424Y112083D01*
X8480Y112152D01*
X8539Y112219D01*
X8600Y112284D01*
X8665Y112345D01*
X8732Y112404D01*
X8801Y112460D01*
X8873Y112513D01*
X8948Y112563D01*
X9024Y112609D01*
X9102Y112652D01*
X9182Y112691D01*
X9264Y112727D01*
X9347Y112760D01*
X9432Y112788D01*
X9517Y112813D01*
X9604Y112835D01*
X9692Y112852D01*
X9780Y112865D01*
X9869Y112875D01*
X9958Y112881D01*
X10047Y112883D01*
X10136Y112881D01*
X10225Y112875D01*
X10314Y112865D01*
X10402Y112852D01*
X10490Y112835D01*
X10577Y112813D01*
X10662Y112788D01*
X10747Y112760D01*
X10830Y112727D01*
X10912Y112691D01*
X10992Y112652D01*
X11070Y112609D01*
X11146Y112563D01*
X11221Y112513D01*
X11293Y112460D01*
X11362Y112404D01*
X11429Y112345D01*
X11494Y112284D01*
X11555Y112219D01*
X11614Y112152D01*
X11670Y112083D01*
X11723Y112011D01*
X11773Y111936D01*
X11819Y111860D01*
X11862Y111782D01*
X11901Y111702D01*
X11937Y111620D01*
X11970Y111537D01*
X11998Y111452D01*
X12023Y111367D01*
X12045Y111280D01*
X12062Y111192D01*
X12075Y111104D01*
X12085Y111015D01*
X12091Y110926D01*
X12093Y110837D01*
X12093Y108791D01*
X12093Y115666D02*
X13730Y115666D01*
X12093Y115666D02*
X12014Y115668D01*
X11935Y115674D01*
X11856Y115683D01*
X11778Y115696D01*
X11701Y115714D01*
X11625Y115734D01*
X11550Y115759D01*
X11476Y115787D01*
X11403Y115818D01*
X11332Y115854D01*
X11263Y115892D01*
X11196Y115934D01*
X11131Y115979D01*
X11068Y116027D01*
X11007Y116078D01*
X10950Y116132D01*
X10894Y116188D01*
X10842Y116247D01*
X10792Y116309D01*
X10746Y116373D01*
X10702Y116439D01*
X10662Y116507D01*
X10626Y116577D01*
X10592Y116649D01*
X10562Y116723D01*
X10536Y116797D01*
X10513Y116873D01*
X10495Y116950D01*
X10479Y117027D01*
X10468Y117106D01*
X10460Y117184D01*
X10456Y117263D01*
X10456Y117343D01*
X10460Y117422D01*
X10468Y117500D01*
X10479Y117579D01*
X10495Y117656D01*
X10513Y117733D01*
X10536Y117809D01*
X10562Y117883D01*
X10592Y117957D01*
X10626Y118029D01*
X10662Y118099D01*
X10702Y118167D01*
X10746Y118233D01*
X10792Y118297D01*
X10842Y118359D01*
X10894Y118418D01*
X10950Y118474D01*
X11007Y118528D01*
X11068Y118579D01*
X11131Y118627D01*
X11196Y118672D01*
X11263Y118714D01*
X11332Y118752D01*
X11403Y118788D01*
X11476Y118819D01*
X11550Y118847D01*
X11625Y118872D01*
X11701Y118892D01*
X11778Y118910D01*
X11856Y118923D01*
X11935Y118932D01*
X12014Y118938D01*
X12093Y118940D01*
X13730Y118940D01*
X13809Y118938D01*
X13888Y118932D01*
X13967Y118923D01*
X14045Y118910D01*
X14122Y118892D01*
X14198Y118872D01*
X14273Y118847D01*
X14347Y118819D01*
X14420Y118788D01*
X14491Y118752D01*
X14560Y118714D01*
X14627Y118672D01*
X14692Y118627D01*
X14755Y118579D01*
X14816Y118528D01*
X14873Y118474D01*
X14929Y118418D01*
X14981Y118359D01*
X15031Y118297D01*
X15077Y118233D01*
X15121Y118167D01*
X15161Y118099D01*
X15197Y118029D01*
X15231Y117957D01*
X15261Y117883D01*
X15287Y117809D01*
X15310Y117733D01*
X15328Y117656D01*
X15344Y117579D01*
X15355Y117500D01*
X15363Y117422D01*
X15367Y117343D01*
X15367Y117263D01*
X15363Y117184D01*
X15355Y117106D01*
X15344Y117027D01*
X15328Y116950D01*
X15310Y116873D01*
X15287Y116797D01*
X15261Y116723D01*
X15231Y116649D01*
X15197Y116577D01*
X15161Y116507D01*
X15121Y116439D01*
X15077Y116373D01*
X15031Y116309D01*
X14981Y116247D01*
X14929Y116188D01*
X14873Y116132D01*
X14816Y116078D01*
X14755Y116027D01*
X14692Y115979D01*
X14627Y115934D01*
X14560Y115892D01*
X14491Y115854D01*
X14420Y115818D01*
X14347Y115787D01*
X14273Y115759D01*
X14198Y115734D01*
X14122Y115714D01*
X14045Y115696D01*
X13967Y115683D01*
X13888Y115674D01*
X13809Y115668D01*
X13730Y115666D01*
X15367Y122296D02*
X10456Y122296D01*
X10456Y124751D01*
X11275Y124751D01*
X10456Y126496D02*
X10456Y128951D01*
X8001Y127315D02*
X14139Y127315D01*
X14139Y127314D02*
X14208Y127316D01*
X14276Y127322D01*
X14345Y127331D01*
X14412Y127345D01*
X14479Y127362D01*
X14545Y127383D01*
X14609Y127407D01*
X14672Y127436D01*
X14733Y127467D01*
X14792Y127502D01*
X14850Y127540D01*
X14905Y127582D01*
X14957Y127626D01*
X15007Y127674D01*
X15055Y127724D01*
X15099Y127776D01*
X15141Y127831D01*
X15179Y127889D01*
X15214Y127948D01*
X15245Y128009D01*
X15274Y128072D01*
X15298Y128136D01*
X15319Y128202D01*
X15336Y128269D01*
X15350Y128336D01*
X15359Y128405D01*
X15365Y128473D01*
X15367Y128542D01*
X15367Y128951D01*
X15367Y131455D02*
X15367Y131864D01*
X15367Y131455D02*
X14958Y131455D01*
X14958Y131864D01*
X15367Y131864D01*
X17004Y131250D01*
X15367Y138877D02*
X10456Y138877D01*
X10456Y141332D01*
X11275Y141332D01*
X15367Y144935D02*
X15367Y146981D01*
X15367Y144935D02*
X15365Y144866D01*
X15359Y144798D01*
X15350Y144729D01*
X15336Y144662D01*
X15319Y144595D01*
X15298Y144529D01*
X15274Y144465D01*
X15245Y144402D01*
X15214Y144341D01*
X15179Y144282D01*
X15141Y144224D01*
X15099Y144169D01*
X15055Y144117D01*
X15007Y144067D01*
X14957Y144019D01*
X14905Y143975D01*
X14850Y143934D01*
X14792Y143895D01*
X14733Y143860D01*
X14672Y143829D01*
X14609Y143800D01*
X14545Y143776D01*
X14479Y143755D01*
X14412Y143738D01*
X14345Y143724D01*
X14277Y143715D01*
X14208Y143709D01*
X14139Y143707D01*
X12093Y143707D01*
X12014Y143709D01*
X11935Y143715D01*
X11856Y143724D01*
X11778Y143737D01*
X11701Y143755D01*
X11625Y143775D01*
X11550Y143800D01*
X11476Y143828D01*
X11403Y143859D01*
X11332Y143895D01*
X11263Y143933D01*
X11196Y143975D01*
X11131Y144020D01*
X11068Y144068D01*
X11007Y144119D01*
X10950Y144173D01*
X10894Y144229D01*
X10842Y144288D01*
X10792Y144350D01*
X10746Y144414D01*
X10702Y144480D01*
X10662Y144548D01*
X10626Y144618D01*
X10592Y144690D01*
X10562Y144764D01*
X10536Y144838D01*
X10513Y144914D01*
X10495Y144991D01*
X10479Y145068D01*
X10468Y145147D01*
X10460Y145225D01*
X10456Y145304D01*
X10456Y145384D01*
X10460Y145463D01*
X10468Y145541D01*
X10479Y145620D01*
X10495Y145697D01*
X10513Y145774D01*
X10536Y145850D01*
X10562Y145924D01*
X10592Y145998D01*
X10626Y146070D01*
X10662Y146140D01*
X10702Y146208D01*
X10746Y146274D01*
X10792Y146338D01*
X10842Y146400D01*
X10894Y146459D01*
X10950Y146515D01*
X11007Y146569D01*
X11068Y146620D01*
X11131Y146668D01*
X11196Y146713D01*
X11263Y146755D01*
X11332Y146793D01*
X11403Y146829D01*
X11476Y146860D01*
X11550Y146888D01*
X11625Y146913D01*
X11701Y146933D01*
X11778Y146951D01*
X11856Y146964D01*
X11935Y146973D01*
X12014Y146979D01*
X12093Y146981D01*
X12912Y146981D01*
X12912Y143707D01*
X10456Y149803D02*
X15367Y151440D01*
X10456Y153077D01*
X14958Y155625D02*
X15367Y155625D01*
X14958Y155625D02*
X14958Y156034D01*
X15367Y156034D01*
X15367Y155625D01*
X11275Y163167D02*
X11275Y165213D01*
X11277Y165302D01*
X11283Y165391D01*
X11293Y165480D01*
X11306Y165568D01*
X11323Y165656D01*
X11345Y165743D01*
X11370Y165828D01*
X11398Y165913D01*
X11431Y165996D01*
X11467Y166078D01*
X11506Y166158D01*
X11549Y166236D01*
X11595Y166312D01*
X11645Y166387D01*
X11698Y166459D01*
X11754Y166528D01*
X11813Y166595D01*
X11874Y166660D01*
X11939Y166721D01*
X12006Y166780D01*
X12075Y166836D01*
X12147Y166889D01*
X12222Y166939D01*
X12298Y166985D01*
X12376Y167028D01*
X12456Y167067D01*
X12538Y167103D01*
X12621Y167136D01*
X12706Y167164D01*
X12791Y167189D01*
X12878Y167211D01*
X12966Y167228D01*
X13054Y167241D01*
X13143Y167251D01*
X13232Y167257D01*
X13321Y167259D01*
X13410Y167257D01*
X13499Y167251D01*
X13588Y167241D01*
X13676Y167228D01*
X13764Y167211D01*
X13851Y167189D01*
X13936Y167164D01*
X14021Y167136D01*
X14104Y167103D01*
X14186Y167067D01*
X14266Y167028D01*
X14344Y166985D01*
X14420Y166939D01*
X14495Y166889D01*
X14567Y166836D01*
X14636Y166780D01*
X14703Y166721D01*
X14768Y166660D01*
X14829Y166595D01*
X14888Y166528D01*
X14944Y166459D01*
X14997Y166387D01*
X15047Y166312D01*
X15093Y166236D01*
X15136Y166158D01*
X15175Y166078D01*
X15211Y165996D01*
X15244Y165913D01*
X15272Y165828D01*
X15297Y165743D01*
X15319Y165656D01*
X15336Y165568D01*
X15349Y165480D01*
X15359Y165391D01*
X15365Y165302D01*
X15367Y165213D01*
X15367Y163167D01*
X8001Y163167D01*
X8001Y165213D01*
X8003Y165292D01*
X8009Y165371D01*
X8018Y165450D01*
X8031Y165528D01*
X8049Y165605D01*
X8069Y165681D01*
X8094Y165756D01*
X8122Y165830D01*
X8153Y165903D01*
X8189Y165974D01*
X8227Y166043D01*
X8269Y166110D01*
X8314Y166175D01*
X8362Y166238D01*
X8413Y166299D01*
X8467Y166356D01*
X8523Y166412D01*
X8582Y166464D01*
X8644Y166514D01*
X8708Y166560D01*
X8774Y166604D01*
X8842Y166644D01*
X8912Y166680D01*
X8984Y166714D01*
X9058Y166744D01*
X9132Y166770D01*
X9208Y166793D01*
X9285Y166811D01*
X9362Y166827D01*
X9441Y166838D01*
X9519Y166846D01*
X9598Y166850D01*
X9678Y166850D01*
X9757Y166846D01*
X9835Y166838D01*
X9914Y166827D01*
X9991Y166811D01*
X10068Y166793D01*
X10144Y166770D01*
X10218Y166744D01*
X10292Y166714D01*
X10364Y166680D01*
X10434Y166644D01*
X10502Y166604D01*
X10568Y166560D01*
X10632Y166514D01*
X10694Y166464D01*
X10753Y166412D01*
X10809Y166356D01*
X10863Y166299D01*
X10914Y166238D01*
X10962Y166175D01*
X11007Y166110D01*
X11049Y166043D01*
X11087Y165974D01*
X11123Y165903D01*
X11154Y165830D01*
X11182Y165756D01*
X11207Y165681D01*
X11227Y165605D01*
X11245Y165528D01*
X11258Y165450D01*
X11267Y165371D01*
X11273Y165292D01*
X11275Y165213D01*
X17343Y44322D02*
X17473Y44215D01*
X17606Y44112D01*
X17741Y44011D01*
X17879Y43914D01*
X18019Y43821D01*
X18162Y43730D01*
X18306Y43643D01*
X18453Y43560D01*
X18601Y43480D01*
X18752Y43404D01*
X18904Y43332D01*
X19058Y43263D01*
X19213Y43198D01*
X19370Y43136D01*
X19528Y43079D01*
X19688Y43025D01*
X19849Y42975D01*
X20011Y42929D01*
X20175Y42887D01*
X20339Y42849D01*
X20504Y42814D01*
X20670Y42784D01*
X20836Y42758D01*
X21003Y42736D01*
X21171Y42717D01*
X21339Y42703D01*
X21507Y42693D01*
X21675Y42687D01*
X21844Y42685D01*
X22013Y42687D01*
X22181Y42693D01*
X22349Y42703D01*
X22517Y42717D01*
X22685Y42736D01*
X22852Y42758D01*
X23018Y42784D01*
X23184Y42814D01*
X23349Y42849D01*
X23513Y42887D01*
X23677Y42929D01*
X23839Y42975D01*
X24000Y43025D01*
X24160Y43079D01*
X24318Y43136D01*
X24475Y43198D01*
X24630Y43263D01*
X24784Y43332D01*
X24936Y43404D01*
X25087Y43480D01*
X25235Y43560D01*
X25382Y43643D01*
X25526Y43730D01*
X25669Y43821D01*
X25809Y43914D01*
X25947Y44011D01*
X26082Y44112D01*
X26215Y44215D01*
X26345Y44322D01*
X25527Y48447D02*
X25527Y50084D01*
X25527Y48447D02*
X25525Y48378D01*
X25519Y48310D01*
X25510Y48241D01*
X25496Y48174D01*
X25479Y48107D01*
X25458Y48041D01*
X25434Y47977D01*
X25405Y47914D01*
X25374Y47853D01*
X25339Y47794D01*
X25301Y47736D01*
X25259Y47681D01*
X25215Y47629D01*
X25167Y47579D01*
X25117Y47531D01*
X25065Y47487D01*
X25010Y47446D01*
X24952Y47407D01*
X24893Y47372D01*
X24832Y47341D01*
X24769Y47312D01*
X24705Y47288D01*
X24639Y47267D01*
X24572Y47250D01*
X24505Y47236D01*
X24437Y47227D01*
X24368Y47221D01*
X24299Y47219D01*
X24299Y47220D02*
X21844Y47220D01*
X21844Y47219D02*
X21775Y47221D01*
X21707Y47227D01*
X21638Y47236D01*
X21571Y47250D01*
X21504Y47267D01*
X21438Y47288D01*
X21374Y47312D01*
X21311Y47341D01*
X21250Y47372D01*
X21191Y47407D01*
X21133Y47445D01*
X21078Y47487D01*
X21026Y47531D01*
X20976Y47579D01*
X20928Y47629D01*
X20884Y47681D01*
X20842Y47736D01*
X20804Y47794D01*
X20769Y47853D01*
X20738Y47914D01*
X20709Y47977D01*
X20685Y48041D01*
X20664Y48107D01*
X20647Y48174D01*
X20633Y48241D01*
X20624Y48310D01*
X20618Y48378D01*
X20616Y48447D01*
X20616Y50084D01*
X21844Y54278D02*
X22013Y54276D01*
X22181Y54270D01*
X22349Y54260D01*
X22517Y54246D01*
X22685Y54227D01*
X22852Y54205D01*
X23018Y54179D01*
X23184Y54149D01*
X23349Y54114D01*
X23513Y54076D01*
X23677Y54034D01*
X23839Y53988D01*
X24000Y53938D01*
X24160Y53884D01*
X24318Y53827D01*
X24475Y53765D01*
X24630Y53700D01*
X24784Y53631D01*
X24936Y53559D01*
X25087Y53483D01*
X25235Y53403D01*
X25382Y53320D01*
X25526Y53233D01*
X25669Y53142D01*
X25809Y53049D01*
X25947Y52952D01*
X26082Y52851D01*
X26215Y52748D01*
X26345Y52641D01*
X21844Y54278D02*
X21675Y54276D01*
X21507Y54270D01*
X21339Y54260D01*
X21171Y54246D01*
X21003Y54227D01*
X20836Y54205D01*
X20670Y54179D01*
X20504Y54149D01*
X20339Y54114D01*
X20175Y54076D01*
X20011Y54034D01*
X19849Y53988D01*
X19688Y53938D01*
X19528Y53884D01*
X19370Y53827D01*
X19213Y53765D01*
X19058Y53700D01*
X18904Y53631D01*
X18752Y53559D01*
X18601Y53483D01*
X18453Y53403D01*
X18306Y53320D01*
X18162Y53233D01*
X18019Y53142D01*
X17879Y53049D01*
X17741Y52952D01*
X17606Y52851D01*
X17473Y52748D01*
X17343Y52641D01*
X18161Y63682D02*
X18163Y63767D01*
X18169Y63852D01*
X18179Y63936D01*
X18192Y64020D01*
X18210Y64104D01*
X18231Y64186D01*
X18256Y64267D01*
X18285Y64347D01*
X18318Y64426D01*
X18354Y64503D01*
X18394Y64578D01*
X18437Y64652D01*
X18483Y64723D01*
X18533Y64792D01*
X18586Y64859D01*
X18642Y64923D01*
X18701Y64984D01*
X18762Y65043D01*
X18826Y65099D01*
X18893Y65152D01*
X18962Y65202D01*
X19033Y65248D01*
X19107Y65291D01*
X19182Y65331D01*
X19259Y65367D01*
X19338Y65400D01*
X19418Y65429D01*
X19499Y65454D01*
X19581Y65475D01*
X19665Y65493D01*
X19749Y65506D01*
X19833Y65516D01*
X19918Y65522D01*
X20003Y65524D01*
X18161Y63682D02*
X18163Y63586D01*
X18169Y63490D01*
X18179Y63395D01*
X18192Y63300D01*
X18210Y63205D01*
X18231Y63112D01*
X18256Y63019D01*
X18285Y62928D01*
X18317Y62837D01*
X18353Y62748D01*
X18393Y62661D01*
X18436Y62575D01*
X18482Y62491D01*
X18532Y62409D01*
X18586Y62329D01*
X18642Y62252D01*
X18702Y62177D01*
X18764Y62104D01*
X18830Y62034D01*
X18898Y61966D01*
X18969Y61901D01*
X19042Y61840D01*
X19118Y61781D01*
X19197Y61725D01*
X19277Y61673D01*
X19360Y61624D01*
X19444Y61578D01*
X19530Y61536D01*
X19618Y61498D01*
X19707Y61463D01*
X19798Y61431D01*
X21435Y64910D02*
X21376Y64970D01*
X21314Y65027D01*
X21250Y65082D01*
X21183Y65133D01*
X21114Y65182D01*
X21044Y65228D01*
X20971Y65271D01*
X20897Y65311D01*
X20821Y65347D01*
X20743Y65380D01*
X20664Y65410D01*
X20584Y65437D01*
X20503Y65460D01*
X20421Y65479D01*
X20339Y65495D01*
X20255Y65508D01*
X20171Y65517D01*
X20087Y65522D01*
X20003Y65524D01*
X21435Y64910D02*
X25527Y61432D01*
X25527Y65524D01*
X21844Y68747D02*
X21691Y68749D01*
X21538Y68755D01*
X21386Y68764D01*
X21233Y68778D01*
X21081Y68795D01*
X20930Y68816D01*
X20779Y68841D01*
X20629Y68870D01*
X20479Y68902D01*
X20331Y68939D01*
X20183Y68979D01*
X20036Y69022D01*
X19891Y69070D01*
X19747Y69121D01*
X19604Y69175D01*
X19462Y69234D01*
X19323Y69295D01*
X19184Y69361D01*
X19114Y69387D01*
X19044Y69417D01*
X18977Y69450D01*
X18911Y69486D01*
X18847Y69525D01*
X18785Y69568D01*
X18726Y69614D01*
X18668Y69662D01*
X18614Y69713D01*
X18561Y69767D01*
X18512Y69824D01*
X18465Y69883D01*
X18422Y69944D01*
X18381Y70007D01*
X18344Y70072D01*
X18309Y70139D01*
X18279Y70208D01*
X18251Y70278D01*
X18228Y70349D01*
X18207Y70421D01*
X18191Y70494D01*
X18178Y70568D01*
X18168Y70643D01*
X18163Y70718D01*
X18161Y70793D01*
X18163Y70868D01*
X18168Y70943D01*
X18178Y71018D01*
X18191Y71092D01*
X18207Y71165D01*
X18228Y71237D01*
X18251Y71308D01*
X18279Y71378D01*
X18309Y71447D01*
X18344Y71514D01*
X18381Y71579D01*
X18422Y71642D01*
X18465Y71703D01*
X18512Y71762D01*
X18561Y71819D01*
X18614Y71873D01*
X18668Y71924D01*
X18726Y71973D01*
X18785Y72018D01*
X18847Y72061D01*
X18911Y72100D01*
X18977Y72137D01*
X19045Y72169D01*
X19114Y72199D01*
X19184Y72225D01*
X19322Y72290D01*
X19462Y72352D01*
X19604Y72410D01*
X19747Y72465D01*
X19891Y72516D01*
X20036Y72564D01*
X20183Y72607D01*
X20330Y72647D01*
X20479Y72684D01*
X20629Y72716D01*
X20779Y72745D01*
X20930Y72770D01*
X21081Y72791D01*
X21233Y72808D01*
X21386Y72822D01*
X21538Y72831D01*
X21691Y72837D01*
X21844Y72839D01*
X21844Y68747D02*
X21997Y68749D01*
X22150Y68755D01*
X22302Y68764D01*
X22455Y68778D01*
X22607Y68795D01*
X22758Y68816D01*
X22909Y68841D01*
X23059Y68870D01*
X23209Y68902D01*
X23357Y68939D01*
X23505Y68979D01*
X23652Y69022D01*
X23797Y69070D01*
X23941Y69121D01*
X24084Y69175D01*
X24226Y69234D01*
X24365Y69295D01*
X24504Y69361D01*
X24575Y69387D01*
X24644Y69417D01*
X24711Y69450D01*
X24777Y69486D01*
X24841Y69525D01*
X24903Y69568D01*
X24962Y69614D01*
X25020Y69662D01*
X25074Y69713D01*
X25127Y69767D01*
X25176Y69824D01*
X25223Y69883D01*
X25266Y69944D01*
X25307Y70007D01*
X25344Y70072D01*
X25379Y70139D01*
X25409Y70208D01*
X25437Y70278D01*
X25460Y70349D01*
X25481Y70421D01*
X25497Y70494D01*
X25510Y70568D01*
X25520Y70643D01*
X25525Y70718D01*
X25527Y70793D01*
X24504Y72225D02*
X24366Y72290D01*
X24226Y72352D01*
X24084Y72410D01*
X23941Y72465D01*
X23797Y72516D01*
X23652Y72564D01*
X23505Y72607D01*
X23358Y72647D01*
X23209Y72684D01*
X23059Y72716D01*
X22909Y72745D01*
X22758Y72770D01*
X22607Y72791D01*
X22455Y72808D01*
X22302Y72822D01*
X22150Y72831D01*
X21997Y72837D01*
X21844Y72839D01*
X24504Y72225D02*
X24574Y72199D01*
X24644Y72169D01*
X24711Y72136D01*
X24777Y72100D01*
X24841Y72061D01*
X24903Y72018D01*
X24962Y71972D01*
X25020Y71924D01*
X25074Y71873D01*
X25127Y71819D01*
X25176Y71762D01*
X25223Y71703D01*
X25266Y71642D01*
X25307Y71579D01*
X25344Y71514D01*
X25379Y71447D01*
X25409Y71378D01*
X25437Y71308D01*
X25460Y71237D01*
X25481Y71165D01*
X25497Y71092D01*
X25510Y71018D01*
X25520Y70943D01*
X25525Y70868D01*
X25527Y70793D01*
X23890Y69156D02*
X19798Y72430D01*
X18161Y78313D02*
X18163Y78398D01*
X18169Y78483D01*
X18179Y78567D01*
X18192Y78651D01*
X18210Y78735D01*
X18231Y78817D01*
X18256Y78898D01*
X18285Y78978D01*
X18318Y79057D01*
X18354Y79134D01*
X18394Y79209D01*
X18437Y79283D01*
X18483Y79354D01*
X18533Y79423D01*
X18586Y79490D01*
X18642Y79554D01*
X18701Y79615D01*
X18762Y79674D01*
X18826Y79730D01*
X18893Y79783D01*
X18962Y79833D01*
X19033Y79879D01*
X19107Y79922D01*
X19182Y79962D01*
X19259Y79998D01*
X19338Y80031D01*
X19418Y80060D01*
X19499Y80085D01*
X19581Y80106D01*
X19665Y80124D01*
X19749Y80137D01*
X19833Y80147D01*
X19918Y80153D01*
X20003Y80155D01*
X18161Y78313D02*
X18163Y78217D01*
X18169Y78121D01*
X18179Y78026D01*
X18192Y77931D01*
X18210Y77836D01*
X18231Y77743D01*
X18256Y77650D01*
X18285Y77559D01*
X18317Y77468D01*
X18353Y77379D01*
X18393Y77292D01*
X18436Y77206D01*
X18482Y77122D01*
X18532Y77040D01*
X18586Y76960D01*
X18642Y76883D01*
X18702Y76808D01*
X18764Y76735D01*
X18830Y76665D01*
X18898Y76597D01*
X18969Y76532D01*
X19042Y76471D01*
X19118Y76412D01*
X19197Y76356D01*
X19277Y76304D01*
X19360Y76255D01*
X19444Y76209D01*
X19530Y76167D01*
X19618Y76129D01*
X19707Y76094D01*
X19798Y76062D01*
X21435Y79540D02*
X21376Y79600D01*
X21314Y79657D01*
X21250Y79712D01*
X21183Y79763D01*
X21114Y79812D01*
X21044Y79858D01*
X20971Y79901D01*
X20897Y79941D01*
X20821Y79977D01*
X20743Y80010D01*
X20664Y80040D01*
X20584Y80067D01*
X20503Y80090D01*
X20421Y80109D01*
X20339Y80125D01*
X20255Y80138D01*
X20171Y80147D01*
X20087Y80152D01*
X20003Y80154D01*
X21435Y79540D02*
X25527Y76062D01*
X25527Y80154D01*
X19798Y83377D02*
X18161Y85423D01*
X25527Y85423D01*
X25527Y83377D02*
X25527Y87469D01*
X25527Y90309D02*
X25527Y90719D01*
X25527Y90309D02*
X25118Y90309D01*
X25118Y90719D01*
X25527Y90719D01*
X27164Y90105D01*
X25527Y97764D02*
X18161Y97764D01*
X18161Y99810D01*
X18163Y99899D01*
X18169Y99988D01*
X18179Y100077D01*
X18192Y100165D01*
X18209Y100253D01*
X18231Y100340D01*
X18256Y100425D01*
X18284Y100510D01*
X18317Y100593D01*
X18353Y100675D01*
X18392Y100755D01*
X18435Y100833D01*
X18481Y100909D01*
X18531Y100984D01*
X18584Y101056D01*
X18640Y101125D01*
X18699Y101192D01*
X18760Y101257D01*
X18825Y101318D01*
X18892Y101377D01*
X18961Y101433D01*
X19033Y101486D01*
X19108Y101536D01*
X19184Y101582D01*
X19262Y101625D01*
X19342Y101664D01*
X19424Y101700D01*
X19507Y101733D01*
X19592Y101761D01*
X19677Y101786D01*
X19764Y101808D01*
X19852Y101825D01*
X19940Y101838D01*
X20029Y101848D01*
X20118Y101854D01*
X20207Y101856D01*
X23481Y101856D01*
X23570Y101854D01*
X23659Y101848D01*
X23748Y101838D01*
X23836Y101825D01*
X23924Y101808D01*
X24011Y101786D01*
X24096Y101761D01*
X24181Y101733D01*
X24264Y101700D01*
X24346Y101664D01*
X24426Y101625D01*
X24504Y101582D01*
X24580Y101536D01*
X24655Y101486D01*
X24727Y101433D01*
X24796Y101377D01*
X24863Y101318D01*
X24928Y101257D01*
X24989Y101192D01*
X25048Y101125D01*
X25104Y101056D01*
X25157Y100984D01*
X25207Y100909D01*
X25253Y100833D01*
X25296Y100755D01*
X25335Y100675D01*
X25371Y100593D01*
X25404Y100510D01*
X25432Y100425D01*
X25457Y100340D01*
X25479Y100253D01*
X25496Y100165D01*
X25509Y100077D01*
X25519Y99988D01*
X25525Y99899D01*
X25527Y99810D01*
X25527Y97764D01*
X22662Y106636D02*
X22662Y108477D01*
X22663Y106636D02*
X22665Y106561D01*
X22671Y106486D01*
X22681Y106412D01*
X22694Y106338D01*
X22712Y106265D01*
X22733Y106193D01*
X22758Y106123D01*
X22787Y106054D01*
X22819Y105986D01*
X22855Y105920D01*
X22894Y105856D01*
X22936Y105794D01*
X22982Y105735D01*
X23031Y105678D01*
X23082Y105623D01*
X23137Y105572D01*
X23194Y105523D01*
X23253Y105477D01*
X23315Y105435D01*
X23379Y105396D01*
X23445Y105360D01*
X23513Y105328D01*
X23582Y105299D01*
X23652Y105274D01*
X23724Y105253D01*
X23797Y105235D01*
X23871Y105222D01*
X23945Y105212D01*
X24020Y105206D01*
X24095Y105204D01*
X24170Y105206D01*
X24245Y105212D01*
X24319Y105222D01*
X24393Y105235D01*
X24466Y105253D01*
X24538Y105274D01*
X24608Y105299D01*
X24677Y105328D01*
X24745Y105360D01*
X24811Y105396D01*
X24875Y105435D01*
X24937Y105477D01*
X24996Y105523D01*
X25053Y105572D01*
X25108Y105623D01*
X25159Y105678D01*
X25208Y105735D01*
X25254Y105794D01*
X25296Y105856D01*
X25335Y105920D01*
X25371Y105986D01*
X25403Y106054D01*
X25432Y106123D01*
X25457Y106193D01*
X25478Y106265D01*
X25496Y106338D01*
X25509Y106412D01*
X25519Y106486D01*
X25525Y106561D01*
X25527Y106636D01*
X25527Y108477D01*
X21844Y108477D01*
X21775Y108475D01*
X21707Y108469D01*
X21638Y108460D01*
X21571Y108446D01*
X21504Y108429D01*
X21438Y108408D01*
X21374Y108384D01*
X21311Y108355D01*
X21250Y108324D01*
X21191Y108289D01*
X21133Y108251D01*
X21078Y108209D01*
X21026Y108165D01*
X20976Y108117D01*
X20928Y108067D01*
X20884Y108015D01*
X20843Y107960D01*
X20804Y107902D01*
X20769Y107843D01*
X20738Y107782D01*
X20709Y107719D01*
X20685Y107655D01*
X20664Y107589D01*
X20647Y107522D01*
X20633Y107455D01*
X20624Y107387D01*
X20618Y107318D01*
X20616Y107249D01*
X20616Y105613D01*
X20616Y111584D02*
X25527Y113221D01*
X20616Y114858D01*
X25527Y118908D02*
X25527Y120954D01*
X25527Y118908D02*
X25525Y118839D01*
X25519Y118771D01*
X25510Y118702D01*
X25496Y118635D01*
X25479Y118568D01*
X25458Y118502D01*
X25434Y118438D01*
X25405Y118375D01*
X25374Y118314D01*
X25339Y118255D01*
X25301Y118197D01*
X25259Y118142D01*
X25215Y118090D01*
X25167Y118040D01*
X25117Y117992D01*
X25065Y117948D01*
X25010Y117907D01*
X24952Y117868D01*
X24893Y117833D01*
X24832Y117802D01*
X24769Y117773D01*
X24705Y117749D01*
X24639Y117728D01*
X24572Y117711D01*
X24505Y117697D01*
X24437Y117688D01*
X24368Y117682D01*
X24299Y117680D01*
X22253Y117680D01*
X22174Y117682D01*
X22095Y117688D01*
X22016Y117697D01*
X21938Y117710D01*
X21861Y117728D01*
X21785Y117748D01*
X21710Y117773D01*
X21636Y117801D01*
X21563Y117832D01*
X21492Y117868D01*
X21423Y117906D01*
X21356Y117948D01*
X21291Y117993D01*
X21228Y118041D01*
X21167Y118092D01*
X21110Y118146D01*
X21054Y118202D01*
X21002Y118261D01*
X20952Y118323D01*
X20906Y118387D01*
X20862Y118453D01*
X20822Y118521D01*
X20786Y118591D01*
X20752Y118663D01*
X20722Y118737D01*
X20696Y118811D01*
X20673Y118887D01*
X20655Y118964D01*
X20639Y119041D01*
X20628Y119120D01*
X20620Y119198D01*
X20616Y119277D01*
X20616Y119357D01*
X20620Y119436D01*
X20628Y119514D01*
X20639Y119593D01*
X20655Y119670D01*
X20673Y119747D01*
X20696Y119823D01*
X20722Y119897D01*
X20752Y119971D01*
X20786Y120043D01*
X20822Y120113D01*
X20862Y120181D01*
X20906Y120247D01*
X20952Y120311D01*
X21002Y120373D01*
X21054Y120432D01*
X21110Y120488D01*
X21167Y120542D01*
X21228Y120593D01*
X21291Y120641D01*
X21356Y120686D01*
X21423Y120728D01*
X21492Y120766D01*
X21563Y120802D01*
X21636Y120833D01*
X21710Y120861D01*
X21785Y120886D01*
X21861Y120906D01*
X21938Y120924D01*
X22016Y120937D01*
X22095Y120946D01*
X22174Y120952D01*
X22253Y120954D01*
X23072Y120954D01*
X23072Y117680D01*
X25527Y130211D02*
X25525Y130289D01*
X25520Y130367D01*
X25510Y130444D01*
X25497Y130521D01*
X25481Y130597D01*
X25461Y130672D01*
X25437Y130746D01*
X25410Y130819D01*
X25379Y130891D01*
X25345Y130961D01*
X25308Y131030D01*
X25267Y131096D01*
X25223Y131161D01*
X25177Y131223D01*
X25127Y131283D01*
X25075Y131341D01*
X25020Y131396D01*
X24962Y131448D01*
X24902Y131498D01*
X24840Y131544D01*
X24775Y131588D01*
X24709Y131629D01*
X24640Y131666D01*
X24570Y131700D01*
X24498Y131731D01*
X24425Y131758D01*
X24351Y131782D01*
X24276Y131802D01*
X24200Y131818D01*
X24123Y131831D01*
X24046Y131841D01*
X23968Y131846D01*
X23890Y131848D01*
X25527Y130211D02*
X25525Y130097D01*
X25520Y129984D01*
X25510Y129870D01*
X25497Y129757D01*
X25480Y129645D01*
X25460Y129533D01*
X25436Y129422D01*
X25408Y129311D01*
X25377Y129202D01*
X25342Y129094D01*
X25303Y128987D01*
X25261Y128881D01*
X25216Y128777D01*
X25167Y128674D01*
X25114Y128573D01*
X25059Y128474D01*
X25000Y128376D01*
X24938Y128281D01*
X24873Y128188D01*
X24805Y128096D01*
X24734Y128008D01*
X24660Y127921D01*
X24583Y127837D01*
X24504Y127756D01*
X19798Y127960D02*
X19720Y127962D01*
X19642Y127967D01*
X19565Y127977D01*
X19488Y127990D01*
X19412Y128006D01*
X19337Y128026D01*
X19263Y128050D01*
X19190Y128077D01*
X19118Y128108D01*
X19048Y128142D01*
X18979Y128179D01*
X18913Y128220D01*
X18848Y128264D01*
X18786Y128310D01*
X18726Y128360D01*
X18668Y128412D01*
X18613Y128467D01*
X18561Y128525D01*
X18511Y128585D01*
X18465Y128647D01*
X18421Y128712D01*
X18380Y128779D01*
X18343Y128847D01*
X18309Y128917D01*
X18278Y128989D01*
X18251Y129062D01*
X18227Y129136D01*
X18207Y129211D01*
X18191Y129287D01*
X18178Y129364D01*
X18168Y129441D01*
X18163Y129519D01*
X18161Y129597D01*
X18163Y129707D01*
X18169Y129816D01*
X18179Y129926D01*
X18192Y130034D01*
X18210Y130143D01*
X18231Y130250D01*
X18257Y130357D01*
X18286Y130463D01*
X18318Y130568D01*
X18355Y130671D01*
X18395Y130773D01*
X18439Y130874D01*
X18487Y130973D01*
X18537Y131070D01*
X18592Y131165D01*
X18650Y131258D01*
X18711Y131349D01*
X18775Y131438D01*
X21230Y128779D02*
X21188Y128713D01*
X21144Y128648D01*
X21096Y128586D01*
X21046Y128526D01*
X20993Y128468D01*
X20937Y128413D01*
X20879Y128360D01*
X20818Y128311D01*
X20755Y128264D01*
X20690Y128220D01*
X20623Y128180D01*
X20554Y128143D01*
X20483Y128109D01*
X20411Y128078D01*
X20337Y128051D01*
X20262Y128027D01*
X20187Y128007D01*
X20110Y127991D01*
X20033Y127978D01*
X19955Y127968D01*
X19876Y127963D01*
X19798Y127961D01*
X22457Y131030D02*
X22499Y131097D01*
X22543Y131162D01*
X22591Y131224D01*
X22641Y131284D01*
X22694Y131342D01*
X22750Y131397D01*
X22809Y131449D01*
X22869Y131499D01*
X22933Y131546D01*
X22998Y131589D01*
X23065Y131630D01*
X23134Y131667D01*
X23205Y131701D01*
X23277Y131732D01*
X23351Y131759D01*
X23425Y131783D01*
X23501Y131803D01*
X23578Y131819D01*
X23655Y131832D01*
X23733Y131842D01*
X23812Y131847D01*
X23890Y131849D01*
X22458Y131030D02*
X21230Y128779D01*
X18161Y134993D02*
X25527Y134993D01*
X20616Y134993D02*
X20616Y137039D01*
X20618Y137108D01*
X20624Y137176D01*
X20633Y137245D01*
X20647Y137312D01*
X20664Y137379D01*
X20685Y137445D01*
X20709Y137509D01*
X20738Y137572D01*
X20769Y137633D01*
X20804Y137692D01*
X20842Y137750D01*
X20884Y137805D01*
X20928Y137857D01*
X20976Y137907D01*
X21026Y137955D01*
X21078Y137999D01*
X21133Y138041D01*
X21191Y138079D01*
X21250Y138114D01*
X21311Y138145D01*
X21374Y138174D01*
X21438Y138198D01*
X21504Y138219D01*
X21571Y138236D01*
X21638Y138250D01*
X21707Y138259D01*
X21775Y138265D01*
X21844Y138267D01*
X21844Y138266D02*
X25527Y138266D01*
X22662Y142968D02*
X22662Y144809D01*
X22663Y142968D02*
X22665Y142893D01*
X22671Y142818D01*
X22681Y142744D01*
X22694Y142670D01*
X22712Y142597D01*
X22733Y142525D01*
X22758Y142455D01*
X22787Y142386D01*
X22819Y142318D01*
X22855Y142252D01*
X22894Y142188D01*
X22936Y142126D01*
X22982Y142067D01*
X23031Y142010D01*
X23082Y141955D01*
X23137Y141904D01*
X23194Y141855D01*
X23253Y141809D01*
X23315Y141767D01*
X23379Y141728D01*
X23445Y141692D01*
X23513Y141660D01*
X23582Y141631D01*
X23652Y141606D01*
X23724Y141585D01*
X23797Y141567D01*
X23871Y141554D01*
X23945Y141544D01*
X24020Y141538D01*
X24095Y141536D01*
X24170Y141538D01*
X24245Y141544D01*
X24319Y141554D01*
X24393Y141567D01*
X24466Y141585D01*
X24538Y141606D01*
X24608Y141631D01*
X24677Y141660D01*
X24745Y141692D01*
X24811Y141728D01*
X24875Y141767D01*
X24937Y141809D01*
X24996Y141855D01*
X25053Y141904D01*
X25108Y141955D01*
X25159Y142010D01*
X25208Y142067D01*
X25254Y142126D01*
X25296Y142188D01*
X25335Y142252D01*
X25371Y142318D01*
X25403Y142386D01*
X25432Y142455D01*
X25457Y142525D01*
X25478Y142597D01*
X25496Y142670D01*
X25509Y142744D01*
X25519Y142818D01*
X25525Y142893D01*
X25527Y142968D01*
X25527Y144809D01*
X21844Y144809D01*
X21775Y144807D01*
X21707Y144801D01*
X21638Y144792D01*
X21571Y144778D01*
X21504Y144761D01*
X21438Y144740D01*
X21374Y144716D01*
X21311Y144687D01*
X21250Y144656D01*
X21191Y144621D01*
X21133Y144583D01*
X21078Y144541D01*
X21026Y144497D01*
X20976Y144449D01*
X20928Y144399D01*
X20884Y144347D01*
X20843Y144292D01*
X20804Y144234D01*
X20769Y144175D01*
X20738Y144114D01*
X20709Y144051D01*
X20685Y143987D01*
X20664Y143921D01*
X20647Y143854D01*
X20633Y143787D01*
X20624Y143719D01*
X20618Y143650D01*
X20616Y143581D01*
X20616Y141945D01*
X18161Y151393D02*
X25527Y151393D01*
X25527Y149347D01*
X25525Y149278D01*
X25519Y149210D01*
X25510Y149141D01*
X25496Y149074D01*
X25479Y149007D01*
X25458Y148941D01*
X25434Y148877D01*
X25405Y148814D01*
X25374Y148753D01*
X25339Y148694D01*
X25301Y148636D01*
X25259Y148581D01*
X25215Y148529D01*
X25167Y148479D01*
X25117Y148431D01*
X25065Y148387D01*
X25010Y148346D01*
X24952Y148307D01*
X24893Y148272D01*
X24832Y148241D01*
X24769Y148212D01*
X24705Y148188D01*
X24639Y148167D01*
X24572Y148150D01*
X24505Y148136D01*
X24437Y148127D01*
X24368Y148121D01*
X24299Y148119D01*
X21844Y148119D01*
X21775Y148121D01*
X21707Y148127D01*
X21638Y148136D01*
X21571Y148150D01*
X21504Y148167D01*
X21438Y148188D01*
X21374Y148212D01*
X21311Y148241D01*
X21250Y148272D01*
X21191Y148307D01*
X21133Y148345D01*
X21078Y148387D01*
X21026Y148431D01*
X20976Y148479D01*
X20928Y148529D01*
X20884Y148581D01*
X20842Y148636D01*
X20804Y148694D01*
X20769Y148753D01*
X20738Y148814D01*
X20709Y148877D01*
X20685Y148941D01*
X20664Y149007D01*
X20647Y149074D01*
X20633Y149141D01*
X20624Y149210D01*
X20618Y149278D01*
X20616Y149347D01*
X20616Y151393D01*
X22253Y154744D02*
X23890Y154744D01*
X22253Y154743D02*
X22174Y154745D01*
X22095Y154751D01*
X22016Y154760D01*
X21938Y154773D01*
X21861Y154791D01*
X21785Y154811D01*
X21710Y154836D01*
X21636Y154864D01*
X21563Y154895D01*
X21492Y154931D01*
X21423Y154969D01*
X21356Y155011D01*
X21291Y155056D01*
X21228Y155104D01*
X21167Y155155D01*
X21110Y155209D01*
X21054Y155265D01*
X21002Y155324D01*
X20952Y155386D01*
X20906Y155450D01*
X20862Y155516D01*
X20822Y155584D01*
X20786Y155654D01*
X20752Y155726D01*
X20722Y155800D01*
X20696Y155874D01*
X20673Y155950D01*
X20655Y156027D01*
X20639Y156104D01*
X20628Y156183D01*
X20620Y156261D01*
X20616Y156340D01*
X20616Y156420D01*
X20620Y156499D01*
X20628Y156577D01*
X20639Y156656D01*
X20655Y156733D01*
X20673Y156810D01*
X20696Y156886D01*
X20722Y156960D01*
X20752Y157034D01*
X20786Y157106D01*
X20822Y157176D01*
X20862Y157244D01*
X20906Y157310D01*
X20952Y157374D01*
X21002Y157436D01*
X21054Y157495D01*
X21110Y157551D01*
X21167Y157605D01*
X21228Y157656D01*
X21291Y157704D01*
X21356Y157749D01*
X21423Y157791D01*
X21492Y157829D01*
X21563Y157865D01*
X21636Y157896D01*
X21710Y157924D01*
X21785Y157949D01*
X21861Y157969D01*
X21938Y157987D01*
X22016Y158000D01*
X22095Y158009D01*
X22174Y158015D01*
X22253Y158017D01*
X23890Y158017D01*
X23969Y158015D01*
X24048Y158009D01*
X24127Y158000D01*
X24205Y157987D01*
X24282Y157969D01*
X24358Y157949D01*
X24433Y157924D01*
X24507Y157896D01*
X24580Y157865D01*
X24651Y157829D01*
X24720Y157791D01*
X24787Y157749D01*
X24852Y157704D01*
X24915Y157656D01*
X24976Y157605D01*
X25033Y157551D01*
X25089Y157495D01*
X25141Y157436D01*
X25191Y157374D01*
X25237Y157310D01*
X25281Y157244D01*
X25321Y157176D01*
X25357Y157106D01*
X25391Y157034D01*
X25421Y156960D01*
X25447Y156886D01*
X25470Y156810D01*
X25488Y156733D01*
X25504Y156656D01*
X25515Y156577D01*
X25523Y156499D01*
X25527Y156420D01*
X25527Y156340D01*
X25523Y156261D01*
X25515Y156183D01*
X25504Y156104D01*
X25488Y156027D01*
X25470Y155950D01*
X25447Y155874D01*
X25421Y155800D01*
X25391Y155726D01*
X25357Y155654D01*
X25321Y155584D01*
X25281Y155516D01*
X25237Y155450D01*
X25191Y155386D01*
X25141Y155324D01*
X25089Y155265D01*
X25033Y155209D01*
X24976Y155155D01*
X24915Y155104D01*
X24852Y155056D01*
X24787Y155011D01*
X24720Y154969D01*
X24651Y154931D01*
X24580Y154895D01*
X24507Y154864D01*
X24433Y154836D01*
X24358Y154811D01*
X24282Y154791D01*
X24205Y154773D01*
X24127Y154760D01*
X24048Y154751D01*
X23969Y154745D01*
X23890Y154743D01*
X25527Y161477D02*
X19389Y161477D01*
X19320Y161479D01*
X19252Y161485D01*
X19183Y161494D01*
X19116Y161508D01*
X19049Y161525D01*
X18983Y161546D01*
X18919Y161570D01*
X18856Y161599D01*
X18795Y161630D01*
X18736Y161665D01*
X18678Y161703D01*
X18623Y161745D01*
X18571Y161789D01*
X18521Y161837D01*
X18473Y161887D01*
X18429Y161939D01*
X18388Y161994D01*
X18349Y162052D01*
X18314Y162111D01*
X18283Y162172D01*
X18254Y162235D01*
X18230Y162299D01*
X18209Y162365D01*
X18192Y162432D01*
X18178Y162499D01*
X18169Y162567D01*
X18163Y162636D01*
X18161Y162705D01*
X18161Y163114D01*
X20616Y163114D02*
X20616Y160658D01*
X19389Y165622D02*
X25527Y165622D01*
X19389Y165622D02*
X19320Y165624D01*
X19252Y165630D01*
X19183Y165639D01*
X19116Y165653D01*
X19049Y165670D01*
X18983Y165691D01*
X18919Y165715D01*
X18856Y165744D01*
X18795Y165775D01*
X18736Y165810D01*
X18678Y165848D01*
X18623Y165890D01*
X18571Y165934D01*
X18521Y165982D01*
X18473Y166032D01*
X18429Y166084D01*
X18388Y166139D01*
X18349Y166197D01*
X18314Y166256D01*
X18283Y166317D01*
X18254Y166380D01*
X18230Y166444D01*
X18209Y166510D01*
X18192Y166577D01*
X18178Y166644D01*
X18169Y166712D01*
X18163Y166781D01*
X18161Y166850D01*
X18161Y167259D01*
X20616Y167259D02*
X20616Y164804D01*
X33316Y202678D02*
X33316Y208407D01*
X33316Y202678D02*
X33314Y202600D01*
X33309Y202522D01*
X33299Y202445D01*
X33286Y202368D01*
X33270Y202292D01*
X33250Y202217D01*
X33226Y202143D01*
X33199Y202070D01*
X33168Y201998D01*
X33134Y201928D01*
X33097Y201860D01*
X33056Y201793D01*
X33012Y201728D01*
X32966Y201666D01*
X32916Y201606D01*
X32864Y201548D01*
X32809Y201493D01*
X32751Y201441D01*
X32691Y201391D01*
X32629Y201345D01*
X32564Y201301D01*
X32498Y201260D01*
X32429Y201223D01*
X32359Y201189D01*
X32287Y201158D01*
X32214Y201131D01*
X32140Y201107D01*
X32065Y201087D01*
X31989Y201071D01*
X31912Y201058D01*
X31835Y201048D01*
X31757Y201043D01*
X31679Y201041D01*
X30861Y201041D01*
X37010Y201041D02*
X37010Y208407D01*
X37010Y201041D02*
X40284Y201041D01*
X44704Y201041D02*
X46341Y201041D01*
X44704Y201041D02*
X44626Y201043D01*
X44548Y201048D01*
X44471Y201058D01*
X44394Y201071D01*
X44318Y201087D01*
X44243Y201107D01*
X44169Y201131D01*
X44096Y201158D01*
X44024Y201189D01*
X43954Y201223D01*
X43886Y201260D01*
X43819Y201301D01*
X43754Y201345D01*
X43692Y201391D01*
X43632Y201441D01*
X43574Y201493D01*
X43519Y201548D01*
X43467Y201606D01*
X43417Y201666D01*
X43371Y201728D01*
X43327Y201793D01*
X43286Y201860D01*
X43249Y201928D01*
X43215Y201998D01*
X43184Y202070D01*
X43157Y202143D01*
X43133Y202217D01*
X43113Y202292D01*
X43097Y202368D01*
X43084Y202445D01*
X43074Y202522D01*
X43069Y202600D01*
X43067Y202678D01*
X43068Y202678D02*
X43068Y206770D01*
X43067Y206770D02*
X43069Y206850D01*
X43075Y206930D01*
X43085Y207010D01*
X43098Y207089D01*
X43116Y207168D01*
X43137Y207245D01*
X43163Y207321D01*
X43192Y207396D01*
X43224Y207470D01*
X43260Y207542D01*
X43300Y207612D01*
X43343Y207679D01*
X43389Y207745D01*
X43439Y207808D01*
X43491Y207869D01*
X43546Y207928D01*
X43605Y207983D01*
X43665Y208035D01*
X43729Y208085D01*
X43795Y208131D01*
X43862Y208174D01*
X43932Y208214D01*
X44004Y208250D01*
X44078Y208282D01*
X44152Y208311D01*
X44229Y208337D01*
X44306Y208358D01*
X44385Y208376D01*
X44464Y208389D01*
X44544Y208399D01*
X44624Y208405D01*
X44704Y208407D01*
X46341Y208407D01*
X50873Y208407D02*
X50873Y202678D01*
X50871Y202600D01*
X50866Y202522D01*
X50856Y202445D01*
X50843Y202368D01*
X50827Y202292D01*
X50807Y202217D01*
X50783Y202143D01*
X50756Y202070D01*
X50725Y201998D01*
X50691Y201928D01*
X50654Y201860D01*
X50613Y201793D01*
X50569Y201728D01*
X50523Y201666D01*
X50473Y201606D01*
X50421Y201548D01*
X50366Y201493D01*
X50308Y201441D01*
X50248Y201391D01*
X50186Y201345D01*
X50121Y201301D01*
X50055Y201260D01*
X49986Y201223D01*
X49916Y201189D01*
X49844Y201158D01*
X49771Y201131D01*
X49697Y201107D01*
X49622Y201087D01*
X49546Y201071D01*
X49469Y201058D01*
X49392Y201048D01*
X49314Y201043D01*
X49236Y201041D01*
X48417Y201041D01*
X54567Y201041D02*
X54567Y208407D01*
X54567Y201041D02*
X57840Y201041D01*
X62261Y201041D02*
X63898Y201041D01*
X62261Y201041D02*
X62183Y201043D01*
X62105Y201048D01*
X62028Y201058D01*
X61951Y201071D01*
X61875Y201087D01*
X61800Y201107D01*
X61726Y201131D01*
X61653Y201158D01*
X61581Y201189D01*
X61511Y201223D01*
X61443Y201260D01*
X61376Y201301D01*
X61311Y201345D01*
X61249Y201391D01*
X61189Y201441D01*
X61131Y201493D01*
X61076Y201548D01*
X61024Y201606D01*
X60974Y201666D01*
X60928Y201728D01*
X60884Y201793D01*
X60843Y201860D01*
X60806Y201928D01*
X60772Y201998D01*
X60741Y202070D01*
X60714Y202143D01*
X60690Y202217D01*
X60670Y202292D01*
X60654Y202368D01*
X60641Y202445D01*
X60631Y202522D01*
X60626Y202600D01*
X60624Y202678D01*
X60624Y206770D01*
X60626Y206850D01*
X60632Y206930D01*
X60642Y207010D01*
X60655Y207089D01*
X60673Y207168D01*
X60694Y207245D01*
X60720Y207321D01*
X60749Y207396D01*
X60781Y207470D01*
X60817Y207542D01*
X60857Y207612D01*
X60900Y207679D01*
X60946Y207745D01*
X60996Y207808D01*
X61048Y207869D01*
X61103Y207928D01*
X61162Y207983D01*
X61222Y208035D01*
X61286Y208085D01*
X61352Y208131D01*
X61419Y208174D01*
X61489Y208214D01*
X61561Y208250D01*
X61635Y208282D01*
X61709Y208311D01*
X61786Y208337D01*
X61863Y208358D01*
X61942Y208376D01*
X62021Y208389D01*
X62101Y208399D01*
X62181Y208405D01*
X62261Y208407D01*
X63898Y208407D01*
X68429Y208407D02*
X68429Y202678D01*
X68427Y202600D01*
X68422Y202522D01*
X68412Y202445D01*
X68399Y202368D01*
X68383Y202292D01*
X68363Y202217D01*
X68339Y202143D01*
X68312Y202070D01*
X68281Y201998D01*
X68247Y201928D01*
X68210Y201860D01*
X68169Y201793D01*
X68125Y201728D01*
X68079Y201666D01*
X68029Y201606D01*
X67977Y201548D01*
X67922Y201493D01*
X67864Y201441D01*
X67804Y201391D01*
X67742Y201345D01*
X67677Y201301D01*
X67611Y201260D01*
X67542Y201223D01*
X67472Y201189D01*
X67400Y201158D01*
X67327Y201131D01*
X67253Y201107D01*
X67178Y201087D01*
X67102Y201071D01*
X67025Y201058D01*
X66948Y201048D01*
X66870Y201043D01*
X66792Y201041D01*
X65974Y201041D01*
X72123Y201041D02*
X72123Y208407D01*
X72123Y201041D02*
X75397Y201041D01*
X79817Y201041D02*
X81454Y201041D01*
X79817Y201041D02*
X79739Y201043D01*
X79661Y201048D01*
X79584Y201058D01*
X79507Y201071D01*
X79431Y201087D01*
X79356Y201107D01*
X79282Y201131D01*
X79209Y201158D01*
X79137Y201189D01*
X79067Y201223D01*
X78999Y201260D01*
X78932Y201301D01*
X78867Y201345D01*
X78805Y201391D01*
X78745Y201441D01*
X78687Y201493D01*
X78632Y201548D01*
X78580Y201606D01*
X78530Y201666D01*
X78484Y201728D01*
X78440Y201793D01*
X78399Y201860D01*
X78362Y201928D01*
X78328Y201998D01*
X78297Y202070D01*
X78270Y202143D01*
X78246Y202217D01*
X78226Y202292D01*
X78210Y202368D01*
X78197Y202445D01*
X78187Y202522D01*
X78182Y202600D01*
X78180Y202678D01*
X78180Y206770D01*
X78182Y206850D01*
X78188Y206930D01*
X78198Y207010D01*
X78211Y207089D01*
X78229Y207168D01*
X78250Y207245D01*
X78276Y207321D01*
X78305Y207396D01*
X78337Y207470D01*
X78373Y207542D01*
X78413Y207612D01*
X78456Y207679D01*
X78502Y207745D01*
X78552Y207808D01*
X78604Y207869D01*
X78659Y207928D01*
X78718Y207983D01*
X78778Y208035D01*
X78842Y208085D01*
X78908Y208131D01*
X78975Y208174D01*
X79045Y208214D01*
X79117Y208250D01*
X79191Y208282D01*
X79265Y208311D01*
X79342Y208337D01*
X79419Y208358D01*
X79498Y208376D01*
X79577Y208389D01*
X79657Y208399D01*
X79737Y208405D01*
X79817Y208407D01*
X81454Y208407D01*
X85985Y208407D02*
X85985Y202678D01*
X85986Y202678D02*
X85984Y202600D01*
X85979Y202522D01*
X85969Y202445D01*
X85956Y202368D01*
X85940Y202292D01*
X85920Y202217D01*
X85896Y202143D01*
X85869Y202070D01*
X85838Y201998D01*
X85804Y201928D01*
X85767Y201860D01*
X85726Y201793D01*
X85682Y201728D01*
X85636Y201666D01*
X85586Y201606D01*
X85534Y201548D01*
X85479Y201493D01*
X85421Y201441D01*
X85361Y201391D01*
X85299Y201345D01*
X85234Y201301D01*
X85168Y201260D01*
X85099Y201223D01*
X85029Y201189D01*
X84957Y201158D01*
X84884Y201131D01*
X84810Y201107D01*
X84735Y201087D01*
X84659Y201071D01*
X84582Y201058D01*
X84505Y201048D01*
X84427Y201043D01*
X84349Y201041D01*
X83530Y201041D01*
X89679Y201041D02*
X89679Y208407D01*
X89679Y201041D02*
X92953Y201041D01*
X97374Y201041D02*
X99010Y201041D01*
X97374Y201041D02*
X97296Y201043D01*
X97218Y201048D01*
X97141Y201058D01*
X97064Y201071D01*
X96988Y201087D01*
X96913Y201107D01*
X96839Y201131D01*
X96766Y201158D01*
X96694Y201189D01*
X96624Y201223D01*
X96556Y201260D01*
X96489Y201301D01*
X96424Y201345D01*
X96362Y201391D01*
X96302Y201441D01*
X96244Y201493D01*
X96189Y201548D01*
X96137Y201606D01*
X96087Y201666D01*
X96041Y201728D01*
X95997Y201793D01*
X95956Y201860D01*
X95919Y201928D01*
X95885Y201998D01*
X95854Y202070D01*
X95827Y202143D01*
X95803Y202217D01*
X95783Y202292D01*
X95767Y202368D01*
X95754Y202445D01*
X95744Y202522D01*
X95739Y202600D01*
X95737Y202678D01*
X95737Y206770D01*
X95739Y206850D01*
X95745Y206930D01*
X95755Y207010D01*
X95768Y207089D01*
X95786Y207168D01*
X95807Y207245D01*
X95833Y207321D01*
X95862Y207396D01*
X95894Y207470D01*
X95930Y207542D01*
X95970Y207612D01*
X96013Y207679D01*
X96059Y207745D01*
X96109Y207808D01*
X96161Y207869D01*
X96216Y207928D01*
X96275Y207983D01*
X96335Y208035D01*
X96399Y208085D01*
X96465Y208131D01*
X96532Y208174D01*
X96602Y208214D01*
X96674Y208250D01*
X96748Y208282D01*
X96822Y208311D01*
X96899Y208337D01*
X96976Y208358D01*
X97055Y208376D01*
X97134Y208389D01*
X97214Y208399D01*
X97294Y208405D01*
X97374Y208407D01*
X99010Y208407D01*
M02*
